%TF.GenerationSoftware,KiCad,Pcbnew,10.0.4*%
%TF.CreationDate,2026-09-11T09:40:58+02:00*%
%TF.ProjectId,led_chaser_THT,6c65645f-6368-4617-9365-725f5448542e,1.0*%
%TF.SameCoordinates,Original*%
%TF.FileFunction,Copper,L1,Top*%
%TF.FilePolarity,Positive*%
%FSLAX46Y46*%
G04 Gerber Fmt 4.6, Leading zero omitted, Abs format (unit mm)*
G04 Created by KiCad (PCBNEW 10.0.4) date 2026-09-11 09:40:58*
%MOMM*%
%LPD*%
G01*
G04 APERTURE LIST*
G04 Aperture macros list*
%AMRoundRect*
0 Rectangle with rounded corners*
0 $1 Rounding radius*
0 $2 $3 $4 $5 $6 $7 $8 $9 X,Y pos of 4 corners*
0 Add a 4 corners polygon primitive as box body*
4,1,4,$2,$3,$4,$5,$6,$7,$8,$9,$2,$3,0*
0 Add four circle primitives for the rounded corners*
1,1,$1+$1,$2,$3*
1,1,$1+$1,$4,$5*
1,1,$1+$1,$6,$7*
1,1,$1+$1,$8,$9*
0 Add four rect primitives between the rounded corners*
20,1,$1+$1,$2,$3,$4,$5,0*
20,1,$1+$1,$4,$5,$6,$7,0*
20,1,$1+$1,$6,$7,$8,$9,0*
20,1,$1+$1,$8,$9,$2,$3,0*%
G04 Aperture macros list end*
%TA.AperFunction,ComponentPad*%
%ADD10C,1.600000*%
%TD*%
%TA.AperFunction,ComponentPad*%
%ADD11R,1.800000X1.800000*%
%TD*%
%TA.AperFunction,ComponentPad*%
%ADD12C,1.800000*%
%TD*%
%TA.AperFunction,SMDPad,CuDef*%
%ADD13C,2.500000*%
%TD*%
%TA.AperFunction,ComponentPad*%
%ADD14RoundRect,0.250000X-0.550000X-0.550000X0.550000X-0.550000X0.550000X0.550000X-0.550000X0.550000X0*%
%TD*%
%TA.AperFunction,ComponentPad*%
%ADD15RoundRect,0.250000X0.550000X0.550000X-0.550000X0.550000X-0.550000X-0.550000X0.550000X-0.550000X0*%
%TD*%
%TA.AperFunction,ComponentPad*%
%ADD16RoundRect,0.250000X0.600000X0.750000X-0.600000X0.750000X-0.600000X-0.750000X0.600000X-0.750000X0*%
%TD*%
%TA.AperFunction,ComponentPad*%
%ADD17O,1.700000X2.000000*%
%TD*%
%TA.AperFunction,ComponentPad*%
%ADD18C,1.260000*%
%TD*%
%TA.AperFunction,ComponentPad*%
%ADD19RoundRect,0.250000X-0.550000X0.550000X-0.550000X-0.550000X0.550000X-0.550000X0.550000X0.550000X0*%
%TD*%
%TA.AperFunction,ViaPad*%
%ADD20C,0.600000*%
%TD*%
%TA.AperFunction,Conductor*%
%ADD21C,0.200000*%
%TD*%
%TA.AperFunction,Conductor*%
%ADD22C,0.400000*%
%TD*%
G04 APERTURE END LIST*
D10*
%TO.P,R3,1*%
%TO.N,Net-(D1-K)*%
X113460000Y-87880000D03*
%TO.P,R3,2*%
%TO.N,GND*%
X103300000Y-87880000D03*
%TD*%
%TO.P,C2,1*%
%TO.N,Net-(U1-CONT)*%
X99880000Y-72420000D03*
%TO.P,C2,2*%
%TO.N,GND*%
X94880000Y-72420000D03*
%TD*%
D11*
%TO.P,D8,1,K_1*%
%TO.N,Net-(D1-K)*%
X122150000Y-56920000D03*
D12*
%TO.P,D8,2,A_2*%
%TO.N,Net-(D8-A)*%
X119610000Y-56920000D03*
%TD*%
D11*
%TO.P,D3,1,K_1*%
%TO.N,Net-(D1-K)*%
X119650000Y-74420000D03*
D12*
%TO.P,D3,2,A_2*%
%TO.N,Net-(D3-A)*%
X117110000Y-74420000D03*
%TD*%
D13*
%TO.P,TP1,1,1_1*%
%TO.N,VCC*%
X89380000Y-67920000D03*
%TD*%
D11*
%TO.P,D10,1,K_1*%
%TO.N,Net-(D1-K)*%
X122150000Y-49920000D03*
D12*
%TO.P,D10,2,A_2*%
%TO.N,Net-(D10-A)*%
X119610000Y-49920000D03*
%TD*%
D14*
%TO.P,C5,1*%
%TO.N,VCC*%
X92880000Y-78420000D03*
D10*
%TO.P,C5,2*%
%TO.N,GND*%
X95380000Y-78420000D03*
%TD*%
D11*
%TO.P,D5,1,K_1*%
%TO.N,Net-(D1-K)*%
X119650000Y-67420000D03*
D12*
%TO.P,D5,2,A_2*%
%TO.N,Net-(D5-A)*%
X117110000Y-67420000D03*
%TD*%
D11*
%TO.P,D4,1,K_1*%
%TO.N,Net-(D1-K)*%
X122150000Y-70920000D03*
D12*
%TO.P,D4,2,A_2*%
%TO.N,Net-(D4-A)*%
X119610000Y-70920000D03*
%TD*%
D11*
%TO.P,D1,1,K_1*%
%TO.N,Net-(D1-K)*%
X119650000Y-81420000D03*
D12*
%TO.P,D1,2,A_2*%
%TO.N,Net-(D1-A)*%
X117110000Y-81420000D03*
%TD*%
D11*
%TO.P,D2,1,K_1*%
%TO.N,Net-(D1-K)*%
X122150000Y-77920000D03*
D12*
%TO.P,D2,2,A_2*%
%TO.N,Net-(D2-A)*%
X119610000Y-77920000D03*
%TD*%
D15*
%TO.P,U2,1,Q5_1*%
%TO.N,Net-(D6-A)*%
X112185000Y-79920000D03*
D10*
%TO.P,U2,2,Q1_2*%
%TO.N,Net-(D2-A)*%
X112185000Y-77380000D03*
%TO.P,U2,3,Q0_3*%
%TO.N,Net-(D1-A)*%
X112185000Y-74840000D03*
%TO.P,U2,4,Q2_4*%
%TO.N,Net-(D3-A)*%
X112185000Y-72300000D03*
%TO.P,U2,5,Q6_5*%
%TO.N,Net-(D7-A)*%
X112185000Y-69760000D03*
%TO.P,U2,6,Q7_6*%
%TO.N,Net-(D8-A)*%
X112185000Y-67220000D03*
%TO.P,U2,7,Q3_7*%
%TO.N,Net-(D4-A)*%
X112185000Y-64680000D03*
%TO.P,U2,8,VSS_8*%
%TO.N,GND*%
X112185000Y-62140000D03*
%TO.P,U2,9,Q8_9*%
%TO.N,Net-(D9-A)*%
X104565000Y-62140000D03*
%TO.P,U2,10,Q4_10*%
%TO.N,Net-(D5-A)*%
X104565000Y-64680000D03*
%TO.P,U2,11,Q9_11*%
%TO.N,Net-(D10-A)*%
X104565000Y-67220000D03*
%TO.P,U2,12,Cout_12*%
%TO.N,unconnected-(U2-Cout-Pad12)*%
X104565000Y-69760000D03*
%TO.P,U2,13,CKEN_13*%
%TO.N,/ENABLE*%
X104565000Y-72300000D03*
%TO.P,U2,14,CLK_14*%
%TO.N,/CLOCK*%
X104565000Y-74840000D03*
%TO.P,U2,15,Reset_15*%
%TO.N,GND*%
X104565000Y-77380000D03*
%TO.P,U2,16,VDD_16*%
%TO.N,VCC*%
X104565000Y-79920000D03*
%TD*%
%TO.P,C3,1*%
%TO.N,VCC*%
X99685000Y-56920000D03*
%TO.P,C3,2*%
%TO.N,GND*%
X94685000Y-56920000D03*
%TD*%
D13*
%TO.P,TP4,1,1_1*%
%TO.N,/ENABLE*%
X115380000Y-45420000D03*
%TD*%
D14*
%TO.P,U1,1,GND_1*%
%TO.N,GND*%
X93380000Y-61420000D03*
D10*
%TO.P,U1,2,TRIG_2*%
%TO.N,Net-(U1-THRES)*%
X93380000Y-63960000D03*
%TO.P,U1,3,OUT_3*%
%TO.N,/CLOCK*%
X93380000Y-66500000D03*
%TO.P,U1,4,~{RST}_4*%
%TO.N,VCC*%
X93380000Y-69040000D03*
%TO.P,U1,5,CONT_5*%
%TO.N,Net-(U1-CONT)*%
X101000000Y-69040000D03*
%TO.P,U1,6,THRES_6*%
%TO.N,Net-(U1-THRES)*%
X101000000Y-66500000D03*
%TO.P,U1,7,DISCH_7*%
%TO.N,Net-(U1-DISCH)*%
X101000000Y-63960000D03*
%TO.P,U1,8,VCC_8*%
%TO.N,VCC*%
X101000000Y-61420000D03*
%TD*%
%TO.P,C4,1*%
%TO.N,VCC*%
X105880000Y-84380000D03*
%TO.P,C4,2*%
%TO.N,GND*%
X110880000Y-84380000D03*
%TD*%
D11*
%TO.P,D6,1,K_1*%
%TO.N,Net-(D1-K)*%
X122150000Y-63920000D03*
D12*
%TO.P,D6,2,A_2*%
%TO.N,Net-(D6-A)*%
X119610000Y-63920000D03*
%TD*%
D11*
%TO.P,D9,1,K_1*%
%TO.N,Net-(D1-K)*%
X119650000Y-53420000D03*
D12*
%TO.P,D9,2,A_2*%
%TO.N,Net-(D9-A)*%
X117110000Y-53420000D03*
%TD*%
D10*
%TO.P,R4,1*%
%TO.N,VCC*%
X103300000Y-58920000D03*
%TO.P,R4,2*%
%TO.N,/ENABLE*%
X113460000Y-58920000D03*
%TD*%
%TO.P,R2,1*%
%TO.N,Net-(U1-DISCH)*%
X101880000Y-53500000D03*
%TO.P,R2,2*%
%TO.N,Net-(R2-Pad2)*%
X101880000Y-43340000D03*
%TD*%
D15*
%TO.P,C1,1*%
%TO.N,Net-(U1-THRES)*%
X101380000Y-78420000D03*
D10*
%TO.P,C1,2*%
%TO.N,GND*%
X98880000Y-78420000D03*
%TD*%
D16*
%TO.P,J1,1,Pin_1_1*%
%TO.N,GND*%
X98630000Y-85945000D03*
D17*
%TO.P,J1,2,Pin_2_2*%
%TO.N,Net-(D11-A)*%
X96130000Y-85945000D03*
%TD*%
D11*
%TO.P,D7,1,K_1*%
%TO.N,Net-(D1-K)*%
X119650000Y-60420000D03*
D12*
%TO.P,D7,2,A_2*%
%TO.N,Net-(D7-A)*%
X117110000Y-60420000D03*
%TD*%
D18*
%TO.P,RV1,1,1_1*%
%TO.N,Net-(R2-Pad2)*%
X110920000Y-44920000D03*
%TO.P,RV1,2,2_2*%
X108380000Y-47460000D03*
%TO.P,RV1,3,3_3*%
%TO.N,Net-(U1-THRES)*%
X105840000Y-44920000D03*
%TD*%
D10*
%TO.P,R1,1*%
%TO.N,VCC*%
X97880000Y-43340000D03*
%TO.P,R1,2*%
%TO.N,Net-(U1-DISCH)*%
X97880000Y-53500000D03*
%TD*%
D13*
%TO.P,TP3,1,1_1*%
%TO.N,/CLOCK*%
X89380000Y-55920000D03*
%TD*%
D14*
%TO.P,SW1,1,A_1*%
%TO.N,GND*%
X104575000Y-54932500D03*
D10*
%TO.P,SW1,2,B_2*%
%TO.N,/ENABLE*%
X112195000Y-54932500D03*
%TD*%
D19*
%TO.P,D11,1,K_1*%
%TO.N,VCC*%
X89380000Y-72340000D03*
D10*
%TO.P,D11,2,A_2*%
%TO.N,Net-(D11-A)*%
X89380000Y-82500000D03*
%TD*%
D13*
%TO.P,TP2,1,1_1*%
%TO.N,GND*%
X89380000Y-61920000D03*
%TD*%
D20*
%TO.N,Net-(D10-A)*%
X111500000Y-50000000D03*
%TO.N,Net-(D4-A)*%
X110580000Y-71020000D03*
%TO.N,Net-(D1-A)*%
X115580000Y-74820000D03*
%TO.N,Net-(D9-A)*%
X114980000Y-60020000D03*
%TO.N,/ENABLE*%
X107000000Y-58920000D03*
X113380000Y-45420000D03*
%TO.N,/CLOCK*%
X91880000Y-55920000D03*
X102780000Y-67620000D03*
%TD*%
%TO.N,Net-(D10-A)*%
D21*
X111580000Y-49920000D02*
X119610000Y-49920000D01*
X111500000Y-50000000D02*
X111580000Y-49920000D01*
%TO.N,/ENABLE*%
X107000000Y-58920000D02*
X113460000Y-58920000D01*
%TO.N,Net-(U1-CONT)*%
X99880000Y-70160000D02*
X101000000Y-69040000D01*
X99880000Y-72420000D02*
X99880000Y-70160000D01*
%TO.N,Net-(D3-A)*%
X112185000Y-72300000D02*
X114990000Y-72300000D01*
X114990000Y-72300000D02*
X117110000Y-74420000D01*
%TO.N,VCC*%
D22*
X94380000Y-79920000D02*
X104565000Y-79920000D01*
X90500000Y-69040000D02*
X89380000Y-67920000D01*
X92880000Y-78420000D02*
X94380000Y-79920000D01*
X93380000Y-69040000D02*
X90500000Y-69040000D01*
%TO.N,Net-(D5-A)*%
D21*
X115470000Y-65780000D02*
X117110000Y-67420000D01*
X104565000Y-64680000D02*
X105665000Y-65780000D01*
X105665000Y-65780000D02*
X115470000Y-65780000D01*
%TO.N,Net-(D4-A)*%
X119510000Y-71020000D02*
X119610000Y-70920000D01*
X110580000Y-71020000D02*
X119510000Y-71020000D01*
%TO.N,Net-(D1-A)*%
X112185000Y-74840000D02*
X115560000Y-74840000D01*
X115560000Y-74840000D02*
X115580000Y-74820000D01*
%TO.N,Net-(D2-A)*%
X119610000Y-77920000D02*
X112725000Y-77920000D01*
X112725000Y-77920000D02*
X112185000Y-77380000D01*
%TO.N,Net-(D9-A)*%
X106685000Y-60020000D02*
X114980000Y-60020000D01*
X104565000Y-62140000D02*
X106685000Y-60020000D01*
%TO.N,/ENABLE*%
X113380000Y-45420000D02*
X115380000Y-45420000D01*
%TO.N,/CLOCK*%
X93380000Y-66500000D02*
X94500000Y-67620000D01*
X94500000Y-67620000D02*
X102780000Y-67620000D01*
X91880000Y-55920000D02*
X89380000Y-55920000D01*
%TO.N,Net-(U1-THRES)*%
X98460000Y-63960000D02*
X101000000Y-66500000D01*
X93380000Y-63960000D02*
X98460000Y-63960000D01*
%TO.N,Net-(U1-DISCH)*%
X97880000Y-53500000D02*
X101880000Y-53500000D01*
%TO.N,Net-(R2-Pad2)*%
X106000000Y-47460000D02*
X101880000Y-43340000D01*
X110920000Y-44920000D02*
X108380000Y-47460000D01*
X108380000Y-47460000D02*
X106000000Y-47460000D01*
%TO.N,Net-(D11-A)*%
D22*
X92825000Y-85945000D02*
X89380000Y-82500000D01*
X96130000Y-85945000D02*
X92825000Y-85945000D01*
%TD*%
%TA.AperFunction,Conductor*%
%TO.N,GND*%
G36*
X120883736Y-40920726D02*
G01*
X121173796Y-40938271D01*
X121188659Y-40940076D01*
X121470797Y-40991780D01*
X121485334Y-40995363D01*
X121759182Y-41080698D01*
X121773163Y-41086000D01*
X122034734Y-41203724D01*
X122047987Y-41210680D01*
X122293458Y-41359071D01*
X122305776Y-41367573D01*
X122531573Y-41544474D01*
X122542781Y-41554404D01*
X122745595Y-41757218D01*
X122755525Y-41768426D01*
X122932422Y-41994217D01*
X122940928Y-42006541D01*
X123089319Y-42252012D01*
X123096277Y-42265269D01*
X123213994Y-42526823D01*
X123219304Y-42540825D01*
X123304635Y-42814664D01*
X123308219Y-42829202D01*
X123359923Y-43111340D01*
X123361728Y-43126205D01*
X123379274Y-43416263D01*
X123379500Y-43423750D01*
X123379500Y-48430122D01*
X123359815Y-48497161D01*
X123307011Y-48542916D01*
X123237853Y-48552860D01*
X123212168Y-48546304D01*
X123157485Y-48525909D01*
X123157483Y-48525908D01*
X123097883Y-48519501D01*
X123097881Y-48519500D01*
X123097873Y-48519500D01*
X123097864Y-48519500D01*
X121202129Y-48519500D01*
X121202123Y-48519501D01*
X121142516Y-48525908D01*
X121007671Y-48576202D01*
X121007664Y-48576206D01*
X120892455Y-48662452D01*
X120892452Y-48662455D01*
X120806206Y-48777664D01*
X120806203Y-48777669D01*
X120776398Y-48857581D01*
X120734526Y-48913514D01*
X120669062Y-48937931D01*
X120600789Y-48923079D01*
X120572535Y-48901928D01*
X120522363Y-48851756D01*
X120522358Y-48851752D01*
X120344025Y-48722187D01*
X120344024Y-48722186D01*
X120344022Y-48722185D01*
X120226791Y-48662452D01*
X120147606Y-48622104D01*
X120147603Y-48622103D01*
X119937952Y-48553985D01*
X119829086Y-48536742D01*
X119720222Y-48519500D01*
X119499778Y-48519500D01*
X119427201Y-48530995D01*
X119282047Y-48553985D01*
X119072396Y-48622103D01*
X119072393Y-48622104D01*
X118875974Y-48722187D01*
X118697641Y-48851752D01*
X118697636Y-48851756D01*
X118541756Y-49007636D01*
X118541752Y-49007641D01*
X118412185Y-49185976D01*
X118378648Y-49251796D01*
X118330674Y-49302591D01*
X118268164Y-49319500D01*
X111960037Y-49319500D01*
X111892998Y-49299815D01*
X111891147Y-49298602D01*
X111879181Y-49290606D01*
X111879177Y-49290604D01*
X111733501Y-49230264D01*
X111733489Y-49230261D01*
X111578845Y-49199500D01*
X111578842Y-49199500D01*
X111421158Y-49199500D01*
X111421155Y-49199500D01*
X111266510Y-49230261D01*
X111266498Y-49230264D01*
X111120827Y-49290602D01*
X111120814Y-49290609D01*
X110989711Y-49378210D01*
X110989707Y-49378213D01*
X110878213Y-49489707D01*
X110878210Y-49489711D01*
X110790609Y-49620814D01*
X110790602Y-49620827D01*
X110730264Y-49766498D01*
X110730261Y-49766510D01*
X110699500Y-49921153D01*
X110699500Y-50078846D01*
X110730261Y-50233489D01*
X110730264Y-50233501D01*
X110790602Y-50379172D01*
X110790609Y-50379185D01*
X110878210Y-50510288D01*
X110878213Y-50510292D01*
X110989707Y-50621786D01*
X110989711Y-50621789D01*
X111120814Y-50709390D01*
X111120827Y-50709397D01*
X111266498Y-50769735D01*
X111266503Y-50769737D01*
X111421153Y-50800499D01*
X111421156Y-50800500D01*
X111421158Y-50800500D01*
X111578844Y-50800500D01*
X111578845Y-50800499D01*
X111733497Y-50769737D01*
X111879179Y-50709394D01*
X112010289Y-50621789D01*
X112075260Y-50556817D01*
X112136581Y-50523334D01*
X112162940Y-50520500D01*
X118268164Y-50520500D01*
X118335203Y-50540185D01*
X118378648Y-50588204D01*
X118412185Y-50654023D01*
X118541752Y-50832358D01*
X118541756Y-50832363D01*
X118697636Y-50988243D01*
X118697641Y-50988247D01*
X118799606Y-51062328D01*
X118875978Y-51117815D01*
X119004375Y-51183237D01*
X119072393Y-51217895D01*
X119072396Y-51217896D01*
X119177221Y-51251955D01*
X119282049Y-51286015D01*
X119499778Y-51320500D01*
X119499779Y-51320500D01*
X119720221Y-51320500D01*
X119720222Y-51320500D01*
X119937951Y-51286015D01*
X120147606Y-51217895D01*
X120344022Y-51117815D01*
X120522365Y-50988242D01*
X120572536Y-50938070D01*
X120633857Y-50904586D01*
X120703548Y-50909570D01*
X120759482Y-50951441D01*
X120776398Y-50982419D01*
X120806202Y-51062328D01*
X120806206Y-51062335D01*
X120892452Y-51177544D01*
X120892455Y-51177547D01*
X121007664Y-51263793D01*
X121007671Y-51263797D01*
X121142517Y-51314091D01*
X121142516Y-51314091D01*
X121149444Y-51314835D01*
X121202127Y-51320500D01*
X123097872Y-51320499D01*
X123157483Y-51314091D01*
X123212167Y-51293694D01*
X123281858Y-51288711D01*
X123343181Y-51322196D01*
X123376666Y-51383519D01*
X123379500Y-51409877D01*
X123379500Y-55430122D01*
X123359815Y-55497161D01*
X123307011Y-55542916D01*
X123237853Y-55552860D01*
X123212168Y-55546304D01*
X123157485Y-55525909D01*
X123157483Y-55525908D01*
X123097883Y-55519501D01*
X123097881Y-55519500D01*
X123097873Y-55519500D01*
X123097864Y-55519500D01*
X121202129Y-55519500D01*
X121202123Y-55519501D01*
X121142516Y-55525908D01*
X121007671Y-55576202D01*
X121007664Y-55576206D01*
X120892455Y-55662452D01*
X120892452Y-55662455D01*
X120806206Y-55777664D01*
X120806203Y-55777669D01*
X120776398Y-55857581D01*
X120734526Y-55913514D01*
X120669062Y-55937931D01*
X120600789Y-55923079D01*
X120572535Y-55901928D01*
X120522363Y-55851756D01*
X120522358Y-55851752D01*
X120344025Y-55722187D01*
X120344024Y-55722186D01*
X120344022Y-55722185D01*
X120226791Y-55662452D01*
X120147606Y-55622104D01*
X120147603Y-55622103D01*
X119937952Y-55553985D01*
X119802130Y-55532473D01*
X119720222Y-55519500D01*
X119499778Y-55519500D01*
X119427201Y-55530995D01*
X119282047Y-55553985D01*
X119072396Y-55622103D01*
X119072393Y-55622104D01*
X118875974Y-55722187D01*
X118697641Y-55851752D01*
X118697636Y-55851756D01*
X118541756Y-56007636D01*
X118541752Y-56007641D01*
X118412187Y-56185974D01*
X118312104Y-56382393D01*
X118312103Y-56382396D01*
X118243985Y-56592047D01*
X118209500Y-56809778D01*
X118209500Y-57030221D01*
X118243985Y-57247952D01*
X118312103Y-57457603D01*
X118312104Y-57457606D01*
X118380122Y-57591096D01*
X118410911Y-57651522D01*
X118412187Y-57654025D01*
X118541752Y-57832358D01*
X118541756Y-57832363D01*
X118697636Y-57988243D01*
X118697641Y-57988247D01*
X118853192Y-58101260D01*
X118875978Y-58117815D01*
X119004375Y-58183237D01*
X119072393Y-58217895D01*
X119072396Y-58217896D01*
X119135472Y-58238390D01*
X119282049Y-58286015D01*
X119499778Y-58320500D01*
X119499779Y-58320500D01*
X119720221Y-58320500D01*
X119720222Y-58320500D01*
X119937951Y-58286015D01*
X120147606Y-58217895D01*
X120344022Y-58117815D01*
X120522365Y-57988242D01*
X120572536Y-57938070D01*
X120633857Y-57904586D01*
X120703548Y-57909570D01*
X120759482Y-57951441D01*
X120776398Y-57982419D01*
X120806202Y-58062328D01*
X120806206Y-58062335D01*
X120892452Y-58177544D01*
X120892455Y-58177547D01*
X121007664Y-58263793D01*
X121007671Y-58263797D01*
X121142517Y-58314091D01*
X121142516Y-58314091D01*
X121149444Y-58314835D01*
X121202127Y-58320500D01*
X123097872Y-58320499D01*
X123157483Y-58314091D01*
X123212167Y-58293694D01*
X123281858Y-58288711D01*
X123343181Y-58322196D01*
X123376666Y-58383519D01*
X123379500Y-58409877D01*
X123379500Y-62430122D01*
X123359815Y-62497161D01*
X123307011Y-62542916D01*
X123237853Y-62552860D01*
X123212168Y-62546304D01*
X123157485Y-62525909D01*
X123157483Y-62525908D01*
X123097883Y-62519501D01*
X123097881Y-62519500D01*
X123097873Y-62519500D01*
X123097864Y-62519500D01*
X121202129Y-62519500D01*
X121202123Y-62519501D01*
X121142516Y-62525908D01*
X121007671Y-62576202D01*
X121007664Y-62576206D01*
X120892455Y-62662452D01*
X120892452Y-62662455D01*
X120806206Y-62777664D01*
X120806203Y-62777669D01*
X120776398Y-62857581D01*
X120734526Y-62913514D01*
X120669062Y-62937931D01*
X120600789Y-62923079D01*
X120572535Y-62901928D01*
X120522363Y-62851756D01*
X120522358Y-62851752D01*
X120344025Y-62722187D01*
X120344024Y-62722186D01*
X120344022Y-62722185D01*
X120226791Y-62662452D01*
X120147606Y-62622104D01*
X120147603Y-62622103D01*
X119937952Y-62553985D01*
X119829086Y-62536742D01*
X119720222Y-62519500D01*
X119499778Y-62519500D01*
X119427201Y-62530995D01*
X119282047Y-62553985D01*
X119072396Y-62622103D01*
X119072393Y-62622104D01*
X118875974Y-62722187D01*
X118697641Y-62851752D01*
X118697636Y-62851756D01*
X118541756Y-63007636D01*
X118541752Y-63007641D01*
X118412187Y-63185974D01*
X118312104Y-63382393D01*
X118312103Y-63382396D01*
X118243985Y-63592047D01*
X118209500Y-63809778D01*
X118209500Y-64030221D01*
X118243985Y-64247952D01*
X118312103Y-64457603D01*
X118312104Y-64457606D01*
X118373148Y-64577409D01*
X118405862Y-64641613D01*
X118412187Y-64654025D01*
X118541752Y-64832358D01*
X118541756Y-64832363D01*
X118697636Y-64988243D01*
X118697641Y-64988247D01*
X118853192Y-65101260D01*
X118875978Y-65117815D01*
X118997040Y-65179500D01*
X119072393Y-65217895D01*
X119072396Y-65217896D01*
X119169229Y-65249358D01*
X119282049Y-65286015D01*
X119499778Y-65320500D01*
X119499779Y-65320500D01*
X119720221Y-65320500D01*
X119720222Y-65320500D01*
X119937951Y-65286015D01*
X120147606Y-65217895D01*
X120344022Y-65117815D01*
X120522365Y-64988242D01*
X120572536Y-64938070D01*
X120633857Y-64904586D01*
X120703548Y-64909570D01*
X120759482Y-64951441D01*
X120776398Y-64982419D01*
X120806202Y-65062328D01*
X120806206Y-65062335D01*
X120892452Y-65177544D01*
X120892455Y-65177547D01*
X121007664Y-65263793D01*
X121007671Y-65263797D01*
X121142517Y-65314091D01*
X121142516Y-65314091D01*
X121149444Y-65314835D01*
X121202127Y-65320500D01*
X123097872Y-65320499D01*
X123157483Y-65314091D01*
X123212167Y-65293694D01*
X123281858Y-65288711D01*
X123343181Y-65322196D01*
X123376666Y-65383519D01*
X123379500Y-65409877D01*
X123379500Y-69430122D01*
X123359815Y-69497161D01*
X123307011Y-69542916D01*
X123237853Y-69552860D01*
X123212168Y-69546304D01*
X123157485Y-69525909D01*
X123157483Y-69525908D01*
X123097883Y-69519501D01*
X123097881Y-69519500D01*
X123097873Y-69519500D01*
X123097864Y-69519500D01*
X121202129Y-69519500D01*
X121202123Y-69519501D01*
X121142516Y-69525908D01*
X121007671Y-69576202D01*
X121007664Y-69576206D01*
X120892455Y-69662452D01*
X120892452Y-69662455D01*
X120806206Y-69777664D01*
X120806203Y-69777669D01*
X120776398Y-69857581D01*
X120734526Y-69913514D01*
X120669062Y-69937931D01*
X120600789Y-69923079D01*
X120572535Y-69901928D01*
X120522363Y-69851756D01*
X120522358Y-69851752D01*
X120344025Y-69722187D01*
X120344024Y-69722186D01*
X120344022Y-69722185D01*
X120226791Y-69662452D01*
X120147606Y-69622104D01*
X120147603Y-69622103D01*
X119937952Y-69553985D01*
X119829086Y-69536742D01*
X119720222Y-69519500D01*
X119499778Y-69519500D01*
X119427201Y-69530995D01*
X119282047Y-69553985D01*
X119072396Y-69622103D01*
X119072393Y-69622104D01*
X118875974Y-69722187D01*
X118697641Y-69851752D01*
X118697636Y-69851756D01*
X118541756Y-70007636D01*
X118541752Y-70007641D01*
X118412187Y-70185974D01*
X118327696Y-70351795D01*
X118279721Y-70402591D01*
X118217211Y-70419500D01*
X113508813Y-70419500D01*
X113441774Y-70399815D01*
X113396019Y-70347011D01*
X113386075Y-70277853D01*
X113390882Y-70257182D01*
X113453476Y-70064538D01*
X113453476Y-70064537D01*
X113453477Y-70064534D01*
X113485500Y-69862352D01*
X113485500Y-69657648D01*
X113459477Y-69493349D01*
X113453477Y-69455465D01*
X113390218Y-69260776D01*
X113329877Y-69142352D01*
X113297287Y-69078390D01*
X113289556Y-69067749D01*
X113176971Y-68912786D01*
X113032213Y-68768028D01*
X112866614Y-68647715D01*
X112860006Y-68644348D01*
X112773917Y-68600483D01*
X112723123Y-68552511D01*
X112706328Y-68484690D01*
X112728865Y-68418555D01*
X112773917Y-68379516D01*
X112866610Y-68332287D01*
X112894384Y-68312108D01*
X113032213Y-68211971D01*
X113032215Y-68211968D01*
X113032219Y-68211966D01*
X113176966Y-68067219D01*
X113176968Y-68067215D01*
X113176971Y-68067213D01*
X113256606Y-67957603D01*
X113297287Y-67901610D01*
X113390220Y-67719219D01*
X113453477Y-67524534D01*
X113485500Y-67322352D01*
X113485500Y-67117648D01*
X113467552Y-67004332D01*
X113453477Y-66915465D01*
X113404048Y-66763339D01*
X113390220Y-66720781D01*
X113390218Y-66720778D01*
X113390218Y-66720776D01*
X113308703Y-66560795D01*
X113295807Y-66492126D01*
X113322083Y-66427385D01*
X113379190Y-66387128D01*
X113419188Y-66380500D01*
X115169903Y-66380500D01*
X115236942Y-66400185D01*
X115257584Y-66416819D01*
X115736561Y-66895796D01*
X115770046Y-66957119D01*
X115766811Y-67021794D01*
X115743985Y-67092045D01*
X115709500Y-67309778D01*
X115709500Y-67530221D01*
X115743985Y-67747952D01*
X115812103Y-67957603D01*
X115812104Y-67957606D01*
X115858181Y-68048034D01*
X115900092Y-68130289D01*
X115912187Y-68154025D01*
X116041752Y-68332358D01*
X116041756Y-68332363D01*
X116197636Y-68488243D01*
X116197641Y-68488247D01*
X116269935Y-68540771D01*
X116375978Y-68617815D01*
X116504375Y-68683237D01*
X116572393Y-68717895D01*
X116572396Y-68717896D01*
X116677221Y-68751955D01*
X116782049Y-68786015D01*
X116999778Y-68820500D01*
X116999779Y-68820500D01*
X117220221Y-68820500D01*
X117220222Y-68820500D01*
X117437951Y-68786015D01*
X117647606Y-68717895D01*
X117844022Y-68617815D01*
X118022365Y-68488242D01*
X118072536Y-68438070D01*
X118133857Y-68404586D01*
X118203548Y-68409570D01*
X118259482Y-68451441D01*
X118276398Y-68482419D01*
X118306202Y-68562328D01*
X118306206Y-68562335D01*
X118392452Y-68677544D01*
X118392455Y-68677547D01*
X118507664Y-68763793D01*
X118507671Y-68763797D01*
X118642517Y-68814091D01*
X118642516Y-68814091D01*
X118649444Y-68814835D01*
X118702127Y-68820500D01*
X120597872Y-68820499D01*
X120657483Y-68814091D01*
X120792331Y-68763796D01*
X120907546Y-68677546D01*
X120993796Y-68562331D01*
X121044091Y-68427483D01*
X121050500Y-68367873D01*
X121050499Y-66472128D01*
X121045226Y-66423079D01*
X121044091Y-66412516D01*
X120993797Y-66277671D01*
X120993793Y-66277664D01*
X120907547Y-66162455D01*
X120907544Y-66162452D01*
X120792335Y-66076206D01*
X120792328Y-66076202D01*
X120657482Y-66025908D01*
X120657483Y-66025908D01*
X120597883Y-66019501D01*
X120597881Y-66019500D01*
X120597873Y-66019500D01*
X120597864Y-66019500D01*
X118702129Y-66019500D01*
X118702123Y-66019501D01*
X118642516Y-66025908D01*
X118507671Y-66076202D01*
X118507664Y-66076206D01*
X118392455Y-66162452D01*
X118392452Y-66162455D01*
X118306206Y-66277664D01*
X118306203Y-66277669D01*
X118276398Y-66357581D01*
X118234526Y-66413514D01*
X118169062Y-66437931D01*
X118100789Y-66423079D01*
X118072535Y-66401928D01*
X118022363Y-66351756D01*
X118022358Y-66351752D01*
X117844025Y-66222187D01*
X117844024Y-66222186D01*
X117844022Y-66222185D01*
X117763497Y-66181155D01*
X117647606Y-66122104D01*
X117647603Y-66122103D01*
X117437952Y-66053985D01*
X117329086Y-66036742D01*
X117220222Y-66019500D01*
X116999778Y-66019500D01*
X116959320Y-66025908D01*
X116782045Y-66053985D01*
X116711794Y-66076811D01*
X116641953Y-66078806D01*
X116585796Y-66046561D01*
X115957590Y-65418355D01*
X115957588Y-65418352D01*
X115838717Y-65299481D01*
X115838716Y-65299480D01*
X115751904Y-65249360D01*
X115751904Y-65249359D01*
X115751900Y-65249358D01*
X115701785Y-65220423D01*
X115549057Y-65179499D01*
X115390943Y-65179499D01*
X115383347Y-65179499D01*
X115383331Y-65179500D01*
X113560801Y-65179500D01*
X113493762Y-65159815D01*
X113448007Y-65107011D01*
X113438063Y-65037853D01*
X113442870Y-65017183D01*
X113453475Y-64984542D01*
X113453475Y-64984538D01*
X113453477Y-64984534D01*
X113485500Y-64782352D01*
X113485500Y-64577648D01*
X113466487Y-64457606D01*
X113453477Y-64375465D01*
X113390218Y-64180776D01*
X113329877Y-64062352D01*
X113297287Y-63998390D01*
X113289556Y-63987749D01*
X113176971Y-63832786D01*
X113032213Y-63688028D01*
X112866611Y-63567713D01*
X112773369Y-63520203D01*
X112722574Y-63472229D01*
X112705779Y-63404407D01*
X112728317Y-63338273D01*
X112773371Y-63299234D01*
X112866346Y-63251861D01*
X112866347Y-63251861D01*
X112910921Y-63219474D01*
X112231447Y-62540000D01*
X112237661Y-62540000D01*
X112339394Y-62512741D01*
X112430606Y-62460080D01*
X112505080Y-62385606D01*
X112557741Y-62294394D01*
X112585000Y-62192661D01*
X112585000Y-62186447D01*
X113264474Y-62865921D01*
X113296859Y-62821349D01*
X113389755Y-62639031D01*
X113452990Y-62444417D01*
X113485000Y-62242317D01*
X113485000Y-62037682D01*
X113452990Y-61835582D01*
X113389755Y-61640968D01*
X113296859Y-61458650D01*
X113264474Y-61414077D01*
X113264474Y-61414076D01*
X112585000Y-62093551D01*
X112585000Y-62087339D01*
X112557741Y-61985606D01*
X112505080Y-61894394D01*
X112430606Y-61819920D01*
X112339394Y-61767259D01*
X112237661Y-61740000D01*
X112231446Y-61740000D01*
X112910922Y-61060524D01*
X112910921Y-61060523D01*
X112866359Y-61028147D01*
X112866350Y-61028141D01*
X112684031Y-60935244D01*
X112489417Y-60872009D01*
X112457616Y-60866973D01*
X112394481Y-60837044D01*
X112357550Y-60777732D01*
X112358548Y-60707870D01*
X112397158Y-60649637D01*
X112461122Y-60621523D01*
X112477014Y-60620500D01*
X114400234Y-60620500D01*
X114467273Y-60640185D01*
X114469125Y-60641398D01*
X114600814Y-60729390D01*
X114600827Y-60729397D01*
X114679894Y-60762147D01*
X114746503Y-60789737D01*
X114898710Y-60820013D01*
X114901153Y-60820499D01*
X114901156Y-60820500D01*
X114901158Y-60820500D01*
X115058844Y-60820500D01*
X115058845Y-60820499D01*
X115213497Y-60789737D01*
X115359179Y-60729394D01*
X115490289Y-60641789D01*
X115522697Y-60609381D01*
X115584019Y-60575895D01*
X115653711Y-60580879D01*
X115709645Y-60622749D01*
X115732852Y-60677663D01*
X115743985Y-60747952D01*
X115812103Y-60957603D01*
X115812104Y-60957606D01*
X115912187Y-61154025D01*
X116041752Y-61332358D01*
X116041756Y-61332363D01*
X116197636Y-61488243D01*
X116197641Y-61488247D01*
X116299606Y-61562328D01*
X116375978Y-61617815D01*
X116504375Y-61683237D01*
X116572393Y-61717895D01*
X116572396Y-61717896D01*
X116677221Y-61751955D01*
X116782049Y-61786015D01*
X116999778Y-61820500D01*
X116999779Y-61820500D01*
X117220221Y-61820500D01*
X117220222Y-61820500D01*
X117437951Y-61786015D01*
X117647606Y-61717895D01*
X117844022Y-61617815D01*
X118022365Y-61488242D01*
X118072536Y-61438070D01*
X118133857Y-61404586D01*
X118203548Y-61409570D01*
X118259482Y-61451441D01*
X118276398Y-61482419D01*
X118306202Y-61562328D01*
X118306206Y-61562335D01*
X118392452Y-61677544D01*
X118392455Y-61677547D01*
X118507664Y-61763793D01*
X118507671Y-61763797D01*
X118642517Y-61814091D01*
X118642516Y-61814091D01*
X118649444Y-61814835D01*
X118702127Y-61820500D01*
X120597872Y-61820499D01*
X120657483Y-61814091D01*
X120792331Y-61763796D01*
X120907546Y-61677546D01*
X120993796Y-61562331D01*
X121044091Y-61427483D01*
X121050500Y-61367873D01*
X121050499Y-59472128D01*
X121044091Y-59412517D01*
X121038755Y-59398211D01*
X120993797Y-59277671D01*
X120993793Y-59277664D01*
X120907547Y-59162455D01*
X120907544Y-59162452D01*
X120792335Y-59076206D01*
X120792328Y-59076202D01*
X120657482Y-59025908D01*
X120657483Y-59025908D01*
X120597883Y-59019501D01*
X120597881Y-59019500D01*
X120597873Y-59019500D01*
X120597864Y-59019500D01*
X118702129Y-59019500D01*
X118702123Y-59019501D01*
X118642516Y-59025908D01*
X118507671Y-59076202D01*
X118507664Y-59076206D01*
X118392455Y-59162452D01*
X118392452Y-59162455D01*
X118306206Y-59277664D01*
X118306203Y-59277669D01*
X118276398Y-59357581D01*
X118234526Y-59413514D01*
X118169062Y-59437931D01*
X118100789Y-59423079D01*
X118072535Y-59401928D01*
X118022363Y-59351756D01*
X118022358Y-59351752D01*
X117844025Y-59222187D01*
X117844024Y-59222186D01*
X117844022Y-59222185D01*
X117781096Y-59190122D01*
X117647606Y-59122104D01*
X117647603Y-59122103D01*
X117437952Y-59053985D01*
X117329086Y-59036742D01*
X117220222Y-59019500D01*
X116999778Y-59019500D01*
X116927201Y-59030995D01*
X116782047Y-59053985D01*
X116572396Y-59122103D01*
X116572393Y-59122104D01*
X116375974Y-59222187D01*
X116197641Y-59351752D01*
X116197636Y-59351756D01*
X116041756Y-59507636D01*
X116041752Y-59507641D01*
X115912349Y-59685750D01*
X115857019Y-59728416D01*
X115787406Y-59734395D01*
X115725611Y-59701789D01*
X115697470Y-59660317D01*
X115689397Y-59640827D01*
X115689390Y-59640814D01*
X115601789Y-59509711D01*
X115601786Y-59509707D01*
X115490292Y-59398213D01*
X115490288Y-59398210D01*
X115359185Y-59310609D01*
X115359172Y-59310602D01*
X115213501Y-59250264D01*
X115213489Y-59250261D01*
X115058845Y-59219500D01*
X115058842Y-59219500D01*
X114901158Y-59219500D01*
X114901156Y-59219500D01*
X114898168Y-59220094D01*
X114896573Y-59219951D01*
X114895093Y-59220097D01*
X114895065Y-59219816D01*
X114828577Y-59213860D01*
X114773404Y-59170991D01*
X114750165Y-59105100D01*
X114751514Y-59079082D01*
X114760500Y-59022352D01*
X114760500Y-58817648D01*
X114728477Y-58615465D01*
X114665218Y-58420776D01*
X114614124Y-58320500D01*
X114572287Y-58238390D01*
X114552098Y-58210602D01*
X114451971Y-58072786D01*
X114307213Y-57928028D01*
X114141613Y-57807715D01*
X114141612Y-57807714D01*
X114141610Y-57807713D01*
X114084653Y-57778691D01*
X113959223Y-57714781D01*
X113764534Y-57651522D01*
X113589995Y-57623878D01*
X113562352Y-57619500D01*
X113357648Y-57619500D01*
X113333329Y-57623351D01*
X113155465Y-57651522D01*
X112960776Y-57714781D01*
X112778386Y-57807715D01*
X112612786Y-57928028D01*
X112468028Y-58072786D01*
X112347715Y-58238385D01*
X112340883Y-58251795D01*
X112292909Y-58302591D01*
X112230398Y-58319500D01*
X107579766Y-58319500D01*
X107512727Y-58299815D01*
X107510875Y-58298602D01*
X107379185Y-58210609D01*
X107379172Y-58210602D01*
X107233501Y-58150264D01*
X107233489Y-58150261D01*
X107078845Y-58119500D01*
X107078842Y-58119500D01*
X106921158Y-58119500D01*
X106921155Y-58119500D01*
X106766510Y-58150261D01*
X106766498Y-58150264D01*
X106620827Y-58210602D01*
X106620814Y-58210609D01*
X106489711Y-58298210D01*
X106489707Y-58298213D01*
X106378213Y-58409707D01*
X106378210Y-58409711D01*
X106290609Y-58540814D01*
X106290602Y-58540827D01*
X106230264Y-58686498D01*
X106230261Y-58686510D01*
X106199500Y-58841153D01*
X106199500Y-58998846D01*
X106230261Y-59153489D01*
X106230264Y-59153501D01*
X106290602Y-59299172D01*
X106290608Y-59299183D01*
X106340929Y-59374494D01*
X106361806Y-59441171D01*
X106343321Y-59508551D01*
X106321262Y-59532964D01*
X106322031Y-59533733D01*
X105009842Y-60845921D01*
X104948519Y-60879406D01*
X104883848Y-60876173D01*
X104869534Y-60871522D01*
X104694995Y-60843878D01*
X104667352Y-60839500D01*
X104462648Y-60839500D01*
X104438329Y-60843351D01*
X104260465Y-60871522D01*
X104065776Y-60934781D01*
X103883386Y-61027715D01*
X103717786Y-61148028D01*
X103573028Y-61292786D01*
X103452715Y-61458386D01*
X103359781Y-61640776D01*
X103296522Y-61835465D01*
X103264500Y-62037648D01*
X103264500Y-62242351D01*
X103296522Y-62444534D01*
X103359781Y-62639223D01*
X103397311Y-62712878D01*
X103452585Y-62821359D01*
X103452715Y-62821613D01*
X103573028Y-62987213D01*
X103717786Y-63131971D01*
X103838226Y-63219474D01*
X103883390Y-63252287D01*
X103960929Y-63291795D01*
X103976080Y-63299515D01*
X104026876Y-63347490D01*
X104043671Y-63415311D01*
X104021134Y-63481446D01*
X103976080Y-63520485D01*
X103883386Y-63567715D01*
X103717786Y-63688028D01*
X103573028Y-63832786D01*
X103452715Y-63998386D01*
X103359781Y-64180776D01*
X103296522Y-64375465D01*
X103264500Y-64577648D01*
X103264500Y-64782351D01*
X103296522Y-64984534D01*
X103359781Y-65179223D01*
X103418661Y-65294780D01*
X103441949Y-65340485D01*
X103452715Y-65361613D01*
X103573028Y-65527213D01*
X103717786Y-65671971D01*
X103872749Y-65784556D01*
X103883390Y-65792287D01*
X103974840Y-65838883D01*
X103976080Y-65839515D01*
X104026876Y-65887490D01*
X104043671Y-65955311D01*
X104021134Y-66021446D01*
X103976080Y-66060485D01*
X103883386Y-66107715D01*
X103717786Y-66228028D01*
X103573028Y-66372786D01*
X103452715Y-66538386D01*
X103359781Y-66720776D01*
X103323075Y-66833747D01*
X103283637Y-66891422D01*
X103219278Y-66918620D01*
X103157692Y-66909989D01*
X103013501Y-66850264D01*
X103013489Y-66850261D01*
X102858845Y-66819500D01*
X102858842Y-66819500D01*
X102701158Y-66819500D01*
X102701155Y-66819500D01*
X102546510Y-66850261D01*
X102546498Y-66850264D01*
X102445767Y-66891988D01*
X102376297Y-66899457D01*
X102313818Y-66868181D01*
X102278167Y-66808092D01*
X102275842Y-66758032D01*
X102300500Y-66602352D01*
X102300500Y-66397648D01*
X102273635Y-66228034D01*
X102268477Y-66195465D01*
X102220095Y-66046561D01*
X102205220Y-66000781D01*
X102205218Y-66000778D01*
X102205218Y-66000776D01*
X102147495Y-65887490D01*
X102112287Y-65818390D01*
X102093320Y-65792284D01*
X101991971Y-65652786D01*
X101847213Y-65508028D01*
X101681614Y-65387715D01*
X101673379Y-65383519D01*
X101588917Y-65340483D01*
X101538123Y-65292511D01*
X101521328Y-65224690D01*
X101543865Y-65158555D01*
X101588917Y-65119516D01*
X101681610Y-65072287D01*
X101782701Y-64998841D01*
X101847213Y-64951971D01*
X101847215Y-64951968D01*
X101847219Y-64951966D01*
X101991966Y-64807219D01*
X101991968Y-64807215D01*
X101991971Y-64807213D01*
X102044956Y-64734284D01*
X102112287Y-64641610D01*
X102205220Y-64459219D01*
X102268477Y-64264534D01*
X102300500Y-64062352D01*
X102300500Y-63857648D01*
X102273635Y-63688034D01*
X102268477Y-63655465D01*
X102211296Y-63479481D01*
X102205220Y-63460781D01*
X102205218Y-63460778D01*
X102205218Y-63460776D01*
X102163139Y-63378192D01*
X102112287Y-63278390D01*
X102093013Y-63251861D01*
X101991971Y-63112786D01*
X101847213Y-62968028D01*
X101681614Y-62847715D01*
X101674884Y-62844286D01*
X101588917Y-62800483D01*
X101538123Y-62752511D01*
X101521328Y-62684690D01*
X101543865Y-62618555D01*
X101588917Y-62579516D01*
X101681610Y-62532287D01*
X101748444Y-62483730D01*
X101847213Y-62411971D01*
X101847215Y-62411968D01*
X101847219Y-62411966D01*
X101991966Y-62267219D01*
X101991968Y-62267215D01*
X101991971Y-62267213D01*
X102046135Y-62192661D01*
X102112287Y-62101610D01*
X102205220Y-61919219D01*
X102268477Y-61724534D01*
X102300500Y-61522352D01*
X102300500Y-61317648D01*
X102287296Y-61234284D01*
X102268477Y-61115465D01*
X102213308Y-60945673D01*
X102205220Y-60920781D01*
X102205218Y-60920778D01*
X102205218Y-60920776D01*
X102154124Y-60820500D01*
X102112287Y-60738390D01*
X102047805Y-60649637D01*
X101991971Y-60572786D01*
X101847213Y-60428028D01*
X101681613Y-60307715D01*
X101681612Y-60307714D01*
X101681610Y-60307713D01*
X101586630Y-60259318D01*
X101499223Y-60214781D01*
X101304534Y-60151522D01*
X101129995Y-60123878D01*
X101102352Y-60119500D01*
X100897648Y-60119500D01*
X100873329Y-60123351D01*
X100695465Y-60151522D01*
X100500776Y-60214781D01*
X100318386Y-60307715D01*
X100152786Y-60428028D01*
X100008028Y-60572786D01*
X99887715Y-60738386D01*
X99794781Y-60920776D01*
X99731522Y-61115465D01*
X99699500Y-61317648D01*
X99699500Y-61522351D01*
X99731522Y-61724534D01*
X99794781Y-61919223D01*
X99887715Y-62101613D01*
X100008028Y-62267213D01*
X100152786Y-62411971D01*
X100291487Y-62512741D01*
X100318390Y-62532287D01*
X100404578Y-62576202D01*
X100411080Y-62579515D01*
X100461876Y-62627490D01*
X100478671Y-62695311D01*
X100456134Y-62761446D01*
X100411080Y-62800485D01*
X100318386Y-62847715D01*
X100152786Y-62968028D01*
X100008028Y-63112786D01*
X99887715Y-63278386D01*
X99794781Y-63460776D01*
X99731522Y-63655465D01*
X99699500Y-63857648D01*
X99699500Y-64050903D01*
X99679815Y-64117942D01*
X99627011Y-64163697D01*
X99557853Y-64173641D01*
X99494297Y-64144616D01*
X99487819Y-64138584D01*
X98947590Y-63598355D01*
X98947588Y-63598352D01*
X98828717Y-63479481D01*
X98828716Y-63479480D01*
X98741904Y-63429360D01*
X98741904Y-63429359D01*
X98741900Y-63429358D01*
X98691785Y-63400423D01*
X98539057Y-63359499D01*
X98380943Y-63359499D01*
X98373347Y-63359499D01*
X98373331Y-63359500D01*
X94609602Y-63359500D01*
X94542563Y-63339815D01*
X94499117Y-63291795D01*
X94492284Y-63278385D01*
X94371971Y-63112786D01*
X94227217Y-62968032D01*
X94227212Y-62968028D01*
X94133051Y-62899616D01*
X94090385Y-62844286D01*
X94084406Y-62774673D01*
X94117012Y-62712878D01*
X94166933Y-62681592D01*
X94249117Y-62654359D01*
X94249124Y-62654356D01*
X94398345Y-62562315D01*
X94522315Y-62438345D01*
X94614356Y-62289124D01*
X94614358Y-62289119D01*
X94669505Y-62122697D01*
X94669506Y-62122690D01*
X94679999Y-62019986D01*
X94680000Y-62019973D01*
X94680000Y-61670000D01*
X93695686Y-61670000D01*
X93700080Y-61665606D01*
X93752741Y-61574394D01*
X93780000Y-61472661D01*
X93780000Y-61367339D01*
X93752741Y-61265606D01*
X93700080Y-61174394D01*
X93695686Y-61170000D01*
X94679999Y-61170000D01*
X94679999Y-60820028D01*
X94679998Y-60820013D01*
X94669505Y-60717302D01*
X94614358Y-60550880D01*
X94614356Y-60550875D01*
X94522315Y-60401654D01*
X94398345Y-60277684D01*
X94249124Y-60185643D01*
X94249119Y-60185641D01*
X94082697Y-60130494D01*
X94082690Y-60130493D01*
X93979986Y-60120000D01*
X93630000Y-60120000D01*
X93630000Y-61104314D01*
X93625606Y-61099920D01*
X93534394Y-61047259D01*
X93432661Y-61020000D01*
X93327339Y-61020000D01*
X93225606Y-61047259D01*
X93134394Y-61099920D01*
X93130000Y-61104314D01*
X93130000Y-60120000D01*
X92780028Y-60120000D01*
X92780012Y-60120001D01*
X92677302Y-60130494D01*
X92510880Y-60185641D01*
X92510875Y-60185643D01*
X92361654Y-60277684D01*
X92237684Y-60401654D01*
X92145643Y-60550875D01*
X92145641Y-60550880D01*
X92090494Y-60717302D01*
X92090493Y-60717309D01*
X92080000Y-60820013D01*
X92080000Y-61170000D01*
X93064314Y-61170000D01*
X93059920Y-61174394D01*
X93007259Y-61265606D01*
X92980000Y-61367339D01*
X92980000Y-61472661D01*
X93007259Y-61574394D01*
X93059920Y-61665606D01*
X93064314Y-61670000D01*
X92080001Y-61670000D01*
X92080001Y-62019986D01*
X92090494Y-62122697D01*
X92145641Y-62289119D01*
X92145643Y-62289124D01*
X92237684Y-62438345D01*
X92361654Y-62562315D01*
X92510875Y-62654356D01*
X92510882Y-62654359D01*
X92593067Y-62681592D01*
X92650512Y-62721364D01*
X92677336Y-62785880D01*
X92665021Y-62854656D01*
X92626949Y-62899616D01*
X92532787Y-62968028D01*
X92532782Y-62968032D01*
X92388028Y-63112786D01*
X92267715Y-63278386D01*
X92174781Y-63460776D01*
X92111522Y-63655465D01*
X92079500Y-63857648D01*
X92079500Y-64062351D01*
X92111522Y-64264534D01*
X92174781Y-64459223D01*
X92267715Y-64641613D01*
X92388028Y-64807213D01*
X92532786Y-64951971D01*
X92684687Y-65062331D01*
X92698390Y-65072287D01*
X92766540Y-65107011D01*
X92791080Y-65119515D01*
X92841876Y-65167490D01*
X92858671Y-65235311D01*
X92836134Y-65301446D01*
X92791080Y-65340485D01*
X92698386Y-65387715D01*
X92532786Y-65508028D01*
X92388028Y-65652786D01*
X92267715Y-65818386D01*
X92174781Y-66000776D01*
X92111522Y-66195465D01*
X92079500Y-66397648D01*
X92079500Y-66602351D01*
X92111522Y-66804534D01*
X92174781Y-66999223D01*
X92222077Y-67092045D01*
X92248612Y-67144123D01*
X92267715Y-67181613D01*
X92388028Y-67347213D01*
X92532786Y-67491971D01*
X92650870Y-67577762D01*
X92698390Y-67612287D01*
X92789840Y-67658883D01*
X92791080Y-67659515D01*
X92841876Y-67707490D01*
X92858671Y-67775311D01*
X92836134Y-67841446D01*
X92791080Y-67880485D01*
X92698386Y-67927715D01*
X92532786Y-68048028D01*
X92388030Y-68192784D01*
X92318575Y-68288384D01*
X92263245Y-68331051D01*
X92218256Y-68339500D01*
X91231771Y-68339500D01*
X91164732Y-68319815D01*
X91118977Y-68267011D01*
X91108832Y-68199314D01*
X91117920Y-68130290D01*
X91130500Y-68034734D01*
X91130500Y-67805266D01*
X91100548Y-67577762D01*
X91041158Y-67356113D01*
X90991190Y-67235480D01*
X90953349Y-67144123D01*
X90953346Y-67144117D01*
X90953344Y-67144112D01*
X90838611Y-66945388D01*
X90838608Y-66945385D01*
X90838607Y-66945382D01*
X90698918Y-66763338D01*
X90698911Y-66763330D01*
X90536670Y-66601089D01*
X90536661Y-66601081D01*
X90354617Y-66461392D01*
X90155890Y-66346657D01*
X90155876Y-66346650D01*
X89943887Y-66258842D01*
X89722238Y-66199452D01*
X89684215Y-66194446D01*
X89494741Y-66169500D01*
X89494734Y-66169500D01*
X89265266Y-66169500D01*
X89265258Y-66169500D01*
X89048715Y-66198009D01*
X89037762Y-66199452D01*
X88952920Y-66222185D01*
X88816112Y-66258842D01*
X88604123Y-66346650D01*
X88604109Y-66346657D01*
X88405382Y-66461392D01*
X88223338Y-66601081D01*
X88061081Y-66763338D01*
X87921392Y-66945382D01*
X87806657Y-67144109D01*
X87806650Y-67144123D01*
X87722526Y-67347219D01*
X87718842Y-67356113D01*
X87672191Y-67530221D01*
X87659453Y-67577759D01*
X87659451Y-67577770D01*
X87629500Y-67805258D01*
X87629500Y-68034741D01*
X87650308Y-68192784D01*
X87659452Y-68262238D01*
X87703729Y-68427483D01*
X87718842Y-68483887D01*
X87806650Y-68695876D01*
X87806657Y-68695890D01*
X87921392Y-68894617D01*
X88061081Y-69076661D01*
X88061089Y-69076670D01*
X88223330Y-69238911D01*
X88223338Y-69238918D01*
X88223339Y-69238919D01*
X88251830Y-69260781D01*
X88405382Y-69378607D01*
X88405385Y-69378608D01*
X88405388Y-69378611D01*
X88604112Y-69493344D01*
X88604117Y-69493346D01*
X88604123Y-69493349D01*
X88695480Y-69531190D01*
X88816113Y-69581158D01*
X89037762Y-69640548D01*
X89265266Y-69670500D01*
X89265273Y-69670500D01*
X89494727Y-69670500D01*
X89494734Y-69670500D01*
X89722238Y-69640548D01*
X89943887Y-69581158D01*
X89947556Y-69579637D01*
X90017025Y-69572166D01*
X90063903Y-69591094D01*
X90168190Y-69660776D01*
X90266790Y-69701617D01*
X90295671Y-69713580D01*
X90295672Y-69713580D01*
X90295677Y-69713582D01*
X90322545Y-69718925D01*
X90322551Y-69718926D01*
X90322591Y-69718934D01*
X90412937Y-69736905D01*
X90431006Y-69740500D01*
X90431007Y-69740500D01*
X92218256Y-69740500D01*
X92285295Y-69760185D01*
X92318575Y-69791616D01*
X92388030Y-69887215D01*
X92532786Y-70031971D01*
X92687749Y-70144556D01*
X92698390Y-70152287D01*
X92814607Y-70211503D01*
X92880776Y-70245218D01*
X92880778Y-70245218D01*
X92880781Y-70245220D01*
X92923878Y-70259223D01*
X93075465Y-70308477D01*
X93176557Y-70324488D01*
X93277648Y-70340500D01*
X93277649Y-70340500D01*
X93482351Y-70340500D01*
X93482352Y-70340500D01*
X93684534Y-70308477D01*
X93879219Y-70245220D01*
X93881031Y-70244297D01*
X93891309Y-70239060D01*
X94061610Y-70152287D01*
X94182387Y-70064538D01*
X94227213Y-70031971D01*
X94227215Y-70031968D01*
X94227219Y-70031966D01*
X94371966Y-69887219D01*
X94371968Y-69887215D01*
X94371971Y-69887213D01*
X94451558Y-69777669D01*
X94492287Y-69721610D01*
X94585220Y-69539219D01*
X94648477Y-69344534D01*
X94680500Y-69142352D01*
X94680500Y-68937648D01*
X94653635Y-68768034D01*
X94648477Y-68735465D01*
X94591934Y-68561446D01*
X94585220Y-68540781D01*
X94585218Y-68540778D01*
X94585218Y-68540776D01*
X94527495Y-68427490D01*
X94513892Y-68400793D01*
X94500997Y-68332126D01*
X94527273Y-68267386D01*
X94584379Y-68227128D01*
X94624378Y-68220500D01*
X99755622Y-68220500D01*
X99822661Y-68240185D01*
X99868416Y-68292989D01*
X99878360Y-68362147D01*
X99866107Y-68400792D01*
X99853661Y-68425220D01*
X99794781Y-68540776D01*
X99731522Y-68735465D01*
X99699500Y-68937648D01*
X99699500Y-69142351D01*
X99731522Y-69344534D01*
X99736173Y-69358848D01*
X99738165Y-69428690D01*
X99705921Y-69484842D01*
X99511286Y-69679478D01*
X99399481Y-69791282D01*
X99399475Y-69791290D01*
X99364566Y-69851756D01*
X99364566Y-69851758D01*
X99320423Y-69928214D01*
X99308657Y-69972127D01*
X99279499Y-70080943D01*
X99279499Y-70080945D01*
X99279499Y-70249046D01*
X99279500Y-70249059D01*
X99279500Y-71190397D01*
X99259815Y-71257436D01*
X99211800Y-71300879D01*
X99198389Y-71307712D01*
X99032786Y-71428028D01*
X98888028Y-71572786D01*
X98767715Y-71738386D01*
X98674781Y-71920776D01*
X98611522Y-72115465D01*
X98579500Y-72317648D01*
X98579500Y-72522351D01*
X98611522Y-72724534D01*
X98674781Y-72919223D01*
X98725876Y-73019500D01*
X98767585Y-73101359D01*
X98767715Y-73101613D01*
X98888028Y-73267213D01*
X99032786Y-73411971D01*
X99164459Y-73507635D01*
X99198390Y-73532287D01*
X99314607Y-73591503D01*
X99380776Y-73625218D01*
X99380778Y-73625218D01*
X99380781Y-73625220D01*
X99485137Y-73659127D01*
X99575465Y-73688477D01*
X99676557Y-73704488D01*
X99777648Y-73720500D01*
X99777649Y-73720500D01*
X99982351Y-73720500D01*
X99982352Y-73720500D01*
X100184534Y-73688477D01*
X100379219Y-73625220D01*
X100561610Y-73532287D01*
X100691481Y-73437931D01*
X100727213Y-73411971D01*
X100727215Y-73411968D01*
X100727219Y-73411966D01*
X100871966Y-73267219D01*
X100871968Y-73267215D01*
X100871971Y-73267213D01*
X100948081Y-73162455D01*
X100992287Y-73101610D01*
X101085220Y-72919219D01*
X101148477Y-72724534D01*
X101180500Y-72522352D01*
X101180500Y-72317648D01*
X101158309Y-72177544D01*
X101148477Y-72115465D01*
X101088633Y-71931286D01*
X101085220Y-71920781D01*
X101085218Y-71920778D01*
X101085218Y-71920776D01*
X101034124Y-71820500D01*
X100992287Y-71738390D01*
X100984556Y-71727749D01*
X100871971Y-71572786D01*
X100727213Y-71428028D01*
X100561610Y-71307712D01*
X100548200Y-71300879D01*
X100497406Y-71252903D01*
X100480500Y-71190397D01*
X100480500Y-70460097D01*
X100489144Y-70430657D01*
X100495667Y-70400672D01*
X100499422Y-70395655D01*
X100500185Y-70393058D01*
X100516818Y-70372417D01*
X100532280Y-70356954D01*
X100555156Y-70334077D01*
X100616478Y-70300592D01*
X100681154Y-70303826D01*
X100695466Y-70308477D01*
X100897648Y-70340500D01*
X100897649Y-70340500D01*
X101102351Y-70340500D01*
X101102352Y-70340500D01*
X101304534Y-70308477D01*
X101499219Y-70245220D01*
X101501031Y-70244297D01*
X101511309Y-70239060D01*
X101681610Y-70152287D01*
X101802387Y-70064538D01*
X101847213Y-70031971D01*
X101847215Y-70031968D01*
X101847219Y-70031966D01*
X101991966Y-69887219D01*
X101991968Y-69887215D01*
X101991971Y-69887213D01*
X102071558Y-69777669D01*
X102112287Y-69721610D01*
X102205220Y-69539219D01*
X102268477Y-69344534D01*
X102300500Y-69142352D01*
X102300500Y-68937648D01*
X102273635Y-68768034D01*
X102268477Y-68735465D01*
X102212223Y-68562335D01*
X102205220Y-68540781D01*
X102205217Y-68540776D01*
X102205216Y-68540771D01*
X102156681Y-68445517D01*
X102143784Y-68376848D01*
X102170060Y-68312108D01*
X102227166Y-68271850D01*
X102296972Y-68268858D01*
X102336056Y-68286120D01*
X102400814Y-68329390D01*
X102400827Y-68329397D01*
X102546498Y-68389735D01*
X102546503Y-68389737D01*
X102646210Y-68409570D01*
X102701153Y-68420499D01*
X102701156Y-68420500D01*
X102701158Y-68420500D01*
X102858844Y-68420500D01*
X102858845Y-68420499D01*
X103013497Y-68389737D01*
X103134781Y-68339500D01*
X103159172Y-68329397D01*
X103159172Y-68329396D01*
X103159179Y-68329394D01*
X103290289Y-68241789D01*
X103401789Y-68130289D01*
X103411697Y-68115459D01*
X103465308Y-68070653D01*
X103534633Y-68061944D01*
X103597661Y-68092097D01*
X103602482Y-68096667D01*
X103717786Y-68211971D01*
X103855616Y-68312108D01*
X103883390Y-68332287D01*
X103953251Y-68367883D01*
X103976080Y-68379515D01*
X104026876Y-68427490D01*
X104043671Y-68495311D01*
X104021134Y-68561446D01*
X103976080Y-68600485D01*
X103883386Y-68647715D01*
X103717786Y-68768028D01*
X103573028Y-68912786D01*
X103452715Y-69078386D01*
X103359781Y-69260776D01*
X103296522Y-69455465D01*
X103264500Y-69657648D01*
X103264500Y-69862351D01*
X103296522Y-70064534D01*
X103359781Y-70259223D01*
X103417457Y-70372417D01*
X103447132Y-70430657D01*
X103452715Y-70441613D01*
X103573028Y-70607213D01*
X103717786Y-70751971D01*
X103872749Y-70864556D01*
X103883390Y-70872287D01*
X103974840Y-70918883D01*
X103976080Y-70919515D01*
X104026876Y-70967490D01*
X104043671Y-71035311D01*
X104021134Y-71101446D01*
X103976080Y-71140485D01*
X103883386Y-71187715D01*
X103717786Y-71308028D01*
X103573028Y-71452786D01*
X103452715Y-71618386D01*
X103359781Y-71800776D01*
X103296522Y-71995465D01*
X103264500Y-72197648D01*
X103264500Y-72402351D01*
X103296522Y-72604534D01*
X103359781Y-72799223D01*
X103452715Y-72981613D01*
X103573028Y-73147213D01*
X103717786Y-73291971D01*
X103869132Y-73401928D01*
X103883390Y-73412287D01*
X103974840Y-73458883D01*
X103976080Y-73459515D01*
X104026876Y-73507490D01*
X104043671Y-73575311D01*
X104021134Y-73641446D01*
X103976080Y-73680485D01*
X103883386Y-73727715D01*
X103717786Y-73848028D01*
X103573028Y-73992786D01*
X103452715Y-74158386D01*
X103359781Y-74340776D01*
X103296522Y-74535465D01*
X103264500Y-74737648D01*
X103264500Y-74942351D01*
X103296522Y-75144534D01*
X103359781Y-75339223D01*
X103452715Y-75521613D01*
X103573028Y-75687213D01*
X103717786Y-75831971D01*
X103883385Y-75952284D01*
X103883387Y-75952285D01*
X103883390Y-75952287D01*
X103976080Y-75999515D01*
X103976630Y-75999795D01*
X104027426Y-76047770D01*
X104044221Y-76115591D01*
X104021684Y-76181725D01*
X103976630Y-76220765D01*
X103883644Y-76268143D01*
X103839077Y-76300523D01*
X103839077Y-76300524D01*
X104518554Y-76980000D01*
X104512339Y-76980000D01*
X104410606Y-77007259D01*
X104319394Y-77059920D01*
X104244920Y-77134394D01*
X104192259Y-77225606D01*
X104165000Y-77327339D01*
X104165000Y-77333553D01*
X103485524Y-76654077D01*
X103485523Y-76654077D01*
X103453143Y-76698644D01*
X103360244Y-76880968D01*
X103297009Y-77075582D01*
X103265000Y-77277682D01*
X103265000Y-77482317D01*
X103297009Y-77684417D01*
X103360244Y-77879031D01*
X103453141Y-78061350D01*
X103453147Y-78061359D01*
X103485523Y-78105921D01*
X103485524Y-78105922D01*
X104165000Y-77426446D01*
X104165000Y-77432661D01*
X104192259Y-77534394D01*
X104244920Y-77625606D01*
X104319394Y-77700080D01*
X104410606Y-77752741D01*
X104512339Y-77780000D01*
X104518553Y-77780000D01*
X103839076Y-78459474D01*
X103883652Y-78491861D01*
X103976628Y-78539234D01*
X104027425Y-78587208D01*
X104044220Y-78655029D01*
X104021683Y-78721164D01*
X103976630Y-78760203D01*
X103883388Y-78807713D01*
X103717786Y-78928028D01*
X103573030Y-79072784D01*
X103503575Y-79168384D01*
X103448245Y-79211051D01*
X103403256Y-79219500D01*
X102797433Y-79219500D01*
X102730394Y-79199815D01*
X102684639Y-79147011D01*
X102674075Y-79082897D01*
X102680500Y-79020009D01*
X102680499Y-77819992D01*
X102669999Y-77717203D01*
X102614814Y-77550666D01*
X102522712Y-77401344D01*
X102398656Y-77277288D01*
X102249334Y-77185186D01*
X102082797Y-77130001D01*
X102082795Y-77130000D01*
X101980010Y-77119500D01*
X100779998Y-77119500D01*
X100779981Y-77119501D01*
X100677203Y-77130000D01*
X100677200Y-77130001D01*
X100510668Y-77185185D01*
X100510663Y-77185187D01*
X100361342Y-77277289D01*
X100237289Y-77401342D01*
X100145187Y-77550663D01*
X100145185Y-77550668D01*
X100124717Y-77612438D01*
X100084944Y-77669883D01*
X100020428Y-77696706D01*
X99997283Y-77697052D01*
X99959474Y-77694076D01*
X99280000Y-78373551D01*
X99280000Y-78367339D01*
X99252741Y-78265606D01*
X99200080Y-78174394D01*
X99125606Y-78099920D01*
X99034394Y-78047259D01*
X98932661Y-78020000D01*
X98926446Y-78020000D01*
X99605922Y-77340524D01*
X99605921Y-77340523D01*
X99561359Y-77308147D01*
X99561350Y-77308141D01*
X99379031Y-77215244D01*
X99184417Y-77152009D01*
X98982317Y-77120000D01*
X98777683Y-77120000D01*
X98575582Y-77152009D01*
X98380968Y-77215244D01*
X98198644Y-77308143D01*
X98154077Y-77340523D01*
X98154077Y-77340524D01*
X98833554Y-78020000D01*
X98827339Y-78020000D01*
X98725606Y-78047259D01*
X98634394Y-78099920D01*
X98559920Y-78174394D01*
X98507259Y-78265606D01*
X98480000Y-78367339D01*
X98480000Y-78373553D01*
X97800524Y-77694077D01*
X97800523Y-77694077D01*
X97768143Y-77738644D01*
X97675244Y-77920968D01*
X97612009Y-78115582D01*
X97580000Y-78317682D01*
X97580000Y-78522317D01*
X97612009Y-78724417D01*
X97675245Y-78919034D01*
X97736476Y-79039206D01*
X97749372Y-79107875D01*
X97723095Y-79172615D01*
X97665989Y-79212872D01*
X97625991Y-79219500D01*
X96634009Y-79219500D01*
X96566970Y-79199815D01*
X96521215Y-79147011D01*
X96511271Y-79077853D01*
X96523524Y-79039206D01*
X96584754Y-78919034D01*
X96647990Y-78724417D01*
X96680000Y-78522317D01*
X96680000Y-78317682D01*
X96647990Y-78115582D01*
X96584755Y-77920968D01*
X96491859Y-77738650D01*
X96459474Y-77694077D01*
X96459474Y-77694076D01*
X95780000Y-78373551D01*
X95780000Y-78367339D01*
X95752741Y-78265606D01*
X95700080Y-78174394D01*
X95625606Y-78099920D01*
X95534394Y-78047259D01*
X95432661Y-78020000D01*
X95426446Y-78020000D01*
X96105922Y-77340524D01*
X96105921Y-77340523D01*
X96061359Y-77308147D01*
X96061350Y-77308141D01*
X95879031Y-77215244D01*
X95684417Y-77152009D01*
X95482317Y-77120000D01*
X95277683Y-77120000D01*
X95075582Y-77152009D01*
X94880968Y-77215244D01*
X94698644Y-77308143D01*
X94654077Y-77340523D01*
X94654077Y-77340524D01*
X95333554Y-78020000D01*
X95327339Y-78020000D01*
X95225606Y-78047259D01*
X95134394Y-78099920D01*
X95059920Y-78174394D01*
X95007259Y-78265606D01*
X94980000Y-78367339D01*
X94980000Y-78373553D01*
X94300524Y-77694077D01*
X94262719Y-77697053D01*
X94194341Y-77682689D01*
X94144584Y-77633638D01*
X94142110Y-77628949D01*
X94138101Y-77620942D01*
X94114814Y-77550666D01*
X94022712Y-77401344D01*
X93898656Y-77277288D01*
X93749334Y-77185186D01*
X93582797Y-77130001D01*
X93582795Y-77130000D01*
X93480010Y-77119500D01*
X92279998Y-77119500D01*
X92279981Y-77119501D01*
X92177203Y-77130000D01*
X92177200Y-77130001D01*
X92010668Y-77185185D01*
X92010663Y-77185187D01*
X91861342Y-77277289D01*
X91737289Y-77401342D01*
X91645187Y-77550663D01*
X91645186Y-77550666D01*
X91590001Y-77717203D01*
X91590001Y-77717204D01*
X91590000Y-77717204D01*
X91579500Y-77819983D01*
X91579500Y-79020001D01*
X91579501Y-79020018D01*
X91590000Y-79122796D01*
X91590001Y-79122799D01*
X91645185Y-79289331D01*
X91645187Y-79289336D01*
X91664408Y-79320498D01*
X91737288Y-79438656D01*
X91861344Y-79562712D01*
X92010666Y-79654814D01*
X92177203Y-79709999D01*
X92279991Y-79720500D01*
X93138480Y-79720499D01*
X93205519Y-79740183D01*
X93226161Y-79756818D01*
X93545546Y-80076202D01*
X93835886Y-80366542D01*
X93888563Y-80419219D01*
X93933459Y-80464115D01*
X94048182Y-80540771D01*
X94048186Y-80540773D01*
X94048189Y-80540775D01*
X94122866Y-80571707D01*
X94175671Y-80593580D01*
X94202591Y-80598934D01*
X94299630Y-80618237D01*
X94311006Y-80620500D01*
X94311007Y-80620500D01*
X103403256Y-80620500D01*
X103470295Y-80640185D01*
X103503575Y-80671616D01*
X103573030Y-80767215D01*
X103717786Y-80911971D01*
X103872749Y-81024556D01*
X103883390Y-81032287D01*
X103999607Y-81091503D01*
X104065776Y-81125218D01*
X104065778Y-81125218D01*
X104065781Y-81125220D01*
X104156856Y-81154812D01*
X104260465Y-81188477D01*
X104330061Y-81199500D01*
X104462648Y-81220500D01*
X104462649Y-81220500D01*
X104667351Y-81220500D01*
X104667352Y-81220500D01*
X104869534Y-81188477D01*
X105064219Y-81125220D01*
X105246610Y-81032287D01*
X105375482Y-80938657D01*
X105412213Y-80911971D01*
X105412215Y-80911968D01*
X105412219Y-80911966D01*
X105556966Y-80767219D01*
X105556968Y-80767215D01*
X105556971Y-80767213D01*
X105609732Y-80694590D01*
X105677287Y-80601610D01*
X105770220Y-80419219D01*
X105833477Y-80224534D01*
X105865500Y-80022352D01*
X105865500Y-79817648D01*
X105833477Y-79615466D01*
X105770220Y-79420781D01*
X105770218Y-79420778D01*
X105770218Y-79420776D01*
X105719124Y-79320500D01*
X105677287Y-79238390D01*
X105649261Y-79199815D01*
X105556971Y-79072786D01*
X105412213Y-78928028D01*
X105246611Y-78807713D01*
X105153369Y-78760203D01*
X105102574Y-78712229D01*
X105085779Y-78644407D01*
X105108317Y-78578273D01*
X105153371Y-78539234D01*
X105246346Y-78491861D01*
X105246347Y-78491861D01*
X105290921Y-78459474D01*
X104611447Y-77780000D01*
X104617661Y-77780000D01*
X104719394Y-77752741D01*
X104810606Y-77700080D01*
X104885080Y-77625606D01*
X104937741Y-77534394D01*
X104965000Y-77432661D01*
X104965000Y-77426447D01*
X105644474Y-78105921D01*
X105676859Y-78061349D01*
X105769755Y-77879031D01*
X105832990Y-77684417D01*
X105865000Y-77482317D01*
X105865000Y-77277682D01*
X105832990Y-77075582D01*
X105769755Y-76880968D01*
X105676859Y-76698650D01*
X105644474Y-76654077D01*
X105644474Y-76654076D01*
X104965000Y-77333551D01*
X104965000Y-77327339D01*
X104937741Y-77225606D01*
X104885080Y-77134394D01*
X104810606Y-77059920D01*
X104719394Y-77007259D01*
X104617661Y-76980000D01*
X104611446Y-76980000D01*
X105290922Y-76300524D01*
X105290921Y-76300523D01*
X105246359Y-76268147D01*
X105246350Y-76268141D01*
X105153369Y-76220765D01*
X105102573Y-76172790D01*
X105085778Y-76104969D01*
X105108315Y-76038835D01*
X105153370Y-75999795D01*
X105153920Y-75999515D01*
X105246610Y-75952287D01*
X105296144Y-75916298D01*
X105412213Y-75831971D01*
X105412215Y-75831968D01*
X105412219Y-75831966D01*
X105556966Y-75687219D01*
X105556968Y-75687215D01*
X105556971Y-75687213D01*
X105609732Y-75614590D01*
X105677287Y-75521610D01*
X105770220Y-75339219D01*
X105833477Y-75144534D01*
X105865500Y-74942352D01*
X105865500Y-74737648D01*
X105833477Y-74535466D01*
X105770220Y-74340781D01*
X105770218Y-74340778D01*
X105770218Y-74340776D01*
X105736503Y-74274607D01*
X105677287Y-74158390D01*
X105669556Y-74147749D01*
X105556971Y-73992786D01*
X105412213Y-73848028D01*
X105246614Y-73727715D01*
X105231472Y-73720000D01*
X105153917Y-73680483D01*
X105103123Y-73632511D01*
X105086328Y-73564690D01*
X105108865Y-73498555D01*
X105153917Y-73459516D01*
X105246610Y-73412287D01*
X105320426Y-73358657D01*
X105412213Y-73291971D01*
X105412215Y-73291968D01*
X105412219Y-73291966D01*
X105556966Y-73147219D01*
X105556968Y-73147215D01*
X105556971Y-73147213D01*
X105624704Y-73053985D01*
X105677287Y-72981610D01*
X105770220Y-72799219D01*
X105833477Y-72604534D01*
X105865500Y-72402352D01*
X105865500Y-72197648D01*
X105861817Y-72174394D01*
X105833477Y-71995465D01*
X105776627Y-71820500D01*
X105770220Y-71800781D01*
X105770218Y-71800778D01*
X105770218Y-71800776D01*
X105733844Y-71729390D01*
X105677287Y-71618390D01*
X105644154Y-71572786D01*
X105556971Y-71452786D01*
X105412213Y-71308028D01*
X105246614Y-71187715D01*
X105240006Y-71184348D01*
X105153917Y-71140483D01*
X105103123Y-71092511D01*
X105086328Y-71024690D01*
X105108865Y-70958555D01*
X105153917Y-70919516D01*
X105246610Y-70872287D01*
X105364683Y-70786503D01*
X105412213Y-70751971D01*
X105412215Y-70751968D01*
X105412219Y-70751966D01*
X105556966Y-70607219D01*
X105556968Y-70607215D01*
X105556971Y-70607213D01*
X105627812Y-70509707D01*
X105677287Y-70441610D01*
X105770220Y-70259219D01*
X105833477Y-70064534D01*
X105865500Y-69862352D01*
X105865500Y-69657648D01*
X105839477Y-69493349D01*
X105833477Y-69455465D01*
X105770218Y-69260776D01*
X105709877Y-69142352D01*
X105677287Y-69078390D01*
X105669556Y-69067749D01*
X105556971Y-68912786D01*
X105412213Y-68768028D01*
X105246614Y-68647715D01*
X105240006Y-68644348D01*
X105153917Y-68600483D01*
X105103123Y-68552511D01*
X105086328Y-68484690D01*
X105108865Y-68418555D01*
X105153917Y-68379516D01*
X105246610Y-68332287D01*
X105274384Y-68312108D01*
X105412213Y-68211971D01*
X105412215Y-68211968D01*
X105412219Y-68211966D01*
X105556966Y-68067219D01*
X105556968Y-68067215D01*
X105556971Y-68067213D01*
X105636606Y-67957603D01*
X105677287Y-67901610D01*
X105770220Y-67719219D01*
X105833477Y-67524534D01*
X105865500Y-67322352D01*
X105865500Y-67117648D01*
X105847552Y-67004332D01*
X105833477Y-66915465D01*
X105784048Y-66763339D01*
X105770220Y-66720781D01*
X105770218Y-66720778D01*
X105770218Y-66720776D01*
X105688703Y-66560795D01*
X105675807Y-66492126D01*
X105702083Y-66427385D01*
X105759190Y-66387128D01*
X105799188Y-66380500D01*
X110950812Y-66380500D01*
X111017851Y-66400185D01*
X111063606Y-66452989D01*
X111073550Y-66522147D01*
X111061297Y-66560795D01*
X110979781Y-66720776D01*
X110916522Y-66915465D01*
X110884500Y-67117648D01*
X110884500Y-67322351D01*
X110916522Y-67524534D01*
X110979781Y-67719223D01*
X111004878Y-67768477D01*
X111061949Y-67880485D01*
X111072715Y-67901613D01*
X111193028Y-68067213D01*
X111337786Y-68211971D01*
X111475616Y-68312108D01*
X111503390Y-68332287D01*
X111573251Y-68367883D01*
X111596080Y-68379515D01*
X111646876Y-68427490D01*
X111663671Y-68495311D01*
X111641134Y-68561446D01*
X111596080Y-68600485D01*
X111503386Y-68647715D01*
X111337786Y-68768028D01*
X111193028Y-68912786D01*
X111072715Y-69078386D01*
X110979781Y-69260776D01*
X110916522Y-69455465D01*
X110887209Y-69640546D01*
X110884500Y-69657648D01*
X110884500Y-69862352D01*
X110892603Y-69913514D01*
X110916523Y-70064535D01*
X110916524Y-70064539D01*
X110922781Y-70083798D01*
X110924774Y-70153639D01*
X110888693Y-70213471D01*
X110825991Y-70244297D01*
X110780658Y-70243730D01*
X110658846Y-70219500D01*
X110658842Y-70219500D01*
X110501158Y-70219500D01*
X110501155Y-70219500D01*
X110346510Y-70250261D01*
X110346498Y-70250264D01*
X110200827Y-70310602D01*
X110200814Y-70310609D01*
X110069711Y-70398210D01*
X110069707Y-70398213D01*
X109958213Y-70509707D01*
X109958210Y-70509711D01*
X109870609Y-70640814D01*
X109870602Y-70640827D01*
X109810264Y-70786498D01*
X109810261Y-70786510D01*
X109779500Y-70941153D01*
X109779500Y-71098846D01*
X109810261Y-71253489D01*
X109810264Y-71253501D01*
X109870602Y-71399172D01*
X109870609Y-71399185D01*
X109958210Y-71530288D01*
X109958213Y-71530292D01*
X110069707Y-71641786D01*
X110069711Y-71641789D01*
X110200814Y-71729390D01*
X110200827Y-71729397D01*
X110346498Y-71789735D01*
X110346503Y-71789737D01*
X110496030Y-71819480D01*
X110501153Y-71820499D01*
X110501156Y-71820500D01*
X110501158Y-71820500D01*
X110658844Y-71820500D01*
X110757975Y-71800781D01*
X110787605Y-71794887D01*
X110857197Y-71801114D01*
X110912374Y-71843977D01*
X110935619Y-71909866D01*
X110929728Y-71954821D01*
X110916524Y-71995457D01*
X110916523Y-71995464D01*
X110884500Y-72197648D01*
X110884500Y-72402351D01*
X110916522Y-72604534D01*
X110979781Y-72799223D01*
X111072715Y-72981613D01*
X111193028Y-73147213D01*
X111337786Y-73291971D01*
X111489132Y-73401928D01*
X111503390Y-73412287D01*
X111594840Y-73458883D01*
X111596080Y-73459515D01*
X111646876Y-73507490D01*
X111663671Y-73575311D01*
X111641134Y-73641446D01*
X111596080Y-73680485D01*
X111503386Y-73727715D01*
X111337786Y-73848028D01*
X111193028Y-73992786D01*
X111072715Y-74158386D01*
X110979781Y-74340776D01*
X110916522Y-74535465D01*
X110884500Y-74737648D01*
X110884500Y-74942351D01*
X110916522Y-75144534D01*
X110979781Y-75339223D01*
X111072715Y-75521613D01*
X111193028Y-75687213D01*
X111337786Y-75831971D01*
X111492749Y-75944556D01*
X111503390Y-75952287D01*
X111594840Y-75998883D01*
X111596080Y-75999515D01*
X111646876Y-76047490D01*
X111663671Y-76115311D01*
X111641134Y-76181446D01*
X111596080Y-76220485D01*
X111503386Y-76267715D01*
X111337786Y-76388028D01*
X111193028Y-76532786D01*
X111072715Y-76698386D01*
X110979781Y-76880776D01*
X110916522Y-77075465D01*
X110884500Y-77277648D01*
X110884500Y-77482351D01*
X110916522Y-77684534D01*
X110979781Y-77879223D01*
X111001052Y-77920968D01*
X111072585Y-78061359D01*
X111072715Y-78061613D01*
X111193028Y-78227213D01*
X111193034Y-78227219D01*
X111337781Y-78371966D01*
X111431452Y-78440021D01*
X111474117Y-78495350D01*
X111480096Y-78564963D01*
X111447491Y-78626759D01*
X111397571Y-78658045D01*
X111315666Y-78685186D01*
X111315663Y-78685187D01*
X111166342Y-78777289D01*
X111042289Y-78901342D01*
X110950187Y-79050663D01*
X110950185Y-79050668D01*
X110931229Y-79107875D01*
X110895001Y-79217203D01*
X110895001Y-79217204D01*
X110895000Y-79217204D01*
X110884500Y-79319983D01*
X110884500Y-80520001D01*
X110884501Y-80520018D01*
X110895000Y-80622796D01*
X110895001Y-80622799D01*
X110915937Y-80685978D01*
X110950186Y-80789334D01*
X111042288Y-80938656D01*
X111166344Y-81062712D01*
X111315666Y-81154814D01*
X111482203Y-81209999D01*
X111584991Y-81220500D01*
X112785008Y-81220499D01*
X112887797Y-81209999D01*
X113054334Y-81154814D01*
X113203656Y-81062712D01*
X113327712Y-80938656D01*
X113419814Y-80789334D01*
X113474999Y-80622797D01*
X113485500Y-80520009D01*
X113485499Y-79319992D01*
X113482367Y-79289336D01*
X113474999Y-79217203D01*
X113474998Y-79217200D01*
X113458822Y-79168384D01*
X113419814Y-79050666D01*
X113327712Y-78901344D01*
X113203656Y-78777288D01*
X113203655Y-78777287D01*
X113159478Y-78750039D01*
X113112753Y-78698091D01*
X113101530Y-78629129D01*
X113129373Y-78565047D01*
X113187442Y-78526190D01*
X113224574Y-78520500D01*
X118268164Y-78520500D01*
X118335203Y-78540185D01*
X118378648Y-78588204D01*
X118412185Y-78654023D01*
X118541752Y-78832358D01*
X118541756Y-78832363D01*
X118697636Y-78988243D01*
X118697641Y-78988247D01*
X118820975Y-79077853D01*
X118875978Y-79117815D01*
X119004375Y-79183237D01*
X119072393Y-79217895D01*
X119072396Y-79217896D01*
X119135472Y-79238390D01*
X119282049Y-79286015D01*
X119499778Y-79320500D01*
X119499779Y-79320500D01*
X119720221Y-79320500D01*
X119720222Y-79320500D01*
X119937951Y-79286015D01*
X120147606Y-79217895D01*
X120344022Y-79117815D01*
X120522365Y-78988242D01*
X120572536Y-78938070D01*
X120633857Y-78904586D01*
X120703548Y-78909570D01*
X120759482Y-78951441D01*
X120776398Y-78982419D01*
X120806202Y-79062328D01*
X120806206Y-79062335D01*
X120892452Y-79177544D01*
X120892455Y-79177547D01*
X121007664Y-79263793D01*
X121007671Y-79263797D01*
X121142517Y-79314091D01*
X121142516Y-79314091D01*
X121149444Y-79314835D01*
X121202127Y-79320500D01*
X123097872Y-79320499D01*
X123157483Y-79314091D01*
X123212167Y-79293694D01*
X123281858Y-79288711D01*
X123343181Y-79322196D01*
X123376666Y-79383519D01*
X123379500Y-79409877D01*
X123379500Y-87416249D01*
X123379274Y-87423736D01*
X123361728Y-87713794D01*
X123359923Y-87728659D01*
X123308219Y-88010797D01*
X123304635Y-88025335D01*
X123219304Y-88299174D01*
X123213994Y-88313176D01*
X123096277Y-88574730D01*
X123089319Y-88587987D01*
X122940928Y-88833458D01*
X122932422Y-88845782D01*
X122755525Y-89071573D01*
X122745595Y-89082781D01*
X122542781Y-89285595D01*
X122531573Y-89295525D01*
X122305782Y-89472422D01*
X122293458Y-89480928D01*
X122047987Y-89629319D01*
X122034730Y-89636277D01*
X121773176Y-89753994D01*
X121759174Y-89759304D01*
X121485335Y-89844635D01*
X121470797Y-89848219D01*
X121188659Y-89899923D01*
X121173794Y-89901728D01*
X120883736Y-89919274D01*
X120876249Y-89919500D01*
X89383751Y-89919500D01*
X89376264Y-89919274D01*
X89086205Y-89901728D01*
X89071340Y-89899923D01*
X88789202Y-89848219D01*
X88774664Y-89844635D01*
X88500825Y-89759304D01*
X88486827Y-89753995D01*
X88334096Y-89685256D01*
X88225269Y-89636277D01*
X88212012Y-89629319D01*
X87966541Y-89480928D01*
X87954217Y-89472422D01*
X87728426Y-89295525D01*
X87717218Y-89285595D01*
X87514404Y-89082781D01*
X87504474Y-89071573D01*
X87442022Y-88991859D01*
X87327573Y-88845776D01*
X87319071Y-88833458D01*
X87170680Y-88587987D01*
X87163722Y-88574730D01*
X87046000Y-88313163D01*
X87040698Y-88299182D01*
X86955363Y-88025334D01*
X86951780Y-88010797D01*
X86918160Y-87827339D01*
X86900075Y-87728657D01*
X86898271Y-87713794D01*
X86888963Y-87559920D01*
X86880726Y-87423736D01*
X86880500Y-87416249D01*
X86880500Y-87298711D01*
X87529500Y-87298711D01*
X87529500Y-87541288D01*
X87561161Y-87781785D01*
X87623947Y-88016104D01*
X87693665Y-88184417D01*
X87716776Y-88240212D01*
X87838064Y-88450289D01*
X87838066Y-88450292D01*
X87838067Y-88450293D01*
X87985733Y-88642736D01*
X87985739Y-88642743D01*
X88157256Y-88814260D01*
X88157263Y-88814266D01*
X88232466Y-88871971D01*
X88349711Y-88961936D01*
X88559788Y-89083224D01*
X88783900Y-89176054D01*
X89018211Y-89238838D01*
X89198586Y-89262584D01*
X89258711Y-89270500D01*
X89258712Y-89270500D01*
X89501289Y-89270500D01*
X89549388Y-89264167D01*
X89741789Y-89238838D01*
X89976100Y-89176054D01*
X90200212Y-89083224D01*
X90410289Y-88961936D01*
X90602738Y-88814265D01*
X90774265Y-88642738D01*
X90921936Y-88450289D01*
X91043224Y-88240212D01*
X91136054Y-88016100D01*
X91198838Y-87781789D01*
X91199379Y-87777682D01*
X102000000Y-87777682D01*
X102000000Y-87982317D01*
X102032009Y-88184417D01*
X102095244Y-88379031D01*
X102188141Y-88561350D01*
X102188147Y-88561359D01*
X102220523Y-88605921D01*
X102220524Y-88605922D01*
X102900000Y-87926446D01*
X102900000Y-87932661D01*
X102927259Y-88034394D01*
X102979920Y-88125606D01*
X103054394Y-88200080D01*
X103145606Y-88252741D01*
X103247339Y-88280000D01*
X103253553Y-88280000D01*
X102574076Y-88959474D01*
X102618650Y-88991859D01*
X102800968Y-89084755D01*
X102995582Y-89147990D01*
X103197683Y-89180000D01*
X103402317Y-89180000D01*
X103604417Y-89147990D01*
X103799031Y-89084755D01*
X103981349Y-88991859D01*
X104025921Y-88959474D01*
X103346447Y-88280000D01*
X103352661Y-88280000D01*
X103454394Y-88252741D01*
X103545606Y-88200080D01*
X103620080Y-88125606D01*
X103672741Y-88034394D01*
X103700000Y-87932661D01*
X103700000Y-87926447D01*
X104379474Y-88605921D01*
X104411859Y-88561349D01*
X104504755Y-88379031D01*
X104567990Y-88184417D01*
X104600000Y-87982317D01*
X104600000Y-87777682D01*
X104599995Y-87777648D01*
X112159500Y-87777648D01*
X112159500Y-87982351D01*
X112191522Y-88184534D01*
X112254781Y-88379223D01*
X112290992Y-88450289D01*
X112347585Y-88561359D01*
X112347715Y-88561613D01*
X112468028Y-88727213D01*
X112612786Y-88871971D01*
X112736615Y-88961936D01*
X112778390Y-88992287D01*
X112894607Y-89051503D01*
X112960776Y-89085218D01*
X112960778Y-89085218D01*
X112960781Y-89085220D01*
X113065137Y-89119127D01*
X113155465Y-89148477D01*
X113256557Y-89164488D01*
X113357648Y-89180500D01*
X113357649Y-89180500D01*
X113562351Y-89180500D01*
X113562352Y-89180500D01*
X113764534Y-89148477D01*
X113959219Y-89085220D01*
X114141610Y-88992287D01*
X114243222Y-88918462D01*
X114307213Y-88871971D01*
X114307215Y-88871968D01*
X114307219Y-88871966D01*
X114451966Y-88727219D01*
X114451968Y-88727215D01*
X114451971Y-88727213D01*
X114513341Y-88642743D01*
X114572287Y-88561610D01*
X114665220Y-88379219D01*
X114728477Y-88184534D01*
X114760500Y-87982352D01*
X114760500Y-87777648D01*
X114750386Y-87713794D01*
X114728477Y-87575465D01*
X114686248Y-87445500D01*
X114665220Y-87380781D01*
X114665217Y-87380777D01*
X114665217Y-87380774D01*
X114650020Y-87350949D01*
X114650019Y-87350948D01*
X114647781Y-87346555D01*
X114623403Y-87298711D01*
X119029500Y-87298711D01*
X119029500Y-87541288D01*
X119061161Y-87781785D01*
X119123947Y-88016104D01*
X119193665Y-88184417D01*
X119216776Y-88240212D01*
X119338064Y-88450289D01*
X119338066Y-88450292D01*
X119338067Y-88450293D01*
X119485733Y-88642736D01*
X119485739Y-88642743D01*
X119657256Y-88814260D01*
X119657263Y-88814266D01*
X119732466Y-88871971D01*
X119849711Y-88961936D01*
X120059788Y-89083224D01*
X120283900Y-89176054D01*
X120518211Y-89238838D01*
X120698586Y-89262584D01*
X120758711Y-89270500D01*
X120758712Y-89270500D01*
X121001289Y-89270500D01*
X121049388Y-89264167D01*
X121241789Y-89238838D01*
X121476100Y-89176054D01*
X121700212Y-89083224D01*
X121910289Y-88961936D01*
X122102738Y-88814265D01*
X122274265Y-88642738D01*
X122421936Y-88450289D01*
X122543224Y-88240212D01*
X122636054Y-88016100D01*
X122698838Y-87781789D01*
X122730500Y-87541288D01*
X122730500Y-87298712D01*
X122698838Y-87058211D01*
X122636054Y-86823900D01*
X122543224Y-86599788D01*
X122421936Y-86389711D01*
X122316272Y-86252007D01*
X122274266Y-86197263D01*
X122274260Y-86197256D01*
X122102743Y-86025739D01*
X122102736Y-86025733D01*
X121910293Y-85878067D01*
X121910292Y-85878066D01*
X121910289Y-85878064D01*
X121700212Y-85756776D01*
X121688699Y-85752007D01*
X121476104Y-85663947D01*
X121241785Y-85601161D01*
X121001289Y-85569500D01*
X121001288Y-85569500D01*
X120758712Y-85569500D01*
X120758711Y-85569500D01*
X120518214Y-85601161D01*
X120283895Y-85663947D01*
X120059794Y-85756773D01*
X120059785Y-85756777D01*
X119849706Y-85878067D01*
X119657263Y-86025733D01*
X119657256Y-86025739D01*
X119485739Y-86197256D01*
X119485733Y-86197263D01*
X119338067Y-86389706D01*
X119338064Y-86389710D01*
X119338064Y-86389711D01*
X119321817Y-86417851D01*
X119216777Y-86599785D01*
X119216773Y-86599794D01*
X119123947Y-86823895D01*
X119061161Y-87058214D01*
X119029500Y-87298711D01*
X114623403Y-87298711D01*
X114572287Y-87198390D01*
X114572285Y-87198387D01*
X114572284Y-87198385D01*
X114451971Y-87032786D01*
X114307213Y-86888028D01*
X114141613Y-86767715D01*
X114141612Y-86767714D01*
X114141610Y-86767713D01*
X114084653Y-86738691D01*
X113959223Y-86674781D01*
X113764534Y-86611522D01*
X113589995Y-86583878D01*
X113562352Y-86579500D01*
X113357648Y-86579500D01*
X113333329Y-86583351D01*
X113155465Y-86611522D01*
X112960776Y-86674781D01*
X112778386Y-86767715D01*
X112612786Y-86888028D01*
X112468028Y-87032786D01*
X112347715Y-87198386D01*
X112254781Y-87380776D01*
X112191522Y-87575465D01*
X112159500Y-87777648D01*
X104599995Y-87777648D01*
X104567990Y-87575582D01*
X104504755Y-87380968D01*
X104411859Y-87198650D01*
X104379474Y-87154077D01*
X104379474Y-87154076D01*
X103700000Y-87833551D01*
X103700000Y-87827339D01*
X103672741Y-87725606D01*
X103620080Y-87634394D01*
X103545606Y-87559920D01*
X103454394Y-87507259D01*
X103352661Y-87480000D01*
X103346446Y-87480000D01*
X104025922Y-86800524D01*
X104025921Y-86800523D01*
X103981359Y-86768147D01*
X103981350Y-86768141D01*
X103799031Y-86675244D01*
X103604417Y-86612009D01*
X103402317Y-86580000D01*
X103197683Y-86580000D01*
X102995582Y-86612009D01*
X102800968Y-86675244D01*
X102618644Y-86768143D01*
X102574077Y-86800523D01*
X102574077Y-86800524D01*
X103253554Y-87480000D01*
X103247339Y-87480000D01*
X103145606Y-87507259D01*
X103054394Y-87559920D01*
X102979920Y-87634394D01*
X102927259Y-87725606D01*
X102900000Y-87827339D01*
X102900000Y-87833553D01*
X102220524Y-87154077D01*
X102220523Y-87154077D01*
X102188143Y-87198644D01*
X102095244Y-87380968D01*
X102032009Y-87575582D01*
X102000000Y-87777682D01*
X91199379Y-87777682D01*
X91230500Y-87541288D01*
X91230500Y-87298712D01*
X91198838Y-87058211D01*
X91136054Y-86823900D01*
X91043224Y-86599788D01*
X90921936Y-86389711D01*
X90816272Y-86252007D01*
X90774266Y-86197263D01*
X90774260Y-86197256D01*
X90602743Y-86025739D01*
X90602736Y-86025733D01*
X90410293Y-85878067D01*
X90410292Y-85878066D01*
X90410289Y-85878064D01*
X90200212Y-85756776D01*
X90188699Y-85752007D01*
X89976104Y-85663947D01*
X89741785Y-85601161D01*
X89501289Y-85569500D01*
X89501288Y-85569500D01*
X89258712Y-85569500D01*
X89258711Y-85569500D01*
X89018214Y-85601161D01*
X88783895Y-85663947D01*
X88559794Y-85756773D01*
X88559785Y-85756777D01*
X88349706Y-85878067D01*
X88157263Y-86025733D01*
X88157256Y-86025739D01*
X87985739Y-86197256D01*
X87985733Y-86197263D01*
X87838067Y-86389706D01*
X87838064Y-86389710D01*
X87838064Y-86389711D01*
X87821817Y-86417851D01*
X87716777Y-86599785D01*
X87716773Y-86599794D01*
X87623947Y-86823895D01*
X87561161Y-87058214D01*
X87529500Y-87298711D01*
X86880500Y-87298711D01*
X86880500Y-82397648D01*
X88079500Y-82397648D01*
X88079500Y-82602351D01*
X88111522Y-82804534D01*
X88174781Y-82999223D01*
X88215685Y-83079500D01*
X88264469Y-83175244D01*
X88267715Y-83181613D01*
X88388028Y-83347213D01*
X88532786Y-83491971D01*
X88687749Y-83604556D01*
X88698390Y-83612287D01*
X88814607Y-83671503D01*
X88880776Y-83705218D01*
X88880778Y-83705218D01*
X88880781Y-83705220D01*
X88985137Y-83739127D01*
X89075465Y-83768477D01*
X89176557Y-83784488D01*
X89277648Y-83800500D01*
X89277649Y-83800500D01*
X89482350Y-83800500D01*
X89482352Y-83800500D01*
X89599068Y-83782013D01*
X89668362Y-83790967D01*
X89706148Y-83816805D01*
X92378453Y-86489111D01*
X92378454Y-86489112D01*
X92493192Y-86565777D01*
X92604808Y-86612009D01*
X92620672Y-86618580D01*
X92620676Y-86618580D01*
X92620677Y-86618581D01*
X92756003Y-86645500D01*
X92756006Y-86645500D01*
X92756007Y-86645500D01*
X94818805Y-86645500D01*
X94885844Y-86665185D01*
X94929290Y-86713205D01*
X94973781Y-86800524D01*
X94974950Y-86802817D01*
X94974956Y-86802826D01*
X95099890Y-86974786D01*
X95250213Y-87125109D01*
X95422179Y-87250048D01*
X95422181Y-87250049D01*
X95422184Y-87250051D01*
X95611588Y-87346557D01*
X95813757Y-87412246D01*
X96023713Y-87445500D01*
X96023714Y-87445500D01*
X96236286Y-87445500D01*
X96236287Y-87445500D01*
X96446243Y-87412246D01*
X96648412Y-87346557D01*
X96837816Y-87250051D01*
X96908929Y-87198385D01*
X97009784Y-87125110D01*
X97009784Y-87125109D01*
X97009792Y-87125104D01*
X97148967Y-86985928D01*
X97210286Y-86952446D01*
X97279978Y-86957430D01*
X97335912Y-86999301D01*
X97342184Y-87008515D01*
X97437684Y-87163345D01*
X97561654Y-87287315D01*
X97710875Y-87379356D01*
X97710880Y-87379358D01*
X97877302Y-87434505D01*
X97877309Y-87434506D01*
X97980019Y-87444999D01*
X98379999Y-87444999D01*
X98380000Y-87444998D01*
X98380000Y-86378012D01*
X98437007Y-86410925D01*
X98564174Y-86445000D01*
X98695826Y-86445000D01*
X98822993Y-86410925D01*
X98880000Y-86378012D01*
X98880000Y-87444999D01*
X99279972Y-87444999D01*
X99279986Y-87444998D01*
X99382697Y-87434505D01*
X99549119Y-87379358D01*
X99549124Y-87379356D01*
X99698345Y-87287315D01*
X99822315Y-87163345D01*
X99914356Y-87014124D01*
X99914358Y-87014119D01*
X99969505Y-86847697D01*
X99969506Y-86847690D01*
X99970785Y-86835179D01*
X99970785Y-86835178D01*
X99979999Y-86744988D01*
X99980000Y-86744973D01*
X99980000Y-86195000D01*
X99063012Y-86195000D01*
X99095925Y-86137993D01*
X99130000Y-86010826D01*
X99130000Y-85879174D01*
X99095925Y-85752007D01*
X99063012Y-85695000D01*
X99979999Y-85695000D01*
X99979999Y-85145028D01*
X99979998Y-85145013D01*
X99969505Y-85042302D01*
X99914358Y-84875880D01*
X99914356Y-84875875D01*
X99822315Y-84726654D01*
X99698345Y-84602684D01*
X99549124Y-84510643D01*
X99549119Y-84510641D01*
X99382697Y-84455494D01*
X99382690Y-84455493D01*
X99279986Y-84445000D01*
X98880000Y-84445000D01*
X98880000Y-85511988D01*
X98822993Y-85479075D01*
X98695826Y-85445000D01*
X98564174Y-85445000D01*
X98437007Y-85479075D01*
X98380000Y-85511988D01*
X98380000Y-84445000D01*
X97980028Y-84445000D01*
X97980012Y-84445001D01*
X97877302Y-84455494D01*
X97710880Y-84510641D01*
X97710875Y-84510643D01*
X97561654Y-84602684D01*
X97437683Y-84726655D01*
X97437680Y-84726659D01*
X97342183Y-84881484D01*
X97290235Y-84928209D01*
X97221273Y-84939430D01*
X97157191Y-84911587D01*
X97148964Y-84904068D01*
X97009786Y-84764890D01*
X96837820Y-84639951D01*
X96648414Y-84543444D01*
X96648413Y-84543443D01*
X96648412Y-84543443D01*
X96446243Y-84477754D01*
X96446241Y-84477753D01*
X96446240Y-84477753D01*
X96284957Y-84452208D01*
X96236287Y-84444500D01*
X96023713Y-84444500D01*
X95975042Y-84452208D01*
X95813760Y-84477753D01*
X95611585Y-84543444D01*
X95422179Y-84639951D01*
X95250213Y-84764890D01*
X95099890Y-84915213D01*
X94974956Y-85087173D01*
X94974950Y-85087182D01*
X94929290Y-85176795D01*
X94881315Y-85227591D01*
X94818805Y-85244500D01*
X93166519Y-85244500D01*
X93099480Y-85224815D01*
X93078838Y-85208181D01*
X92148305Y-84277648D01*
X104579500Y-84277648D01*
X104579500Y-84482351D01*
X104611522Y-84684534D01*
X104674781Y-84879223D01*
X104705459Y-84939430D01*
X104767585Y-85061359D01*
X104767715Y-85061613D01*
X104888028Y-85227213D01*
X105032786Y-85371971D01*
X105133304Y-85445000D01*
X105198390Y-85492287D01*
X105301651Y-85544901D01*
X105380776Y-85585218D01*
X105380778Y-85585218D01*
X105380781Y-85585220D01*
X105485137Y-85619127D01*
X105575465Y-85648477D01*
X105673132Y-85663946D01*
X105777648Y-85680500D01*
X105777649Y-85680500D01*
X105982351Y-85680500D01*
X105982352Y-85680500D01*
X106184534Y-85648477D01*
X106379219Y-85585220D01*
X106561610Y-85492287D01*
X106654590Y-85424732D01*
X106727213Y-85371971D01*
X106727215Y-85371968D01*
X106727219Y-85371966D01*
X106871966Y-85227219D01*
X106871968Y-85227215D01*
X106871971Y-85227213D01*
X106931692Y-85145013D01*
X106992287Y-85061610D01*
X107085220Y-84879219D01*
X107148477Y-84684534D01*
X107180500Y-84482352D01*
X107180500Y-84277682D01*
X109580000Y-84277682D01*
X109580000Y-84482317D01*
X109612009Y-84684417D01*
X109675244Y-84879031D01*
X109768141Y-85061350D01*
X109768147Y-85061359D01*
X109800523Y-85105921D01*
X109800524Y-85105922D01*
X110480000Y-84426446D01*
X110480000Y-84432661D01*
X110507259Y-84534394D01*
X110559920Y-84625606D01*
X110634394Y-84700080D01*
X110725606Y-84752741D01*
X110827339Y-84780000D01*
X110833553Y-84780000D01*
X110154076Y-85459474D01*
X110198650Y-85491859D01*
X110380968Y-85584755D01*
X110575582Y-85647990D01*
X110777683Y-85680000D01*
X110982317Y-85680000D01*
X111184417Y-85647990D01*
X111379031Y-85584755D01*
X111561349Y-85491859D01*
X111605921Y-85459474D01*
X110926447Y-84780000D01*
X110932661Y-84780000D01*
X111034394Y-84752741D01*
X111125606Y-84700080D01*
X111200080Y-84625606D01*
X111252741Y-84534394D01*
X111280000Y-84432661D01*
X111280000Y-84426447D01*
X111959474Y-85105921D01*
X111991859Y-85061349D01*
X112084755Y-84879031D01*
X112147990Y-84684417D01*
X112180000Y-84482317D01*
X112180000Y-84277682D01*
X112147990Y-84075582D01*
X112084755Y-83880968D01*
X111991859Y-83698650D01*
X111959474Y-83654077D01*
X111959474Y-83654076D01*
X111280000Y-84333551D01*
X111280000Y-84327339D01*
X111252741Y-84225606D01*
X111200080Y-84134394D01*
X111125606Y-84059920D01*
X111034394Y-84007259D01*
X110932661Y-83980000D01*
X110926446Y-83980000D01*
X111605922Y-83300524D01*
X111605921Y-83300523D01*
X111561359Y-83268147D01*
X111561350Y-83268141D01*
X111379031Y-83175244D01*
X111184417Y-83112009D01*
X110982317Y-83080000D01*
X110777683Y-83080000D01*
X110575582Y-83112009D01*
X110380968Y-83175244D01*
X110198644Y-83268143D01*
X110154077Y-83300523D01*
X110154077Y-83300524D01*
X110833554Y-83980000D01*
X110827339Y-83980000D01*
X110725606Y-84007259D01*
X110634394Y-84059920D01*
X110559920Y-84134394D01*
X110507259Y-84225606D01*
X110480000Y-84327339D01*
X110480000Y-84333553D01*
X109800524Y-83654077D01*
X109800523Y-83654077D01*
X109768143Y-83698644D01*
X109675244Y-83880968D01*
X109612009Y-84075582D01*
X109580000Y-84277682D01*
X107180500Y-84277682D01*
X107180500Y-84277648D01*
X107172257Y-84225606D01*
X107148477Y-84075465D01*
X107117458Y-83980000D01*
X107085220Y-83880781D01*
X107085218Y-83880778D01*
X107085218Y-83880776D01*
X107027998Y-83768477D01*
X106992287Y-83698390D01*
X106960092Y-83654077D01*
X106871971Y-83532786D01*
X106727213Y-83388028D01*
X106561613Y-83267715D01*
X106561612Y-83267714D01*
X106561610Y-83267713D01*
X106504653Y-83238691D01*
X106379223Y-83174781D01*
X106184534Y-83111522D01*
X106009995Y-83083878D01*
X105982352Y-83079500D01*
X105777648Y-83079500D01*
X105753329Y-83083351D01*
X105575465Y-83111522D01*
X105380776Y-83174781D01*
X105198386Y-83267715D01*
X105032786Y-83388028D01*
X104888028Y-83532786D01*
X104767715Y-83698386D01*
X104674781Y-83880776D01*
X104611522Y-84075465D01*
X104579500Y-84277648D01*
X92148305Y-84277648D01*
X90696805Y-82826148D01*
X90663320Y-82764825D01*
X90662013Y-82719068D01*
X90662199Y-82717895D01*
X90680500Y-82602352D01*
X90680500Y-82397648D01*
X90648477Y-82195466D01*
X90585220Y-82000781D01*
X90585218Y-82000778D01*
X90585218Y-82000776D01*
X90551503Y-81934607D01*
X90492287Y-81818390D01*
X90484556Y-81807749D01*
X90371971Y-81652786D01*
X90227213Y-81508028D01*
X90061613Y-81387715D01*
X90061612Y-81387714D01*
X90061610Y-81387713D01*
X90004653Y-81358691D01*
X89908656Y-81309778D01*
X115709500Y-81309778D01*
X115709500Y-81530221D01*
X115743985Y-81747952D01*
X115812103Y-81957603D01*
X115812104Y-81957606D01*
X115912187Y-82154025D01*
X116041752Y-82332358D01*
X116041756Y-82332363D01*
X116197636Y-82488243D01*
X116197641Y-82488247D01*
X116299606Y-82562328D01*
X116375978Y-82617815D01*
X116504375Y-82683237D01*
X116572393Y-82717895D01*
X116572396Y-82717896D01*
X116677221Y-82751955D01*
X116782049Y-82786015D01*
X116999778Y-82820500D01*
X116999779Y-82820500D01*
X117220221Y-82820500D01*
X117220222Y-82820500D01*
X117437951Y-82786015D01*
X117647606Y-82717895D01*
X117844022Y-82617815D01*
X118022365Y-82488242D01*
X118072536Y-82438070D01*
X118133857Y-82404586D01*
X118203548Y-82409570D01*
X118259482Y-82451441D01*
X118276398Y-82482419D01*
X118306202Y-82562328D01*
X118306206Y-82562335D01*
X118392452Y-82677544D01*
X118392455Y-82677547D01*
X118507664Y-82763793D01*
X118507671Y-82763797D01*
X118642517Y-82814091D01*
X118642516Y-82814091D01*
X118649444Y-82814835D01*
X118702127Y-82820500D01*
X120597872Y-82820499D01*
X120657483Y-82814091D01*
X120792331Y-82763796D01*
X120907546Y-82677546D01*
X120993796Y-82562331D01*
X121044091Y-82427483D01*
X121050500Y-82367873D01*
X121050499Y-80472128D01*
X121044091Y-80412517D01*
X121026943Y-80366542D01*
X120993797Y-80277671D01*
X120993793Y-80277664D01*
X120907547Y-80162455D01*
X120907544Y-80162452D01*
X120792335Y-80076206D01*
X120792328Y-80076202D01*
X120657482Y-80025908D01*
X120657483Y-80025908D01*
X120597883Y-80019501D01*
X120597881Y-80019500D01*
X120597873Y-80019500D01*
X120597864Y-80019500D01*
X118702129Y-80019500D01*
X118702123Y-80019501D01*
X118642516Y-80025908D01*
X118507671Y-80076202D01*
X118507664Y-80076206D01*
X118392455Y-80162452D01*
X118392452Y-80162455D01*
X118306206Y-80277664D01*
X118306203Y-80277669D01*
X118276398Y-80357581D01*
X118234526Y-80413514D01*
X118169062Y-80437931D01*
X118100789Y-80423079D01*
X118072535Y-80401928D01*
X118022363Y-80351756D01*
X118022358Y-80351752D01*
X117844025Y-80222187D01*
X117844024Y-80222186D01*
X117844022Y-80222185D01*
X117726791Y-80162452D01*
X117647606Y-80122104D01*
X117647603Y-80122103D01*
X117437952Y-80053985D01*
X117329086Y-80036742D01*
X117220222Y-80019500D01*
X116999778Y-80019500D01*
X116927201Y-80030995D01*
X116782047Y-80053985D01*
X116572396Y-80122103D01*
X116572393Y-80122104D01*
X116375974Y-80222187D01*
X116197641Y-80351752D01*
X116197636Y-80351756D01*
X116041756Y-80507636D01*
X116041752Y-80507641D01*
X115912187Y-80685974D01*
X115812104Y-80882393D01*
X115812103Y-80882396D01*
X115743985Y-81092047D01*
X115709500Y-81309778D01*
X89908656Y-81309778D01*
X89879223Y-81294781D01*
X89684534Y-81231522D01*
X89509995Y-81203878D01*
X89482352Y-81199500D01*
X89277648Y-81199500D01*
X89253329Y-81203351D01*
X89075465Y-81231522D01*
X88880776Y-81294781D01*
X88698386Y-81387715D01*
X88532786Y-81508028D01*
X88388028Y-81652786D01*
X88267715Y-81818386D01*
X88174781Y-82000776D01*
X88111522Y-82195465D01*
X88079500Y-82397648D01*
X86880500Y-82397648D01*
X86880500Y-71739983D01*
X88079500Y-71739983D01*
X88079500Y-72940001D01*
X88079501Y-72940018D01*
X88090000Y-73042796D01*
X88090001Y-73042799D01*
X88145185Y-73209331D01*
X88145187Y-73209336D01*
X88153114Y-73222187D01*
X88237288Y-73358656D01*
X88361344Y-73482712D01*
X88510666Y-73574814D01*
X88677203Y-73629999D01*
X88779991Y-73640500D01*
X89980008Y-73640499D01*
X90082797Y-73629999D01*
X90249334Y-73574814D01*
X90398656Y-73482712D01*
X90522712Y-73358656D01*
X90614814Y-73209334D01*
X90669999Y-73042797D01*
X90680500Y-72940009D01*
X90680499Y-72317682D01*
X93580000Y-72317682D01*
X93580000Y-72522317D01*
X93612009Y-72724417D01*
X93675244Y-72919031D01*
X93768141Y-73101350D01*
X93768147Y-73101359D01*
X93800523Y-73145921D01*
X93800524Y-73145922D01*
X94480000Y-72466446D01*
X94480000Y-72472661D01*
X94507259Y-72574394D01*
X94559920Y-72665606D01*
X94634394Y-72740080D01*
X94725606Y-72792741D01*
X94827339Y-72820000D01*
X94833553Y-72820000D01*
X94154076Y-73499474D01*
X94198650Y-73531859D01*
X94380968Y-73624755D01*
X94575582Y-73687990D01*
X94777683Y-73720000D01*
X94982317Y-73720000D01*
X95184417Y-73687990D01*
X95379031Y-73624755D01*
X95561349Y-73531859D01*
X95605921Y-73499474D01*
X94926447Y-72820000D01*
X94932661Y-72820000D01*
X95034394Y-72792741D01*
X95125606Y-72740080D01*
X95200080Y-72665606D01*
X95252741Y-72574394D01*
X95280000Y-72472661D01*
X95280000Y-72466447D01*
X95959474Y-73145921D01*
X95991859Y-73101349D01*
X96084755Y-72919031D01*
X96147990Y-72724417D01*
X96180000Y-72522317D01*
X96180000Y-72317682D01*
X96147990Y-72115582D01*
X96084755Y-71920968D01*
X95991859Y-71738650D01*
X95959474Y-71694077D01*
X95959474Y-71694076D01*
X95280000Y-72373551D01*
X95280000Y-72367339D01*
X95252741Y-72265606D01*
X95200080Y-72174394D01*
X95125606Y-72099920D01*
X95034394Y-72047259D01*
X94932661Y-72020000D01*
X94926446Y-72020000D01*
X95605922Y-71340524D01*
X95605921Y-71340523D01*
X95561359Y-71308147D01*
X95561350Y-71308141D01*
X95379031Y-71215244D01*
X95184417Y-71152009D01*
X94982317Y-71120000D01*
X94777683Y-71120000D01*
X94575582Y-71152009D01*
X94380968Y-71215244D01*
X94198644Y-71308143D01*
X94154077Y-71340523D01*
X94154077Y-71340524D01*
X94833554Y-72020000D01*
X94827339Y-72020000D01*
X94725606Y-72047259D01*
X94634394Y-72099920D01*
X94559920Y-72174394D01*
X94507259Y-72265606D01*
X94480000Y-72367339D01*
X94480000Y-72373553D01*
X93800524Y-71694077D01*
X93800523Y-71694077D01*
X93768143Y-71738644D01*
X93675244Y-71920968D01*
X93612009Y-72115582D01*
X93580000Y-72317682D01*
X90680499Y-72317682D01*
X90680499Y-71739992D01*
X90679416Y-71729394D01*
X90669999Y-71637203D01*
X90669998Y-71637200D01*
X90648653Y-71572786D01*
X90614814Y-71470666D01*
X90522712Y-71321344D01*
X90398656Y-71197288D01*
X90305888Y-71140069D01*
X90249336Y-71105187D01*
X90249331Y-71105185D01*
X90230189Y-71098842D01*
X90082797Y-71050001D01*
X90082795Y-71050000D01*
X89980010Y-71039500D01*
X88779998Y-71039500D01*
X88779981Y-71039501D01*
X88677203Y-71050000D01*
X88677200Y-71050001D01*
X88510668Y-71105185D01*
X88510663Y-71105187D01*
X88361342Y-71197289D01*
X88237289Y-71321342D01*
X88145187Y-71470663D01*
X88145186Y-71470666D01*
X88090001Y-71637203D01*
X88090001Y-71637204D01*
X88090000Y-71637204D01*
X88079500Y-71739983D01*
X86880500Y-71739983D01*
X86880500Y-63321617D01*
X88331934Y-63321617D01*
X88331934Y-63321618D01*
X88405666Y-63378194D01*
X88604330Y-63492893D01*
X88604340Y-63492897D01*
X88816269Y-63580681D01*
X89037862Y-63640057D01*
X89265289Y-63669998D01*
X89265306Y-63670000D01*
X89494694Y-63670000D01*
X89494710Y-63669998D01*
X89722137Y-63640057D01*
X89943730Y-63580681D01*
X90155659Y-63492897D01*
X90155668Y-63492893D01*
X90354327Y-63378197D01*
X90354334Y-63378192D01*
X90428064Y-63321617D01*
X89380000Y-62273553D01*
X88331934Y-63321617D01*
X86880500Y-63321617D01*
X86880500Y-61805305D01*
X87630000Y-61805305D01*
X87630000Y-62034694D01*
X87630001Y-62034710D01*
X87659942Y-62262137D01*
X87719318Y-62483730D01*
X87807102Y-62695659D01*
X87807106Y-62695669D01*
X87921799Y-62894324D01*
X87921805Y-62894331D01*
X87978381Y-62968064D01*
X89026446Y-61920000D01*
X89026446Y-61919999D01*
X89733553Y-61919999D01*
X89733553Y-61920000D01*
X90781617Y-62968064D01*
X90838192Y-62894334D01*
X90838197Y-62894327D01*
X90952893Y-62695668D01*
X90952897Y-62695659D01*
X91040681Y-62483730D01*
X91100057Y-62262137D01*
X91129998Y-62034710D01*
X91130000Y-62034694D01*
X91130000Y-61805305D01*
X91129998Y-61805289D01*
X91100057Y-61577862D01*
X91040681Y-61356269D01*
X90952897Y-61144340D01*
X90952893Y-61144330D01*
X90838194Y-60945666D01*
X90797284Y-60892350D01*
X90781618Y-60871934D01*
X90781617Y-60871934D01*
X89733553Y-61919999D01*
X89026446Y-61919999D01*
X87978380Y-60871934D01*
X87921810Y-60945659D01*
X87921801Y-60945673D01*
X87807106Y-61144330D01*
X87807102Y-61144340D01*
X87719318Y-61356269D01*
X87659942Y-61577862D01*
X87630001Y-61805289D01*
X87630000Y-61805305D01*
X86880500Y-61805305D01*
X86880500Y-60518380D01*
X88331934Y-60518380D01*
X89379999Y-61566446D01*
X90428064Y-60518381D01*
X90428064Y-60518380D01*
X90354331Y-60461805D01*
X90354324Y-60461799D01*
X90155669Y-60347106D01*
X90155659Y-60347102D01*
X89943730Y-60259318D01*
X89722137Y-60199942D01*
X89494710Y-60170001D01*
X89494694Y-60170000D01*
X89265306Y-60170000D01*
X89265289Y-60170001D01*
X89037862Y-60199942D01*
X88816269Y-60259318D01*
X88604340Y-60347102D01*
X88604330Y-60347106D01*
X88405673Y-60461801D01*
X88405659Y-60461810D01*
X88331934Y-60518380D01*
X86880500Y-60518380D01*
X86880500Y-58817648D01*
X101999500Y-58817648D01*
X101999500Y-59022352D01*
X102003878Y-59049995D01*
X102031522Y-59224534D01*
X102094781Y-59419223D01*
X102187715Y-59601613D01*
X102308028Y-59767213D01*
X102452786Y-59911971D01*
X102545961Y-59979665D01*
X102618390Y-60032287D01*
X102734607Y-60091503D01*
X102800776Y-60125218D01*
X102800778Y-60125218D01*
X102800781Y-60125220D01*
X102905137Y-60159127D01*
X102995465Y-60188477D01*
X103067852Y-60199942D01*
X103197648Y-60220500D01*
X103197649Y-60220500D01*
X103402351Y-60220500D01*
X103402352Y-60220500D01*
X103604534Y-60188477D01*
X103799219Y-60125220D01*
X103981610Y-60032287D01*
X104074590Y-59964732D01*
X104147213Y-59911971D01*
X104147215Y-59911968D01*
X104147219Y-59911966D01*
X104291966Y-59767219D01*
X104291968Y-59767215D01*
X104291971Y-59767213D01*
X104344732Y-59694590D01*
X104412287Y-59601610D01*
X104505220Y-59419219D01*
X104568477Y-59224534D01*
X104600500Y-59022352D01*
X104600500Y-58817648D01*
X104568477Y-58615465D01*
X104505218Y-58420776D01*
X104454124Y-58320500D01*
X104412287Y-58238390D01*
X104392098Y-58210602D01*
X104291971Y-58072786D01*
X104147213Y-57928028D01*
X103981613Y-57807715D01*
X103981612Y-57807714D01*
X103981610Y-57807713D01*
X103924653Y-57778691D01*
X103799223Y-57714781D01*
X103604534Y-57651522D01*
X103429995Y-57623878D01*
X103402352Y-57619500D01*
X103197648Y-57619500D01*
X103173329Y-57623351D01*
X102995465Y-57651522D01*
X102800776Y-57714781D01*
X102618386Y-57807715D01*
X102452786Y-57928028D01*
X102308028Y-58072786D01*
X102187715Y-58238386D01*
X102094781Y-58420776D01*
X102031522Y-58615465D01*
X101999500Y-58817648D01*
X86880500Y-58817648D01*
X86880500Y-55805258D01*
X87629500Y-55805258D01*
X87629500Y-56034741D01*
X87649411Y-56185974D01*
X87659452Y-56262238D01*
X87718842Y-56483887D01*
X87806650Y-56695876D01*
X87806657Y-56695890D01*
X87921392Y-56894617D01*
X88061081Y-57076661D01*
X88061089Y-57076670D01*
X88223330Y-57238911D01*
X88223338Y-57238918D01*
X88405382Y-57378607D01*
X88405385Y-57378608D01*
X88405388Y-57378611D01*
X88604112Y-57493344D01*
X88604117Y-57493346D01*
X88604123Y-57493349D01*
X88695480Y-57531190D01*
X88816113Y-57581158D01*
X89037762Y-57640548D01*
X89265266Y-57670500D01*
X89265273Y-57670500D01*
X89494727Y-57670500D01*
X89494734Y-57670500D01*
X89722238Y-57640548D01*
X89943887Y-57581158D01*
X90155888Y-57493344D01*
X90354612Y-57378611D01*
X90536661Y-57238919D01*
X90536665Y-57238914D01*
X90536670Y-57238911D01*
X90698911Y-57076670D01*
X90698914Y-57076665D01*
X90698919Y-57076661D01*
X90838611Y-56894612D01*
X90883026Y-56817682D01*
X93385000Y-56817682D01*
X93385000Y-57022317D01*
X93417009Y-57224417D01*
X93480244Y-57419031D01*
X93573141Y-57601350D01*
X93573147Y-57601359D01*
X93605523Y-57645921D01*
X93605524Y-57645922D01*
X94285000Y-56966446D01*
X94285000Y-56972661D01*
X94312259Y-57074394D01*
X94364920Y-57165606D01*
X94439394Y-57240080D01*
X94530606Y-57292741D01*
X94632339Y-57320000D01*
X94638553Y-57320000D01*
X93959076Y-57999474D01*
X94003650Y-58031859D01*
X94185968Y-58124755D01*
X94380582Y-58187990D01*
X94582683Y-58220000D01*
X94787317Y-58220000D01*
X94989417Y-58187990D01*
X95184031Y-58124755D01*
X95366349Y-58031859D01*
X95410921Y-57999474D01*
X94731447Y-57320000D01*
X94737661Y-57320000D01*
X94839394Y-57292741D01*
X94930606Y-57240080D01*
X95005080Y-57165606D01*
X95057741Y-57074394D01*
X95085000Y-56972661D01*
X95085000Y-56966447D01*
X95764474Y-57645921D01*
X95796859Y-57601349D01*
X95889755Y-57419031D01*
X95952990Y-57224417D01*
X95985000Y-57022317D01*
X95985000Y-56817682D01*
X95984995Y-56817648D01*
X98384500Y-56817648D01*
X98384500Y-57022351D01*
X98416522Y-57224534D01*
X98479781Y-57419223D01*
X98517551Y-57493349D01*
X98572585Y-57601359D01*
X98572715Y-57601613D01*
X98693028Y-57767213D01*
X98837786Y-57911971D01*
X98958226Y-57999474D01*
X99003390Y-58032287D01*
X99082864Y-58072781D01*
X99185776Y-58125218D01*
X99185778Y-58125218D01*
X99185781Y-58125220D01*
X99290137Y-58159127D01*
X99380465Y-58188477D01*
X99481557Y-58204488D01*
X99582648Y-58220500D01*
X99582649Y-58220500D01*
X99787351Y-58220500D01*
X99787352Y-58220500D01*
X99989534Y-58188477D01*
X100184219Y-58125220D01*
X100366610Y-58032287D01*
X100496287Y-57938072D01*
X100532213Y-57911971D01*
X100532215Y-57911968D01*
X100532219Y-57911966D01*
X100676966Y-57767219D01*
X100676968Y-57767215D01*
X100676971Y-57767213D01*
X100747236Y-57670500D01*
X100797287Y-57601610D01*
X100890220Y-57419219D01*
X100953477Y-57224534D01*
X100985500Y-57022352D01*
X100985500Y-56817648D01*
X100953477Y-56615465D01*
X100893309Y-56430288D01*
X100890220Y-56420781D01*
X100890218Y-56420778D01*
X100890218Y-56420776D01*
X100856503Y-56354607D01*
X100797287Y-56238390D01*
X100765092Y-56194077D01*
X100676971Y-56072786D01*
X100532213Y-55928028D01*
X100366613Y-55807715D01*
X100366612Y-55807714D01*
X100366610Y-55807713D01*
X100307636Y-55777664D01*
X100184223Y-55714781D01*
X99989534Y-55651522D01*
X99803799Y-55622105D01*
X99787352Y-55619500D01*
X99582648Y-55619500D01*
X99566201Y-55622105D01*
X99380465Y-55651522D01*
X99185776Y-55714781D01*
X99003386Y-55807715D01*
X98837786Y-55928028D01*
X98693028Y-56072786D01*
X98572715Y-56238386D01*
X98479781Y-56420776D01*
X98416522Y-56615465D01*
X98384500Y-56817648D01*
X95984995Y-56817648D01*
X95952990Y-56615582D01*
X95889755Y-56420968D01*
X95796859Y-56238650D01*
X95764474Y-56194077D01*
X95764474Y-56194076D01*
X95085000Y-56873551D01*
X95085000Y-56867339D01*
X95057741Y-56765606D01*
X95005080Y-56674394D01*
X94930606Y-56599920D01*
X94839394Y-56547259D01*
X94737661Y-56520000D01*
X94731446Y-56520000D01*
X95410922Y-55840524D01*
X95410921Y-55840523D01*
X95366359Y-55808147D01*
X95366350Y-55808141D01*
X95184031Y-55715244D01*
X94989417Y-55652009D01*
X94787317Y-55620000D01*
X94582683Y-55620000D01*
X94380582Y-55652009D01*
X94185968Y-55715244D01*
X94003644Y-55808143D01*
X93959077Y-55840523D01*
X93959077Y-55840524D01*
X94638554Y-56520000D01*
X94632339Y-56520000D01*
X94530606Y-56547259D01*
X94439394Y-56599920D01*
X94364920Y-56674394D01*
X94312259Y-56765606D01*
X94285000Y-56867339D01*
X94285000Y-56873553D01*
X93605524Y-56194077D01*
X93605523Y-56194077D01*
X93573143Y-56238644D01*
X93480244Y-56420968D01*
X93417009Y-56615582D01*
X93385000Y-56817682D01*
X90883026Y-56817682D01*
X90953344Y-56695888D01*
X90962247Y-56674394D01*
X90994285Y-56597048D01*
X91006827Y-56581482D01*
X91015133Y-56563297D01*
X91028302Y-56554833D01*
X91038125Y-56542644D01*
X91057093Y-56536330D01*
X91073911Y-56525523D01*
X91101471Y-56521560D01*
X91104420Y-56520579D01*
X91108846Y-56520500D01*
X91300234Y-56520500D01*
X91367273Y-56540185D01*
X91369125Y-56541398D01*
X91500814Y-56629390D01*
X91500827Y-56629397D01*
X91609461Y-56674394D01*
X91646503Y-56689737D01*
X91801153Y-56720499D01*
X91801156Y-56720500D01*
X91801158Y-56720500D01*
X91958844Y-56720500D01*
X91958845Y-56720499D01*
X92009704Y-56710382D01*
X92106144Y-56691200D01*
X92106149Y-56691199D01*
X92111022Y-56690229D01*
X92113497Y-56689737D01*
X92259179Y-56629394D01*
X92390289Y-56541789D01*
X92501789Y-56430289D01*
X92589394Y-56299179D01*
X92649737Y-56153497D01*
X92680500Y-55998842D01*
X92680500Y-55841158D01*
X92680500Y-55841155D01*
X92680499Y-55841153D01*
X92673847Y-55807713D01*
X92649737Y-55686503D01*
X92623063Y-55622105D01*
X92589397Y-55540827D01*
X92589390Y-55540814D01*
X92501789Y-55409711D01*
X92501786Y-55409707D01*
X92390292Y-55298213D01*
X92390288Y-55298210D01*
X92294551Y-55234240D01*
X92294549Y-55234238D01*
X92259190Y-55210612D01*
X92259172Y-55210602D01*
X92113501Y-55150264D01*
X92113489Y-55150261D01*
X91958845Y-55119500D01*
X91958842Y-55119500D01*
X91801158Y-55119500D01*
X91801155Y-55119500D01*
X91646510Y-55150261D01*
X91646498Y-55150264D01*
X91500827Y-55210602D01*
X91500814Y-55210609D01*
X91369125Y-55298602D01*
X91351078Y-55304252D01*
X91335169Y-55314477D01*
X91304207Y-55318928D01*
X91302447Y-55319480D01*
X91300234Y-55319500D01*
X91108846Y-55319500D01*
X91041807Y-55299815D01*
X90996052Y-55247011D01*
X90994285Y-55242952D01*
X90953349Y-55144123D01*
X90953346Y-55144117D01*
X90953344Y-55144112D01*
X90838611Y-54945388D01*
X90838608Y-54945385D01*
X90838607Y-54945382D01*
X90710250Y-54778106D01*
X90698919Y-54763339D01*
X90698918Y-54763338D01*
X90698911Y-54763330D01*
X90536670Y-54601089D01*
X90536661Y-54601081D01*
X90354617Y-54461392D01*
X90337381Y-54451441D01*
X90256226Y-54404586D01*
X90155890Y-54346657D01*
X90155876Y-54346650D01*
X89943887Y-54258842D01*
X89852234Y-54234284D01*
X89722238Y-54199452D01*
X89684215Y-54194446D01*
X89494741Y-54169500D01*
X89494734Y-54169500D01*
X89265266Y-54169500D01*
X89265258Y-54169500D01*
X89048715Y-54198009D01*
X89037762Y-54199452D01*
X88944076Y-54224554D01*
X88816112Y-54258842D01*
X88604123Y-54346650D01*
X88604109Y-54346657D01*
X88405382Y-54461392D01*
X88223338Y-54601081D01*
X88061081Y-54763338D01*
X87921392Y-54945382D01*
X87806657Y-55144109D01*
X87806650Y-55144123D01*
X87718842Y-55356112D01*
X87684554Y-55484076D01*
X87659870Y-55576204D01*
X87659453Y-55577759D01*
X87659451Y-55577770D01*
X87629500Y-55805258D01*
X86880500Y-55805258D01*
X86880500Y-53397648D01*
X96579500Y-53397648D01*
X96579500Y-53602351D01*
X96611522Y-53804534D01*
X96674781Y-53999223D01*
X96718631Y-54085281D01*
X96767712Y-54181609D01*
X96767715Y-54181613D01*
X96888028Y-54347213D01*
X97032786Y-54491971D01*
X97129636Y-54562335D01*
X97198390Y-54612287D01*
X97314607Y-54671503D01*
X97380776Y-54705218D01*
X97380778Y-54705218D01*
X97380781Y-54705220D01*
X97419791Y-54717895D01*
X97575465Y-54768477D01*
X97636260Y-54778106D01*
X97777648Y-54800500D01*
X97777649Y-54800500D01*
X97982351Y-54800500D01*
X97982352Y-54800500D01*
X98184534Y-54768477D01*
X98379219Y-54705220D01*
X98561610Y-54612287D01*
X98671428Y-54532500D01*
X98727213Y-54491971D01*
X98727215Y-54491968D01*
X98727219Y-54491966D01*
X98871966Y-54347219D01*
X98871968Y-54347215D01*
X98871971Y-54347213D01*
X98992284Y-54181614D01*
X98992285Y-54181613D01*
X98992287Y-54181610D01*
X98999117Y-54168204D01*
X99047091Y-54117409D01*
X99109602Y-54100500D01*
X100650398Y-54100500D01*
X100717437Y-54120185D01*
X100760883Y-54168205D01*
X100767715Y-54181614D01*
X100888028Y-54347213D01*
X101032786Y-54491971D01*
X101129636Y-54562335D01*
X101198390Y-54612287D01*
X101314607Y-54671503D01*
X101380776Y-54705218D01*
X101380778Y-54705218D01*
X101380781Y-54705220D01*
X101419791Y-54717895D01*
X101575465Y-54768477D01*
X101636260Y-54778106D01*
X101777648Y-54800500D01*
X101777649Y-54800500D01*
X101982351Y-54800500D01*
X101982352Y-54800500D01*
X102184534Y-54768477D01*
X102379219Y-54705220D01*
X102561610Y-54612287D01*
X102671428Y-54532500D01*
X102727213Y-54491971D01*
X102727215Y-54491968D01*
X102727219Y-54491966D01*
X102871966Y-54347219D01*
X102882650Y-54332513D01*
X103275000Y-54332513D01*
X103275000Y-54682500D01*
X104259314Y-54682500D01*
X104254920Y-54686894D01*
X104202259Y-54778106D01*
X104175000Y-54879839D01*
X104175000Y-54985161D01*
X104202259Y-55086894D01*
X104254920Y-55178106D01*
X104259314Y-55182500D01*
X103275001Y-55182500D01*
X103275001Y-55532486D01*
X103285494Y-55635197D01*
X103340641Y-55801619D01*
X103340643Y-55801624D01*
X103432684Y-55950845D01*
X103556654Y-56074815D01*
X103705875Y-56166856D01*
X103705880Y-56166858D01*
X103872302Y-56222005D01*
X103872309Y-56222006D01*
X103975019Y-56232499D01*
X104324999Y-56232499D01*
X104325000Y-56232498D01*
X104325000Y-55248186D01*
X104329394Y-55252580D01*
X104420606Y-55305241D01*
X104522339Y-55332500D01*
X104627661Y-55332500D01*
X104729394Y-55305241D01*
X104820606Y-55252580D01*
X104825000Y-55248186D01*
X104825000Y-56232499D01*
X105174972Y-56232499D01*
X105174986Y-56232498D01*
X105277697Y-56222005D01*
X105444119Y-56166858D01*
X105444124Y-56166856D01*
X105593345Y-56074815D01*
X105717315Y-55950845D01*
X105809356Y-55801624D01*
X105809358Y-55801619D01*
X105864505Y-55635197D01*
X105864506Y-55635190D01*
X105874999Y-55532486D01*
X105875000Y-55532473D01*
X105875000Y-55182500D01*
X104890686Y-55182500D01*
X104895080Y-55178106D01*
X104947741Y-55086894D01*
X104975000Y-54985161D01*
X104975000Y-54879839D01*
X104961685Y-54830148D01*
X110894500Y-54830148D01*
X110894500Y-55034851D01*
X110926522Y-55237034D01*
X110989781Y-55431723D01*
X111082715Y-55614113D01*
X111203028Y-55779713D01*
X111347786Y-55924471D01*
X111499553Y-56034734D01*
X111513390Y-56044787D01*
X111629607Y-56104003D01*
X111695776Y-56137718D01*
X111695778Y-56137718D01*
X111695781Y-56137720D01*
X111785459Y-56166858D01*
X111890465Y-56200977D01*
X111991557Y-56216988D01*
X112092648Y-56233000D01*
X112092649Y-56233000D01*
X112297351Y-56233000D01*
X112297352Y-56233000D01*
X112499534Y-56200977D01*
X112694219Y-56137720D01*
X112876610Y-56044787D01*
X112976619Y-55972127D01*
X113042213Y-55924471D01*
X113042215Y-55924468D01*
X113042219Y-55924466D01*
X113186966Y-55779719D01*
X113186968Y-55779715D01*
X113186971Y-55779713D01*
X113254694Y-55686498D01*
X113307287Y-55614110D01*
X113400220Y-55431719D01*
X113463477Y-55237034D01*
X113495500Y-55034852D01*
X113495500Y-54830148D01*
X113476050Y-54707345D01*
X113463477Y-54627965D01*
X113432458Y-54532500D01*
X113400220Y-54433281D01*
X113400218Y-54433278D01*
X113400218Y-54433276D01*
X113356366Y-54347213D01*
X113307287Y-54250890D01*
X113269916Y-54199453D01*
X113186971Y-54085286D01*
X113042213Y-53940528D01*
X112876613Y-53820215D01*
X112876612Y-53820214D01*
X112876610Y-53820213D01*
X112817675Y-53790184D01*
X112694223Y-53727281D01*
X112499534Y-53664022D01*
X112324995Y-53636378D01*
X112297352Y-53632000D01*
X112092648Y-53632000D01*
X112068329Y-53635851D01*
X111890465Y-53664022D01*
X111695776Y-53727281D01*
X111513386Y-53820215D01*
X111347786Y-53940528D01*
X111203028Y-54085286D01*
X111082715Y-54250886D01*
X110989781Y-54433276D01*
X110926522Y-54627965D01*
X110894500Y-54830148D01*
X104961685Y-54830148D01*
X104947741Y-54778106D01*
X104895080Y-54686894D01*
X104890686Y-54682500D01*
X105874999Y-54682500D01*
X105874999Y-54332528D01*
X105874998Y-54332513D01*
X105864505Y-54229802D01*
X105809358Y-54063380D01*
X105809356Y-54063375D01*
X105717315Y-53914154D01*
X105593345Y-53790184D01*
X105444124Y-53698143D01*
X105444119Y-53698141D01*
X105277697Y-53642994D01*
X105277690Y-53642993D01*
X105174986Y-53632500D01*
X104825000Y-53632500D01*
X104825000Y-54616814D01*
X104820606Y-54612420D01*
X104729394Y-54559759D01*
X104627661Y-54532500D01*
X104522339Y-54532500D01*
X104420606Y-54559759D01*
X104329394Y-54612420D01*
X104325000Y-54616814D01*
X104325000Y-53632500D01*
X103975028Y-53632500D01*
X103975012Y-53632501D01*
X103872302Y-53642994D01*
X103705880Y-53698141D01*
X103705875Y-53698143D01*
X103556654Y-53790184D01*
X103432684Y-53914154D01*
X103340643Y-54063375D01*
X103340641Y-54063380D01*
X103285494Y-54229802D01*
X103285493Y-54229809D01*
X103275000Y-54332513D01*
X102882650Y-54332513D01*
X102992287Y-54181610D01*
X103085220Y-53999219D01*
X103148477Y-53804534D01*
X103180500Y-53602352D01*
X103180500Y-53397648D01*
X103166583Y-53309778D01*
X115709500Y-53309778D01*
X115709500Y-53530221D01*
X115743985Y-53747952D01*
X115812103Y-53957603D01*
X115812104Y-53957606D01*
X115912187Y-54154025D01*
X116041752Y-54332358D01*
X116041756Y-54332363D01*
X116197636Y-54488243D01*
X116197641Y-54488247D01*
X116258551Y-54532500D01*
X116375978Y-54617815D01*
X116502928Y-54682500D01*
X116572393Y-54717895D01*
X116572396Y-54717896D01*
X116677221Y-54751955D01*
X116782049Y-54786015D01*
X116999778Y-54820500D01*
X116999779Y-54820500D01*
X117220221Y-54820500D01*
X117220222Y-54820500D01*
X117437951Y-54786015D01*
X117647606Y-54717895D01*
X117844022Y-54617815D01*
X118022365Y-54488242D01*
X118072536Y-54438070D01*
X118133857Y-54404586D01*
X118203548Y-54409570D01*
X118259482Y-54451441D01*
X118276398Y-54482419D01*
X118306202Y-54562328D01*
X118306206Y-54562335D01*
X118392452Y-54677544D01*
X118392455Y-54677547D01*
X118507664Y-54763793D01*
X118507671Y-54763797D01*
X118642517Y-54814091D01*
X118642516Y-54814091D01*
X118649444Y-54814835D01*
X118702127Y-54820500D01*
X120597872Y-54820499D01*
X120657483Y-54814091D01*
X120792331Y-54763796D01*
X120907546Y-54677546D01*
X120993796Y-54562331D01*
X121044091Y-54427483D01*
X121050500Y-54367873D01*
X121050499Y-52472128D01*
X121044091Y-52412517D01*
X121034840Y-52387715D01*
X120993797Y-52277671D01*
X120993793Y-52277664D01*
X120907547Y-52162455D01*
X120907544Y-52162452D01*
X120792335Y-52076206D01*
X120792328Y-52076202D01*
X120657482Y-52025908D01*
X120657483Y-52025908D01*
X120597883Y-52019501D01*
X120597881Y-52019500D01*
X120597873Y-52019500D01*
X120597864Y-52019500D01*
X118702129Y-52019500D01*
X118702123Y-52019501D01*
X118642516Y-52025908D01*
X118507671Y-52076202D01*
X118507664Y-52076206D01*
X118392455Y-52162452D01*
X118392452Y-52162455D01*
X118306206Y-52277664D01*
X118306203Y-52277669D01*
X118276398Y-52357581D01*
X118234526Y-52413514D01*
X118169062Y-52437931D01*
X118100789Y-52423079D01*
X118072535Y-52401928D01*
X118022363Y-52351756D01*
X118022358Y-52351752D01*
X117844025Y-52222187D01*
X117844024Y-52222186D01*
X117844022Y-52222185D01*
X117726791Y-52162452D01*
X117647606Y-52122104D01*
X117647603Y-52122103D01*
X117437952Y-52053985D01*
X117329086Y-52036742D01*
X117220222Y-52019500D01*
X116999778Y-52019500D01*
X116927201Y-52030995D01*
X116782047Y-52053985D01*
X116572396Y-52122103D01*
X116572393Y-52122104D01*
X116375974Y-52222187D01*
X116197641Y-52351752D01*
X116197636Y-52351756D01*
X116041756Y-52507636D01*
X116041752Y-52507641D01*
X115912187Y-52685974D01*
X115812104Y-52882393D01*
X115812103Y-52882396D01*
X115743985Y-53092047D01*
X115709500Y-53309778D01*
X103166583Y-53309778D01*
X103148477Y-53195466D01*
X103085220Y-53000781D01*
X103085218Y-53000778D01*
X103085218Y-53000776D01*
X103051503Y-52934607D01*
X102992287Y-52818390D01*
X102984556Y-52807749D01*
X102871971Y-52652786D01*
X102727213Y-52508028D01*
X102561613Y-52387715D01*
X102561612Y-52387714D01*
X102561610Y-52387713D01*
X102502473Y-52357581D01*
X102379223Y-52294781D01*
X102184534Y-52231522D01*
X102009995Y-52203878D01*
X101982352Y-52199500D01*
X101777648Y-52199500D01*
X101753329Y-52203351D01*
X101575465Y-52231522D01*
X101380776Y-52294781D01*
X101198386Y-52387715D01*
X101032786Y-52508028D01*
X100888028Y-52652786D01*
X100767715Y-52818385D01*
X100760883Y-52831795D01*
X100712909Y-52882591D01*
X100650398Y-52899500D01*
X99109602Y-52899500D01*
X99042563Y-52879815D01*
X98999117Y-52831795D01*
X98992284Y-52818385D01*
X98871971Y-52652786D01*
X98727213Y-52508028D01*
X98561613Y-52387715D01*
X98561612Y-52387714D01*
X98561610Y-52387713D01*
X98502473Y-52357581D01*
X98379223Y-52294781D01*
X98184534Y-52231522D01*
X98009995Y-52203878D01*
X97982352Y-52199500D01*
X97777648Y-52199500D01*
X97753329Y-52203351D01*
X97575465Y-52231522D01*
X97380776Y-52294781D01*
X97198386Y-52387715D01*
X97032786Y-52508028D01*
X96888028Y-52652786D01*
X96767715Y-52818386D01*
X96674781Y-53000776D01*
X96611522Y-53195465D01*
X96579500Y-53397648D01*
X86880500Y-53397648D01*
X86880500Y-43423750D01*
X86880726Y-43416263D01*
X86887837Y-43298711D01*
X87529500Y-43298711D01*
X87529500Y-43541288D01*
X87553490Y-43723519D01*
X87561162Y-43781789D01*
X87585421Y-43872324D01*
X87623947Y-44016104D01*
X87716773Y-44240205D01*
X87716776Y-44240212D01*
X87838064Y-44450289D01*
X87838066Y-44450292D01*
X87838067Y-44450293D01*
X87985733Y-44642736D01*
X87985739Y-44642743D01*
X88157256Y-44814260D01*
X88157262Y-44814265D01*
X88349711Y-44961936D01*
X88559788Y-45083224D01*
X88783900Y-45176054D01*
X89018211Y-45238838D01*
X89198586Y-45262584D01*
X89258711Y-45270500D01*
X89258712Y-45270500D01*
X89501289Y-45270500D01*
X89549388Y-45264167D01*
X89741789Y-45238838D01*
X89976100Y-45176054D01*
X90200212Y-45083224D01*
X90410289Y-44961936D01*
X90602738Y-44814265D01*
X90774265Y-44642738D01*
X90921936Y-44450289D01*
X91043224Y-44240212D01*
X91136054Y-44016100D01*
X91198838Y-43781789D01*
X91230500Y-43541288D01*
X91230500Y-43298712D01*
X91222461Y-43237648D01*
X96579500Y-43237648D01*
X96579500Y-43442351D01*
X96611522Y-43644534D01*
X96674781Y-43839223D01*
X96767715Y-44021613D01*
X96888028Y-44187213D01*
X97032786Y-44331971D01*
X97187749Y-44444556D01*
X97198390Y-44452287D01*
X97314607Y-44511503D01*
X97380776Y-44545218D01*
X97380778Y-44545218D01*
X97380781Y-44545220D01*
X97485137Y-44579127D01*
X97575465Y-44608477D01*
X97644859Y-44619468D01*
X97777648Y-44640500D01*
X97777649Y-44640500D01*
X97982351Y-44640500D01*
X97982352Y-44640500D01*
X98184534Y-44608477D01*
X98379219Y-44545220D01*
X98561610Y-44452287D01*
X98654590Y-44384732D01*
X98727213Y-44331971D01*
X98727215Y-44331968D01*
X98727219Y-44331966D01*
X98871966Y-44187219D01*
X98871968Y-44187215D01*
X98871971Y-44187213D01*
X98924732Y-44114590D01*
X98992287Y-44021610D01*
X99085220Y-43839219D01*
X99148477Y-43644534D01*
X99180500Y-43442352D01*
X99180500Y-43237648D01*
X100579500Y-43237648D01*
X100579500Y-43442351D01*
X100611522Y-43644534D01*
X100674781Y-43839223D01*
X100767715Y-44021613D01*
X100888028Y-44187213D01*
X101032786Y-44331971D01*
X101187749Y-44444556D01*
X101198390Y-44452287D01*
X101314607Y-44511503D01*
X101380776Y-44545218D01*
X101380778Y-44545218D01*
X101380781Y-44545220D01*
X101485137Y-44579127D01*
X101575465Y-44608477D01*
X101644859Y-44619468D01*
X101777648Y-44640500D01*
X101777649Y-44640500D01*
X101982351Y-44640500D01*
X101982352Y-44640500D01*
X102184534Y-44608477D01*
X102198842Y-44603827D01*
X102268682Y-44601831D01*
X102324842Y-44634077D01*
X105515139Y-47824374D01*
X105515149Y-47824385D01*
X105519479Y-47828715D01*
X105519480Y-47828716D01*
X105631284Y-47940520D01*
X105718095Y-47990639D01*
X105718097Y-47990641D01*
X105756151Y-48012611D01*
X105768215Y-48019577D01*
X105920943Y-48060501D01*
X105920946Y-48060501D01*
X106086653Y-48060501D01*
X106086669Y-48060500D01*
X107355732Y-48060500D01*
X107422771Y-48080185D01*
X107456049Y-48111614D01*
X107512723Y-48189616D01*
X107517703Y-48196471D01*
X107643529Y-48322297D01*
X107787489Y-48426891D01*
X107862397Y-48465058D01*
X107946034Y-48507674D01*
X107946036Y-48507674D01*
X107946039Y-48507676D01*
X108036752Y-48537150D01*
X108115273Y-48562664D01*
X108291023Y-48590500D01*
X108291028Y-48590500D01*
X108468977Y-48590500D01*
X108644726Y-48562664D01*
X108674899Y-48552860D01*
X108813961Y-48507676D01*
X108972511Y-48426891D01*
X109116471Y-48322297D01*
X109242297Y-48196471D01*
X109346891Y-48052511D01*
X109427676Y-47893961D01*
X109482664Y-47724726D01*
X109510500Y-47548977D01*
X109510500Y-47371023D01*
X109502192Y-47318576D01*
X109494091Y-47267427D01*
X109503045Y-47198137D01*
X109528880Y-47160353D01*
X110620352Y-46068881D01*
X110681673Y-46035398D01*
X110727425Y-46034091D01*
X110776010Y-46041786D01*
X110831024Y-46050500D01*
X110831028Y-46050500D01*
X111008977Y-46050500D01*
X111184726Y-46022664D01*
X111353961Y-45967676D01*
X111512511Y-45886891D01*
X111656471Y-45782297D01*
X111782297Y-45656471D01*
X111886891Y-45512511D01*
X111967676Y-45353961D01*
X111971838Y-45341153D01*
X112579500Y-45341153D01*
X112579500Y-45498846D01*
X112610261Y-45653489D01*
X112610264Y-45653501D01*
X112670602Y-45799172D01*
X112670609Y-45799185D01*
X112758210Y-45930288D01*
X112758213Y-45930292D01*
X112869707Y-46041786D01*
X112869711Y-46041789D01*
X113000814Y-46129390D01*
X113000827Y-46129397D01*
X113146498Y-46189735D01*
X113146503Y-46189737D01*
X113301153Y-46220499D01*
X113301156Y-46220500D01*
X113301158Y-46220500D01*
X113458844Y-46220500D01*
X113458845Y-46220499D01*
X113613497Y-46189737D01*
X113666046Y-46167970D01*
X113735512Y-46160502D01*
X113797991Y-46191776D01*
X113820883Y-46220531D01*
X113921394Y-46394620D01*
X114061081Y-46576661D01*
X114061089Y-46576670D01*
X114223330Y-46738911D01*
X114223338Y-46738918D01*
X114405382Y-46878607D01*
X114405385Y-46878608D01*
X114405388Y-46878611D01*
X114604112Y-46993344D01*
X114604117Y-46993346D01*
X114604123Y-46993349D01*
X114695480Y-47031190D01*
X114816113Y-47081158D01*
X115037762Y-47140548D01*
X115265266Y-47170500D01*
X115265273Y-47170500D01*
X115494727Y-47170500D01*
X115494734Y-47170500D01*
X115722238Y-47140548D01*
X115943887Y-47081158D01*
X116155888Y-46993344D01*
X116354612Y-46878611D01*
X116536661Y-46738919D01*
X116536665Y-46738914D01*
X116536670Y-46738911D01*
X116698911Y-46576670D01*
X116698914Y-46576665D01*
X116698919Y-46576661D01*
X116838611Y-46394612D01*
X116953344Y-46195888D01*
X117041158Y-45983887D01*
X117100548Y-45762238D01*
X117130500Y-45534734D01*
X117130500Y-45305266D01*
X117100548Y-45077762D01*
X117041158Y-44856113D01*
X116968584Y-44680905D01*
X116953349Y-44644123D01*
X116953346Y-44644117D01*
X116953344Y-44644112D01*
X116838611Y-44445388D01*
X116838608Y-44445385D01*
X116838607Y-44445382D01*
X116698918Y-44263338D01*
X116698911Y-44263330D01*
X116536670Y-44101089D01*
X116536661Y-44101081D01*
X116354617Y-43961392D01*
X116340270Y-43953109D01*
X116200348Y-43872325D01*
X116155890Y-43846657D01*
X116155876Y-43846650D01*
X115943887Y-43758842D01*
X115840392Y-43731111D01*
X115722238Y-43699452D01*
X115684215Y-43694446D01*
X115494741Y-43669500D01*
X115494734Y-43669500D01*
X115265266Y-43669500D01*
X115265258Y-43669500D01*
X115048715Y-43698009D01*
X115037762Y-43699452D01*
X114947942Y-43723519D01*
X114816112Y-43758842D01*
X114604123Y-43846650D01*
X114604109Y-43846657D01*
X114405382Y-43961392D01*
X114223338Y-44101081D01*
X114061081Y-44263338D01*
X113921394Y-44445379D01*
X113820883Y-44619468D01*
X113770315Y-44667683D01*
X113701708Y-44680905D01*
X113666044Y-44672028D01*
X113613501Y-44650264D01*
X113613489Y-44650261D01*
X113458845Y-44619500D01*
X113458842Y-44619500D01*
X113301158Y-44619500D01*
X113301155Y-44619500D01*
X113146510Y-44650261D01*
X113146498Y-44650264D01*
X113000827Y-44710602D01*
X113000814Y-44710609D01*
X112869711Y-44798210D01*
X112869707Y-44798213D01*
X112758213Y-44909707D01*
X112758210Y-44909711D01*
X112670609Y-45040814D01*
X112670602Y-45040827D01*
X112610264Y-45186498D01*
X112610261Y-45186510D01*
X112579500Y-45341153D01*
X111971838Y-45341153D01*
X112022664Y-45184726D01*
X112039605Y-45077762D01*
X112050500Y-45008977D01*
X112050500Y-44831022D01*
X112022664Y-44655273D01*
X111967674Y-44486034D01*
X111925058Y-44402397D01*
X111886891Y-44327489D01*
X111782297Y-44183529D01*
X111656471Y-44057703D01*
X111512511Y-43953109D01*
X111353965Y-43872325D01*
X111184726Y-43817335D01*
X111008977Y-43789500D01*
X111008972Y-43789500D01*
X110831028Y-43789500D01*
X110831023Y-43789500D01*
X110655273Y-43817335D01*
X110486034Y-43872325D01*
X110327488Y-43953109D01*
X110183527Y-44057704D01*
X110057704Y-44183527D01*
X109953109Y-44327488D01*
X109872325Y-44486034D01*
X109817335Y-44655273D01*
X109789500Y-44831022D01*
X109789500Y-45008977D01*
X109805907Y-45112570D01*
X109796952Y-45181863D01*
X109771115Y-45219648D01*
X108679648Y-46311115D01*
X108618325Y-46344600D01*
X108572570Y-46345907D01*
X108468978Y-46329500D01*
X108468972Y-46329500D01*
X108291028Y-46329500D01*
X108291023Y-46329500D01*
X108115273Y-46357335D01*
X107946034Y-46412325D01*
X107787488Y-46493109D01*
X107643527Y-46597704D01*
X107517705Y-46723526D01*
X107517698Y-46723535D01*
X107456049Y-46808386D01*
X107400719Y-46851052D01*
X107355732Y-46859500D01*
X106300097Y-46859500D01*
X106233058Y-46839815D01*
X106212416Y-46823181D01*
X105650813Y-46261578D01*
X105617328Y-46200255D01*
X105622312Y-46130563D01*
X105664184Y-46074630D01*
X105729648Y-46050213D01*
X105748223Y-46050279D01*
X105751025Y-46050499D01*
X105751028Y-46050500D01*
X105751031Y-46050500D01*
X105928977Y-46050500D01*
X106104726Y-46022664D01*
X106273961Y-45967676D01*
X106432511Y-45886891D01*
X106576471Y-45782297D01*
X106702297Y-45656471D01*
X106806891Y-45512511D01*
X106887676Y-45353961D01*
X106942664Y-45184726D01*
X106943117Y-45181863D01*
X106970500Y-45008977D01*
X106970500Y-44831022D01*
X106942664Y-44655273D01*
X106887674Y-44486034D01*
X106845058Y-44402397D01*
X106806891Y-44327489D01*
X106702297Y-44183529D01*
X106576471Y-44057703D01*
X106432511Y-43953109D01*
X106273965Y-43872325D01*
X106104726Y-43817335D01*
X105928977Y-43789500D01*
X105928972Y-43789500D01*
X105751028Y-43789500D01*
X105751023Y-43789500D01*
X105575273Y-43817335D01*
X105406034Y-43872325D01*
X105247488Y-43953109D01*
X105103527Y-44057704D01*
X104977704Y-44183527D01*
X104873109Y-44327488D01*
X104792325Y-44486034D01*
X104737335Y-44655273D01*
X104709500Y-44831022D01*
X104709500Y-45008978D01*
X104709721Y-45011791D01*
X104709500Y-45012842D01*
X104709500Y-45013844D01*
X104709289Y-45013844D01*
X104695349Y-45080167D01*
X104646291Y-45129917D01*
X104578124Y-45145248D01*
X104512490Y-45121291D01*
X104498421Y-45109186D01*
X103174077Y-43784842D01*
X103140592Y-43723519D01*
X103143828Y-43658841D01*
X103148477Y-43644534D01*
X103180500Y-43442352D01*
X103180500Y-43298711D01*
X119029500Y-43298711D01*
X119029500Y-43541288D01*
X119053490Y-43723519D01*
X119061162Y-43781789D01*
X119085421Y-43872324D01*
X119123947Y-44016104D01*
X119216773Y-44240205D01*
X119216776Y-44240212D01*
X119338064Y-44450289D01*
X119338066Y-44450292D01*
X119338067Y-44450293D01*
X119485733Y-44642736D01*
X119485739Y-44642743D01*
X119657256Y-44814260D01*
X119657262Y-44814265D01*
X119849711Y-44961936D01*
X120059788Y-45083224D01*
X120283900Y-45176054D01*
X120518211Y-45238838D01*
X120698586Y-45262584D01*
X120758711Y-45270500D01*
X120758712Y-45270500D01*
X121001289Y-45270500D01*
X121049388Y-45264167D01*
X121241789Y-45238838D01*
X121476100Y-45176054D01*
X121700212Y-45083224D01*
X121910289Y-44961936D01*
X122102738Y-44814265D01*
X122274265Y-44642738D01*
X122421936Y-44450289D01*
X122543224Y-44240212D01*
X122636054Y-44016100D01*
X122698838Y-43781789D01*
X122730500Y-43541288D01*
X122730500Y-43298712D01*
X122698838Y-43058211D01*
X122636054Y-42823900D01*
X122543224Y-42599788D01*
X122421936Y-42389711D01*
X122361018Y-42310321D01*
X122274266Y-42197263D01*
X122274260Y-42197256D01*
X122102743Y-42025739D01*
X122102736Y-42025733D01*
X121910293Y-41878067D01*
X121910292Y-41878066D01*
X121910289Y-41878064D01*
X121738661Y-41778974D01*
X121700214Y-41756777D01*
X121700205Y-41756773D01*
X121476104Y-41663947D01*
X121241785Y-41601161D01*
X121001289Y-41569500D01*
X121001288Y-41569500D01*
X120758712Y-41569500D01*
X120758711Y-41569500D01*
X120518214Y-41601161D01*
X120283895Y-41663947D01*
X120059794Y-41756773D01*
X120059785Y-41756777D01*
X119849706Y-41878067D01*
X119657263Y-42025733D01*
X119657256Y-42025739D01*
X119485739Y-42197256D01*
X119485733Y-42197263D01*
X119338067Y-42389706D01*
X119216777Y-42599785D01*
X119216773Y-42599794D01*
X119123947Y-42823895D01*
X119061161Y-43058214D01*
X119029500Y-43298711D01*
X103180500Y-43298711D01*
X103180500Y-43237648D01*
X103161663Y-43118719D01*
X103148477Y-43035465D01*
X103085218Y-42840776D01*
X103051503Y-42774607D01*
X102992287Y-42658390D01*
X102949711Y-42599788D01*
X102871971Y-42492786D01*
X102727213Y-42348028D01*
X102561613Y-42227715D01*
X102561612Y-42227714D01*
X102561610Y-42227713D01*
X102501835Y-42197256D01*
X102379223Y-42134781D01*
X102184534Y-42071522D01*
X102009995Y-42043878D01*
X101982352Y-42039500D01*
X101777648Y-42039500D01*
X101753329Y-42043351D01*
X101575465Y-42071522D01*
X101380776Y-42134781D01*
X101198386Y-42227715D01*
X101032786Y-42348028D01*
X100888028Y-42492786D01*
X100767715Y-42658386D01*
X100674781Y-42840776D01*
X100611522Y-43035465D01*
X100579500Y-43237648D01*
X99180500Y-43237648D01*
X99161663Y-43118719D01*
X99148477Y-43035465D01*
X99085218Y-42840776D01*
X99051503Y-42774607D01*
X98992287Y-42658390D01*
X98949711Y-42599788D01*
X98871971Y-42492786D01*
X98727213Y-42348028D01*
X98561613Y-42227715D01*
X98561612Y-42227714D01*
X98561610Y-42227713D01*
X98501835Y-42197256D01*
X98379223Y-42134781D01*
X98184534Y-42071522D01*
X98009995Y-42043878D01*
X97982352Y-42039500D01*
X97777648Y-42039500D01*
X97753329Y-42043351D01*
X97575465Y-42071522D01*
X97380776Y-42134781D01*
X97198386Y-42227715D01*
X97032786Y-42348028D01*
X96888028Y-42492786D01*
X96767715Y-42658386D01*
X96674781Y-42840776D01*
X96611522Y-43035465D01*
X96579500Y-43237648D01*
X91222461Y-43237648D01*
X91198838Y-43058211D01*
X91136054Y-42823900D01*
X91043224Y-42599788D01*
X90921936Y-42389711D01*
X90861018Y-42310321D01*
X90774266Y-42197263D01*
X90774260Y-42197256D01*
X90602743Y-42025739D01*
X90602736Y-42025733D01*
X90410293Y-41878067D01*
X90410292Y-41878066D01*
X90410289Y-41878064D01*
X90238661Y-41778974D01*
X90200214Y-41756777D01*
X90200205Y-41756773D01*
X89976104Y-41663947D01*
X89741785Y-41601161D01*
X89501289Y-41569500D01*
X89501288Y-41569500D01*
X89258712Y-41569500D01*
X89258711Y-41569500D01*
X89018214Y-41601161D01*
X88783895Y-41663947D01*
X88559794Y-41756773D01*
X88559785Y-41756777D01*
X88349706Y-41878067D01*
X88157263Y-42025733D01*
X88157256Y-42025739D01*
X87985739Y-42197256D01*
X87985733Y-42197263D01*
X87838067Y-42389706D01*
X87716777Y-42599785D01*
X87716773Y-42599794D01*
X87623947Y-42823895D01*
X87561161Y-43058214D01*
X87529500Y-43298711D01*
X86887837Y-43298711D01*
X86888535Y-43287166D01*
X86898271Y-43126205D01*
X86900076Y-43111340D01*
X86909813Y-43058211D01*
X86951780Y-42829198D01*
X86955364Y-42814664D01*
X87022322Y-42599788D01*
X87040699Y-42540812D01*
X87045997Y-42526842D01*
X87163727Y-42265258D01*
X87170680Y-42252012D01*
X87241549Y-42134780D01*
X87319075Y-42006534D01*
X87327567Y-41994230D01*
X87504481Y-41768417D01*
X87514396Y-41757226D01*
X87717226Y-41554396D01*
X87728417Y-41544481D01*
X87954230Y-41367567D01*
X87966534Y-41359075D01*
X88212012Y-41210680D01*
X88225258Y-41203727D01*
X88486842Y-41085997D01*
X88500812Y-41080699D01*
X88774668Y-40995362D01*
X88789198Y-40991780D01*
X89071344Y-40940075D01*
X89086201Y-40938271D01*
X89376264Y-40920726D01*
X89383751Y-40920500D01*
X89445892Y-40920500D01*
X120814108Y-40920500D01*
X120876249Y-40920500D01*
X120883736Y-40920726D01*
G37*
%TD.AperFunction*%
%TA.AperFunction,Conductor*%
G36*
X111960025Y-60640185D02*
G01*
X112005780Y-60692989D01*
X112015724Y-60762147D01*
X111986699Y-60825703D01*
X111927921Y-60863477D01*
X111912384Y-60866973D01*
X111880582Y-60872009D01*
X111685968Y-60935244D01*
X111503644Y-61028143D01*
X111459077Y-61060523D01*
X111459077Y-61060524D01*
X112138554Y-61740000D01*
X112132339Y-61740000D01*
X112030606Y-61767259D01*
X111939394Y-61819920D01*
X111864920Y-61894394D01*
X111812259Y-61985606D01*
X111785000Y-62087339D01*
X111785000Y-62093553D01*
X111105524Y-61414077D01*
X111105523Y-61414077D01*
X111073143Y-61458644D01*
X110980244Y-61640968D01*
X110917009Y-61835582D01*
X110885000Y-62037682D01*
X110885000Y-62242317D01*
X110917009Y-62444417D01*
X110980244Y-62639031D01*
X111073141Y-62821350D01*
X111073147Y-62821359D01*
X111105523Y-62865921D01*
X111105524Y-62865922D01*
X111785000Y-62186446D01*
X111785000Y-62192661D01*
X111812259Y-62294394D01*
X111864920Y-62385606D01*
X111939394Y-62460080D01*
X112030606Y-62512741D01*
X112132339Y-62540000D01*
X112138553Y-62540000D01*
X111459076Y-63219474D01*
X111503652Y-63251861D01*
X111596628Y-63299234D01*
X111647425Y-63347208D01*
X111664220Y-63415029D01*
X111641683Y-63481164D01*
X111596630Y-63520203D01*
X111503388Y-63567713D01*
X111337786Y-63688028D01*
X111193028Y-63832786D01*
X111072715Y-63998386D01*
X110979781Y-64180776D01*
X110916522Y-64375465D01*
X110884500Y-64577648D01*
X110884500Y-64782351D01*
X110916523Y-64984535D01*
X110916524Y-64984542D01*
X110927130Y-65017183D01*
X110929125Y-65087024D01*
X110893044Y-65146857D01*
X110830343Y-65177684D01*
X110809199Y-65179500D01*
X105965097Y-65179500D01*
X105935656Y-65170855D01*
X105905670Y-65164332D01*
X105900654Y-65160577D01*
X105898058Y-65159815D01*
X105877416Y-65143181D01*
X105859077Y-65124842D01*
X105825592Y-65063519D01*
X105828828Y-64998841D01*
X105833477Y-64984534D01*
X105865500Y-64782352D01*
X105865500Y-64577648D01*
X105846487Y-64457606D01*
X105833477Y-64375465D01*
X105770218Y-64180776D01*
X105709877Y-64062352D01*
X105677287Y-63998390D01*
X105669556Y-63987749D01*
X105556971Y-63832786D01*
X105412213Y-63688028D01*
X105246614Y-63567715D01*
X105240006Y-63564348D01*
X105153917Y-63520483D01*
X105103123Y-63472511D01*
X105086328Y-63404690D01*
X105108865Y-63338555D01*
X105153917Y-63299516D01*
X105246610Y-63252287D01*
X105291774Y-63219474D01*
X105412213Y-63131971D01*
X105412215Y-63131968D01*
X105412219Y-63131966D01*
X105556966Y-62987219D01*
X105556968Y-62987215D01*
X105556971Y-62987213D01*
X105624450Y-62894334D01*
X105677287Y-62821610D01*
X105770220Y-62639219D01*
X105833477Y-62444534D01*
X105865500Y-62242352D01*
X105865500Y-62037648D01*
X105833477Y-61835466D01*
X105828825Y-61821151D01*
X105826832Y-61751312D01*
X105859075Y-61695158D01*
X106897417Y-60656819D01*
X106958740Y-60623334D01*
X106985098Y-60620500D01*
X111892986Y-60620500D01*
X111960025Y-60640185D01*
G37*
%TD.AperFunction*%
%TD*%
M02*
