M48
; DRILL file KiCad 10.0.4 date 2026-09-11T09:40:58
; FORMAT={-:-/ absolute / inch / decimal}
; #@! TF.CreationDate,2026-09-11T09:40:58+02:00
; #@! TF.GenerationSoftware,Kicad,Pcbnew,10.0.4
; #@! TF.FileFunction,Plated,1,2,PTH
FMAT,2
INCH
; #@! TA.AperFunction,Plated,PTH,ViaDrill
T1C0.0118
; #@! TA.AperFunction,Plated,PTH,ComponentDrill
T2C0.0276
; #@! TA.AperFunction,Plated,PTH,ComponentDrill
T3C0.0315
; #@! TA.AperFunction,Plated,PTH,ComponentDrill
T4C0.0354
; #@! TA.AperFunction,Plated,PTH,ComponentDrill
T5C0.0394
%
G90
G05
T1
X3.6173Y-2.2016
X4.0465Y-2.6622
X4.2126Y-2.3197
X4.3535Y-2.7961
X4.3898Y-1.9685
X4.4638Y-1.7882
X4.5268Y-2.363
X4.5504Y-2.9457
T2
X4.1669Y-1.7685
X4.2669Y-1.8685
X4.3669Y-1.7685
T3
X3.5189Y-2.848
X3.5189Y-3.248
X3.6567Y-3.0874
X3.6764Y-2.4181
X3.6764Y-2.5181
X3.6764Y-2.6181
X3.6764Y-2.7181
X3.7278Y-2.2409
X3.7354Y-2.8512
X3.7551Y-3.0874
X3.8535Y-1.7063
X3.8535Y-2.1063
X3.8929Y-3.0874
X3.9246Y-2.2409
X3.9323Y-2.8512
X3.9764Y-2.4181
X3.9764Y-2.5181
X3.9764Y-2.6181
X3.9764Y-2.7181
X3.9913Y-3.0874
X4.011Y-1.7063
X4.011Y-2.1063
X4.0669Y-2.3197
X4.0669Y-3.4598
X4.1167Y-2.4465
X4.1167Y-2.5465
X4.1167Y-2.6465
X4.1167Y-2.7465
X4.1167Y-2.8465
X4.1167Y-2.9465
X4.1167Y-3.0465
X4.1167Y-3.1465
X4.1171Y-2.1627
X4.1685Y-3.322
X4.3654Y-3.322
X4.4167Y-2.4465
X4.4167Y-2.5465
X4.4167Y-2.6465
X4.4167Y-2.7465
X4.4167Y-2.8465
X4.4167Y-2.9465
X4.4167Y-3.0465
X4.4167Y-3.1465
X4.4171Y-2.1627
X4.4669Y-2.3197
X4.4669Y-3.4598
T4
X4.6106Y-2.1031
X4.6106Y-2.3787
X4.6106Y-2.6543
X4.6106Y-2.9299
X4.6106Y-3.2055
X4.7091Y-1.9654
X4.7091Y-2.2409
X4.7091Y-2.5165
X4.7091Y-2.7921
X4.7091Y-3.0677
X4.7106Y-2.1031
X4.7106Y-2.3787
X4.7106Y-2.6543
X4.7106Y-2.9299
X4.7106Y-3.2055
X4.8091Y-1.9654
X4.8091Y-2.2409
X4.8091Y-2.5165
X4.8091Y-2.7921
X4.8091Y-3.0677
T5
X3.7846Y-3.3837
X3.8831Y-3.3837
M30
