%TF.GenerationSoftware,KiCad,Pcbnew,10.0.4*%
%TF.CreationDate,2026-09-11T11:08:14+02:00*%
%TF.ProjectId,led_chaser_SMD,6c65645f-6368-4617-9365-725f534d442e,rev?*%
%TF.SameCoordinates,Original*%
%TF.FileFunction,Legend,Bot*%
%TF.FilePolarity,Positive*%
%FSLAX46Y46*%
G04 Gerber Fmt 4.6, Leading zero omitted, Abs format (unit mm)*
G04 Created by KiCad (PCBNEW 10.0.4) date 2026-09-11 11:08:14*
%MOMM*%
%LPD*%
G01*
G04 APERTURE LIST*
G04 Aperture macros list*
%AMRoundRect*
0 Rectangle with rounded corners*
0 $1 Rounding radius*
0 $2 $3 $4 $5 $6 $7 $8 $9 X,Y pos of 4 corners*
0 Add a 4 corners polygon primitive as box body*
4,1,4,$2,$3,$4,$5,$6,$7,$8,$9,$2,$3,0*
0 Add four circle primitives for the rounded corners*
1,1,$1+$1,$2,$3*
1,1,$1+$1,$4,$5*
1,1,$1+$1,$6,$7*
1,1,$1+$1,$8,$9*
0 Add four rect primitives between the rounded corners*
20,1,$1+$1,$2,$3,$4,$5,0*
20,1,$1+$1,$4,$5,$6,$7,0*
20,1,$1+$1,$6,$7,$8,$9,0*
20,1,$1+$1,$8,$9,$2,$3,0*%
G04 Aperture macros list end*
%ADD10C,0.010000*%
%ADD11C,3.200000*%
%ADD12RoundRect,0.250000X0.600000X0.750000X-0.600000X0.750000X-0.600000X-0.750000X0.600000X-0.750000X0*%
%ADD13O,1.700000X2.000000*%
G04 APERTURE END LIST*
D10*
%TO.C,REF\u002A\u002A*%
X176799678Y-66642069D02*
X176775965Y-66656839D01*
X176749314Y-66678419D01*
X176749314Y-66999965D01*
X176749399Y-67094022D01*
X176749763Y-67168124D01*
X176750568Y-67224896D01*
X176751979Y-67266960D01*
X176754159Y-67296940D01*
X176757271Y-67317459D01*
X176761478Y-67331141D01*
X176766944Y-67340608D01*
X176770820Y-67345274D01*
X176802258Y-67365767D01*
X176838059Y-67364931D01*
X176869419Y-67347456D01*
X176896070Y-67325876D01*
X176896070Y-66678419D01*
X176869419Y-66656839D01*
X176843698Y-66641141D01*
X176822692Y-66635259D01*
X176799678Y-66642069D01*
G36*
X176843698Y-66641141D02*
G01*
X176869419Y-66656839D01*
X176896070Y-66678419D01*
X176896070Y-67325876D01*
X176869419Y-67347456D01*
X176838059Y-67364931D01*
X176802258Y-67365767D01*
X176770820Y-67345274D01*
X176766944Y-67340608D01*
X176761478Y-67331141D01*
X176757271Y-67317459D01*
X176754159Y-67296940D01*
X176751979Y-67266960D01*
X176750568Y-67224896D01*
X176749763Y-67168124D01*
X176749399Y-67094022D01*
X176749314Y-66999965D01*
X176749314Y-66678419D01*
X176775965Y-66656839D01*
X176799678Y-66642069D01*
X176822692Y-66635259D01*
X176843698Y-66641141D01*
G37*
X183912114Y-66657837D02*
X183905534Y-66665410D01*
X183900371Y-66675179D01*
X183896456Y-66689763D01*
X183893616Y-66711777D01*
X183891679Y-66743840D01*
X183890475Y-66788567D01*
X183889831Y-66848577D01*
X183889576Y-66926486D01*
X183889537Y-67002148D01*
X183889606Y-67095994D01*
X183889930Y-67169881D01*
X183890678Y-67226424D01*
X183892024Y-67268241D01*
X183894138Y-67297949D01*
X183897192Y-67318165D01*
X183901358Y-67331506D01*
X183906808Y-67340590D01*
X183912114Y-67346459D01*
X183945118Y-67366139D01*
X183980283Y-67364373D01*
X184011747Y-67342909D01*
X184018976Y-67334529D01*
X184024626Y-67324806D01*
X184028891Y-67311053D01*
X184031965Y-67290581D01*
X184034044Y-67260704D01*
X184035322Y-67218733D01*
X184035993Y-67161981D01*
X184036251Y-67087759D01*
X184036292Y-67003729D01*
X184036292Y-66690677D01*
X184008583Y-66662968D01*
X183974429Y-66639655D01*
X183941298Y-66638815D01*
X183912114Y-66657837D01*
G36*
X183974429Y-66639655D02*
G01*
X184008583Y-66662968D01*
X184036292Y-66690677D01*
X184036292Y-67003729D01*
X184036251Y-67087759D01*
X184035993Y-67161981D01*
X184035322Y-67218733D01*
X184034044Y-67260704D01*
X184031965Y-67290581D01*
X184028891Y-67311053D01*
X184024626Y-67324806D01*
X184018976Y-67334529D01*
X184011747Y-67342909D01*
X183980283Y-67364373D01*
X183945118Y-67366139D01*
X183912114Y-67346459D01*
X183906808Y-67340590D01*
X183901358Y-67331506D01*
X183897192Y-67318165D01*
X183894138Y-67297949D01*
X183892024Y-67268241D01*
X183890678Y-67226424D01*
X183889930Y-67169881D01*
X183889606Y-67095994D01*
X183889537Y-67002148D01*
X183889576Y-66926486D01*
X183889831Y-66848577D01*
X183890475Y-66788567D01*
X183891679Y-66743840D01*
X183893616Y-66711777D01*
X183896456Y-66689763D01*
X183900371Y-66675179D01*
X183905534Y-66665410D01*
X183912114Y-66657837D01*
X183941298Y-66638815D01*
X183974429Y-66639655D01*
G37*
X183726079Y-60036490D02*
X183622973Y-60072238D01*
X183526978Y-60128507D01*
X183441247Y-60205288D01*
X183368930Y-60302573D01*
X183336445Y-60363892D01*
X183308332Y-60449660D01*
X183294705Y-60548677D01*
X183296214Y-60650471D01*
X183312969Y-60742714D01*
X183358763Y-60855432D01*
X183425168Y-60953207D01*
X183508809Y-61034115D01*
X183606312Y-61096232D01*
X183714300Y-61137634D01*
X183829399Y-61156397D01*
X183948234Y-61150598D01*
X184006811Y-61138206D01*
X184120972Y-61093797D01*
X184222365Y-61026033D01*
X184308545Y-60937001D01*
X184377066Y-60828791D01*
X184382864Y-60816973D01*
X184402904Y-60772628D01*
X184415487Y-60735280D01*
X184422319Y-60695880D01*
X184425105Y-60645381D01*
X184425568Y-60590433D01*
X184424803Y-60524415D01*
X184421352Y-60476689D01*
X184413477Y-60438103D01*
X184399443Y-60399506D01*
X184382120Y-60361426D01*
X184317505Y-60253328D01*
X184237934Y-60165803D01*
X184146560Y-60098841D01*
X184046536Y-60052436D01*
X183941012Y-60026581D01*
X183833142Y-60021268D01*
X183726079Y-60036490D01*
G36*
X183941012Y-60026581D02*
G01*
X184046536Y-60052436D01*
X184146560Y-60098841D01*
X184237934Y-60165803D01*
X184317505Y-60253328D01*
X184382120Y-60361426D01*
X184399443Y-60399506D01*
X184413477Y-60438103D01*
X184421352Y-60476689D01*
X184424803Y-60524415D01*
X184425568Y-60590433D01*
X184425105Y-60645381D01*
X184422319Y-60695880D01*
X184415487Y-60735280D01*
X184402904Y-60772628D01*
X184382864Y-60816973D01*
X184377066Y-60828791D01*
X184308545Y-60937001D01*
X184222365Y-61026033D01*
X184120972Y-61093797D01*
X184006811Y-61138206D01*
X183948234Y-61150598D01*
X183829399Y-61156397D01*
X183714300Y-61137634D01*
X183606312Y-61096232D01*
X183508809Y-61034115D01*
X183425168Y-60953207D01*
X183358763Y-60855432D01*
X183312969Y-60742714D01*
X183296214Y-60650471D01*
X183294705Y-60548677D01*
X183308332Y-60449660D01*
X183336445Y-60363892D01*
X183368930Y-60302573D01*
X183441247Y-60205288D01*
X183526978Y-60128507D01*
X183622973Y-60072238D01*
X183726079Y-60036490D01*
X183833142Y-60021268D01*
X183941012Y-60026581D01*
G37*
X176025227Y-66635355D02*
X175946520Y-66635734D01*
X175885429Y-66636525D01*
X175839475Y-66637862D01*
X175806178Y-66639875D01*
X175783056Y-66642698D01*
X175767630Y-66646461D01*
X175757421Y-66651297D01*
X175752479Y-66655014D01*
X175726835Y-66687550D01*
X175723733Y-66721330D01*
X175739581Y-66752018D01*
X175749944Y-66764281D01*
X175761096Y-66772642D01*
X175777257Y-66777849D01*
X175802650Y-66780649D01*
X175841494Y-66781788D01*
X175898012Y-66782013D01*
X175909112Y-66782014D01*
X176055048Y-66782014D01*
X176055048Y-67052948D01*
X176055144Y-67138346D01*
X176055581Y-67204056D01*
X176056580Y-67252966D01*
X176058364Y-67287965D01*
X176061155Y-67311941D01*
X176065175Y-67327785D01*
X176070647Y-67338383D01*
X176077626Y-67346459D01*
X176110558Y-67366304D01*
X176144938Y-67364740D01*
X176176116Y-67342098D01*
X176178406Y-67339292D01*
X176185863Y-67328684D01*
X176191545Y-67316273D01*
X176195691Y-67299042D01*
X176198542Y-67273976D01*
X176200338Y-67238059D01*
X176201320Y-67188275D01*
X176201728Y-67121609D01*
X176201803Y-67045781D01*
X176201803Y-66782014D01*
X176341165Y-66782014D01*
X176400970Y-66781610D01*
X176442374Y-66780032D01*
X176469544Y-66776739D01*
X176486646Y-66771184D01*
X176497849Y-66762823D01*
X176499209Y-66761370D01*
X176515567Y-66728131D01*
X176514120Y-66690554D01*
X176495314Y-66657837D01*
X176488042Y-66651490D01*
X176478665Y-66646458D01*
X176464683Y-66642588D01*
X176443596Y-66639729D01*
X176412903Y-66637727D01*
X176370103Y-66636431D01*
X176312697Y-66635690D01*
X176238182Y-66635350D01*
X176144059Y-66635260D01*
X176124032Y-66635259D01*
X176025227Y-66635355D01*
G36*
X176144059Y-66635260D02*
G01*
X176238182Y-66635350D01*
X176312697Y-66635690D01*
X176370103Y-66636431D01*
X176412903Y-66637727D01*
X176443596Y-66639729D01*
X176464683Y-66642588D01*
X176478665Y-66646458D01*
X176488042Y-66651490D01*
X176495314Y-66657837D01*
X176514120Y-66690554D01*
X176515567Y-66728131D01*
X176499209Y-66761370D01*
X176497849Y-66762823D01*
X176486646Y-66771184D01*
X176469544Y-66776739D01*
X176442374Y-66780032D01*
X176400970Y-66781610D01*
X176341165Y-66782014D01*
X176201803Y-66782014D01*
X176201803Y-67045781D01*
X176201728Y-67121609D01*
X176201320Y-67188275D01*
X176200338Y-67238059D01*
X176198542Y-67273976D01*
X176195691Y-67299042D01*
X176191545Y-67316273D01*
X176185863Y-67328684D01*
X176178406Y-67339292D01*
X176176116Y-67342098D01*
X176144938Y-67364740D01*
X176110558Y-67366304D01*
X176077626Y-67346459D01*
X176070647Y-67338383D01*
X176065175Y-67327785D01*
X176061155Y-67311941D01*
X176058364Y-67287965D01*
X176056580Y-67252966D01*
X176055581Y-67204056D01*
X176055144Y-67138346D01*
X176055048Y-67052948D01*
X176055048Y-66782014D01*
X175909112Y-66782014D01*
X175898012Y-66782013D01*
X175841494Y-66781788D01*
X175802650Y-66780649D01*
X175777257Y-66777849D01*
X175761096Y-66772642D01*
X175749944Y-66764281D01*
X175739581Y-66752018D01*
X175723733Y-66721330D01*
X175726835Y-66687550D01*
X175752479Y-66655014D01*
X175757421Y-66651297D01*
X175767630Y-66646461D01*
X175783056Y-66642698D01*
X175806178Y-66639875D01*
X175839475Y-66637862D01*
X175885429Y-66636525D01*
X175946520Y-66635734D01*
X176025227Y-66635355D01*
X176124032Y-66635259D01*
X176144059Y-66635260D01*
G37*
X174759469Y-66640725D02*
X174728090Y-66662968D01*
X174700381Y-66690677D01*
X174700381Y-67000112D01*
X174700454Y-67091991D01*
X174700797Y-67164032D01*
X174701600Y-67218972D01*
X174703051Y-67259552D01*
X174705340Y-67288509D01*
X174708656Y-67308583D01*
X174713187Y-67322513D01*
X174719123Y-67333037D01*
X174723778Y-67339292D01*
X174754509Y-67363865D01*
X174789796Y-67366533D01*
X174822047Y-67351463D01*
X174832704Y-67342566D01*
X174839828Y-67330749D01*
X174844125Y-67311718D01*
X174846301Y-67281184D01*
X174847064Y-67234854D01*
X174847137Y-67199063D01*
X174847137Y-67064237D01*
X175343848Y-67064237D01*
X175343848Y-67186892D01*
X175344361Y-67242979D01*
X175346416Y-67281525D01*
X175350784Y-67307553D01*
X175358236Y-67326089D01*
X175367245Y-67339292D01*
X175398148Y-67363796D01*
X175433096Y-67366698D01*
X175466554Y-67349281D01*
X175475688Y-67340151D01*
X175482140Y-67328047D01*
X175486395Y-67309193D01*
X175488940Y-67279812D01*
X175490263Y-67236129D01*
X175490849Y-67174367D01*
X175490917Y-67160192D01*
X175491401Y-67043823D01*
X175491651Y-66947919D01*
X175491569Y-66870369D01*
X175491061Y-66809061D01*
X175490030Y-66761882D01*
X175488379Y-66726722D01*
X175486013Y-66701468D01*
X175482835Y-66684009D01*
X175478748Y-66672233D01*
X175473658Y-66664027D01*
X175468026Y-66657837D01*
X175436164Y-66638036D01*
X175402935Y-66640725D01*
X175371557Y-66662968D01*
X175358859Y-66677318D01*
X175350766Y-66693170D01*
X175346250Y-66715746D01*
X175344286Y-66750270D01*
X175343848Y-66801968D01*
X175343848Y-66917481D01*
X174847137Y-66917481D01*
X174847137Y-66798948D01*
X174846630Y-66744340D01*
X174844594Y-66707467D01*
X174840257Y-66683499D01*
X174832845Y-66667607D01*
X174824559Y-66657837D01*
X174792698Y-66638036D01*
X174759469Y-66640725D01*
G36*
X175468026Y-66657837D02*
G01*
X175473658Y-66664027D01*
X175478748Y-66672233D01*
X175482835Y-66684009D01*
X175486013Y-66701468D01*
X175488379Y-66726722D01*
X175490030Y-66761882D01*
X175491061Y-66809061D01*
X175491569Y-66870369D01*
X175491651Y-66947919D01*
X175491401Y-67043823D01*
X175490917Y-67160192D01*
X175490849Y-67174367D01*
X175490263Y-67236129D01*
X175488940Y-67279812D01*
X175486395Y-67309193D01*
X175482140Y-67328047D01*
X175475688Y-67340151D01*
X175466554Y-67349281D01*
X175433096Y-67366698D01*
X175398148Y-67363796D01*
X175367245Y-67339292D01*
X175358236Y-67326089D01*
X175350784Y-67307553D01*
X175346416Y-67281525D01*
X175344361Y-67242979D01*
X175343848Y-67186892D01*
X175343848Y-67064237D01*
X174847137Y-67064237D01*
X174847137Y-67199063D01*
X174847064Y-67234854D01*
X174846301Y-67281184D01*
X174844125Y-67311718D01*
X174839828Y-67330749D01*
X174832704Y-67342566D01*
X174822047Y-67351463D01*
X174789796Y-67366533D01*
X174754509Y-67363865D01*
X174723778Y-67339292D01*
X174719123Y-67333037D01*
X174713187Y-67322513D01*
X174708656Y-67308583D01*
X174705340Y-67288509D01*
X174703051Y-67259552D01*
X174701600Y-67218972D01*
X174700797Y-67164032D01*
X174700454Y-67091991D01*
X174700381Y-67000112D01*
X174700381Y-66690677D01*
X174728090Y-66662968D01*
X174759469Y-66640725D01*
X174792698Y-66638036D01*
X174824559Y-66657837D01*
X174832845Y-66667607D01*
X174840257Y-66683499D01*
X174844594Y-66707467D01*
X174846630Y-66744340D01*
X174847137Y-66798948D01*
X174847137Y-66917481D01*
X175343848Y-66917481D01*
X175343848Y-66801968D01*
X175344286Y-66750270D01*
X175346250Y-66715746D01*
X175350766Y-66693170D01*
X175358859Y-66677318D01*
X175371557Y-66662968D01*
X175402935Y-66640725D01*
X175436164Y-66638036D01*
X175468026Y-66657837D01*
G37*
X179969983Y-66635467D02*
X179841004Y-66639828D01*
X179731301Y-66653053D01*
X179639066Y-66675933D01*
X179562490Y-66709262D01*
X179499765Y-66753830D01*
X179449080Y-66810428D01*
X179408629Y-66879850D01*
X179407833Y-66881543D01*
X179383691Y-66943675D01*
X179375089Y-66998701D01*
X179382061Y-67054079D01*
X179404638Y-67117265D01*
X179408920Y-67126881D01*
X179438120Y-67183158D01*
X179470936Y-67226643D01*
X179513290Y-67263609D01*
X179571102Y-67300327D01*
X179574461Y-67302244D01*
X179624788Y-67326419D01*
X179681671Y-67344474D01*
X179748765Y-67357031D01*
X179829727Y-67364714D01*
X179928210Y-67368145D01*
X179963006Y-67368443D01*
X180128698Y-67369037D01*
X180152095Y-67339292D01*
X180159035Y-67329511D01*
X180164450Y-67318089D01*
X180168527Y-67302287D01*
X180171455Y-67279367D01*
X180173425Y-67246588D01*
X180174067Y-67222281D01*
X180017448Y-67222281D01*
X179923566Y-67222281D01*
X179868628Y-67220675D01*
X179812232Y-67216447D01*
X179765947Y-67210484D01*
X179763153Y-67209982D01*
X179680944Y-67187928D01*
X179617178Y-67154792D01*
X179569840Y-67109039D01*
X179536910Y-67049131D01*
X179531184Y-67033253D01*
X179525571Y-67008525D01*
X179528001Y-66984094D01*
X179539825Y-66951592D01*
X179546952Y-66935626D01*
X179570292Y-66893198D01*
X179598412Y-66863432D01*
X179629352Y-66842703D01*
X179691326Y-66815729D01*
X179770641Y-66796190D01*
X179863039Y-66784938D01*
X179929959Y-66782462D01*
X180017448Y-66782014D01*
X180017448Y-67222281D01*
X180174067Y-67222281D01*
X180174624Y-67201213D01*
X180175242Y-67140503D01*
X180175467Y-67061718D01*
X180175492Y-67000112D01*
X180175492Y-66690677D01*
X180147783Y-66662968D01*
X180135486Y-66651736D01*
X180122189Y-66644045D01*
X180103620Y-66639232D01*
X180075506Y-66636638D01*
X180033575Y-66635602D01*
X179973555Y-66635462D01*
X179969983Y-66635467D01*
G36*
X180173425Y-67246588D02*
G01*
X180171455Y-67279367D01*
X180168527Y-67302287D01*
X180164450Y-67318089D01*
X180159035Y-67329511D01*
X180152095Y-67339292D01*
X180128698Y-67369037D01*
X179963006Y-67368443D01*
X179928210Y-67368145D01*
X179829727Y-67364714D01*
X179748765Y-67357031D01*
X179681671Y-67344474D01*
X179624788Y-67326419D01*
X179574461Y-67302244D01*
X179571102Y-67300327D01*
X179513290Y-67263609D01*
X179470936Y-67226643D01*
X179438120Y-67183158D01*
X179408920Y-67126881D01*
X179404638Y-67117265D01*
X179382061Y-67054079D01*
X179376326Y-67008525D01*
X179525571Y-67008525D01*
X179531184Y-67033253D01*
X179536910Y-67049131D01*
X179569840Y-67109039D01*
X179617178Y-67154792D01*
X179680944Y-67187928D01*
X179763153Y-67209982D01*
X179765947Y-67210484D01*
X179812232Y-67216447D01*
X179868628Y-67220675D01*
X179923566Y-67222281D01*
X180017448Y-67222281D01*
X180017448Y-66782014D01*
X179929959Y-66782462D01*
X179863039Y-66784938D01*
X179770641Y-66796190D01*
X179691326Y-66815729D01*
X179629352Y-66842703D01*
X179598412Y-66863432D01*
X179570292Y-66893198D01*
X179546952Y-66935626D01*
X179539825Y-66951592D01*
X179528001Y-66984094D01*
X179525571Y-67008525D01*
X179376326Y-67008525D01*
X179375089Y-66998701D01*
X179383691Y-66943675D01*
X179407833Y-66881543D01*
X179408629Y-66879850D01*
X179449080Y-66810428D01*
X179499765Y-66753830D01*
X179562490Y-66709262D01*
X179639066Y-66675933D01*
X179731301Y-66653053D01*
X179841004Y-66639828D01*
X179969983Y-66635467D01*
X179973555Y-66635462D01*
X180033575Y-66635602D01*
X180075506Y-66636638D01*
X180103620Y-66639232D01*
X180122189Y-66644045D01*
X180135486Y-66651736D01*
X180147783Y-66662968D01*
X180175492Y-66690677D01*
X180175492Y-67000112D01*
X180175467Y-67061718D01*
X180175242Y-67140503D01*
X180174624Y-67201213D01*
X180174067Y-67222281D01*
X180173425Y-67246588D01*
G37*
X187109663Y-66635258D02*
X187070181Y-66635659D01*
X186954492Y-66638451D01*
X186857603Y-66646742D01*
X186776211Y-66661424D01*
X186707015Y-66683385D01*
X186646712Y-66713514D01*
X186592000Y-66752702D01*
X186572459Y-66769724D01*
X186540042Y-66809555D01*
X186510812Y-66863605D01*
X186488283Y-66923515D01*
X186475971Y-66980931D01*
X186474692Y-67002148D01*
X186482709Y-67060961D01*
X186504191Y-67125205D01*
X186535291Y-67186013D01*
X186572158Y-67234522D01*
X186578146Y-67240374D01*
X186628871Y-67281513D01*
X186684417Y-67313627D01*
X186747988Y-67337557D01*
X186822786Y-67354145D01*
X186912014Y-67364233D01*
X187018874Y-67368661D01*
X187067820Y-67369037D01*
X187130054Y-67368737D01*
X187173820Y-67367484D01*
X187203223Y-67364746D01*
X187222371Y-67359993D01*
X187235369Y-67352693D01*
X187242337Y-67346459D01*
X187248918Y-67338886D01*
X187254080Y-67329116D01*
X187257995Y-67314532D01*
X187260835Y-67292518D01*
X187262772Y-67260456D01*
X187263976Y-67215728D01*
X187264620Y-67155718D01*
X187264875Y-67077809D01*
X187264914Y-67002148D01*
X187265162Y-66901233D01*
X187265109Y-66820619D01*
X187264149Y-66782014D01*
X187118159Y-66782014D01*
X187118159Y-67222281D01*
X187025026Y-67222196D01*
X186968985Y-67220588D01*
X186910291Y-67216448D01*
X186861320Y-67210656D01*
X186859830Y-67210418D01*
X186780684Y-67191282D01*
X186719294Y-67161479D01*
X186672597Y-67119070D01*
X186642927Y-67073153D01*
X186624645Y-67022218D01*
X186626063Y-66974392D01*
X186647280Y-66923125D01*
X186688781Y-66870091D01*
X186746290Y-66830792D01*
X186821042Y-66804523D01*
X186871000Y-66795227D01*
X186927708Y-66788699D01*
X186987811Y-66783974D01*
X187038931Y-66782009D01*
X187041959Y-66782000D01*
X187118159Y-66782014D01*
X187264149Y-66782014D01*
X187263552Y-66758043D01*
X187259290Y-66711247D01*
X187251122Y-66677970D01*
X187237848Y-66655951D01*
X187218266Y-66642931D01*
X187191175Y-66636649D01*
X187155374Y-66634845D01*
X187109663Y-66635258D01*
G36*
X187265109Y-66820619D02*
G01*
X187265162Y-66901233D01*
X187264914Y-67002148D01*
X187264875Y-67077809D01*
X187264620Y-67155718D01*
X187263976Y-67215728D01*
X187262772Y-67260456D01*
X187260835Y-67292518D01*
X187257995Y-67314532D01*
X187254080Y-67329116D01*
X187248918Y-67338886D01*
X187242337Y-67346459D01*
X187235369Y-67352693D01*
X187222371Y-67359993D01*
X187203223Y-67364746D01*
X187173820Y-67367484D01*
X187130054Y-67368737D01*
X187067820Y-67369037D01*
X187018874Y-67368661D01*
X186912014Y-67364233D01*
X186822786Y-67354145D01*
X186747988Y-67337557D01*
X186684417Y-67313627D01*
X186628871Y-67281513D01*
X186578146Y-67240374D01*
X186572158Y-67234522D01*
X186535291Y-67186013D01*
X186504191Y-67125205D01*
X186482709Y-67060961D01*
X186477428Y-67022218D01*
X186624645Y-67022218D01*
X186642927Y-67073153D01*
X186672597Y-67119070D01*
X186719294Y-67161479D01*
X186780684Y-67191282D01*
X186859830Y-67210418D01*
X186861320Y-67210656D01*
X186910291Y-67216448D01*
X186968985Y-67220588D01*
X187025026Y-67222196D01*
X187118159Y-67222281D01*
X187118159Y-66782014D01*
X187041959Y-66782000D01*
X187038931Y-66782009D01*
X186987811Y-66783974D01*
X186927708Y-66788699D01*
X186871000Y-66795227D01*
X186821042Y-66804523D01*
X186746290Y-66830792D01*
X186688781Y-66870091D01*
X186647280Y-66923125D01*
X186626063Y-66974392D01*
X186624645Y-67022218D01*
X186477428Y-67022218D01*
X186474692Y-67002148D01*
X186475971Y-66980931D01*
X186488283Y-66923515D01*
X186510812Y-66863605D01*
X186540042Y-66809555D01*
X186572459Y-66769724D01*
X186592000Y-66752702D01*
X186646712Y-66713514D01*
X186707015Y-66683385D01*
X186776211Y-66661424D01*
X186857603Y-66646742D01*
X186954492Y-66638451D01*
X187070181Y-66635659D01*
X187109663Y-66635258D01*
X187155374Y-66634845D01*
X187191175Y-66636649D01*
X187218266Y-66642931D01*
X187237848Y-66655951D01*
X187251122Y-66677970D01*
X187259290Y-66711247D01*
X187263552Y-66758043D01*
X187264149Y-66782014D01*
X187265109Y-66820619D01*
G37*
X182288406Y-66639640D02*
X182264840Y-66653465D01*
X182234027Y-66676073D01*
X182194370Y-66708530D01*
X182144272Y-66751900D01*
X182082135Y-66807250D01*
X182006364Y-66875643D01*
X181919626Y-66954276D01*
X181739003Y-67118070D01*
X181733359Y-66898221D01*
X181731321Y-66822543D01*
X181729355Y-66766186D01*
X181727026Y-66725898D01*
X181723898Y-66698427D01*
X181719537Y-66680521D01*
X181713508Y-66668929D01*
X181705376Y-66660400D01*
X181701064Y-66656815D01*
X181666533Y-66637862D01*
X181633675Y-66640633D01*
X181607610Y-66656825D01*
X181580959Y-66678391D01*
X181577644Y-66993343D01*
X181576727Y-67085971D01*
X181576260Y-67158736D01*
X181576405Y-67214353D01*
X181577324Y-67255534D01*
X181579179Y-67284995D01*
X181582131Y-67305447D01*
X181586342Y-67319605D01*
X181591974Y-67330183D01*
X181598219Y-67338666D01*
X181611731Y-67354399D01*
X181625175Y-67364828D01*
X181640416Y-67368831D01*
X181659318Y-67365286D01*
X181683747Y-67353071D01*
X181715565Y-67331063D01*
X181756640Y-67298141D01*
X181808834Y-67253183D01*
X181874014Y-67195067D01*
X181947848Y-67128291D01*
X182213137Y-66887650D01*
X182218781Y-67106781D01*
X182220823Y-67182320D01*
X182222794Y-67238546D01*
X182225131Y-67278716D01*
X182228273Y-67306088D01*
X182232656Y-67323920D01*
X182238716Y-67335471D01*
X182246892Y-67343999D01*
X182251076Y-67347474D01*
X182288057Y-67366564D01*
X182323000Y-67363685D01*
X182353428Y-67339292D01*
X182360389Y-67329478D01*
X182365815Y-67318018D01*
X182369895Y-67302160D01*
X182372821Y-67279155D01*
X182374784Y-67246254D01*
X182375975Y-67200708D01*
X182376584Y-67139765D01*
X182376803Y-67060678D01*
X182376826Y-67002148D01*
X182376752Y-66910599D01*
X182376405Y-66838879D01*
X182375593Y-66784237D01*
X182374125Y-66743924D01*
X182371811Y-66715190D01*
X182368459Y-66695285D01*
X182363880Y-66681460D01*
X182357881Y-66670964D01*
X182353428Y-66665003D01*
X182342142Y-66650883D01*
X182331593Y-66640221D01*
X182320185Y-66634084D01*
X182306322Y-66633535D01*
X182288406Y-66639640D01*
G36*
X182320185Y-66634084D02*
G01*
X182331593Y-66640221D01*
X182342142Y-66650883D01*
X182353428Y-66665003D01*
X182357881Y-66670964D01*
X182363880Y-66681460D01*
X182368459Y-66695285D01*
X182371811Y-66715190D01*
X182374125Y-66743924D01*
X182375593Y-66784237D01*
X182376405Y-66838879D01*
X182376752Y-66910599D01*
X182376826Y-67002148D01*
X182376803Y-67060678D01*
X182376584Y-67139765D01*
X182375975Y-67200708D01*
X182374784Y-67246254D01*
X182372821Y-67279155D01*
X182369895Y-67302160D01*
X182365815Y-67318018D01*
X182360389Y-67329478D01*
X182353428Y-67339292D01*
X182323000Y-67363685D01*
X182288057Y-67366564D01*
X182251076Y-67347474D01*
X182246892Y-67343999D01*
X182238716Y-67335471D01*
X182232656Y-67323920D01*
X182228273Y-67306088D01*
X182225131Y-67278716D01*
X182222794Y-67238546D01*
X182220823Y-67182320D01*
X182218781Y-67106781D01*
X182213137Y-66887650D01*
X181947848Y-67128291D01*
X181874014Y-67195067D01*
X181808834Y-67253183D01*
X181756640Y-67298141D01*
X181715565Y-67331063D01*
X181683747Y-67353071D01*
X181659318Y-67365286D01*
X181640416Y-67368831D01*
X181625175Y-67364828D01*
X181611731Y-67354399D01*
X181598219Y-67338666D01*
X181591974Y-67330183D01*
X181586342Y-67319605D01*
X181582131Y-67305447D01*
X181579179Y-67284995D01*
X181577324Y-67255534D01*
X181576405Y-67214353D01*
X181576260Y-67158736D01*
X181576727Y-67085971D01*
X181577644Y-66993343D01*
X181580959Y-66678391D01*
X181607610Y-66656825D01*
X181633675Y-66640633D01*
X181666533Y-66637862D01*
X181701064Y-66656815D01*
X181705376Y-66660400D01*
X181713508Y-66668929D01*
X181719537Y-66680521D01*
X181723898Y-66698427D01*
X181727026Y-66725898D01*
X181729355Y-66766186D01*
X181731321Y-66822543D01*
X181733359Y-66898221D01*
X181739003Y-67118070D01*
X181919626Y-66954276D01*
X182006364Y-66875643D01*
X182082135Y-66807250D01*
X182144272Y-66751900D01*
X182194370Y-66708530D01*
X182234027Y-66676073D01*
X182264840Y-66653465D01*
X182288406Y-66639640D01*
X182306322Y-66633535D01*
X182320185Y-66634084D01*
G37*
X182938373Y-66640791D02*
X182869857Y-66652287D01*
X182817235Y-66670159D01*
X182783000Y-66693691D01*
X182773671Y-66707116D01*
X182764185Y-66738340D01*
X182770569Y-66766587D01*
X182790722Y-66793374D01*
X182822037Y-66805905D01*
X182867475Y-66804888D01*
X182902618Y-66798098D01*
X182980711Y-66785163D01*
X183060518Y-66783934D01*
X183149847Y-66794433D01*
X183174521Y-66798882D01*
X183257583Y-66822300D01*
X183322565Y-66857137D01*
X183368753Y-66902796D01*
X183395437Y-66958686D01*
X183400955Y-66987580D01*
X183397343Y-67046204D01*
X183374021Y-67098071D01*
X183333116Y-67142170D01*
X183276751Y-67177491D01*
X183207052Y-67203021D01*
X183126144Y-67217751D01*
X183036152Y-67220670D01*
X182939202Y-67210767D01*
X182933728Y-67209833D01*
X182895167Y-67202651D01*
X182873786Y-67195713D01*
X182864519Y-67185419D01*
X182862298Y-67168168D01*
X182862248Y-67159033D01*
X182862248Y-67120681D01*
X182930723Y-67120681D01*
X182991192Y-67116539D01*
X183032457Y-67103339D01*
X183056467Y-67079922D01*
X183065169Y-67045128D01*
X183065275Y-67040586D01*
X183060184Y-67010846D01*
X183042725Y-66989611D01*
X183010231Y-66975558D01*
X182960035Y-66967365D01*
X182911415Y-66964353D01*
X182840748Y-66962625D01*
X182789490Y-66965262D01*
X182754531Y-66974992D01*
X182732762Y-66994545D01*
X182721072Y-67026648D01*
X182716352Y-67074030D01*
X182715492Y-67136263D01*
X182716901Y-67205727D01*
X182721140Y-67252978D01*
X182728228Y-67278204D01*
X182729603Y-67280180D01*
X182768520Y-67311700D01*
X182825578Y-67336662D01*
X182897161Y-67354532D01*
X182979650Y-67364778D01*
X183069431Y-67366865D01*
X183162884Y-67360260D01*
X183217848Y-67352148D01*
X183304058Y-67327746D01*
X183384184Y-67287854D01*
X183451269Y-67236079D01*
X183461465Y-67225731D01*
X183494594Y-67182227D01*
X183524486Y-67128310D01*
X183547649Y-67071784D01*
X183560590Y-67020451D01*
X183562150Y-67000736D01*
X183555510Y-66959611D01*
X183537860Y-66908444D01*
X183512589Y-66854586D01*
X183483081Y-66805387D01*
X183457011Y-66772526D01*
X183396057Y-66723644D01*
X183317261Y-66684737D01*
X183223449Y-66656686D01*
X183117442Y-66640371D01*
X183020292Y-66636384D01*
X182938373Y-66640791D01*
G36*
X183117442Y-66640371D02*
G01*
X183223449Y-66656686D01*
X183317261Y-66684737D01*
X183396057Y-66723644D01*
X183457011Y-66772526D01*
X183483081Y-66805387D01*
X183512589Y-66854586D01*
X183537860Y-66908444D01*
X183555510Y-66959611D01*
X183562150Y-67000736D01*
X183560590Y-67020451D01*
X183547649Y-67071784D01*
X183524486Y-67128310D01*
X183494594Y-67182227D01*
X183461465Y-67225731D01*
X183451269Y-67236079D01*
X183384184Y-67287854D01*
X183304058Y-67327746D01*
X183217848Y-67352148D01*
X183162884Y-67360260D01*
X183069431Y-67366865D01*
X182979650Y-67364778D01*
X182897161Y-67354532D01*
X182825578Y-67336662D01*
X182768520Y-67311700D01*
X182729603Y-67280180D01*
X182728228Y-67278204D01*
X182721140Y-67252978D01*
X182716901Y-67205727D01*
X182715492Y-67136263D01*
X182716352Y-67074030D01*
X182721072Y-67026648D01*
X182732762Y-66994545D01*
X182754531Y-66974992D01*
X182789490Y-66965262D01*
X182840748Y-66962625D01*
X182911415Y-66964353D01*
X182960035Y-66967365D01*
X183010231Y-66975558D01*
X183042725Y-66989611D01*
X183060184Y-67010846D01*
X183065275Y-67040586D01*
X183065169Y-67045128D01*
X183056467Y-67079922D01*
X183032457Y-67103339D01*
X182991192Y-67116539D01*
X182930723Y-67120681D01*
X182862248Y-67120681D01*
X182862248Y-67159033D01*
X182862298Y-67168168D01*
X182864519Y-67185419D01*
X182873786Y-67195713D01*
X182895167Y-67202651D01*
X182933728Y-67209833D01*
X182939202Y-67210767D01*
X183036152Y-67220670D01*
X183126144Y-67217751D01*
X183207052Y-67203021D01*
X183276751Y-67177491D01*
X183333116Y-67142170D01*
X183374021Y-67098071D01*
X183397343Y-67046204D01*
X183400955Y-66987580D01*
X183395437Y-66958686D01*
X183368753Y-66902796D01*
X183322565Y-66857137D01*
X183257583Y-66822300D01*
X183174521Y-66798882D01*
X183149847Y-66794433D01*
X183060518Y-66783934D01*
X182980711Y-66785163D01*
X182902618Y-66798098D01*
X182867475Y-66804888D01*
X182822037Y-66805905D01*
X182790722Y-66793374D01*
X182770569Y-66766587D01*
X182764185Y-66738340D01*
X182773671Y-66707116D01*
X182783000Y-66693691D01*
X182817235Y-66670159D01*
X182869857Y-66652287D01*
X182938373Y-66640791D01*
X183020292Y-66636384D01*
X183117442Y-66640371D01*
G37*
X180757949Y-66635452D02*
X180681591Y-66636366D01*
X180623075Y-66638503D01*
X180580037Y-66642367D01*
X180550109Y-66648459D01*
X180530924Y-66657282D01*
X180520116Y-66669338D01*
X180515319Y-66685131D01*
X180514165Y-66705162D01*
X180514159Y-66707527D01*
X180515161Y-66730184D01*
X180519896Y-66747695D01*
X180530959Y-66760766D01*
X180550944Y-66770105D01*
X180582446Y-66776419D01*
X180628060Y-66780414D01*
X180690379Y-66782798D01*
X180771999Y-66784278D01*
X180797015Y-66784606D01*
X181039092Y-66787659D01*
X181042478Y-66852570D01*
X181045863Y-66917481D01*
X180877716Y-66917481D01*
X180812026Y-66917723D01*
X180765120Y-66918748D01*
X180733209Y-66921003D01*
X180712501Y-66924934D01*
X180699208Y-66930990D01*
X180689537Y-66939616D01*
X180689475Y-66939685D01*
X180671936Y-66973304D01*
X180672570Y-67009640D01*
X180690978Y-67040615D01*
X180694621Y-67043799D01*
X180707551Y-67052004D01*
X180725268Y-67057713D01*
X180751722Y-67061354D01*
X180790860Y-67063359D01*
X180846630Y-67064156D01*
X180882298Y-67064237D01*
X181044737Y-67064237D01*
X181044737Y-67222281D01*
X180798131Y-67222281D01*
X180716712Y-67222423D01*
X180654882Y-67223006D01*
X180609655Y-67224260D01*
X180578044Y-67226419D01*
X180557061Y-67229715D01*
X180543719Y-67234381D01*
X180535031Y-67240649D01*
X180532842Y-67242925D01*
X180516678Y-67274472D01*
X180515495Y-67310360D01*
X180528756Y-67341477D01*
X180539249Y-67351463D01*
X180550163Y-67356961D01*
X180567075Y-67361214D01*
X180592659Y-67364372D01*
X180629591Y-67366584D01*
X180680546Y-67367998D01*
X180748198Y-67368764D01*
X180835223Y-67369030D01*
X180854898Y-67369037D01*
X180943381Y-67368979D01*
X181012065Y-67368659D01*
X181063728Y-67367859D01*
X181101147Y-67366359D01*
X181127102Y-67363941D01*
X181144370Y-67360386D01*
X181155730Y-67355474D01*
X181163960Y-67348987D01*
X181168475Y-67344330D01*
X181175271Y-67336081D01*
X181180580Y-67325861D01*
X181184586Y-67310992D01*
X181187471Y-67288794D01*
X181189418Y-67256585D01*
X181190611Y-67211688D01*
X181191231Y-67151420D01*
X181191463Y-67073103D01*
X181191492Y-67007186D01*
X181191421Y-66914820D01*
X181191084Y-66842309D01*
X181190294Y-66786929D01*
X181188866Y-66745957D01*
X181186613Y-66716670D01*
X181183349Y-66696345D01*
X181178888Y-66682258D01*
X181173044Y-66671687D01*
X181168095Y-66665003D01*
X181144698Y-66635259D01*
X180854518Y-66635259D01*
X180757949Y-66635452D01*
G36*
X181168095Y-66665003D02*
G01*
X181173044Y-66671687D01*
X181178888Y-66682258D01*
X181183349Y-66696345D01*
X181186613Y-66716670D01*
X181188866Y-66745957D01*
X181190294Y-66786929D01*
X181191084Y-66842309D01*
X181191421Y-66914820D01*
X181191492Y-67007186D01*
X181191463Y-67073103D01*
X181191231Y-67151420D01*
X181190611Y-67211688D01*
X181189418Y-67256585D01*
X181187471Y-67288794D01*
X181184586Y-67310992D01*
X181180580Y-67325861D01*
X181175271Y-67336081D01*
X181168475Y-67344330D01*
X181163960Y-67348987D01*
X181155730Y-67355474D01*
X181144370Y-67360386D01*
X181127102Y-67363941D01*
X181101147Y-67366359D01*
X181063728Y-67367859D01*
X181012065Y-67368659D01*
X180943381Y-67368979D01*
X180854898Y-67369037D01*
X180835223Y-67369030D01*
X180748198Y-67368764D01*
X180680546Y-67367998D01*
X180629591Y-67366584D01*
X180592659Y-67364372D01*
X180567075Y-67361214D01*
X180550163Y-67356961D01*
X180539249Y-67351463D01*
X180528756Y-67341477D01*
X180515495Y-67310360D01*
X180516678Y-67274472D01*
X180532842Y-67242925D01*
X180535031Y-67240649D01*
X180543719Y-67234381D01*
X180557061Y-67229715D01*
X180578044Y-67226419D01*
X180609655Y-67224260D01*
X180654882Y-67223006D01*
X180716712Y-67222423D01*
X180798131Y-67222281D01*
X181044737Y-67222281D01*
X181044737Y-67064237D01*
X180882298Y-67064237D01*
X180846630Y-67064156D01*
X180790860Y-67063359D01*
X180751722Y-67061354D01*
X180725268Y-67057713D01*
X180707551Y-67052004D01*
X180694621Y-67043799D01*
X180690978Y-67040615D01*
X180672570Y-67009640D01*
X180671936Y-66973304D01*
X180689475Y-66939685D01*
X180689537Y-66939616D01*
X180699208Y-66930990D01*
X180712501Y-66924934D01*
X180733209Y-66921003D01*
X180765120Y-66918748D01*
X180812026Y-66917723D01*
X180877716Y-66917481D01*
X181045863Y-66917481D01*
X181042478Y-66852570D01*
X181039092Y-66787659D01*
X180797015Y-66784606D01*
X180771999Y-66784278D01*
X180690379Y-66782798D01*
X180628060Y-66780414D01*
X180582446Y-66776419D01*
X180550944Y-66770105D01*
X180530959Y-66760766D01*
X180519896Y-66747695D01*
X180515161Y-66730184D01*
X180514159Y-66707527D01*
X180514165Y-66705162D01*
X180515319Y-66685131D01*
X180520116Y-66669338D01*
X180530924Y-66657282D01*
X180550109Y-66648459D01*
X180580037Y-66642367D01*
X180623075Y-66638503D01*
X180681591Y-66636366D01*
X180757949Y-66635452D01*
X180854518Y-66635259D01*
X181144698Y-66635259D01*
X181168095Y-66665003D01*
G37*
X185701086Y-66635338D02*
X185631678Y-66635710D01*
X185579289Y-66636577D01*
X185541139Y-66638138D01*
X185514451Y-66640595D01*
X185496445Y-66644149D01*
X185484341Y-66649002D01*
X185475361Y-66655353D01*
X185472110Y-66658276D01*
X185452335Y-66689334D01*
X185448774Y-66725020D01*
X185461783Y-66756702D01*
X185467798Y-66763105D01*
X185477527Y-66769313D01*
X185493193Y-66774102D01*
X185517700Y-66777706D01*
X185553953Y-66780356D01*
X185604857Y-66782287D01*
X185673318Y-66783731D01*
X185735909Y-66784610D01*
X185983626Y-66787659D01*
X185987011Y-66852570D01*
X185990397Y-66917481D01*
X185822250Y-66917481D01*
X185749251Y-66918111D01*
X185695809Y-66920745D01*
X185658920Y-66926501D01*
X185635580Y-66936496D01*
X185622786Y-66951848D01*
X185617534Y-66973674D01*
X185616737Y-66993930D01*
X185619215Y-67018784D01*
X185628569Y-67037098D01*
X185647675Y-67049829D01*
X185679410Y-67057933D01*
X185726651Y-67062368D01*
X185792275Y-67064091D01*
X185828093Y-67064237D01*
X185989270Y-67064237D01*
X185989270Y-67222281D01*
X185740914Y-67222281D01*
X185659505Y-67222394D01*
X185597634Y-67222904D01*
X185552260Y-67224062D01*
X185520346Y-67226122D01*
X185498851Y-67229338D01*
X185484735Y-67233964D01*
X185474960Y-67240251D01*
X185469981Y-67244859D01*
X185452902Y-67271752D01*
X185447403Y-67295659D01*
X185455255Y-67324859D01*
X185469981Y-67346459D01*
X185477838Y-67353258D01*
X185487980Y-67358538D01*
X185503136Y-67362490D01*
X185526033Y-67365305D01*
X185559401Y-67367174D01*
X185605967Y-67368290D01*
X185668459Y-67368843D01*
X185749606Y-67369025D01*
X185791714Y-67369037D01*
X185881890Y-67368957D01*
X185952216Y-67368590D01*
X186005421Y-67367744D01*
X186044232Y-67366228D01*
X186071379Y-67363851D01*
X186089590Y-67360421D01*
X186101592Y-67355746D01*
X186110114Y-67349636D01*
X186113448Y-67346459D01*
X186120047Y-67338862D01*
X186125219Y-67329062D01*
X186129138Y-67314431D01*
X186131976Y-67292344D01*
X186133907Y-67260174D01*
X186135104Y-67215295D01*
X186135740Y-67155081D01*
X186135989Y-67076905D01*
X186136026Y-67004115D01*
X186135992Y-66910899D01*
X186135757Y-66837623D01*
X186135122Y-66781650D01*
X186133886Y-66740343D01*
X186131848Y-66711064D01*
X186128809Y-66691176D01*
X186124569Y-66678042D01*
X186118927Y-66669024D01*
X186111683Y-66661485D01*
X186109898Y-66659804D01*
X186101237Y-66652364D01*
X186091174Y-66646601D01*
X186076917Y-66642304D01*
X186055675Y-66639256D01*
X186024656Y-66637243D01*
X185981069Y-66636052D01*
X185922123Y-66635467D01*
X185845026Y-66635275D01*
X185790293Y-66635259D01*
X185701086Y-66635338D01*
G36*
X185845026Y-66635275D02*
G01*
X185922123Y-66635467D01*
X185981069Y-66636052D01*
X186024656Y-66637243D01*
X186055675Y-66639256D01*
X186076917Y-66642304D01*
X186091174Y-66646601D01*
X186101237Y-66652364D01*
X186109898Y-66659804D01*
X186111683Y-66661485D01*
X186118927Y-66669024D01*
X186124569Y-66678042D01*
X186128809Y-66691176D01*
X186131848Y-66711064D01*
X186133886Y-66740343D01*
X186135122Y-66781650D01*
X186135757Y-66837623D01*
X186135992Y-66910899D01*
X186136026Y-67004115D01*
X186135989Y-67076905D01*
X186135740Y-67155081D01*
X186135104Y-67215295D01*
X186133907Y-67260174D01*
X186131976Y-67292344D01*
X186129138Y-67314431D01*
X186125219Y-67329062D01*
X186120047Y-67338862D01*
X186113448Y-67346459D01*
X186110114Y-67349636D01*
X186101592Y-67355746D01*
X186089590Y-67360421D01*
X186071379Y-67363851D01*
X186044232Y-67366228D01*
X186005421Y-67367744D01*
X185952216Y-67368590D01*
X185881890Y-67368957D01*
X185791714Y-67369037D01*
X185749606Y-67369025D01*
X185668459Y-67368843D01*
X185605967Y-67368290D01*
X185559401Y-67367174D01*
X185526033Y-67365305D01*
X185503136Y-67362490D01*
X185487980Y-67358538D01*
X185477838Y-67353258D01*
X185469981Y-67346459D01*
X185455255Y-67324859D01*
X185447403Y-67295659D01*
X185452902Y-67271752D01*
X185469981Y-67244859D01*
X185474960Y-67240251D01*
X185484735Y-67233964D01*
X185498851Y-67229338D01*
X185520346Y-67226122D01*
X185552260Y-67224062D01*
X185597634Y-67222904D01*
X185659505Y-67222394D01*
X185740914Y-67222281D01*
X185989270Y-67222281D01*
X185989270Y-67064237D01*
X185828093Y-67064237D01*
X185792275Y-67064091D01*
X185726651Y-67062368D01*
X185679410Y-67057933D01*
X185647675Y-67049829D01*
X185628569Y-67037098D01*
X185619215Y-67018784D01*
X185616737Y-66993930D01*
X185617534Y-66973674D01*
X185622786Y-66951848D01*
X185635580Y-66936496D01*
X185658920Y-66926501D01*
X185695809Y-66920745D01*
X185749251Y-66918111D01*
X185822250Y-66917481D01*
X185990397Y-66917481D01*
X185987011Y-66852570D01*
X185983626Y-66787659D01*
X185735909Y-66784610D01*
X185673318Y-66783731D01*
X185604857Y-66782287D01*
X185553953Y-66780356D01*
X185517700Y-66777706D01*
X185493193Y-66774102D01*
X185477527Y-66769313D01*
X185467798Y-66763105D01*
X185461783Y-66756702D01*
X185448774Y-66725020D01*
X185452335Y-66689334D01*
X185472110Y-66658276D01*
X185475361Y-66655353D01*
X185484341Y-66649002D01*
X185496445Y-66644149D01*
X185514451Y-66640595D01*
X185541139Y-66638138D01*
X185579289Y-66636577D01*
X185631678Y-66635710D01*
X185701086Y-66635338D01*
X185790293Y-66635259D01*
X185845026Y-66635275D01*
G37*
X177243627Y-66637226D02*
X177224037Y-66644227D01*
X177223282Y-66644569D01*
X177196679Y-66664870D01*
X177182022Y-66685753D01*
X177179154Y-66695544D01*
X177179296Y-66708553D01*
X177183331Y-66727087D01*
X177192146Y-66753449D01*
X177206623Y-66789944D01*
X177227647Y-66838879D01*
X177256104Y-66902557D01*
X177292877Y-66983285D01*
X177313117Y-67027408D01*
X177349667Y-67106177D01*
X177383977Y-67178615D01*
X177414740Y-67242072D01*
X177440644Y-67293900D01*
X177460382Y-67331451D01*
X177472642Y-67352076D01*
X177475068Y-67354925D01*
X177506109Y-67367494D01*
X177541171Y-67365811D01*
X177569292Y-67350524D01*
X177570438Y-67349281D01*
X177581624Y-67332346D01*
X177600388Y-67299362D01*
X177624417Y-67254572D01*
X177651395Y-67202224D01*
X177661091Y-67182934D01*
X177734278Y-67036342D01*
X177814052Y-67195585D01*
X177842525Y-67250607D01*
X177868942Y-67298324D01*
X177891144Y-67335085D01*
X177906973Y-67357236D01*
X177912338Y-67361933D01*
X177954035Y-67368294D01*
X177988443Y-67354925D01*
X177998564Y-67340638D01*
X178016078Y-67308884D01*
X178039557Y-67262789D01*
X178067572Y-67205477D01*
X178098693Y-67140072D01*
X178131493Y-67069699D01*
X178164542Y-66997483D01*
X178196411Y-66926547D01*
X178225673Y-66860017D01*
X178250897Y-66801018D01*
X178270656Y-66752673D01*
X178283520Y-66718107D01*
X178288061Y-66700445D01*
X178288015Y-66699805D01*
X178276966Y-66677580D01*
X178254882Y-66654945D01*
X178253582Y-66653960D01*
X178226439Y-66638617D01*
X178201334Y-66638766D01*
X178191924Y-66641658D01*
X178180458Y-66647910D01*
X178168282Y-66660206D01*
X178153935Y-66681100D01*
X178135956Y-66713141D01*
X178112885Y-66758880D01*
X178083262Y-66820869D01*
X178056547Y-66878090D01*
X178025812Y-66944418D01*
X177998271Y-67004066D01*
X177975354Y-67053917D01*
X177958494Y-67090856D01*
X177949119Y-67111765D01*
X177947752Y-67115037D01*
X177941603Y-67109689D01*
X177927470Y-67087301D01*
X177907235Y-67051138D01*
X177882777Y-67004469D01*
X177873044Y-66985214D01*
X177840075Y-66920196D01*
X177814649Y-66872846D01*
X177794680Y-66840411D01*
X177778082Y-66820138D01*
X177762768Y-66809274D01*
X177746652Y-66805067D01*
X177736149Y-66804592D01*
X177717622Y-66806234D01*
X177701388Y-66813023D01*
X177685257Y-66827758D01*
X177667041Y-66853236D01*
X177644553Y-66892253D01*
X177615603Y-66947606D01*
X177599630Y-66979095D01*
X177573722Y-67029279D01*
X177551125Y-67070896D01*
X177533834Y-67100434D01*
X177523842Y-67114381D01*
X177522483Y-67114962D01*
X177516031Y-67103985D01*
X177501584Y-67075482D01*
X177480589Y-67032436D01*
X177454495Y-66977830D01*
X177424746Y-66914646D01*
X177410112Y-66883263D01*
X177372042Y-66802270D01*
X177341387Y-66739948D01*
X177316555Y-66694263D01*
X177295955Y-66663181D01*
X177277994Y-66644670D01*
X177261082Y-66636696D01*
X177243627Y-66637226D01*
G36*
X177277994Y-66644670D02*
G01*
X177295955Y-66663181D01*
X177316555Y-66694263D01*
X177341387Y-66739948D01*
X177372042Y-66802270D01*
X177410112Y-66883263D01*
X177424746Y-66914646D01*
X177454495Y-66977830D01*
X177480589Y-67032436D01*
X177501584Y-67075482D01*
X177516031Y-67103985D01*
X177522483Y-67114962D01*
X177523842Y-67114381D01*
X177533834Y-67100434D01*
X177551125Y-67070896D01*
X177573722Y-67029279D01*
X177599630Y-66979095D01*
X177615603Y-66947606D01*
X177644553Y-66892253D01*
X177667041Y-66853236D01*
X177685257Y-66827758D01*
X177701388Y-66813023D01*
X177717622Y-66806234D01*
X177736149Y-66804592D01*
X177746652Y-66805067D01*
X177762768Y-66809274D01*
X177778082Y-66820138D01*
X177794680Y-66840411D01*
X177814649Y-66872846D01*
X177840075Y-66920196D01*
X177873044Y-66985214D01*
X177882777Y-67004469D01*
X177907235Y-67051138D01*
X177927470Y-67087301D01*
X177941603Y-67109689D01*
X177947752Y-67115037D01*
X177949119Y-67111765D01*
X177958494Y-67090856D01*
X177975354Y-67053917D01*
X177998271Y-67004066D01*
X178025812Y-66944418D01*
X178056547Y-66878090D01*
X178083262Y-66820869D01*
X178112885Y-66758880D01*
X178135956Y-66713141D01*
X178153935Y-66681100D01*
X178168282Y-66660206D01*
X178180458Y-66647910D01*
X178191924Y-66641658D01*
X178201334Y-66638766D01*
X178226439Y-66638617D01*
X178253582Y-66653960D01*
X178254882Y-66654945D01*
X178276966Y-66677580D01*
X178288015Y-66699805D01*
X178288061Y-66700445D01*
X178283520Y-66718107D01*
X178270656Y-66752673D01*
X178250897Y-66801018D01*
X178225673Y-66860017D01*
X178196411Y-66926547D01*
X178164542Y-66997483D01*
X178131493Y-67069699D01*
X178098693Y-67140072D01*
X178067572Y-67205477D01*
X178039557Y-67262789D01*
X178016078Y-67308884D01*
X177998564Y-67340638D01*
X177988443Y-67354925D01*
X177954035Y-67368294D01*
X177912338Y-67361933D01*
X177906973Y-67357236D01*
X177891144Y-67335085D01*
X177868942Y-67298324D01*
X177842525Y-67250607D01*
X177814052Y-67195585D01*
X177734278Y-67036342D01*
X177661091Y-67182934D01*
X177651395Y-67202224D01*
X177624417Y-67254572D01*
X177600388Y-67299362D01*
X177581624Y-67332346D01*
X177570438Y-67349281D01*
X177569292Y-67350524D01*
X177541171Y-67365811D01*
X177506109Y-67367494D01*
X177475068Y-67354925D01*
X177472642Y-67352076D01*
X177460382Y-67331451D01*
X177440644Y-67293900D01*
X177414740Y-67242072D01*
X177383977Y-67178615D01*
X177349667Y-67106177D01*
X177313117Y-67027408D01*
X177292877Y-66983285D01*
X177256104Y-66902557D01*
X177227647Y-66838879D01*
X177206623Y-66789944D01*
X177192146Y-66753449D01*
X177183331Y-66727087D01*
X177179296Y-66708553D01*
X177179154Y-66695544D01*
X177182022Y-66685753D01*
X177196679Y-66664870D01*
X177223282Y-66644569D01*
X177224037Y-66644227D01*
X177243627Y-66637226D01*
X177261082Y-66636696D01*
X177277994Y-66644670D01*
G37*
X184679995Y-66636543D02*
X184605180Y-66641773D01*
X184535598Y-66649942D01*
X184475294Y-66660742D01*
X184428312Y-66673865D01*
X184398698Y-66689005D01*
X184394152Y-66693461D01*
X184378346Y-66728042D01*
X184383139Y-66763543D01*
X184407656Y-66793917D01*
X184408826Y-66794788D01*
X184423246Y-66804146D01*
X184438300Y-66809068D01*
X184459297Y-66809665D01*
X184491549Y-66806053D01*
X184540365Y-66798346D01*
X184544292Y-66797697D01*
X184617031Y-66788761D01*
X184695509Y-66784353D01*
X184774219Y-66784311D01*
X184847653Y-66788471D01*
X184910303Y-66796671D01*
X184956662Y-66808749D01*
X184959708Y-66809963D01*
X184993340Y-66828807D01*
X185005156Y-66847877D01*
X184995906Y-66866631D01*
X184966339Y-66884529D01*
X184917203Y-66901029D01*
X184849249Y-66915588D01*
X184803937Y-66922598D01*
X184709748Y-66936081D01*
X184634836Y-66948406D01*
X184576009Y-66960641D01*
X184530077Y-66973853D01*
X184493847Y-66989109D01*
X184464130Y-67007477D01*
X184437734Y-67030023D01*
X184416522Y-67052163D01*
X184391357Y-67083011D01*
X184378973Y-67109537D01*
X184375100Y-67142218D01*
X184374959Y-67154187D01*
X184377868Y-67193904D01*
X184389494Y-67223451D01*
X184409615Y-67249678D01*
X184450508Y-67289768D01*
X184496109Y-67320341D01*
X184549805Y-67342395D01*
X184614984Y-67356927D01*
X184695036Y-67364933D01*
X184793349Y-67367410D01*
X184809581Y-67367369D01*
X184875141Y-67366010D01*
X184940158Y-67362922D01*
X184997544Y-67358548D01*
X185040214Y-67353332D01*
X185043664Y-67352733D01*
X185086088Y-67342683D01*
X185122072Y-67329988D01*
X185142442Y-67318382D01*
X185161399Y-67287764D01*
X185162719Y-67252110D01*
X185146377Y-67220336D01*
X185142721Y-67216743D01*
X185127607Y-67206068D01*
X185108707Y-67201468D01*
X185079454Y-67202251D01*
X185043943Y-67206319D01*
X185004262Y-67209954D01*
X184948637Y-67213020D01*
X184883698Y-67215245D01*
X184816077Y-67216356D01*
X184798292Y-67216429D01*
X184730420Y-67216156D01*
X184680746Y-67214838D01*
X184644902Y-67212019D01*
X184618516Y-67207242D01*
X184597218Y-67200049D01*
X184584418Y-67194059D01*
X184556292Y-67177425D01*
X184538360Y-67162360D01*
X184535739Y-67158089D01*
X184541268Y-67140455D01*
X184567552Y-67123384D01*
X184612770Y-67107650D01*
X184675100Y-67094030D01*
X184693463Y-67090996D01*
X184789382Y-67075930D01*
X184865933Y-67063338D01*
X184926072Y-67052303D01*
X184972752Y-67041912D01*
X185008929Y-67031248D01*
X185037557Y-67019397D01*
X185061590Y-67005443D01*
X185083984Y-66988473D01*
X185107694Y-66967570D01*
X185115672Y-66960241D01*
X185143645Y-66932891D01*
X185158452Y-66911221D01*
X185164244Y-66886424D01*
X185165181Y-66855175D01*
X185154867Y-66793897D01*
X185124044Y-66741832D01*
X185072887Y-66699150D01*
X185001575Y-66666017D01*
X184950692Y-66651156D01*
X184895392Y-66641558D01*
X184829145Y-66636128D01*
X184755998Y-66634559D01*
X184679995Y-66636543D01*
G36*
X184829145Y-66636128D02*
G01*
X184895392Y-66641558D01*
X184950692Y-66651156D01*
X185001575Y-66666017D01*
X185072887Y-66699150D01*
X185124044Y-66741832D01*
X185154867Y-66793897D01*
X185165181Y-66855175D01*
X185164244Y-66886424D01*
X185158452Y-66911221D01*
X185143645Y-66932891D01*
X185115672Y-66960241D01*
X185107694Y-66967570D01*
X185083984Y-66988473D01*
X185061590Y-67005443D01*
X185037557Y-67019397D01*
X185008929Y-67031248D01*
X184972752Y-67041912D01*
X184926072Y-67052303D01*
X184865933Y-67063338D01*
X184789382Y-67075930D01*
X184693463Y-67090996D01*
X184675100Y-67094030D01*
X184612770Y-67107650D01*
X184567552Y-67123384D01*
X184541268Y-67140455D01*
X184535739Y-67158089D01*
X184538360Y-67162360D01*
X184556292Y-67177425D01*
X184584418Y-67194059D01*
X184597218Y-67200049D01*
X184618516Y-67207242D01*
X184644902Y-67212019D01*
X184680746Y-67214838D01*
X184730420Y-67216156D01*
X184798292Y-67216429D01*
X184816077Y-67216356D01*
X184883698Y-67215245D01*
X184948637Y-67213020D01*
X185004262Y-67209954D01*
X185043943Y-67206319D01*
X185079454Y-67202251D01*
X185108707Y-67201468D01*
X185127607Y-67206068D01*
X185142721Y-67216743D01*
X185146377Y-67220336D01*
X185162719Y-67252110D01*
X185161399Y-67287764D01*
X185142442Y-67318382D01*
X185122072Y-67329988D01*
X185086088Y-67342683D01*
X185043664Y-67352733D01*
X185040214Y-67353332D01*
X184997544Y-67358548D01*
X184940158Y-67362922D01*
X184875141Y-67366010D01*
X184809581Y-67367369D01*
X184793349Y-67367410D01*
X184695036Y-67364933D01*
X184614984Y-67356927D01*
X184549805Y-67342395D01*
X184496109Y-67320341D01*
X184450508Y-67289768D01*
X184409615Y-67249678D01*
X184389494Y-67223451D01*
X184377868Y-67193904D01*
X184374959Y-67154187D01*
X184375100Y-67142218D01*
X184378973Y-67109537D01*
X184391357Y-67083011D01*
X184416522Y-67052163D01*
X184437734Y-67030023D01*
X184464130Y-67007477D01*
X184493847Y-66989109D01*
X184530077Y-66973853D01*
X184576009Y-66960641D01*
X184634836Y-66948406D01*
X184709748Y-66936081D01*
X184803937Y-66922598D01*
X184849249Y-66915588D01*
X184917203Y-66901029D01*
X184966339Y-66884529D01*
X184995906Y-66866631D01*
X185005156Y-66847877D01*
X184993340Y-66828807D01*
X184959708Y-66809963D01*
X184956662Y-66808749D01*
X184910303Y-66796671D01*
X184847653Y-66788471D01*
X184774219Y-66784311D01*
X184695509Y-66784353D01*
X184617031Y-66788761D01*
X184544292Y-66797697D01*
X184540365Y-66798346D01*
X184491549Y-66806053D01*
X184459297Y-66809665D01*
X184438300Y-66809068D01*
X184423246Y-66804146D01*
X184408826Y-66794788D01*
X184407656Y-66793917D01*
X184383139Y-66763543D01*
X184378346Y-66728042D01*
X184394152Y-66693461D01*
X184398698Y-66689005D01*
X184428312Y-66673865D01*
X184475294Y-66660742D01*
X184535598Y-66649942D01*
X184605180Y-66641773D01*
X184679995Y-66636543D01*
X184755998Y-66634559D01*
X184829145Y-66636128D01*
G37*
X180560038Y-61160499D02*
X180411986Y-61176707D01*
X180268548Y-61205718D01*
X180123890Y-61249045D01*
X179972176Y-61308201D01*
X179807572Y-61384700D01*
X179777929Y-61399517D01*
X179709902Y-61433031D01*
X179645744Y-61463208D01*
X179591785Y-61487166D01*
X179554360Y-61502024D01*
X179548611Y-61503895D01*
X179493514Y-61520402D01*
X179740149Y-61879201D01*
X179800448Y-61966893D01*
X179855578Y-62047012D01*
X179903664Y-62116836D01*
X179942832Y-62173647D01*
X179971206Y-62214723D01*
X179986913Y-62237346D01*
X179989464Y-62240928D01*
X179999829Y-62233438D01*
X180025340Y-62210918D01*
X180061437Y-62177461D01*
X180081358Y-62158550D01*
X180194227Y-62068778D01*
X180320986Y-62000561D01*
X180430217Y-61963195D01*
X180495786Y-61951460D01*
X180577884Y-61944308D01*
X180666856Y-61941874D01*
X180753044Y-61944288D01*
X180826795Y-61951683D01*
X180856224Y-61957347D01*
X180988867Y-62002982D01*
X181108394Y-62072663D01*
X181214717Y-62166260D01*
X181307747Y-62283649D01*
X181387395Y-62424700D01*
X181453574Y-62589286D01*
X181506194Y-62777280D01*
X181537467Y-62938217D01*
X181545626Y-63009263D01*
X181551185Y-63101046D01*
X181554198Y-63206968D01*
X181554719Y-63320434D01*
X181552800Y-63434849D01*
X181548497Y-63543617D01*
X181541863Y-63640143D01*
X181532951Y-63717831D01*
X181531021Y-63729817D01*
X181488501Y-63922892D01*
X181430567Y-64093773D01*
X181356867Y-64243224D01*
X181267049Y-64372011D01*
X181203293Y-64441639D01*
X181088714Y-64536173D01*
X180963058Y-64606246D01*
X180828443Y-64651477D01*
X180686989Y-64671484D01*
X180540817Y-64665885D01*
X180392045Y-64634300D01*
X180304089Y-64603394D01*
X180182371Y-64541506D01*
X180056920Y-64452729D01*
X179986647Y-64392694D01*
X179947189Y-64357947D01*
X179916188Y-64332454D01*
X179898542Y-64320170D01*
X179896352Y-64319795D01*
X179888476Y-64332347D01*
X179868068Y-64365516D01*
X179836868Y-64416458D01*
X179796614Y-64482331D01*
X179749043Y-64560289D01*
X179695896Y-64647490D01*
X179666313Y-64696067D01*
X179440352Y-65067215D01*
X179722473Y-65206639D01*
X179824478Y-65256719D01*
X179907111Y-65296210D01*
X179975422Y-65327073D01*
X180034463Y-65351268D01*
X180089286Y-65370758D01*
X180144940Y-65387503D01*
X180206477Y-65403465D01*
X180265460Y-65417482D01*
X180317885Y-65428329D01*
X180372712Y-65436526D01*
X180435428Y-65442528D01*
X180511523Y-65446790D01*
X180606484Y-65449767D01*
X180670487Y-65451052D01*
X180761808Y-65451930D01*
X180849373Y-65451487D01*
X180927388Y-65449852D01*
X180990058Y-65447149D01*
X181031587Y-65443505D01*
X181034048Y-65443142D01*
X181249697Y-65396487D01*
X181452207Y-65325729D01*
X181641505Y-65230914D01*
X181817521Y-65112089D01*
X181980184Y-64969300D01*
X182129422Y-64802594D01*
X182237504Y-64654433D01*
X182352566Y-64460502D01*
X182445577Y-64255699D01*
X182516987Y-64038383D01*
X182567244Y-63806912D01*
X182596799Y-63559643D01*
X182606111Y-63308559D01*
X182598452Y-63065670D01*
X182574387Y-62841570D01*
X182533148Y-62632477D01*
X182473973Y-62434613D01*
X182396096Y-62244196D01*
X182386797Y-62224468D01*
X182284352Y-62040059D01*
X182158528Y-61864576D01*
X182012888Y-61701650D01*
X181850999Y-61554914D01*
X181676424Y-61428001D01*
X181513756Y-61334905D01*
X181349427Y-61261991D01*
X181184749Y-61209174D01*
X181013348Y-61175015D01*
X180828847Y-61158078D01*
X180718541Y-61155580D01*
X180560038Y-61160499D01*
G36*
X180828847Y-61158078D02*
G01*
X181013348Y-61175015D01*
X181184749Y-61209174D01*
X181349427Y-61261991D01*
X181513756Y-61334905D01*
X181676424Y-61428001D01*
X181850999Y-61554914D01*
X182012888Y-61701650D01*
X182158528Y-61864576D01*
X182284352Y-62040059D01*
X182386797Y-62224468D01*
X182396096Y-62244196D01*
X182473973Y-62434613D01*
X182533148Y-62632477D01*
X182574387Y-62841570D01*
X182598452Y-63065670D01*
X182606111Y-63308559D01*
X182596799Y-63559643D01*
X182567244Y-63806912D01*
X182516987Y-64038383D01*
X182445577Y-64255699D01*
X182352566Y-64460502D01*
X182237504Y-64654433D01*
X182129422Y-64802594D01*
X181980184Y-64969300D01*
X181817521Y-65112089D01*
X181641505Y-65230914D01*
X181452207Y-65325729D01*
X181249697Y-65396487D01*
X181034048Y-65443142D01*
X181031587Y-65443505D01*
X180990058Y-65447149D01*
X180927388Y-65449852D01*
X180849373Y-65451487D01*
X180761808Y-65451930D01*
X180670487Y-65451052D01*
X180606484Y-65449767D01*
X180511523Y-65446790D01*
X180435428Y-65442528D01*
X180372712Y-65436526D01*
X180317885Y-65428329D01*
X180265460Y-65417482D01*
X180206477Y-65403465D01*
X180144940Y-65387503D01*
X180089286Y-65370758D01*
X180034463Y-65351268D01*
X179975422Y-65327073D01*
X179907111Y-65296210D01*
X179824478Y-65256719D01*
X179722473Y-65206639D01*
X179440352Y-65067215D01*
X179666313Y-64696067D01*
X179695896Y-64647490D01*
X179749043Y-64560289D01*
X179796614Y-64482331D01*
X179836868Y-64416458D01*
X179868068Y-64365516D01*
X179888476Y-64332347D01*
X179896352Y-64319795D01*
X179898542Y-64320170D01*
X179916188Y-64332454D01*
X179947189Y-64357947D01*
X179986647Y-64392694D01*
X180056920Y-64452729D01*
X180182371Y-64541506D01*
X180304089Y-64603394D01*
X180392045Y-64634300D01*
X180540817Y-64665885D01*
X180686989Y-64671484D01*
X180828443Y-64651477D01*
X180963058Y-64606246D01*
X181088714Y-64536173D01*
X181203293Y-64441639D01*
X181267049Y-64372011D01*
X181356867Y-64243224D01*
X181430567Y-64093773D01*
X181488501Y-63922892D01*
X181531021Y-63729817D01*
X181532951Y-63717831D01*
X181541863Y-63640143D01*
X181548497Y-63543617D01*
X181552800Y-63434849D01*
X181554719Y-63320434D01*
X181554198Y-63206968D01*
X181551185Y-63101046D01*
X181545626Y-63009263D01*
X181537467Y-62938217D01*
X181506194Y-62777280D01*
X181453574Y-62589286D01*
X181387395Y-62424700D01*
X181307747Y-62283649D01*
X181214717Y-62166260D01*
X181108394Y-62072663D01*
X180988867Y-62002982D01*
X180856224Y-61957347D01*
X180826795Y-61951683D01*
X180753044Y-61944288D01*
X180666856Y-61941874D01*
X180577884Y-61944308D01*
X180495786Y-61951460D01*
X180430217Y-61963195D01*
X180320986Y-62000561D01*
X180194227Y-62068778D01*
X180081358Y-62158550D01*
X180061437Y-62177461D01*
X180025340Y-62210918D01*
X179999829Y-62233438D01*
X179989464Y-62240928D01*
X179986913Y-62237346D01*
X179971206Y-62214723D01*
X179942832Y-62173647D01*
X179903664Y-62116836D01*
X179855578Y-62047012D01*
X179800448Y-61966893D01*
X179740149Y-61879201D01*
X179493514Y-61520402D01*
X179548611Y-61503895D01*
X179554360Y-61502024D01*
X179591785Y-61487166D01*
X179645744Y-61463208D01*
X179709902Y-61433031D01*
X179777929Y-61399517D01*
X179807572Y-61384700D01*
X179972176Y-61308201D01*
X180123890Y-61249045D01*
X180268548Y-61205718D01*
X180411986Y-61176707D01*
X180560038Y-61160499D01*
X180718541Y-61155580D01*
X180828847Y-61158078D01*
G37*
X174157730Y-60956825D02*
X174040959Y-60957304D01*
X174001271Y-60957545D01*
X173455514Y-60961135D01*
X173448649Y-63054919D01*
X173447742Y-63338842D01*
X173446938Y-63596640D01*
X173446185Y-63829646D01*
X173445431Y-64039194D01*
X173444625Y-64226618D01*
X173443715Y-64393250D01*
X173442649Y-64540425D01*
X173441376Y-64669477D01*
X173439844Y-64781739D01*
X173438002Y-64878544D01*
X173435797Y-64961226D01*
X173433178Y-65031119D01*
X173430094Y-65089557D01*
X173426492Y-65137872D01*
X173422322Y-65177400D01*
X173417531Y-65209473D01*
X173412069Y-65235424D01*
X173405882Y-65256589D01*
X173398920Y-65274299D01*
X173391131Y-65289889D01*
X173382463Y-65304693D01*
X173372865Y-65320044D01*
X173362285Y-65337276D01*
X173360116Y-65340946D01*
X173323732Y-65403031D01*
X173849569Y-65399434D01*
X174375406Y-65395838D01*
X174382271Y-65280331D01*
X174386008Y-65224899D01*
X174389903Y-65192851D01*
X174395189Y-65180135D01*
X174403097Y-65182696D01*
X174409730Y-65190024D01*
X174438626Y-65216714D01*
X174485721Y-65251021D01*
X174544380Y-65288846D01*
X174607969Y-65326090D01*
X174669851Y-65358653D01*
X174717366Y-65380077D01*
X174828684Y-65415283D01*
X174956404Y-65440222D01*
X175091099Y-65453941D01*
X175223337Y-65455486D01*
X175343692Y-65443906D01*
X175345674Y-65443574D01*
X175510359Y-65402250D01*
X175664521Y-65336412D01*
X175806672Y-65247474D01*
X175935325Y-65136852D01*
X176048993Y-65005961D01*
X176146190Y-64856216D01*
X176225428Y-64689033D01*
X176268570Y-64565190D01*
X176297021Y-64461581D01*
X176318120Y-64361252D01*
X176332512Y-64258109D01*
X176340842Y-64146057D01*
X176343755Y-64019001D01*
X176342465Y-63915252D01*
X175329350Y-63915252D01*
X175324556Y-64089222D01*
X175309432Y-64238895D01*
X175283515Y-64365597D01*
X175246337Y-64470658D01*
X175197435Y-64555406D01*
X175136342Y-64621169D01*
X175065823Y-64667659D01*
X175029129Y-64685014D01*
X174997304Y-64695419D01*
X174961823Y-64700179D01*
X174914159Y-64700601D01*
X174862811Y-64698748D01*
X174761831Y-64689841D01*
X174681965Y-64672398D01*
X174656865Y-64663661D01*
X174599552Y-64637857D01*
X174539103Y-64605453D01*
X174512703Y-64589233D01*
X174444054Y-64544205D01*
X174444054Y-63116982D01*
X174519568Y-63071718D01*
X174624879Y-63020572D01*
X174732475Y-62990324D01*
X174838419Y-62980795D01*
X174938776Y-62991807D01*
X175029613Y-63023181D01*
X175106993Y-63074740D01*
X175131961Y-63099488D01*
X175192144Y-63180577D01*
X175240855Y-63278734D01*
X175278501Y-63395643D01*
X175305488Y-63532985D01*
X175322225Y-63692444D01*
X175329117Y-63875700D01*
X175329350Y-63915252D01*
X176342465Y-63915252D01*
X176341927Y-63872067D01*
X176330353Y-63646053D01*
X176307080Y-63442192D01*
X176271496Y-63257513D01*
X176222987Y-63089048D01*
X176160940Y-62933826D01*
X176138799Y-62887808D01*
X176049615Y-62737739D01*
X175941841Y-62604377D01*
X175818010Y-62489877D01*
X175680658Y-62396389D01*
X175532317Y-62326068D01*
X175443396Y-62297060D01*
X175356067Y-62279840D01*
X175250989Y-62269594D01*
X175136971Y-62266318D01*
X175022823Y-62270009D01*
X174917352Y-62280660D01*
X174832666Y-62297370D01*
X174731872Y-62330140D01*
X174634178Y-62372279D01*
X174548704Y-62419519D01*
X174503211Y-62451581D01*
X174471831Y-62475422D01*
X174449858Y-62489939D01*
X174444859Y-62492000D01*
X174443310Y-62478718D01*
X174441865Y-62440663D01*
X174440557Y-62380519D01*
X174439417Y-62300973D01*
X174438479Y-62204711D01*
X174437774Y-62094419D01*
X174437333Y-61972781D01*
X174437189Y-61848885D01*
X174437270Y-61690196D01*
X174437665Y-61556408D01*
X174438605Y-61444960D01*
X174440320Y-61353295D01*
X174443043Y-61278853D01*
X174447003Y-61219075D01*
X174452431Y-61171402D01*
X174459559Y-61133274D01*
X174468616Y-61102134D01*
X174479833Y-61075421D01*
X174493442Y-61050577D01*
X174509672Y-61025043D01*
X174511760Y-61021881D01*
X174532694Y-60988810D01*
X174545333Y-60966069D01*
X174547027Y-60961272D01*
X174533784Y-60959759D01*
X174495998Y-60958528D01*
X174436584Y-60957599D01*
X174358458Y-60956992D01*
X174264535Y-60956727D01*
X174157730Y-60956825D01*
G36*
X176343755Y-64019001D02*
G01*
X176340842Y-64146057D01*
X176332512Y-64258109D01*
X176318120Y-64361252D01*
X176297021Y-64461581D01*
X176268570Y-64565190D01*
X176225428Y-64689033D01*
X176146190Y-64856216D01*
X176048993Y-65005961D01*
X175935325Y-65136852D01*
X175806672Y-65247474D01*
X175664521Y-65336412D01*
X175510359Y-65402250D01*
X175345674Y-65443574D01*
X175343692Y-65443906D01*
X175223337Y-65455486D01*
X175091099Y-65453941D01*
X174956404Y-65440222D01*
X174828684Y-65415283D01*
X174717366Y-65380077D01*
X174669851Y-65358653D01*
X174607969Y-65326090D01*
X174544380Y-65288846D01*
X174485721Y-65251021D01*
X174438626Y-65216714D01*
X174409730Y-65190024D01*
X174403097Y-65182696D01*
X174395189Y-65180135D01*
X174389903Y-65192851D01*
X174386008Y-65224899D01*
X174382271Y-65280331D01*
X174375406Y-65395838D01*
X173849569Y-65399434D01*
X173323732Y-65403031D01*
X173360116Y-65340946D01*
X173362285Y-65337276D01*
X173372865Y-65320044D01*
X173382463Y-65304693D01*
X173391131Y-65289889D01*
X173398920Y-65274299D01*
X173405882Y-65256589D01*
X173412069Y-65235424D01*
X173417531Y-65209473D01*
X173422322Y-65177400D01*
X173426492Y-65137872D01*
X173430094Y-65089557D01*
X173433178Y-65031119D01*
X173435797Y-64961226D01*
X173438002Y-64878544D01*
X173439844Y-64781739D01*
X173441376Y-64669477D01*
X173442649Y-64540425D01*
X173443715Y-64393250D01*
X173444625Y-64226618D01*
X173445431Y-64039194D01*
X173446185Y-63829646D01*
X173446938Y-63596640D01*
X173447742Y-63338842D01*
X173448451Y-63116982D01*
X174444054Y-63116982D01*
X174444054Y-64544205D01*
X174512703Y-64589233D01*
X174539103Y-64605453D01*
X174599552Y-64637857D01*
X174656865Y-64663661D01*
X174681965Y-64672398D01*
X174761831Y-64689841D01*
X174862811Y-64698748D01*
X174914159Y-64700601D01*
X174961823Y-64700179D01*
X174997304Y-64695419D01*
X175029129Y-64685014D01*
X175065823Y-64667659D01*
X175136342Y-64621169D01*
X175197435Y-64555406D01*
X175246337Y-64470658D01*
X175283515Y-64365597D01*
X175309432Y-64238895D01*
X175324556Y-64089222D01*
X175329350Y-63915252D01*
X175329117Y-63875700D01*
X175322225Y-63692444D01*
X175305488Y-63532985D01*
X175278501Y-63395643D01*
X175240855Y-63278734D01*
X175192144Y-63180577D01*
X175131961Y-63099488D01*
X175106993Y-63074740D01*
X175029613Y-63023181D01*
X174938776Y-62991807D01*
X174838419Y-62980795D01*
X174732475Y-62990324D01*
X174624879Y-63020572D01*
X174519568Y-63071718D01*
X174444054Y-63116982D01*
X173448451Y-63116982D01*
X173448649Y-63054919D01*
X173455514Y-60961135D01*
X174001271Y-60957545D01*
X174040959Y-60957304D01*
X174157730Y-60956825D01*
X174264535Y-60956727D01*
X174358458Y-60956992D01*
X174436584Y-60957599D01*
X174495998Y-60958528D01*
X174533784Y-60959759D01*
X174547027Y-60961272D01*
X174545333Y-60966069D01*
X174532694Y-60988810D01*
X174511760Y-61021881D01*
X174509672Y-61025043D01*
X174493442Y-61050577D01*
X174479833Y-61075421D01*
X174468616Y-61102134D01*
X174459559Y-61133274D01*
X174452431Y-61171402D01*
X174447003Y-61219075D01*
X174443043Y-61278853D01*
X174440320Y-61353295D01*
X174438605Y-61444960D01*
X174437665Y-61556408D01*
X174437270Y-61690196D01*
X174437189Y-61848885D01*
X174437333Y-61972781D01*
X174437774Y-62094419D01*
X174438479Y-62204711D01*
X174439417Y-62300973D01*
X174440557Y-62380519D01*
X174441865Y-62440663D01*
X174443310Y-62478718D01*
X174444859Y-62492000D01*
X174449858Y-62489939D01*
X174471831Y-62475422D01*
X174503211Y-62451581D01*
X174548704Y-62419519D01*
X174634178Y-62372279D01*
X174731872Y-62330140D01*
X174832666Y-62297370D01*
X174917352Y-62280660D01*
X175022823Y-62270009D01*
X175136971Y-62266318D01*
X175250989Y-62269594D01*
X175356067Y-62279840D01*
X175443396Y-62297060D01*
X175532317Y-62326068D01*
X175680658Y-62396389D01*
X175818010Y-62489877D01*
X175941841Y-62604377D01*
X176049615Y-62737739D01*
X176138799Y-62887808D01*
X176160940Y-62933826D01*
X176222987Y-63089048D01*
X176271496Y-63257513D01*
X176307080Y-63442192D01*
X176330353Y-63646053D01*
X176341927Y-63872067D01*
X176342465Y-63915252D01*
X176343755Y-64019001D01*
G37*
X177832495Y-62264229D02*
X177764469Y-62269378D01*
X177569837Y-62295273D01*
X177397471Y-62336575D01*
X177246530Y-62393853D01*
X177116175Y-62467674D01*
X177005566Y-62558608D01*
X176913865Y-62667222D01*
X176840230Y-62794085D01*
X176786461Y-62931352D01*
X176772813Y-62975137D01*
X176760927Y-63016141D01*
X176750666Y-63056569D01*
X176741887Y-63098630D01*
X176734452Y-63144531D01*
X176728220Y-63196480D01*
X176723050Y-63256685D01*
X176718804Y-63327352D01*
X176715340Y-63410689D01*
X176712519Y-63508905D01*
X176710200Y-63624205D01*
X176708243Y-63758799D01*
X176706509Y-63914893D01*
X176704857Y-64094695D01*
X176703676Y-64235676D01*
X176695730Y-65203622D01*
X176644244Y-65296770D01*
X176619863Y-65341645D01*
X176601720Y-65376501D01*
X176593065Y-65395054D01*
X176592757Y-65396311D01*
X176605986Y-65397749D01*
X176643674Y-65399074D01*
X176702817Y-65400249D01*
X176780414Y-65401237D01*
X176873464Y-65401999D01*
X176978965Y-65402500D01*
X177093916Y-65402701D01*
X177107622Y-65402703D01*
X177622487Y-65402703D01*
X177622487Y-65286000D01*
X177623365Y-65233260D01*
X177625708Y-65192926D01*
X177629079Y-65171300D01*
X177630569Y-65169298D01*
X177644196Y-65177683D01*
X177672243Y-65199692D01*
X177708697Y-65230601D01*
X177709515Y-65231316D01*
X177776038Y-65280843D01*
X177860052Y-65330575D01*
X177952063Y-65375626D01*
X178042579Y-65411110D01*
X178082433Y-65423236D01*
X178161745Y-65438637D01*
X178259065Y-65448465D01*
X178365484Y-65452580D01*
X178472093Y-65450841D01*
X178569983Y-65443108D01*
X178638487Y-65431981D01*
X178806480Y-65382648D01*
X178957719Y-65312342D01*
X179091218Y-65221933D01*
X179205994Y-65112295D01*
X179301063Y-64984299D01*
X179375440Y-64838818D01*
X179407526Y-64750541D01*
X179427635Y-64664739D01*
X179440962Y-64561736D01*
X179447128Y-64451034D01*
X179446926Y-64434925D01*
X178518352Y-64434925D01*
X178510652Y-64517184D01*
X178485011Y-64585546D01*
X178437622Y-64648970D01*
X178419421Y-64667567D01*
X178354718Y-64717846D01*
X178279934Y-64750056D01*
X178190338Y-64765648D01*
X178095988Y-64766796D01*
X178006499Y-64759216D01*
X177937982Y-64744389D01*
X177908225Y-64733253D01*
X177854592Y-64702904D01*
X177797765Y-64660221D01*
X177745918Y-64612317D01*
X177707222Y-64566301D01*
X177696946Y-64549421D01*
X177688958Y-64525782D01*
X177683279Y-64488168D01*
X177679644Y-64432985D01*
X177677789Y-64356640D01*
X177677406Y-64283981D01*
X177677665Y-64199270D01*
X177678713Y-64138018D01*
X177680955Y-64096227D01*
X177684794Y-64069899D01*
X177690635Y-64055035D01*
X177698882Y-64047639D01*
X177701433Y-64046461D01*
X177723600Y-64042833D01*
X177767320Y-64039866D01*
X177826689Y-64037827D01*
X177895804Y-64036983D01*
X177910811Y-64036982D01*
X178003195Y-64038457D01*
X178074568Y-64042842D01*
X178131281Y-64050738D01*
X178178128Y-64062270D01*
X178294331Y-64106215D01*
X178385457Y-64160243D01*
X178452295Y-64225219D01*
X178495635Y-64302005D01*
X178516266Y-64391467D01*
X178518352Y-64434925D01*
X179446926Y-64434925D01*
X179445756Y-64342133D01*
X179436468Y-64244536D01*
X179429223Y-64205105D01*
X179382961Y-64058701D01*
X179312616Y-63923995D01*
X179219516Y-63802280D01*
X179104988Y-63694847D01*
X178970360Y-63602988D01*
X178816960Y-63527996D01*
X178686541Y-63482458D01*
X178599377Y-63458533D01*
X178516004Y-63439943D01*
X178431024Y-63426084D01*
X178339035Y-63416351D01*
X178234638Y-63410141D01*
X178112432Y-63406851D01*
X178001945Y-63405924D01*
X177674323Y-63405027D01*
X177680599Y-63306547D01*
X177698421Y-63199695D01*
X177736333Y-63107852D01*
X177792720Y-63033310D01*
X177865969Y-62978364D01*
X177930465Y-62951552D01*
X178022877Y-62934654D01*
X178132889Y-62932227D01*
X178255344Y-62943378D01*
X178385086Y-62967210D01*
X178516958Y-63002830D01*
X178645802Y-63049343D01*
X178739434Y-63091883D01*
X178784483Y-63113728D01*
X178818844Y-63128984D01*
X178836319Y-63134937D01*
X178837267Y-63134746D01*
X178843297Y-63121412D01*
X178858355Y-63086068D01*
X178881023Y-63032101D01*
X178909885Y-62962896D01*
X178943523Y-62881840D01*
X178977716Y-62799118D01*
X179114414Y-62467803D01*
X179017180Y-62451833D01*
X178975036Y-62443820D01*
X178911681Y-62430361D01*
X178832543Y-62412679D01*
X178743049Y-62391996D01*
X178648627Y-62369532D01*
X178611027Y-62360403D01*
X178448363Y-62322674D01*
X178305950Y-62294388D01*
X178178473Y-62274972D01*
X178060616Y-62263854D01*
X177947062Y-62260464D01*
X177832495Y-62264229D01*
G36*
X179447128Y-64451034D02*
G01*
X179440962Y-64561736D01*
X179427635Y-64664739D01*
X179407526Y-64750541D01*
X179375440Y-64838818D01*
X179301063Y-64984299D01*
X179205994Y-65112295D01*
X179091218Y-65221933D01*
X178957719Y-65312342D01*
X178806480Y-65382648D01*
X178638487Y-65431981D01*
X178569983Y-65443108D01*
X178472093Y-65450841D01*
X178365484Y-65452580D01*
X178259065Y-65448465D01*
X178161745Y-65438637D01*
X178082433Y-65423236D01*
X178042579Y-65411110D01*
X177952063Y-65375626D01*
X177860052Y-65330575D01*
X177776038Y-65280843D01*
X177709515Y-65231316D01*
X177708697Y-65230601D01*
X177672243Y-65199692D01*
X177644196Y-65177683D01*
X177630569Y-65169298D01*
X177629079Y-65171300D01*
X177625708Y-65192926D01*
X177623365Y-65233260D01*
X177622487Y-65286000D01*
X177622487Y-65402703D01*
X177107622Y-65402703D01*
X177093916Y-65402701D01*
X176978965Y-65402500D01*
X176873464Y-65401999D01*
X176780414Y-65401237D01*
X176702817Y-65400249D01*
X176643674Y-65399074D01*
X176605986Y-65397749D01*
X176592757Y-65396311D01*
X176593065Y-65395054D01*
X176601720Y-65376501D01*
X176619863Y-65341645D01*
X176644244Y-65296770D01*
X176695730Y-65203622D01*
X176703279Y-64283981D01*
X177677406Y-64283981D01*
X177677789Y-64356640D01*
X177679644Y-64432985D01*
X177683279Y-64488168D01*
X177688958Y-64525782D01*
X177696946Y-64549421D01*
X177707222Y-64566301D01*
X177745918Y-64612317D01*
X177797765Y-64660221D01*
X177854592Y-64702904D01*
X177908225Y-64733253D01*
X177937982Y-64744389D01*
X178006499Y-64759216D01*
X178095988Y-64766796D01*
X178190338Y-64765648D01*
X178279934Y-64750056D01*
X178354718Y-64717846D01*
X178419421Y-64667567D01*
X178437622Y-64648970D01*
X178485011Y-64585546D01*
X178510652Y-64517184D01*
X178518352Y-64434925D01*
X178516266Y-64391467D01*
X178495635Y-64302005D01*
X178452295Y-64225219D01*
X178385457Y-64160243D01*
X178294331Y-64106215D01*
X178178128Y-64062270D01*
X178131281Y-64050738D01*
X178074568Y-64042842D01*
X178003195Y-64038457D01*
X177910811Y-64036982D01*
X177895804Y-64036983D01*
X177826689Y-64037827D01*
X177767320Y-64039866D01*
X177723600Y-64042833D01*
X177701433Y-64046461D01*
X177698882Y-64047639D01*
X177690635Y-64055035D01*
X177684794Y-64069899D01*
X177680955Y-64096227D01*
X177678713Y-64138018D01*
X177677665Y-64199270D01*
X177677406Y-64283981D01*
X176703279Y-64283981D01*
X176703676Y-64235676D01*
X176704857Y-64094695D01*
X176706509Y-63914893D01*
X176708243Y-63758799D01*
X176710200Y-63624205D01*
X176712519Y-63508905D01*
X176715340Y-63410689D01*
X176718804Y-63327352D01*
X176723050Y-63256685D01*
X176728220Y-63196480D01*
X176734452Y-63144531D01*
X176741887Y-63098630D01*
X176750666Y-63056569D01*
X176760927Y-63016141D01*
X176772813Y-62975137D01*
X176786461Y-62931352D01*
X176840230Y-62794085D01*
X176913865Y-62667222D01*
X177005566Y-62558608D01*
X177116175Y-62467674D01*
X177246530Y-62393853D01*
X177397471Y-62336575D01*
X177569837Y-62295273D01*
X177764469Y-62269378D01*
X177832495Y-62264229D01*
X177947062Y-62260464D01*
X178060616Y-62263854D01*
X178178473Y-62274972D01*
X178305950Y-62294388D01*
X178448363Y-62322674D01*
X178611027Y-62360403D01*
X178648627Y-62369532D01*
X178743049Y-62391996D01*
X178832543Y-62412679D01*
X178911681Y-62430361D01*
X178975036Y-62443820D01*
X179017180Y-62451833D01*
X179114414Y-62467803D01*
X178977716Y-62799118D01*
X178943523Y-62881840D01*
X178909885Y-62962896D01*
X178881023Y-63032101D01*
X178858355Y-63086068D01*
X178843297Y-63121412D01*
X178837267Y-63134746D01*
X178836319Y-63134937D01*
X178818844Y-63128984D01*
X178784483Y-63113728D01*
X178739434Y-63091883D01*
X178645802Y-63049343D01*
X178516958Y-63002830D01*
X178385086Y-62967210D01*
X178255344Y-62943378D01*
X178132889Y-62932227D01*
X178022877Y-62934654D01*
X177930465Y-62951552D01*
X177865969Y-62978364D01*
X177792720Y-63033310D01*
X177736333Y-63107852D01*
X177698421Y-63199695D01*
X177680599Y-63306547D01*
X177674323Y-63405027D01*
X178001945Y-63405924D01*
X178112432Y-63406851D01*
X178234638Y-63410141D01*
X178339035Y-63416351D01*
X178431024Y-63426084D01*
X178516004Y-63439943D01*
X178599377Y-63458533D01*
X178686541Y-63482458D01*
X178816960Y-63527996D01*
X178970360Y-63602988D01*
X179104988Y-63694847D01*
X179219516Y-63802280D01*
X179312616Y-63923995D01*
X179382961Y-64058701D01*
X179429223Y-64205105D01*
X179436468Y-64244536D01*
X179445756Y-64342133D01*
X179446926Y-64434925D01*
X179447128Y-64451034D01*
G37*
X186955743Y-60473689D02*
X186691220Y-60473725D01*
X186568088Y-60473730D01*
X184597189Y-60473730D01*
X184597189Y-60589910D01*
X184584789Y-60731291D01*
X184547364Y-60861684D01*
X184484577Y-60981862D01*
X184396094Y-61092602D01*
X184366157Y-61122511D01*
X184258466Y-61207348D01*
X184139725Y-61269221D01*
X184013460Y-61308159D01*
X183883197Y-61324190D01*
X183752465Y-61317342D01*
X183624788Y-61287643D01*
X183503695Y-61235120D01*
X183392712Y-61159803D01*
X183342868Y-61114363D01*
X183249983Y-61002952D01*
X183181873Y-60880435D01*
X183139129Y-60748215D01*
X183122347Y-60607692D01*
X183122124Y-60593867D01*
X183121244Y-60473734D01*
X183068443Y-60473732D01*
X183021604Y-60480089D01*
X182978817Y-60495556D01*
X182975989Y-60497154D01*
X182966325Y-60502168D01*
X182957451Y-60506073D01*
X182949335Y-60510007D01*
X182941943Y-60515106D01*
X182935245Y-60522508D01*
X182929208Y-60533351D01*
X182923801Y-60548772D01*
X182918990Y-60569909D01*
X182914745Y-60597899D01*
X182911032Y-60633879D01*
X182907821Y-60678987D01*
X182905078Y-60734360D01*
X182902772Y-60801137D01*
X182900871Y-60880453D01*
X182899342Y-60973447D01*
X182898154Y-61081257D01*
X182897274Y-61205019D01*
X182896670Y-61345871D01*
X182896311Y-61504950D01*
X182896165Y-61683395D01*
X182896198Y-61882342D01*
X182896380Y-62102929D01*
X182896677Y-62346293D01*
X182897059Y-62613572D01*
X182897492Y-62905903D01*
X182897945Y-63224424D01*
X182897998Y-63263230D01*
X182898404Y-63583782D01*
X182898749Y-63878012D01*
X182899069Y-64147056D01*
X182899400Y-64392052D01*
X182899779Y-64614137D01*
X182900243Y-64814447D01*
X182900828Y-64994119D01*
X182901570Y-65154290D01*
X182902506Y-65296098D01*
X182903673Y-65420679D01*
X182905107Y-65529170D01*
X182906844Y-65622707D01*
X182908922Y-65702429D01*
X182911376Y-65769472D01*
X182914244Y-65824973D01*
X182917561Y-65870068D01*
X182921364Y-65905895D01*
X182925690Y-65933591D01*
X182930575Y-65954293D01*
X182936055Y-65969137D01*
X182942168Y-65979260D01*
X182948950Y-65985800D01*
X182956437Y-65989893D01*
X182964666Y-65992676D01*
X182973673Y-65995287D01*
X182983495Y-65998862D01*
X182985894Y-65999950D01*
X182993435Y-66002396D01*
X183006056Y-66004642D01*
X183024859Y-66006698D01*
X183050947Y-66008572D01*
X183085422Y-66010271D01*
X183129385Y-66011803D01*
X183183939Y-66013177D01*
X183250185Y-66014400D01*
X183329226Y-66015481D01*
X183422163Y-66016427D01*
X183530099Y-66017247D01*
X183654136Y-66017947D01*
X183795376Y-66018538D01*
X183954921Y-66019025D01*
X184133872Y-66019419D01*
X184333332Y-66019725D01*
X184554404Y-66019953D01*
X184798188Y-66020110D01*
X185065787Y-66020205D01*
X185358303Y-66020245D01*
X185676839Y-66020238D01*
X185780021Y-66020228D01*
X186105623Y-66020176D01*
X186404881Y-66020091D01*
X186678909Y-66019963D01*
X186928824Y-66019785D01*
X187155740Y-66019548D01*
X187360773Y-66019242D01*
X187545038Y-66018860D01*
X187709650Y-66018392D01*
X187855725Y-66017830D01*
X187984376Y-66017165D01*
X188096721Y-66016388D01*
X188193874Y-66015491D01*
X188276950Y-66014465D01*
X188347064Y-66013301D01*
X188405332Y-66011991D01*
X188452869Y-66010525D01*
X188490790Y-66008896D01*
X188520210Y-66007093D01*
X188542245Y-66005110D01*
X188558010Y-66002936D01*
X188568620Y-66000563D01*
X188574404Y-65998391D01*
X188584684Y-65994056D01*
X188594122Y-65990859D01*
X188602755Y-65987665D01*
X188610619Y-65983338D01*
X188617748Y-65976744D01*
X188624179Y-65966747D01*
X188629947Y-65952212D01*
X188635089Y-65932003D01*
X188639640Y-65904985D01*
X188643635Y-65870023D01*
X188647111Y-65825981D01*
X188650102Y-65771724D01*
X188652646Y-65706117D01*
X188654777Y-65628024D01*
X188656532Y-65536310D01*
X188657945Y-65429840D01*
X188658315Y-65388973D01*
X188291884Y-65388973D01*
X186996734Y-65388973D01*
X187021655Y-65351217D01*
X187046447Y-65312417D01*
X187067440Y-65275469D01*
X187084935Y-65237788D01*
X187099230Y-65196788D01*
X187110623Y-65149883D01*
X187119413Y-65094487D01*
X187125898Y-65028016D01*
X187130377Y-64947883D01*
X187133150Y-64851502D01*
X187134513Y-64736289D01*
X187134767Y-64599657D01*
X187134209Y-64439020D01*
X187133893Y-64379382D01*
X187130325Y-63740041D01*
X186725298Y-64291449D01*
X186610554Y-64447876D01*
X186511143Y-64584088D01*
X186425990Y-64701890D01*
X186354022Y-64803084D01*
X186294166Y-64889477D01*
X186245348Y-64962874D01*
X186206495Y-65025077D01*
X186176534Y-65077893D01*
X186154391Y-65123125D01*
X186138993Y-65162578D01*
X186129266Y-65198058D01*
X186124137Y-65231368D01*
X186122532Y-65264313D01*
X186123379Y-65298697D01*
X186123595Y-65303019D01*
X186128054Y-65389031D01*
X184708692Y-65388973D01*
X184814265Y-65282522D01*
X184842913Y-65253406D01*
X184870090Y-65225076D01*
X184896989Y-65195968D01*
X184924803Y-65164520D01*
X184954725Y-65129169D01*
X184987946Y-65088354D01*
X185025661Y-65040511D01*
X185069060Y-64984079D01*
X185119338Y-64917494D01*
X185177688Y-64839195D01*
X185245300Y-64747619D01*
X185323369Y-64641204D01*
X185413088Y-64518387D01*
X185515648Y-64377605D01*
X185632242Y-64217297D01*
X185727809Y-64085798D01*
X185847749Y-63920596D01*
X185952380Y-63776152D01*
X186042648Y-63651094D01*
X186119503Y-63544052D01*
X186183891Y-63453654D01*
X186236761Y-63378529D01*
X186279060Y-63317304D01*
X186311736Y-63268610D01*
X186335738Y-63231074D01*
X186352013Y-63203325D01*
X186361508Y-63183992D01*
X186365173Y-63171703D01*
X186364071Y-63165242D01*
X186350724Y-63148048D01*
X186321866Y-63111655D01*
X186279240Y-63058224D01*
X186224585Y-62989919D01*
X186159644Y-62908903D01*
X186086158Y-62817340D01*
X186005868Y-62717392D01*
X185920515Y-62611224D01*
X185831840Y-62500997D01*
X185741586Y-62388876D01*
X185691944Y-62327244D01*
X184459373Y-62327244D01*
X184408146Y-62419919D01*
X184356919Y-62512595D01*
X184356919Y-65203622D01*
X184408146Y-65296298D01*
X184459373Y-65388973D01*
X183853396Y-65388973D01*
X183708734Y-65388931D01*
X183589244Y-65388741D01*
X183492642Y-65388308D01*
X183416642Y-65387536D01*
X183358957Y-65386330D01*
X183317301Y-65384594D01*
X183289389Y-65382232D01*
X183272935Y-65379150D01*
X183265652Y-65375251D01*
X183265255Y-65370440D01*
X183269458Y-65364622D01*
X183269501Y-65364574D01*
X183286813Y-65339532D01*
X183309736Y-65298815D01*
X183329981Y-65258168D01*
X183368379Y-65176162D01*
X183376211Y-62327244D01*
X184459373Y-62327244D01*
X185691944Y-62327244D01*
X185651493Y-62277024D01*
X185563302Y-62167604D01*
X185478754Y-62062778D01*
X185399592Y-61964711D01*
X185327556Y-61875566D01*
X185264387Y-61797505D01*
X185211827Y-61732692D01*
X185171617Y-61683290D01*
X185148000Y-61654487D01*
X185056290Y-61546778D01*
X184968060Y-61449580D01*
X184886403Y-61366076D01*
X184814410Y-61299448D01*
X184763319Y-61258599D01*
X184702907Y-61215135D01*
X186092298Y-61215135D01*
X186091908Y-61296666D01*
X186095791Y-61356606D01*
X186110390Y-61412177D01*
X186132988Y-61464855D01*
X186147678Y-61494615D01*
X186163472Y-61524103D01*
X186181814Y-61555276D01*
X186204145Y-61590093D01*
X186231909Y-61630510D01*
X186266549Y-61678486D01*
X186309507Y-61735978D01*
X186362227Y-61804943D01*
X186426151Y-61887339D01*
X186502721Y-61985124D01*
X186593381Y-62100255D01*
X186699574Y-62234690D01*
X186711568Y-62249859D01*
X187130325Y-62779412D01*
X187134378Y-62192922D01*
X187135195Y-62017251D01*
X187135021Y-61868532D01*
X187133849Y-61746275D01*
X187131669Y-61649989D01*
X187128474Y-61579183D01*
X187124256Y-61533369D01*
X187122838Y-61524679D01*
X187100591Y-61433135D01*
X187071443Y-61350608D01*
X187038182Y-61284253D01*
X187018200Y-61256110D01*
X186983722Y-61215135D01*
X187637914Y-61215135D01*
X187793969Y-61215269D01*
X187924467Y-61215703D01*
X188031310Y-61216489D01*
X188116398Y-61217676D01*
X188181635Y-61219317D01*
X188228921Y-61221461D01*
X188260157Y-61224159D01*
X188277246Y-61227462D01*
X188282088Y-61231421D01*
X188281753Y-61232298D01*
X188267885Y-61253231D01*
X188244732Y-61286412D01*
X188232754Y-61303193D01*
X188220369Y-61319940D01*
X188209237Y-61334915D01*
X188199288Y-61349594D01*
X188190451Y-61365449D01*
X188182657Y-61383955D01*
X188175835Y-61406585D01*
X188169916Y-61434813D01*
X188164829Y-61470113D01*
X188160504Y-61513958D01*
X188156871Y-61567822D01*
X188153860Y-61633180D01*
X188151401Y-61711504D01*
X188149423Y-61804268D01*
X188147858Y-61912947D01*
X188146634Y-62039013D01*
X188145681Y-62183942D01*
X188144930Y-62349206D01*
X188144311Y-62536279D01*
X188143752Y-62746635D01*
X188143185Y-62981748D01*
X188142655Y-63197741D01*
X188142155Y-63438535D01*
X188141895Y-63668274D01*
X188141868Y-63885493D01*
X188142067Y-64088722D01*
X188142486Y-64276496D01*
X188143118Y-64447345D01*
X188143956Y-64599803D01*
X188144992Y-64732403D01*
X188146220Y-64843676D01*
X188147633Y-64932156D01*
X188149225Y-64996375D01*
X188150987Y-65034865D01*
X188151321Y-65038933D01*
X188163466Y-65132248D01*
X188182427Y-65207190D01*
X188211302Y-65272594D01*
X188253190Y-65337293D01*
X188258429Y-65344352D01*
X188291884Y-65388973D01*
X188658315Y-65388973D01*
X188659054Y-65307479D01*
X188659893Y-65168090D01*
X188660498Y-65010539D01*
X188660905Y-64833691D01*
X188661150Y-64636410D01*
X188661267Y-64417560D01*
X188661295Y-64176007D01*
X188661267Y-63910615D01*
X188661220Y-63620249D01*
X188661190Y-63303773D01*
X188661189Y-63240946D01*
X188661172Y-62921137D01*
X188661112Y-62627661D01*
X188661002Y-62359390D01*
X188660833Y-62115198D01*
X188660597Y-61893957D01*
X188660284Y-61694540D01*
X188659885Y-61515820D01*
X188659393Y-61356671D01*
X188658797Y-61215966D01*
X188658090Y-61092576D01*
X188657263Y-60985376D01*
X188656307Y-60893238D01*
X188655213Y-60815035D01*
X188653973Y-60749641D01*
X188652578Y-60695928D01*
X188651018Y-60652769D01*
X188649286Y-60619037D01*
X188647372Y-60593605D01*
X188645268Y-60575347D01*
X188642966Y-60563134D01*
X188640455Y-60555841D01*
X188640363Y-60555659D01*
X188635192Y-60544518D01*
X188630885Y-60534431D01*
X188626121Y-60525346D01*
X188619578Y-60517212D01*
X188609935Y-60509976D01*
X188595871Y-60503586D01*
X188576063Y-60497989D01*
X188549191Y-60493133D01*
X188513933Y-60488966D01*
X188468968Y-60485436D01*
X188412974Y-60482491D01*
X188344629Y-60480077D01*
X188262614Y-60478144D01*
X188165605Y-60476638D01*
X188052282Y-60475508D01*
X187921323Y-60474702D01*
X187771407Y-60474166D01*
X187601213Y-60473849D01*
X187409418Y-60473699D01*
X187194702Y-60473663D01*
X186955743Y-60473689D01*
G36*
X188657945Y-65429840D02*
G01*
X188656532Y-65536310D01*
X188654777Y-65628024D01*
X188652646Y-65706117D01*
X188650102Y-65771724D01*
X188647111Y-65825981D01*
X188643635Y-65870023D01*
X188639640Y-65904985D01*
X188635089Y-65932003D01*
X188629947Y-65952212D01*
X188624179Y-65966747D01*
X188617748Y-65976744D01*
X188610619Y-65983338D01*
X188602755Y-65987665D01*
X188594122Y-65990859D01*
X188584684Y-65994056D01*
X188574404Y-65998391D01*
X188568620Y-66000563D01*
X188558010Y-66002936D01*
X188542245Y-66005110D01*
X188520210Y-66007093D01*
X188490790Y-66008896D01*
X188452869Y-66010525D01*
X188405332Y-66011991D01*
X188347064Y-66013301D01*
X188276950Y-66014465D01*
X188193874Y-66015491D01*
X188096721Y-66016388D01*
X187984376Y-66017165D01*
X187855725Y-66017830D01*
X187709650Y-66018392D01*
X187545038Y-66018860D01*
X187360773Y-66019242D01*
X187155740Y-66019548D01*
X186928824Y-66019785D01*
X186678909Y-66019963D01*
X186404881Y-66020091D01*
X186105623Y-66020176D01*
X185780021Y-66020228D01*
X185676839Y-66020238D01*
X185358303Y-66020245D01*
X185065787Y-66020205D01*
X184798188Y-66020110D01*
X184554404Y-66019953D01*
X184333332Y-66019725D01*
X184133872Y-66019419D01*
X183954921Y-66019025D01*
X183795376Y-66018538D01*
X183654136Y-66017947D01*
X183530099Y-66017247D01*
X183422163Y-66016427D01*
X183329226Y-66015481D01*
X183250185Y-66014400D01*
X183183939Y-66013177D01*
X183129385Y-66011803D01*
X183085422Y-66010271D01*
X183050947Y-66008572D01*
X183024859Y-66006698D01*
X183006056Y-66004642D01*
X182993435Y-66002396D01*
X182985894Y-65999950D01*
X182983495Y-65998862D01*
X182973673Y-65995287D01*
X182964666Y-65992676D01*
X182956437Y-65989893D01*
X182948950Y-65985800D01*
X182942168Y-65979260D01*
X182936055Y-65969137D01*
X182930575Y-65954293D01*
X182925690Y-65933591D01*
X182921364Y-65905895D01*
X182917561Y-65870068D01*
X182914244Y-65824973D01*
X182911376Y-65769472D01*
X182908922Y-65702429D01*
X182906844Y-65622707D01*
X182905107Y-65529170D01*
X182903673Y-65420679D01*
X182903202Y-65370440D01*
X183265255Y-65370440D01*
X183265652Y-65375251D01*
X183272935Y-65379150D01*
X183289389Y-65382232D01*
X183317301Y-65384594D01*
X183358957Y-65386330D01*
X183416642Y-65387536D01*
X183492642Y-65388308D01*
X183589244Y-65388741D01*
X183708734Y-65388931D01*
X183853396Y-65388973D01*
X184459373Y-65388973D01*
X184408146Y-65296298D01*
X184356919Y-65203622D01*
X184356919Y-62512595D01*
X184408146Y-62419919D01*
X184459373Y-62327244D01*
X183376211Y-62327244D01*
X183368379Y-65176162D01*
X183329981Y-65258168D01*
X183309736Y-65298815D01*
X183286813Y-65339532D01*
X183269501Y-65364574D01*
X183269458Y-65364622D01*
X183265255Y-65370440D01*
X182903202Y-65370440D01*
X182902506Y-65296098D01*
X182901570Y-65154290D01*
X182900828Y-64994119D01*
X182900243Y-64814447D01*
X182899779Y-64614137D01*
X182899400Y-64392052D01*
X182899069Y-64147056D01*
X182898749Y-63878012D01*
X182898404Y-63583782D01*
X182897998Y-63263230D01*
X182897945Y-63224424D01*
X182897492Y-62905903D01*
X182897059Y-62613572D01*
X182896677Y-62346293D01*
X182896380Y-62102929D01*
X182896198Y-61882342D01*
X182896165Y-61683395D01*
X182896311Y-61504950D01*
X182896670Y-61345871D01*
X182897274Y-61205019D01*
X182898154Y-61081257D01*
X182899342Y-60973447D01*
X182900871Y-60880453D01*
X182902772Y-60801137D01*
X182905078Y-60734360D01*
X182907821Y-60678987D01*
X182911032Y-60633879D01*
X182914745Y-60597899D01*
X182918990Y-60569909D01*
X182923801Y-60548772D01*
X182929208Y-60533351D01*
X182935245Y-60522508D01*
X182941943Y-60515106D01*
X182949335Y-60510007D01*
X182957451Y-60506073D01*
X182966325Y-60502168D01*
X182975989Y-60497154D01*
X182978817Y-60495556D01*
X183021604Y-60480089D01*
X183068443Y-60473732D01*
X183121244Y-60473734D01*
X183122124Y-60593867D01*
X183122347Y-60607692D01*
X183139129Y-60748215D01*
X183181873Y-60880435D01*
X183249983Y-61002952D01*
X183342868Y-61114363D01*
X183392712Y-61159803D01*
X183503695Y-61235120D01*
X183624788Y-61287643D01*
X183752465Y-61317342D01*
X183883197Y-61324190D01*
X184013460Y-61308159D01*
X184139725Y-61269221D01*
X184243522Y-61215135D01*
X184702907Y-61215135D01*
X184763319Y-61258599D01*
X184814410Y-61299448D01*
X184886403Y-61366076D01*
X184968060Y-61449580D01*
X185056290Y-61546778D01*
X185148000Y-61654487D01*
X185171617Y-61683290D01*
X185211827Y-61732692D01*
X185264387Y-61797505D01*
X185327556Y-61875566D01*
X185399592Y-61964711D01*
X185478754Y-62062778D01*
X185563302Y-62167604D01*
X185651493Y-62277024D01*
X185691944Y-62327244D01*
X185741586Y-62388876D01*
X185831840Y-62500997D01*
X185920515Y-62611224D01*
X186005868Y-62717392D01*
X186086158Y-62817340D01*
X186159644Y-62908903D01*
X186224585Y-62989919D01*
X186279240Y-63058224D01*
X186321866Y-63111655D01*
X186350724Y-63148048D01*
X186364071Y-63165242D01*
X186365173Y-63171703D01*
X186361508Y-63183992D01*
X186352013Y-63203325D01*
X186335738Y-63231074D01*
X186311736Y-63268610D01*
X186279060Y-63317304D01*
X186236761Y-63378529D01*
X186183891Y-63453654D01*
X186119503Y-63544052D01*
X186042648Y-63651094D01*
X185952380Y-63776152D01*
X185847749Y-63920596D01*
X185727809Y-64085798D01*
X185632242Y-64217297D01*
X185515648Y-64377605D01*
X185413088Y-64518387D01*
X185323369Y-64641204D01*
X185245300Y-64747619D01*
X185177688Y-64839195D01*
X185119338Y-64917494D01*
X185069060Y-64984079D01*
X185025661Y-65040511D01*
X184987946Y-65088354D01*
X184954725Y-65129169D01*
X184924803Y-65164520D01*
X184896989Y-65195968D01*
X184870090Y-65225076D01*
X184842913Y-65253406D01*
X184814265Y-65282522D01*
X184708692Y-65388973D01*
X186128054Y-65389031D01*
X186123595Y-65303019D01*
X186123379Y-65298697D01*
X186122532Y-65264313D01*
X186124137Y-65231368D01*
X186129266Y-65198058D01*
X186138993Y-65162578D01*
X186154391Y-65123125D01*
X186176534Y-65077893D01*
X186206495Y-65025077D01*
X186245348Y-64962874D01*
X186294166Y-64889477D01*
X186354022Y-64803084D01*
X186425990Y-64701890D01*
X186511143Y-64584088D01*
X186610554Y-64447876D01*
X186725298Y-64291449D01*
X187130325Y-63740041D01*
X187133893Y-64379382D01*
X187134209Y-64439020D01*
X187134767Y-64599657D01*
X187134513Y-64736289D01*
X187133150Y-64851502D01*
X187130377Y-64947883D01*
X187125898Y-65028016D01*
X187119413Y-65094487D01*
X187110623Y-65149883D01*
X187099230Y-65196788D01*
X187084935Y-65237788D01*
X187067440Y-65275469D01*
X187046447Y-65312417D01*
X187021655Y-65351217D01*
X186996734Y-65388973D01*
X188291884Y-65388973D01*
X188258429Y-65344352D01*
X188253190Y-65337293D01*
X188211302Y-65272594D01*
X188182427Y-65207190D01*
X188163466Y-65132248D01*
X188151321Y-65038933D01*
X188150987Y-65034865D01*
X188149225Y-64996375D01*
X188147633Y-64932156D01*
X188146220Y-64843676D01*
X188144992Y-64732403D01*
X188143956Y-64599803D01*
X188143118Y-64447345D01*
X188142486Y-64276496D01*
X188142067Y-64088722D01*
X188141868Y-63885493D01*
X188141895Y-63668274D01*
X188142155Y-63438535D01*
X188142655Y-63197741D01*
X188143185Y-62981748D01*
X188143752Y-62746635D01*
X188144311Y-62536279D01*
X188144930Y-62349206D01*
X188145681Y-62183942D01*
X188146634Y-62039013D01*
X188147858Y-61912947D01*
X188149423Y-61804268D01*
X188151401Y-61711504D01*
X188153860Y-61633180D01*
X188156871Y-61567822D01*
X188160504Y-61513958D01*
X188164829Y-61470113D01*
X188169916Y-61434813D01*
X188175835Y-61406585D01*
X188182657Y-61383955D01*
X188190451Y-61365449D01*
X188199288Y-61349594D01*
X188209237Y-61334915D01*
X188220369Y-61319940D01*
X188232754Y-61303193D01*
X188244732Y-61286412D01*
X188267885Y-61253231D01*
X188281753Y-61232298D01*
X188282088Y-61231421D01*
X188277246Y-61227462D01*
X188260157Y-61224159D01*
X188228921Y-61221461D01*
X188181635Y-61219317D01*
X188116398Y-61217676D01*
X188031310Y-61216489D01*
X187924467Y-61215703D01*
X187793969Y-61215269D01*
X187637914Y-61215135D01*
X186983722Y-61215135D01*
X187018200Y-61256110D01*
X187038182Y-61284253D01*
X187071443Y-61350608D01*
X187100591Y-61433135D01*
X187122838Y-61524679D01*
X187124256Y-61533369D01*
X187128474Y-61579183D01*
X187131669Y-61649989D01*
X187133849Y-61746275D01*
X187135021Y-61868532D01*
X187135195Y-62017251D01*
X187134378Y-62192922D01*
X187130325Y-62779412D01*
X186711568Y-62249859D01*
X186699574Y-62234690D01*
X186593381Y-62100255D01*
X186502721Y-61985124D01*
X186426151Y-61887339D01*
X186362227Y-61804943D01*
X186309507Y-61735978D01*
X186266549Y-61678486D01*
X186231909Y-61630510D01*
X186204145Y-61590093D01*
X186181814Y-61555276D01*
X186163472Y-61524103D01*
X186147678Y-61494615D01*
X186132988Y-61464855D01*
X186110390Y-61412177D01*
X186095791Y-61356606D01*
X186091908Y-61296666D01*
X186092298Y-61215135D01*
X184702907Y-61215135D01*
X184243522Y-61215135D01*
X184258466Y-61207348D01*
X184366157Y-61122511D01*
X184396094Y-61092602D01*
X184484577Y-60981862D01*
X184547364Y-60861684D01*
X184584789Y-60731291D01*
X184597189Y-60589910D01*
X184597189Y-60473730D01*
X186568088Y-60473730D01*
X186691220Y-60473725D01*
X186955743Y-60473689D01*
X187194702Y-60473663D01*
X187409418Y-60473699D01*
X187601213Y-60473849D01*
X187771407Y-60474166D01*
X187921323Y-60474702D01*
X188052282Y-60475508D01*
X188165605Y-60476638D01*
X188262614Y-60478144D01*
X188344629Y-60480077D01*
X188412974Y-60482491D01*
X188468968Y-60485436D01*
X188513933Y-60488966D01*
X188549191Y-60493133D01*
X188576063Y-60497989D01*
X188595871Y-60503586D01*
X188609935Y-60509976D01*
X188619578Y-60517212D01*
X188626121Y-60525346D01*
X188630885Y-60534431D01*
X188635192Y-60544518D01*
X188640363Y-60555659D01*
X188640455Y-60555841D01*
X188642966Y-60563134D01*
X188645268Y-60575347D01*
X188647372Y-60593605D01*
X188649286Y-60619037D01*
X188651018Y-60652769D01*
X188652578Y-60695928D01*
X188653973Y-60749641D01*
X188655213Y-60815035D01*
X188656307Y-60893238D01*
X188657263Y-60985376D01*
X188658090Y-61092576D01*
X188658797Y-61215966D01*
X188659393Y-61356671D01*
X188659885Y-61515820D01*
X188660284Y-61694540D01*
X188660597Y-61893957D01*
X188660833Y-62115198D01*
X188661002Y-62359390D01*
X188661112Y-62627661D01*
X188661172Y-62921137D01*
X188661189Y-63240946D01*
X188661190Y-63303773D01*
X188661220Y-63620249D01*
X188661267Y-63910615D01*
X188661295Y-64176007D01*
X188661267Y-64417560D01*
X188661150Y-64636410D01*
X188660905Y-64833691D01*
X188660498Y-65010539D01*
X188659893Y-65168090D01*
X188659054Y-65307479D01*
X188658315Y-65388973D01*
X188657945Y-65429840D01*
G37*
%TD*%
%LPC*%
D11*
%TO.C,H1*%
X190500000Y-78500000D03*
%TD*%
%TO.C,H2*%
X190500000Y-49500000D03*
%TD*%
%TO.C,H3*%
X172500000Y-49500000D03*
%TD*%
D12*
%TO.C,J1*%
X183750000Y-77025000D03*
D13*
X181250000Y-77025000D03*
%TD*%
D11*
%TO.C,H4*%
X172500000Y-78500000D03*
%TD*%
%LPD*%
M02*
