%TF.GenerationSoftware,KiCad,Pcbnew,10.0.4*%
%TF.CreationDate,2026-09-11T11:08:14+02:00*%
%TF.ProjectId,led_chaser_SMD,6c65645f-6368-4617-9365-725f534d442e,rev?*%
%TF.SameCoordinates,Original*%
%TF.FileFunction,Legend,Top*%
%TF.FilePolarity,Positive*%
%FSLAX46Y46*%
G04 Gerber Fmt 4.6, Leading zero omitted, Abs format (unit mm)*
G04 Created by KiCad (PCBNEW 10.0.4) date 2026-09-11 11:08:14*
%MOMM*%
%LPD*%
G01*
G04 APERTURE LIST*
G04 Aperture macros list*
%AMRoundRect*
0 Rectangle with rounded corners*
0 $1 Rounding radius*
0 $2 $3 $4 $5 $6 $7 $8 $9 X,Y pos of 4 corners*
0 Add a 4 corners polygon primitive as box body*
4,1,4,$2,$3,$4,$5,$6,$7,$8,$9,$2,$3,0*
0 Add four circle primitives for the rounded corners*
1,1,$1+$1,$2,$3*
1,1,$1+$1,$4,$5*
1,1,$1+$1,$6,$7*
1,1,$1+$1,$8,$9*
0 Add four rect primitives between the rounded corners*
20,1,$1+$1,$2,$3,$4,$5,0*
20,1,$1+$1,$4,$5,$6,$7,0*
20,1,$1+$1,$6,$7,$8,$9,0*
20,1,$1+$1,$8,$9,$2,$3,0*%
G04 Aperture macros list end*
%ADD10C,0.140000*%
%ADD11C,0.150000*%
%ADD12C,0.087500*%
%ADD13C,0.120000*%
%ADD14RoundRect,0.150000X0.825000X0.150000X-0.825000X0.150000X-0.825000X-0.150000X0.825000X-0.150000X0*%
%ADD15RoundRect,0.250000X0.325000X0.450000X-0.325000X0.450000X-0.325000X-0.450000X0.325000X-0.450000X0*%
%ADD16C,3.200000*%
%ADD17C,2.000000*%
%ADD18RoundRect,0.250000X-0.337500X-0.475000X0.337500X-0.475000X0.337500X0.475000X-0.337500X0.475000X0*%
%ADD19RoundRect,0.250000X-0.450000X0.350000X-0.450000X-0.350000X0.450000X-0.350000X0.450000X0.350000X0*%
%ADD20RoundRect,0.250000X-0.475000X0.337500X-0.475000X-0.337500X0.475000X-0.337500X0.475000X0.337500X0*%
%ADD21R,1.200000X1.200000*%
%ADD22R,1.500000X1.600000*%
%ADD23RoundRect,0.250000X0.450000X-0.350000X0.450000X0.350000X-0.450000X0.350000X-0.450000X-0.350000X0*%
%ADD24RoundRect,0.112500X-0.112500X0.187500X-0.112500X-0.187500X0.112500X-0.187500X0.112500X0.187500X0*%
%ADD25RoundRect,0.250000X0.350000X0.450000X-0.350000X0.450000X-0.350000X-0.450000X0.350000X-0.450000X0*%
%ADD26RoundRect,0.250000X0.310000X-0.970000X0.310000X0.970000X-0.310000X0.970000X-0.310000X-0.970000X0*%
%ADD27RoundRect,0.250000X0.600000X0.750000X-0.600000X0.750000X-0.600000X-0.750000X0.600000X-0.750000X0*%
%ADD28O,1.700000X2.000000*%
%ADD29RoundRect,0.250000X0.337500X0.475000X-0.337500X0.475000X-0.337500X-0.475000X0.337500X-0.475000X0*%
G04 APERTURE END LIST*
D10*
G36*
X172012189Y-56551683D02*
G01*
X172025801Y-56565295D01*
X172046666Y-56607024D01*
X172046666Y-56673975D01*
X172025802Y-56715701D01*
X172008533Y-56732970D01*
X171966808Y-56753833D01*
X171786666Y-56753833D01*
X171786666Y-56527166D01*
X171938640Y-56527166D01*
X172012189Y-56551683D01*
G37*
G36*
X171975202Y-56214696D02*
G01*
X171992469Y-56231964D01*
X172013333Y-56273691D01*
X172013333Y-56307308D01*
X171992470Y-56349034D01*
X171975201Y-56366302D01*
X171933475Y-56387166D01*
X171786666Y-56387166D01*
X171786666Y-56193833D01*
X171933475Y-56193833D01*
X171975202Y-56214696D01*
G37*
G36*
X172892450Y-56971611D02*
G01*
X170202222Y-56971611D01*
X170202222Y-56123833D01*
X170280000Y-56123833D01*
X170280000Y-56823833D01*
X170285328Y-56850621D01*
X170323212Y-56888505D01*
X170350000Y-56893833D01*
X170683334Y-56893833D01*
X170710122Y-56888505D01*
X170748006Y-56850621D01*
X170748006Y-56797045D01*
X170710122Y-56759161D01*
X170683334Y-56753833D01*
X170420000Y-56753833D01*
X170420000Y-56527166D01*
X170583334Y-56527166D01*
X170610122Y-56521838D01*
X170648006Y-56483954D01*
X170648006Y-56430378D01*
X170610122Y-56392494D01*
X170583334Y-56387166D01*
X170420000Y-56387166D01*
X170420000Y-56193833D01*
X170683334Y-56193833D01*
X170710122Y-56188505D01*
X170748006Y-56150621D01*
X170748006Y-56123833D01*
X170913333Y-56123833D01*
X170913333Y-56823833D01*
X170918661Y-56850621D01*
X170956545Y-56888505D01*
X171010121Y-56888505D01*
X171048005Y-56850621D01*
X171053333Y-56823833D01*
X171053333Y-56387422D01*
X171322556Y-56858563D01*
X171340473Y-56879178D01*
X171349747Y-56881707D01*
X171356545Y-56888505D01*
X171374671Y-56888505D01*
X171392161Y-56893275D01*
X171400509Y-56888505D01*
X171410121Y-56888505D01*
X171422937Y-56875688D01*
X171438678Y-56866694D01*
X171441207Y-56857418D01*
X171448005Y-56850621D01*
X171453333Y-56823833D01*
X171453333Y-56123833D01*
X171646666Y-56123833D01*
X171646666Y-56823833D01*
X171651994Y-56850621D01*
X171689878Y-56888505D01*
X171716666Y-56893833D01*
X171983333Y-56893833D01*
X171986771Y-56893149D01*
X171988295Y-56893657D01*
X171999113Y-56890694D01*
X172010121Y-56888505D01*
X172011257Y-56887368D01*
X172014638Y-56886443D01*
X172081305Y-56853110D01*
X172090169Y-56846230D01*
X172099498Y-56839997D01*
X172132831Y-56806663D01*
X172139066Y-56797331D01*
X172145943Y-56788471D01*
X172179276Y-56721805D01*
X172180201Y-56718424D01*
X172181338Y-56717288D01*
X172183527Y-56706280D01*
X172186490Y-56695462D01*
X172185982Y-56693938D01*
X172186666Y-56690500D01*
X172186666Y-56590500D01*
X172185982Y-56587061D01*
X172186490Y-56585538D01*
X172183527Y-56574720D01*
X172181338Y-56563712D01*
X172180201Y-56562575D01*
X172179276Y-56559196D01*
X172145943Y-56492528D01*
X172139058Y-56483657D01*
X172132830Y-56474336D01*
X172099497Y-56441003D01*
X172098894Y-56440600D01*
X172099497Y-56439998D01*
X172105730Y-56430669D01*
X172112610Y-56421805D01*
X172145943Y-56355137D01*
X172146868Y-56351757D01*
X172148005Y-56350621D01*
X172150194Y-56339612D01*
X172153157Y-56328795D01*
X172152649Y-56327271D01*
X172153333Y-56323833D01*
X172153333Y-56257166D01*
X172152649Y-56253727D01*
X172153157Y-56252204D01*
X172150194Y-56241385D01*
X172148005Y-56230378D01*
X172146868Y-56229241D01*
X172145943Y-56225861D01*
X172112610Y-56159195D01*
X172105731Y-56150331D01*
X172099497Y-56141002D01*
X172082327Y-56123833D01*
X172346666Y-56123833D01*
X172346666Y-56823833D01*
X172351994Y-56850621D01*
X172389878Y-56888505D01*
X172416666Y-56893833D01*
X172750000Y-56893833D01*
X172776788Y-56888505D01*
X172814672Y-56850621D01*
X172814672Y-56797045D01*
X172776788Y-56759161D01*
X172750000Y-56753833D01*
X172486666Y-56753833D01*
X172486666Y-56123833D01*
X172481338Y-56097045D01*
X172443454Y-56059161D01*
X172389878Y-56059161D01*
X172351994Y-56097045D01*
X172346666Y-56123833D01*
X172082327Y-56123833D01*
X172066163Y-56107669D01*
X172056837Y-56101437D01*
X172047971Y-56094556D01*
X171981305Y-56061223D01*
X171977924Y-56060297D01*
X171976788Y-56059161D01*
X171965780Y-56056971D01*
X171954962Y-56054009D01*
X171953438Y-56054516D01*
X171950000Y-56053833D01*
X171716666Y-56053833D01*
X171689878Y-56059161D01*
X171651994Y-56097045D01*
X171646666Y-56123833D01*
X171453333Y-56123833D01*
X171448005Y-56097045D01*
X171410121Y-56059161D01*
X171356545Y-56059161D01*
X171318661Y-56097045D01*
X171313333Y-56123833D01*
X171313333Y-56560243D01*
X171044110Y-56089103D01*
X171026193Y-56068488D01*
X171016918Y-56065958D01*
X171010121Y-56059161D01*
X170991995Y-56059161D01*
X170974505Y-56054391D01*
X170966158Y-56059161D01*
X170956545Y-56059161D01*
X170943727Y-56071978D01*
X170927988Y-56080973D01*
X170925458Y-56090247D01*
X170918661Y-56097045D01*
X170913333Y-56123833D01*
X170748006Y-56123833D01*
X170748006Y-56097045D01*
X170710122Y-56059161D01*
X170683334Y-56053833D01*
X170350000Y-56053833D01*
X170323212Y-56059161D01*
X170285328Y-56097045D01*
X170280000Y-56123833D01*
X170202222Y-56123833D01*
X170202222Y-55976055D01*
X172892450Y-55976055D01*
X172892450Y-56971611D01*
G37*
G36*
X172262188Y-68218348D02*
G01*
X172309136Y-68265297D01*
X172333953Y-68314932D01*
X172363333Y-68432449D01*
X172363333Y-68515216D01*
X172333953Y-68632733D01*
X172309136Y-68682368D01*
X172262188Y-68729317D01*
X172188640Y-68753833D01*
X172103333Y-68753833D01*
X172103333Y-68193833D01*
X172188640Y-68193833D01*
X172262188Y-68218348D01*
G37*
G36*
X172581111Y-68971611D02*
G01*
X170418889Y-68971611D01*
X170418889Y-68423833D01*
X170496667Y-68423833D01*
X170496667Y-68523833D01*
X170498340Y-68532244D01*
X170498757Y-68540810D01*
X170532090Y-68674143D01*
X170535364Y-68681074D01*
X170537390Y-68688471D01*
X170570724Y-68755138D01*
X170577601Y-68763999D01*
X170583836Y-68773330D01*
X170650502Y-68839997D01*
X170653417Y-68841945D01*
X170654136Y-68843382D01*
X170663882Y-68848937D01*
X170673212Y-68855172D01*
X170674819Y-68855172D01*
X170677864Y-68856908D01*
X170777864Y-68890241D01*
X170788995Y-68891644D01*
X170800000Y-68893833D01*
X170866667Y-68893833D01*
X170877671Y-68891644D01*
X170888803Y-68890241D01*
X170988803Y-68856908D01*
X170991848Y-68855172D01*
X170993456Y-68855172D01*
X171002788Y-68848935D01*
X171012531Y-68843382D01*
X171013249Y-68841945D01*
X171016165Y-68839997D01*
X171049498Y-68806663D01*
X171064673Y-68783953D01*
X171064672Y-68783948D01*
X171070000Y-68757166D01*
X171070000Y-68523833D01*
X171064672Y-68497045D01*
X171026788Y-68459161D01*
X171000000Y-68453833D01*
X170866667Y-68453833D01*
X170839879Y-68459161D01*
X170801995Y-68497045D01*
X170801995Y-68550621D01*
X170839879Y-68588505D01*
X170866667Y-68593833D01*
X170930000Y-68593833D01*
X170930000Y-68728171D01*
X170928854Y-68729317D01*
X170855307Y-68753833D01*
X170811360Y-68753833D01*
X170737812Y-68729317D01*
X170690864Y-68682368D01*
X170666046Y-68632733D01*
X170636667Y-68515216D01*
X170636667Y-68432450D01*
X170666046Y-68314932D01*
X170690864Y-68265297D01*
X170737812Y-68218348D01*
X170811360Y-68193833D01*
X170883475Y-68193833D01*
X170935363Y-68219776D01*
X170961705Y-68226990D01*
X171012532Y-68210048D01*
X171036492Y-68162128D01*
X171023726Y-68123833D01*
X171230000Y-68123833D01*
X171230000Y-68823833D01*
X171235328Y-68850621D01*
X171273212Y-68888505D01*
X171326788Y-68888505D01*
X171364672Y-68850621D01*
X171370000Y-68823833D01*
X171370000Y-68387422D01*
X171639223Y-68858563D01*
X171657140Y-68879178D01*
X171666414Y-68881707D01*
X171673212Y-68888505D01*
X171691338Y-68888505D01*
X171708828Y-68893275D01*
X171717176Y-68888505D01*
X171726788Y-68888505D01*
X171739604Y-68875688D01*
X171755345Y-68866694D01*
X171757874Y-68857418D01*
X171764672Y-68850621D01*
X171770000Y-68823833D01*
X171770000Y-68123833D01*
X171963333Y-68123833D01*
X171963333Y-68823833D01*
X171968661Y-68850621D01*
X172006545Y-68888505D01*
X172033333Y-68893833D01*
X172200000Y-68893833D01*
X172211004Y-68891644D01*
X172222136Y-68890241D01*
X172322136Y-68856908D01*
X172325181Y-68855172D01*
X172326788Y-68855172D01*
X172336114Y-68848939D01*
X172345864Y-68843382D01*
X172346582Y-68841944D01*
X172349497Y-68839997D01*
X172416164Y-68773331D01*
X172422395Y-68764004D01*
X172429277Y-68755138D01*
X172462610Y-68688470D01*
X172464634Y-68681076D01*
X172467910Y-68674143D01*
X172501243Y-68540811D01*
X172501660Y-68532244D01*
X172503333Y-68523833D01*
X172503333Y-68423833D01*
X172501660Y-68415421D01*
X172501243Y-68406855D01*
X172467910Y-68273523D01*
X172464634Y-68266589D01*
X172462610Y-68259196D01*
X172429277Y-68192528D01*
X172422395Y-68183661D01*
X172416164Y-68174335D01*
X172349497Y-68107669D01*
X172346582Y-68105721D01*
X172345864Y-68104284D01*
X172336114Y-68098726D01*
X172326788Y-68092494D01*
X172325181Y-68092494D01*
X172322136Y-68090758D01*
X172222136Y-68057425D01*
X172211004Y-68056021D01*
X172200000Y-68053833D01*
X172033333Y-68053833D01*
X172006545Y-68059161D01*
X171968661Y-68097045D01*
X171963333Y-68123833D01*
X171770000Y-68123833D01*
X171764672Y-68097045D01*
X171726788Y-68059161D01*
X171673212Y-68059161D01*
X171635328Y-68097045D01*
X171630000Y-68123833D01*
X171630000Y-68560243D01*
X171360777Y-68089103D01*
X171342860Y-68068488D01*
X171333585Y-68065958D01*
X171326788Y-68059161D01*
X171308662Y-68059161D01*
X171291172Y-68054391D01*
X171282825Y-68059161D01*
X171273212Y-68059161D01*
X171260394Y-68071978D01*
X171244655Y-68080973D01*
X171242125Y-68090247D01*
X171235328Y-68097045D01*
X171230000Y-68123833D01*
X171023726Y-68123833D01*
X171019549Y-68111301D01*
X170997972Y-68094556D01*
X170931305Y-68061223D01*
X170927924Y-68060297D01*
X170926788Y-68059161D01*
X170915780Y-68056971D01*
X170904962Y-68054009D01*
X170903438Y-68054516D01*
X170900000Y-68053833D01*
X170800000Y-68053833D01*
X170788995Y-68056021D01*
X170777864Y-68057425D01*
X170677864Y-68090758D01*
X170674819Y-68092494D01*
X170673212Y-68092494D01*
X170663882Y-68098728D01*
X170654136Y-68104284D01*
X170653417Y-68105720D01*
X170650502Y-68107669D01*
X170583836Y-68174336D01*
X170577601Y-68183666D01*
X170570724Y-68192528D01*
X170537390Y-68259195D01*
X170535364Y-68266591D01*
X170532090Y-68273523D01*
X170498757Y-68406856D01*
X170498340Y-68415421D01*
X170496667Y-68423833D01*
X170418889Y-68423833D01*
X170418889Y-67976055D01*
X172581111Y-67976055D01*
X172581111Y-68971611D01*
G37*
G36*
X172509117Y-75471611D02*
G01*
X170419064Y-75471611D01*
X170419064Y-74618871D01*
X170496842Y-74618871D01*
X170500258Y-74645969D01*
X170733592Y-75345969D01*
X170747118Y-75369697D01*
X170751796Y-75372036D01*
X170754136Y-75376715D01*
X170775190Y-75383733D01*
X170795038Y-75393657D01*
X170800000Y-75392003D01*
X170804962Y-75393657D01*
X170824810Y-75383733D01*
X170845864Y-75376715D01*
X170848203Y-75372036D01*
X170852882Y-75369697D01*
X170866408Y-75345969D01*
X171007120Y-74923833D01*
X171163333Y-74923833D01*
X171163333Y-75023833D01*
X171165006Y-75032244D01*
X171165423Y-75040810D01*
X171198756Y-75174143D01*
X171202030Y-75181074D01*
X171204056Y-75188471D01*
X171237390Y-75255138D01*
X171244267Y-75263999D01*
X171250502Y-75273330D01*
X171317168Y-75339997D01*
X171320083Y-75341945D01*
X171320802Y-75343382D01*
X171330548Y-75348937D01*
X171339878Y-75355172D01*
X171341485Y-75355172D01*
X171344530Y-75356908D01*
X171444530Y-75390241D01*
X171455661Y-75391644D01*
X171466666Y-75393833D01*
X171533333Y-75393833D01*
X171544337Y-75391644D01*
X171555469Y-75390241D01*
X171655469Y-75356908D01*
X171658514Y-75355172D01*
X171660122Y-75355172D01*
X171669454Y-75348935D01*
X171679197Y-75343382D01*
X171679915Y-75341945D01*
X171682831Y-75339997D01*
X171716164Y-75306663D01*
X171731339Y-75283953D01*
X171731338Y-75230377D01*
X171693453Y-75192493D01*
X171639877Y-75192494D01*
X171617168Y-75207669D01*
X171595520Y-75229317D01*
X171521973Y-75253833D01*
X171478026Y-75253833D01*
X171404478Y-75229317D01*
X171357530Y-75182368D01*
X171332712Y-75132733D01*
X171303333Y-75015216D01*
X171303333Y-74932450D01*
X171305487Y-74923833D01*
X171863333Y-74923833D01*
X171863333Y-75023833D01*
X171865006Y-75032244D01*
X171865423Y-75040810D01*
X171898756Y-75174143D01*
X171902030Y-75181074D01*
X171904056Y-75188471D01*
X171937390Y-75255138D01*
X171944267Y-75263999D01*
X171950502Y-75273330D01*
X172017168Y-75339997D01*
X172020083Y-75341945D01*
X172020802Y-75343382D01*
X172030548Y-75348937D01*
X172039878Y-75355172D01*
X172041485Y-75355172D01*
X172044530Y-75356908D01*
X172144530Y-75390241D01*
X172155661Y-75391644D01*
X172166666Y-75393833D01*
X172233333Y-75393833D01*
X172244337Y-75391644D01*
X172255469Y-75390241D01*
X172355469Y-75356908D01*
X172358514Y-75355172D01*
X172360122Y-75355172D01*
X172369454Y-75348935D01*
X172379197Y-75343382D01*
X172379915Y-75341945D01*
X172382831Y-75339997D01*
X172416164Y-75306663D01*
X172431339Y-75283953D01*
X172431338Y-75230377D01*
X172393453Y-75192493D01*
X172339877Y-75192494D01*
X172317168Y-75207669D01*
X172295520Y-75229317D01*
X172221973Y-75253833D01*
X172178026Y-75253833D01*
X172104478Y-75229317D01*
X172057530Y-75182368D01*
X172032712Y-75132733D01*
X172003333Y-75015216D01*
X172003333Y-74932450D01*
X172032712Y-74814932D01*
X172057530Y-74765297D01*
X172104478Y-74718348D01*
X172178026Y-74693833D01*
X172221973Y-74693833D01*
X172295520Y-74718348D01*
X172317168Y-74739997D01*
X172339877Y-74755172D01*
X172393453Y-74755173D01*
X172431338Y-74717289D01*
X172431339Y-74663713D01*
X172416164Y-74641003D01*
X172382831Y-74607669D01*
X172379915Y-74605720D01*
X172379197Y-74604284D01*
X172369454Y-74598730D01*
X172360122Y-74592494D01*
X172358514Y-74592494D01*
X172355469Y-74590758D01*
X172255469Y-74557425D01*
X172244337Y-74556021D01*
X172233333Y-74553833D01*
X172166666Y-74553833D01*
X172155661Y-74556021D01*
X172144530Y-74557425D01*
X172044530Y-74590758D01*
X172041485Y-74592494D01*
X172039878Y-74592494D01*
X172030548Y-74598728D01*
X172020802Y-74604284D01*
X172020083Y-74605720D01*
X172017168Y-74607669D01*
X171950502Y-74674336D01*
X171944267Y-74683666D01*
X171937390Y-74692528D01*
X171904056Y-74759195D01*
X171902030Y-74766591D01*
X171898756Y-74773523D01*
X171865423Y-74906856D01*
X171865006Y-74915421D01*
X171863333Y-74923833D01*
X171305487Y-74923833D01*
X171332712Y-74814932D01*
X171357530Y-74765297D01*
X171404478Y-74718348D01*
X171478026Y-74693833D01*
X171521973Y-74693833D01*
X171595520Y-74718348D01*
X171617168Y-74739997D01*
X171639877Y-74755172D01*
X171693453Y-74755173D01*
X171731338Y-74717289D01*
X171731339Y-74663713D01*
X171716164Y-74641003D01*
X171682831Y-74607669D01*
X171679915Y-74605720D01*
X171679197Y-74604284D01*
X171669454Y-74598730D01*
X171660122Y-74592494D01*
X171658514Y-74592494D01*
X171655469Y-74590758D01*
X171555469Y-74557425D01*
X171544337Y-74556021D01*
X171533333Y-74553833D01*
X171466666Y-74553833D01*
X171455661Y-74556021D01*
X171444530Y-74557425D01*
X171344530Y-74590758D01*
X171341485Y-74592494D01*
X171339878Y-74592494D01*
X171330548Y-74598728D01*
X171320802Y-74604284D01*
X171320083Y-74605720D01*
X171317168Y-74607669D01*
X171250502Y-74674336D01*
X171244267Y-74683666D01*
X171237390Y-74692528D01*
X171204056Y-74759195D01*
X171202030Y-74766591D01*
X171198756Y-74773523D01*
X171165423Y-74906856D01*
X171165006Y-74915421D01*
X171163333Y-74923833D01*
X171007120Y-74923833D01*
X171099741Y-74645969D01*
X171103157Y-74618870D01*
X171079197Y-74570951D01*
X171028371Y-74554008D01*
X170980451Y-74577968D01*
X170966925Y-74601697D01*
X170799999Y-75102473D01*
X170633074Y-74601697D01*
X170619548Y-74577969D01*
X170571628Y-74554009D01*
X170520802Y-74570951D01*
X170496842Y-74618871D01*
X170419064Y-74618871D01*
X170419064Y-74476055D01*
X172509117Y-74476055D01*
X172509117Y-75471611D01*
G37*
G36*
X176862188Y-57718348D02*
G01*
X176909136Y-57765297D01*
X176933953Y-57814932D01*
X176963333Y-57932449D01*
X176963333Y-58015216D01*
X176933953Y-58132733D01*
X176909136Y-58182368D01*
X176862188Y-58229317D01*
X176788640Y-58253833D01*
X176703333Y-58253833D01*
X176703333Y-57693833D01*
X176788640Y-57693833D01*
X176862188Y-57718348D01*
G37*
G36*
X174958534Y-57714695D02*
G01*
X174975803Y-57731964D01*
X174996667Y-57773691D01*
X174996667Y-57840641D01*
X174975802Y-57882370D01*
X174958538Y-57899634D01*
X174916809Y-57920500D01*
X174736667Y-57920500D01*
X174736667Y-57693833D01*
X174916809Y-57693833D01*
X174958534Y-57714695D01*
G37*
G36*
X177181111Y-58471611D02*
G01*
X173818889Y-58471611D01*
X173818889Y-57757166D01*
X173896667Y-57757166D01*
X173896667Y-57823833D01*
X173897350Y-57827271D01*
X173896843Y-57828795D01*
X173899805Y-57839613D01*
X173901995Y-57850621D01*
X173903131Y-57851757D01*
X173904057Y-57855138D01*
X173937390Y-57921805D01*
X173944269Y-57930669D01*
X173950503Y-57939998D01*
X173983837Y-57973331D01*
X173993168Y-57979566D01*
X174002029Y-57986443D01*
X174068695Y-58019776D01*
X174076088Y-58021800D01*
X174083022Y-58025076D01*
X174208900Y-58056545D01*
X174258535Y-58081363D01*
X174275804Y-58098631D01*
X174296667Y-58140357D01*
X174296667Y-58173975D01*
X174275803Y-58215701D01*
X174258536Y-58232969D01*
X174216809Y-58253833D01*
X174078027Y-58253833D01*
X173988803Y-58224092D01*
X173961705Y-58220676D01*
X173913785Y-58244636D01*
X173896843Y-58295462D01*
X173920803Y-58343382D01*
X173944531Y-58356908D01*
X174044531Y-58390241D01*
X174055662Y-58391644D01*
X174066667Y-58393833D01*
X174233334Y-58393833D01*
X174236772Y-58393149D01*
X174238296Y-58393657D01*
X174249114Y-58390694D01*
X174260122Y-58388505D01*
X174261258Y-58387368D01*
X174264639Y-58386443D01*
X174331305Y-58353110D01*
X174340171Y-58346228D01*
X174349497Y-58339997D01*
X174382831Y-58306664D01*
X174389065Y-58297334D01*
X174395944Y-58288471D01*
X174429277Y-58221805D01*
X174430202Y-58218424D01*
X174431339Y-58217288D01*
X174433528Y-58206280D01*
X174436491Y-58195462D01*
X174435983Y-58193938D01*
X174436667Y-58190500D01*
X174436667Y-58123833D01*
X174435983Y-58120394D01*
X174436491Y-58118871D01*
X174433528Y-58108053D01*
X174431339Y-58097045D01*
X174430202Y-58095908D01*
X174429277Y-58092529D01*
X174395944Y-58025861D01*
X174389064Y-58016996D01*
X174382831Y-58007668D01*
X174349497Y-57974335D01*
X174340168Y-57968102D01*
X174331305Y-57961223D01*
X174264639Y-57927890D01*
X174257245Y-57925865D01*
X174250312Y-57922590D01*
X174124432Y-57891119D01*
X174074798Y-57866302D01*
X174057529Y-57849033D01*
X174036667Y-57807308D01*
X174036667Y-57773691D01*
X174057530Y-57731963D01*
X174074798Y-57714696D01*
X174116525Y-57693833D01*
X174255307Y-57693833D01*
X174344531Y-57723574D01*
X174371629Y-57726990D01*
X174419549Y-57703030D01*
X174436491Y-57652203D01*
X174422306Y-57623833D01*
X174596667Y-57623833D01*
X174596667Y-58323833D01*
X174601995Y-58350621D01*
X174639879Y-58388505D01*
X174693455Y-58388505D01*
X174731339Y-58350621D01*
X174736667Y-58323833D01*
X174736667Y-58060500D01*
X174933334Y-58060500D01*
X174936772Y-58059816D01*
X174938297Y-58060324D01*
X174949117Y-58057360D01*
X174960122Y-58055172D01*
X174961258Y-58054035D01*
X174964639Y-58053110D01*
X175031306Y-58019776D01*
X175040172Y-58012894D01*
X175049498Y-58006663D01*
X175082831Y-57973330D01*
X175089059Y-57964008D01*
X175095944Y-57955138D01*
X175129277Y-57888470D01*
X175130202Y-57885090D01*
X175131339Y-57883954D01*
X175133528Y-57872945D01*
X175136491Y-57862128D01*
X175135983Y-57860604D01*
X175136667Y-57857166D01*
X175136667Y-57757166D01*
X175135983Y-57753727D01*
X175136491Y-57752204D01*
X175133528Y-57741385D01*
X175131339Y-57730378D01*
X175130202Y-57729241D01*
X175129277Y-57725861D01*
X175095944Y-57659195D01*
X175089067Y-57650334D01*
X175082832Y-57641003D01*
X175065663Y-57623833D01*
X175296667Y-57623833D01*
X175296667Y-58323833D01*
X175301995Y-58350621D01*
X175339879Y-58388505D01*
X175366667Y-58393833D01*
X175700001Y-58393833D01*
X175726789Y-58388505D01*
X175764673Y-58350621D01*
X175764673Y-58297045D01*
X175726789Y-58259161D01*
X175700001Y-58253833D01*
X175436667Y-58253833D01*
X175436667Y-58027166D01*
X175600001Y-58027166D01*
X175626789Y-58021838D01*
X175664673Y-57983954D01*
X175664673Y-57930378D01*
X175626789Y-57892494D01*
X175600001Y-57887166D01*
X175436667Y-57887166D01*
X175436667Y-57693833D01*
X175700001Y-57693833D01*
X175726789Y-57688505D01*
X175764673Y-57650621D01*
X175764673Y-57623833D01*
X175930000Y-57623833D01*
X175930000Y-58323833D01*
X175935328Y-58350621D01*
X175973212Y-58388505D01*
X176000000Y-58393833D01*
X176333334Y-58393833D01*
X176360122Y-58388505D01*
X176398006Y-58350621D01*
X176398006Y-58297045D01*
X176360122Y-58259161D01*
X176333334Y-58253833D01*
X176070000Y-58253833D01*
X176070000Y-58027166D01*
X176233334Y-58027166D01*
X176260122Y-58021838D01*
X176298006Y-57983954D01*
X176298006Y-57930378D01*
X176260122Y-57892494D01*
X176233334Y-57887166D01*
X176070000Y-57887166D01*
X176070000Y-57693833D01*
X176333334Y-57693833D01*
X176360122Y-57688505D01*
X176398006Y-57650621D01*
X176398006Y-57623833D01*
X176563333Y-57623833D01*
X176563333Y-58323833D01*
X176568661Y-58350621D01*
X176606545Y-58388505D01*
X176633333Y-58393833D01*
X176800000Y-58393833D01*
X176811004Y-58391644D01*
X176822136Y-58390241D01*
X176922136Y-58356908D01*
X176925181Y-58355172D01*
X176926788Y-58355172D01*
X176936114Y-58348939D01*
X176945864Y-58343382D01*
X176946582Y-58341944D01*
X176949497Y-58339997D01*
X177016164Y-58273331D01*
X177022395Y-58264004D01*
X177029277Y-58255138D01*
X177062610Y-58188470D01*
X177064634Y-58181076D01*
X177067910Y-58174143D01*
X177101243Y-58040811D01*
X177101660Y-58032244D01*
X177103333Y-58023833D01*
X177103333Y-57923833D01*
X177101660Y-57915421D01*
X177101243Y-57906855D01*
X177067910Y-57773523D01*
X177064634Y-57766589D01*
X177062610Y-57759196D01*
X177029277Y-57692528D01*
X177022395Y-57683661D01*
X177016164Y-57674335D01*
X176949497Y-57607669D01*
X176946582Y-57605721D01*
X176945864Y-57604284D01*
X176936114Y-57598726D01*
X176926788Y-57592494D01*
X176925181Y-57592494D01*
X176922136Y-57590758D01*
X176822136Y-57557425D01*
X176811004Y-57556021D01*
X176800000Y-57553833D01*
X176633333Y-57553833D01*
X176606545Y-57559161D01*
X176568661Y-57597045D01*
X176563333Y-57623833D01*
X176398006Y-57623833D01*
X176398006Y-57597045D01*
X176360122Y-57559161D01*
X176333334Y-57553833D01*
X176000000Y-57553833D01*
X175973212Y-57559161D01*
X175935328Y-57597045D01*
X175930000Y-57623833D01*
X175764673Y-57623833D01*
X175764673Y-57597045D01*
X175726789Y-57559161D01*
X175700001Y-57553833D01*
X175366667Y-57553833D01*
X175339879Y-57559161D01*
X175301995Y-57597045D01*
X175296667Y-57623833D01*
X175065663Y-57623833D01*
X175049499Y-57607669D01*
X175040170Y-57601435D01*
X175031306Y-57594556D01*
X174964639Y-57561223D01*
X174961258Y-57560297D01*
X174960122Y-57559161D01*
X174949114Y-57556971D01*
X174938296Y-57554009D01*
X174936772Y-57554516D01*
X174933334Y-57553833D01*
X174666667Y-57553833D01*
X174639879Y-57559161D01*
X174601995Y-57597045D01*
X174596667Y-57623833D01*
X174422306Y-57623833D01*
X174412531Y-57604284D01*
X174388803Y-57590758D01*
X174288803Y-57557425D01*
X174277671Y-57556021D01*
X174266667Y-57553833D01*
X174100000Y-57553833D01*
X174096561Y-57554516D01*
X174095038Y-57554009D01*
X174084219Y-57556971D01*
X174073212Y-57559161D01*
X174072075Y-57560297D01*
X174068695Y-57561223D01*
X174002029Y-57594556D01*
X173993165Y-57601434D01*
X173983836Y-57607669D01*
X173950503Y-57641003D01*
X173944271Y-57650328D01*
X173937390Y-57659195D01*
X173904057Y-57725861D01*
X173903131Y-57729241D01*
X173901995Y-57730378D01*
X173899805Y-57741385D01*
X173896843Y-57752204D01*
X173897350Y-57753727D01*
X173896667Y-57757166D01*
X173818889Y-57757166D01*
X173818889Y-57476055D01*
X177181111Y-57476055D01*
X177181111Y-58471611D01*
G37*
G36*
X175995522Y-75051683D02*
G01*
X176009134Y-75065295D01*
X176029999Y-75107024D01*
X176029999Y-75173975D01*
X176009135Y-75215701D01*
X175991866Y-75232970D01*
X175950141Y-75253833D01*
X175769999Y-75253833D01*
X175769999Y-75027166D01*
X175921973Y-75027166D01*
X175995522Y-75051683D01*
G37*
G36*
X175958535Y-74714696D02*
G01*
X175975802Y-74731964D01*
X175996666Y-74773691D01*
X175996666Y-74807308D01*
X175975803Y-74849034D01*
X175958534Y-74866302D01*
X175916808Y-74887166D01*
X175769999Y-74887166D01*
X175769999Y-74693833D01*
X175916808Y-74693833D01*
X175958535Y-74714696D01*
G37*
G36*
X175302879Y-75053833D02*
G01*
X175163786Y-75053833D01*
X175233332Y-74845192D01*
X175302879Y-75053833D01*
G37*
G36*
X177442450Y-75471611D02*
G01*
X173585555Y-75471611D01*
X173585555Y-74623833D01*
X173663333Y-74623833D01*
X173663333Y-75323833D01*
X173668661Y-75350621D01*
X173706545Y-75388505D01*
X173733333Y-75393833D01*
X174066667Y-75393833D01*
X174093455Y-75388505D01*
X174131339Y-75350621D01*
X174131339Y-75297045D01*
X174093455Y-75259161D01*
X174066667Y-75253833D01*
X173803333Y-75253833D01*
X173803333Y-75027166D01*
X173966667Y-75027166D01*
X173993455Y-75021838D01*
X174031339Y-74983954D01*
X174031339Y-74930378D01*
X173993455Y-74892494D01*
X173966667Y-74887166D01*
X173803333Y-74887166D01*
X173803333Y-74693833D01*
X174066667Y-74693833D01*
X174093455Y-74688505D01*
X174131339Y-74650621D01*
X174131339Y-74623833D01*
X174296666Y-74623833D01*
X174296666Y-75323833D01*
X174301994Y-75350621D01*
X174339878Y-75388505D01*
X174393454Y-75388505D01*
X174431338Y-75350621D01*
X174436666Y-75323833D01*
X174436666Y-74887422D01*
X174705889Y-75358563D01*
X174723806Y-75379178D01*
X174733080Y-75381707D01*
X174739878Y-75388505D01*
X174758004Y-75388505D01*
X174775494Y-75393275D01*
X174783842Y-75388505D01*
X174793454Y-75388505D01*
X174806270Y-75375688D01*
X174822011Y-75366694D01*
X174824540Y-75357418D01*
X174831338Y-75350621D01*
X174835679Y-75328795D01*
X174930175Y-75328795D01*
X174954135Y-75376715D01*
X175004961Y-75393657D01*
X175052881Y-75369697D01*
X175066407Y-75345969D01*
X175117119Y-75193833D01*
X175349546Y-75193833D01*
X175400258Y-75345969D01*
X175413784Y-75369698D01*
X175461704Y-75393658D01*
X175512530Y-75376715D01*
X175536490Y-75328796D01*
X175533074Y-75301697D01*
X175307120Y-74623833D01*
X175629999Y-74623833D01*
X175629999Y-75323833D01*
X175635327Y-75350621D01*
X175673211Y-75388505D01*
X175699999Y-75393833D01*
X175966666Y-75393833D01*
X175970104Y-75393149D01*
X175971628Y-75393657D01*
X175982446Y-75390694D01*
X175993454Y-75388505D01*
X175994590Y-75387368D01*
X175997971Y-75386443D01*
X176064638Y-75353110D01*
X176073502Y-75346230D01*
X176082831Y-75339997D01*
X176116164Y-75306663D01*
X176122399Y-75297331D01*
X176129276Y-75288471D01*
X176162609Y-75221805D01*
X176163534Y-75218424D01*
X176164671Y-75217288D01*
X176166860Y-75206280D01*
X176169823Y-75195462D01*
X176169315Y-75193938D01*
X176169999Y-75190500D01*
X176169999Y-75090500D01*
X176169315Y-75087061D01*
X176169823Y-75085538D01*
X176166860Y-75074720D01*
X176164671Y-75063712D01*
X176163534Y-75062575D01*
X176162609Y-75059196D01*
X176129276Y-74992528D01*
X176122391Y-74983657D01*
X176116163Y-74974336D01*
X176082830Y-74941003D01*
X176082227Y-74940600D01*
X176082830Y-74939998D01*
X176089063Y-74930669D01*
X176095943Y-74921805D01*
X176129276Y-74855137D01*
X176130201Y-74851757D01*
X176131338Y-74850621D01*
X176133527Y-74839612D01*
X176136490Y-74828795D01*
X176135982Y-74827271D01*
X176136666Y-74823833D01*
X176136666Y-74757166D01*
X176135982Y-74753727D01*
X176136490Y-74752204D01*
X176133527Y-74741385D01*
X176131338Y-74730378D01*
X176130201Y-74729241D01*
X176129276Y-74725861D01*
X176095943Y-74659195D01*
X176089064Y-74650331D01*
X176082830Y-74641002D01*
X176065660Y-74623833D01*
X176329999Y-74623833D01*
X176329999Y-75323833D01*
X176335327Y-75350621D01*
X176373211Y-75388505D01*
X176399999Y-75393833D01*
X176733333Y-75393833D01*
X176760121Y-75388505D01*
X176798005Y-75350621D01*
X176798005Y-75297045D01*
X176760121Y-75259161D01*
X176733333Y-75253833D01*
X176469999Y-75253833D01*
X176469999Y-74623833D01*
X176896666Y-74623833D01*
X176896666Y-75323833D01*
X176901994Y-75350621D01*
X176939878Y-75388505D01*
X176966666Y-75393833D01*
X177300000Y-75393833D01*
X177326788Y-75388505D01*
X177364672Y-75350621D01*
X177364672Y-75297045D01*
X177326788Y-75259161D01*
X177300000Y-75253833D01*
X177036666Y-75253833D01*
X177036666Y-75027166D01*
X177200000Y-75027166D01*
X177226788Y-75021838D01*
X177264672Y-74983954D01*
X177264672Y-74930378D01*
X177226788Y-74892494D01*
X177200000Y-74887166D01*
X177036666Y-74887166D01*
X177036666Y-74693833D01*
X177300000Y-74693833D01*
X177326788Y-74688505D01*
X177364672Y-74650621D01*
X177364672Y-74597045D01*
X177326788Y-74559161D01*
X177300000Y-74553833D01*
X176966666Y-74553833D01*
X176939878Y-74559161D01*
X176901994Y-74597045D01*
X176896666Y-74623833D01*
X176469999Y-74623833D01*
X176464671Y-74597045D01*
X176426787Y-74559161D01*
X176373211Y-74559161D01*
X176335327Y-74597045D01*
X176329999Y-74623833D01*
X176065660Y-74623833D01*
X176049496Y-74607669D01*
X176040170Y-74601437D01*
X176031304Y-74594556D01*
X175964638Y-74561223D01*
X175961257Y-74560297D01*
X175960121Y-74559161D01*
X175949113Y-74556971D01*
X175938295Y-74554009D01*
X175936771Y-74554516D01*
X175933333Y-74553833D01*
X175699999Y-74553833D01*
X175673211Y-74559161D01*
X175635327Y-74597045D01*
X175629999Y-74623833D01*
X175307120Y-74623833D01*
X175299741Y-74601697D01*
X175286215Y-74577969D01*
X175281536Y-74575629D01*
X175279197Y-74570951D01*
X175258143Y-74563933D01*
X175238295Y-74554009D01*
X175233333Y-74555663D01*
X175228371Y-74554009D01*
X175208523Y-74563933D01*
X175187469Y-74570951D01*
X175185129Y-74575629D01*
X175180451Y-74577969D01*
X175166925Y-74601697D01*
X174933591Y-75301697D01*
X174930175Y-75328795D01*
X174835679Y-75328795D01*
X174836666Y-75323833D01*
X174836666Y-74623833D01*
X174831338Y-74597045D01*
X174793454Y-74559161D01*
X174739878Y-74559161D01*
X174701994Y-74597045D01*
X174696666Y-74623833D01*
X174696666Y-75060243D01*
X174427443Y-74589103D01*
X174409526Y-74568488D01*
X174400251Y-74565958D01*
X174393454Y-74559161D01*
X174375328Y-74559161D01*
X174357838Y-74554391D01*
X174349491Y-74559161D01*
X174339878Y-74559161D01*
X174327060Y-74571978D01*
X174311321Y-74580973D01*
X174308791Y-74590247D01*
X174301994Y-74597045D01*
X174296666Y-74623833D01*
X174131339Y-74623833D01*
X174131339Y-74597045D01*
X174093455Y-74559161D01*
X174066667Y-74553833D01*
X173733333Y-74553833D01*
X173706545Y-74559161D01*
X173668661Y-74597045D01*
X173663333Y-74623833D01*
X173585555Y-74623833D01*
X173585555Y-74476055D01*
X177442450Y-74476055D01*
X177442450Y-75471611D01*
G37*
G36*
X178025201Y-51214695D02*
G01*
X178070125Y-51259620D01*
X178096667Y-51365784D01*
X178096667Y-51581881D01*
X178070125Y-51688045D01*
X178025201Y-51732970D01*
X177983475Y-51753833D01*
X177883192Y-51753833D01*
X177841464Y-51732969D01*
X177796540Y-51688046D01*
X177770000Y-51581883D01*
X177770000Y-51365783D01*
X177796540Y-51259619D01*
X177841464Y-51214696D01*
X177883192Y-51193833D01*
X177983475Y-51193833D01*
X178025201Y-51214695D01*
G37*
G36*
X179712254Y-51971611D02*
G01*
X176285555Y-51971611D01*
X176285555Y-51423833D01*
X176363333Y-51423833D01*
X176363333Y-51523833D01*
X176365006Y-51532244D01*
X176365423Y-51540810D01*
X176398756Y-51674143D01*
X176402030Y-51681074D01*
X176404056Y-51688471D01*
X176437390Y-51755138D01*
X176444267Y-51763999D01*
X176450502Y-51773330D01*
X176517168Y-51839997D01*
X176520083Y-51841945D01*
X176520802Y-51843382D01*
X176530548Y-51848937D01*
X176539878Y-51855172D01*
X176541485Y-51855172D01*
X176544530Y-51856908D01*
X176644530Y-51890241D01*
X176655661Y-51891644D01*
X176666666Y-51893833D01*
X176733333Y-51893833D01*
X176744337Y-51891644D01*
X176755469Y-51890241D01*
X176855469Y-51856908D01*
X176858514Y-51855172D01*
X176860122Y-51855172D01*
X176869454Y-51848935D01*
X176879197Y-51843382D01*
X176879915Y-51841945D01*
X176882831Y-51839997D01*
X176916164Y-51806663D01*
X176931339Y-51783953D01*
X176931338Y-51730377D01*
X176893453Y-51692493D01*
X176839877Y-51692494D01*
X176817168Y-51707669D01*
X176795520Y-51729317D01*
X176721973Y-51753833D01*
X176678026Y-51753833D01*
X176604478Y-51729317D01*
X176557530Y-51682368D01*
X176532712Y-51632733D01*
X176503333Y-51515216D01*
X176503333Y-51432450D01*
X176532712Y-51314932D01*
X176557530Y-51265297D01*
X176604478Y-51218348D01*
X176678026Y-51193833D01*
X176721973Y-51193833D01*
X176795520Y-51218348D01*
X176817168Y-51239997D01*
X176839877Y-51255172D01*
X176893453Y-51255173D01*
X176931338Y-51217289D01*
X176931339Y-51163713D01*
X176916164Y-51141003D01*
X176898995Y-51123833D01*
X177096666Y-51123833D01*
X177096666Y-51823833D01*
X177101994Y-51850621D01*
X177139878Y-51888505D01*
X177166666Y-51893833D01*
X177500000Y-51893833D01*
X177526788Y-51888505D01*
X177564672Y-51850621D01*
X177564672Y-51797045D01*
X177526788Y-51759161D01*
X177500000Y-51753833D01*
X177236666Y-51753833D01*
X177236666Y-51357166D01*
X177630000Y-51357166D01*
X177630000Y-51590500D01*
X177631673Y-51598911D01*
X177632090Y-51607477D01*
X177665423Y-51740810D01*
X177668661Y-51747664D01*
X177668661Y-51750621D01*
X177673425Y-51757751D01*
X177677089Y-51765506D01*
X177679624Y-51767027D01*
X177683836Y-51773330D01*
X177750502Y-51839997D01*
X177759828Y-51846228D01*
X177768695Y-51853110D01*
X177835363Y-51886443D01*
X177838742Y-51887368D01*
X177839879Y-51888505D01*
X177850887Y-51890694D01*
X177861705Y-51893657D01*
X177863228Y-51893149D01*
X177866667Y-51893833D01*
X178000000Y-51893833D01*
X178003438Y-51893149D01*
X178004962Y-51893657D01*
X178015780Y-51890694D01*
X178026788Y-51888505D01*
X178027924Y-51887368D01*
X178031305Y-51886443D01*
X178097972Y-51853110D01*
X178106836Y-51846230D01*
X178116165Y-51839997D01*
X178182831Y-51773330D01*
X178187041Y-51767028D01*
X178189577Y-51765507D01*
X178193241Y-51757748D01*
X178198005Y-51750620D01*
X178198005Y-51747665D01*
X178201243Y-51740811D01*
X178234577Y-51607478D01*
X178234994Y-51598911D01*
X178236667Y-51590500D01*
X178236667Y-51423833D01*
X178363333Y-51423833D01*
X178363333Y-51523833D01*
X178365006Y-51532244D01*
X178365423Y-51540810D01*
X178398756Y-51674143D01*
X178402030Y-51681074D01*
X178404056Y-51688471D01*
X178437390Y-51755138D01*
X178444267Y-51763999D01*
X178450502Y-51773330D01*
X178517168Y-51839997D01*
X178520083Y-51841945D01*
X178520802Y-51843382D01*
X178530548Y-51848937D01*
X178539878Y-51855172D01*
X178541485Y-51855172D01*
X178544530Y-51856908D01*
X178644530Y-51890241D01*
X178655661Y-51891644D01*
X178666666Y-51893833D01*
X178733333Y-51893833D01*
X178744337Y-51891644D01*
X178755469Y-51890241D01*
X178855469Y-51856908D01*
X178858514Y-51855172D01*
X178860122Y-51855172D01*
X178869454Y-51848935D01*
X178879197Y-51843382D01*
X178879915Y-51841945D01*
X178882831Y-51839997D01*
X178916164Y-51806663D01*
X178931339Y-51783953D01*
X178931338Y-51730377D01*
X178893453Y-51692493D01*
X178839877Y-51692494D01*
X178817168Y-51707669D01*
X178795520Y-51729317D01*
X178721973Y-51753833D01*
X178678026Y-51753833D01*
X178604478Y-51729317D01*
X178557530Y-51682368D01*
X178532712Y-51632733D01*
X178503333Y-51515216D01*
X178503333Y-51432450D01*
X178532712Y-51314932D01*
X178557530Y-51265297D01*
X178604478Y-51218348D01*
X178678026Y-51193833D01*
X178721973Y-51193833D01*
X178795520Y-51218348D01*
X178817168Y-51239997D01*
X178839877Y-51255172D01*
X178893453Y-51255173D01*
X178931338Y-51217289D01*
X178931339Y-51163713D01*
X178916164Y-51141003D01*
X178898995Y-51123833D01*
X179096666Y-51123833D01*
X179096666Y-51823833D01*
X179101994Y-51850621D01*
X179139878Y-51888505D01*
X179193454Y-51888505D01*
X179231338Y-51850621D01*
X179236666Y-51823833D01*
X179236666Y-51552827D01*
X179259092Y-51530401D01*
X179510666Y-51865833D01*
X179531001Y-51884067D01*
X179584039Y-51891643D01*
X179626900Y-51859498D01*
X179634476Y-51806460D01*
X179622666Y-51781833D01*
X179359092Y-51430401D01*
X179616163Y-51173331D01*
X179631338Y-51150621D01*
X179631338Y-51097045D01*
X179593454Y-51059161D01*
X179539878Y-51059161D01*
X179517168Y-51074336D01*
X179236666Y-51354838D01*
X179236666Y-51123833D01*
X179231338Y-51097045D01*
X179193454Y-51059161D01*
X179139878Y-51059161D01*
X179101994Y-51097045D01*
X179096666Y-51123833D01*
X178898995Y-51123833D01*
X178882831Y-51107669D01*
X178879915Y-51105720D01*
X178879197Y-51104284D01*
X178869454Y-51098730D01*
X178860122Y-51092494D01*
X178858514Y-51092494D01*
X178855469Y-51090758D01*
X178755469Y-51057425D01*
X178744337Y-51056021D01*
X178733333Y-51053833D01*
X178666666Y-51053833D01*
X178655661Y-51056021D01*
X178644530Y-51057425D01*
X178544530Y-51090758D01*
X178541485Y-51092494D01*
X178539878Y-51092494D01*
X178530548Y-51098728D01*
X178520802Y-51104284D01*
X178520083Y-51105720D01*
X178517168Y-51107669D01*
X178450502Y-51174336D01*
X178444267Y-51183666D01*
X178437390Y-51192528D01*
X178404056Y-51259195D01*
X178402030Y-51266591D01*
X178398756Y-51273523D01*
X178365423Y-51406856D01*
X178365006Y-51415421D01*
X178363333Y-51423833D01*
X178236667Y-51423833D01*
X178236667Y-51357166D01*
X178234994Y-51348754D01*
X178234577Y-51340188D01*
X178201243Y-51206855D01*
X178198005Y-51200000D01*
X178198005Y-51197046D01*
X178193241Y-51189917D01*
X178189577Y-51182159D01*
X178187041Y-51180637D01*
X178182831Y-51174336D01*
X178116165Y-51107669D01*
X178106836Y-51101435D01*
X178097972Y-51094556D01*
X178031305Y-51061223D01*
X178027924Y-51060297D01*
X178026788Y-51059161D01*
X178015780Y-51056971D01*
X178004962Y-51054009D01*
X178003438Y-51054516D01*
X178000000Y-51053833D01*
X177866667Y-51053833D01*
X177863228Y-51054516D01*
X177861705Y-51054009D01*
X177850887Y-51056971D01*
X177839879Y-51059161D01*
X177838742Y-51060297D01*
X177835363Y-51061223D01*
X177768695Y-51094556D01*
X177759828Y-51101437D01*
X177750502Y-51107669D01*
X177683836Y-51174336D01*
X177679624Y-51180638D01*
X177677089Y-51182160D01*
X177673425Y-51189914D01*
X177668661Y-51197045D01*
X177668661Y-51200001D01*
X177665423Y-51206856D01*
X177632090Y-51340189D01*
X177631673Y-51348754D01*
X177630000Y-51357166D01*
X177236666Y-51357166D01*
X177236666Y-51123833D01*
X177231338Y-51097045D01*
X177193454Y-51059161D01*
X177139878Y-51059161D01*
X177101994Y-51097045D01*
X177096666Y-51123833D01*
X176898995Y-51123833D01*
X176882831Y-51107669D01*
X176879915Y-51105720D01*
X176879197Y-51104284D01*
X176869454Y-51098730D01*
X176860122Y-51092494D01*
X176858514Y-51092494D01*
X176855469Y-51090758D01*
X176755469Y-51057425D01*
X176744337Y-51056021D01*
X176733333Y-51053833D01*
X176666666Y-51053833D01*
X176655661Y-51056021D01*
X176644530Y-51057425D01*
X176544530Y-51090758D01*
X176541485Y-51092494D01*
X176539878Y-51092494D01*
X176530548Y-51098728D01*
X176520802Y-51104284D01*
X176520083Y-51105720D01*
X176517168Y-51107669D01*
X176450502Y-51174336D01*
X176444267Y-51183666D01*
X176437390Y-51192528D01*
X176404056Y-51259195D01*
X176402030Y-51266591D01*
X176398756Y-51273523D01*
X176365423Y-51406856D01*
X176365006Y-51415421D01*
X176363333Y-51423833D01*
X176285555Y-51423833D01*
X176285555Y-50976055D01*
X179712254Y-50976055D01*
X179712254Y-51971611D01*
G37*
G36*
X185609117Y-80971611D02*
G01*
X179390882Y-80971611D01*
X179390882Y-80530378D01*
X179468660Y-80530378D01*
X179468660Y-80583954D01*
X179506544Y-80621838D01*
X179533332Y-80627166D01*
X179729999Y-80627166D01*
X179729999Y-80823833D01*
X179735327Y-80850621D01*
X179773211Y-80888505D01*
X179826787Y-80888505D01*
X179864671Y-80850621D01*
X179869999Y-80823833D01*
X179869999Y-80627166D01*
X180066666Y-80627166D01*
X180093454Y-80621838D01*
X180131338Y-80583954D01*
X180131338Y-80530378D01*
X180093454Y-80492494D01*
X180066666Y-80487166D01*
X179869999Y-80487166D01*
X179869999Y-80450201D01*
X180830346Y-80450201D01*
X180832982Y-80477386D01*
X180835327Y-80480252D01*
X180835327Y-80483954D01*
X180851986Y-80500613D01*
X180866909Y-80518852D01*
X180870593Y-80519220D01*
X180873211Y-80521838D01*
X180896769Y-80521838D01*
X180920219Y-80524183D01*
X180923085Y-80521838D01*
X180926787Y-80521838D01*
X180949496Y-80506663D01*
X180974794Y-80481364D01*
X181016524Y-80460500D01*
X181150141Y-80460500D01*
X181191867Y-80481363D01*
X181209136Y-80498631D01*
X181229999Y-80540357D01*
X181229999Y-80673975D01*
X181209135Y-80715701D01*
X181191868Y-80732969D01*
X181150141Y-80753833D01*
X181016524Y-80753833D01*
X180974797Y-80732970D01*
X180949497Y-80707669D01*
X180926788Y-80692494D01*
X180873212Y-80692494D01*
X180835327Y-80730377D01*
X180835327Y-80783953D01*
X180850501Y-80806663D01*
X180883834Y-80839997D01*
X180893162Y-80846230D01*
X180902027Y-80853110D01*
X180968695Y-80886443D01*
X180972074Y-80887368D01*
X180973211Y-80888505D01*
X180984219Y-80890694D01*
X180995037Y-80893657D01*
X180996560Y-80893149D01*
X180999999Y-80893833D01*
X181166666Y-80893833D01*
X181170104Y-80893149D01*
X181171628Y-80893657D01*
X181182446Y-80890694D01*
X181193454Y-80888505D01*
X181194590Y-80887368D01*
X181197971Y-80886443D01*
X181264637Y-80853110D01*
X181273503Y-80846228D01*
X181282829Y-80839997D01*
X181316163Y-80806664D01*
X181322397Y-80797334D01*
X181329276Y-80788471D01*
X181362609Y-80721805D01*
X181363534Y-80718424D01*
X181364671Y-80717288D01*
X181366860Y-80706280D01*
X181369823Y-80695462D01*
X181369315Y-80693938D01*
X181369999Y-80690500D01*
X181369999Y-80530378D01*
X181535327Y-80530378D01*
X181535327Y-80583954D01*
X181573211Y-80621838D01*
X181599999Y-80627166D01*
X182133333Y-80627166D01*
X182160121Y-80621838D01*
X182198005Y-80583954D01*
X182198005Y-80530378D01*
X182160121Y-80492494D01*
X182133333Y-80487166D01*
X181599999Y-80487166D01*
X181573211Y-80492494D01*
X181535327Y-80530378D01*
X181369999Y-80530378D01*
X181369999Y-80523833D01*
X181369315Y-80520394D01*
X181369823Y-80518871D01*
X181366860Y-80508053D01*
X181364671Y-80497045D01*
X181363534Y-80495908D01*
X181362609Y-80492529D01*
X181329276Y-80425861D01*
X181322396Y-80416996D01*
X181316163Y-80407668D01*
X181282829Y-80374335D01*
X181273500Y-80368102D01*
X181264637Y-80361223D01*
X181199781Y-80328795D01*
X182363509Y-80328795D01*
X182387468Y-80376715D01*
X182438295Y-80393657D01*
X182464638Y-80386443D01*
X182531305Y-80353110D01*
X182540169Y-80346230D01*
X182549498Y-80339997D01*
X182563333Y-80326161D01*
X182563333Y-80753833D01*
X182433333Y-80753833D01*
X182406545Y-80759161D01*
X182368661Y-80797045D01*
X182368661Y-80850621D01*
X182406545Y-80888505D01*
X182433333Y-80893833D01*
X182833333Y-80893833D01*
X182860121Y-80888505D01*
X182898005Y-80850621D01*
X182898005Y-80797045D01*
X182860121Y-80759161D01*
X182833333Y-80753833D01*
X182703333Y-80753833D01*
X182703333Y-80450201D01*
X183030347Y-80450201D01*
X183032983Y-80477386D01*
X183035328Y-80480252D01*
X183035328Y-80483954D01*
X183051987Y-80500613D01*
X183066910Y-80518852D01*
X183070594Y-80519220D01*
X183073212Y-80521838D01*
X183096770Y-80521838D01*
X183120220Y-80524183D01*
X183123086Y-80521838D01*
X183126788Y-80521838D01*
X183149497Y-80506663D01*
X183174795Y-80481364D01*
X183216525Y-80460500D01*
X183350142Y-80460500D01*
X183391868Y-80481363D01*
X183409137Y-80498631D01*
X183430000Y-80540357D01*
X183430000Y-80673975D01*
X183409136Y-80715701D01*
X183391869Y-80732969D01*
X183350142Y-80753833D01*
X183216525Y-80753833D01*
X183174798Y-80732970D01*
X183149498Y-80707669D01*
X183126789Y-80692494D01*
X183073213Y-80692494D01*
X183035328Y-80730377D01*
X183035328Y-80783953D01*
X183050502Y-80806663D01*
X183083835Y-80839997D01*
X183093163Y-80846230D01*
X183102028Y-80853110D01*
X183168696Y-80886443D01*
X183172075Y-80887368D01*
X183173212Y-80888505D01*
X183184220Y-80890694D01*
X183195038Y-80893657D01*
X183196561Y-80893149D01*
X183200000Y-80893833D01*
X183366667Y-80893833D01*
X183370105Y-80893149D01*
X183371629Y-80893657D01*
X183382447Y-80890694D01*
X183393455Y-80888505D01*
X183394591Y-80887368D01*
X183397972Y-80886443D01*
X183464638Y-80853110D01*
X183473504Y-80846228D01*
X183482830Y-80839997D01*
X183516164Y-80806664D01*
X183522398Y-80797334D01*
X183529277Y-80788471D01*
X183562610Y-80721805D01*
X183563535Y-80718424D01*
X183564672Y-80717288D01*
X183566861Y-80706280D01*
X183569824Y-80695462D01*
X183569316Y-80693938D01*
X183570000Y-80690500D01*
X183570000Y-80523833D01*
X183569316Y-80520394D01*
X183569824Y-80518871D01*
X183566861Y-80508053D01*
X183564672Y-80497045D01*
X183563535Y-80495908D01*
X183562610Y-80492529D01*
X183529277Y-80425861D01*
X183522397Y-80416996D01*
X183516164Y-80407668D01*
X183482830Y-80374335D01*
X183473501Y-80368102D01*
X183464638Y-80361223D01*
X183397972Y-80327890D01*
X183394591Y-80326964D01*
X183393455Y-80325828D01*
X183382447Y-80323638D01*
X183371629Y-80320676D01*
X183370105Y-80321183D01*
X183366667Y-80320500D01*
X183200000Y-80320500D01*
X183196561Y-80321183D01*
X183195038Y-80320676D01*
X183184220Y-80323638D01*
X183183691Y-80323743D01*
X183196683Y-80193833D01*
X183466667Y-80193833D01*
X183493455Y-80188505D01*
X183531339Y-80150621D01*
X183531339Y-80118871D01*
X183630176Y-80118871D01*
X183633592Y-80145969D01*
X183866926Y-80845969D01*
X183880452Y-80869697D01*
X183885130Y-80872036D01*
X183887470Y-80876715D01*
X183908524Y-80883733D01*
X183928372Y-80893657D01*
X183933334Y-80892003D01*
X183938296Y-80893657D01*
X183958144Y-80883733D01*
X183979198Y-80876715D01*
X183981537Y-80872036D01*
X183986216Y-80869697D01*
X183999742Y-80845969D01*
X184104939Y-80530378D01*
X184868661Y-80530378D01*
X184868661Y-80583954D01*
X184906545Y-80621838D01*
X184933333Y-80627166D01*
X185466667Y-80627166D01*
X185493455Y-80621838D01*
X185531339Y-80583954D01*
X185531339Y-80530378D01*
X185493455Y-80492494D01*
X185466667Y-80487166D01*
X184933333Y-80487166D01*
X184906545Y-80492494D01*
X184868661Y-80530378D01*
X184104939Y-80530378D01*
X184233075Y-80145969D01*
X184236491Y-80118870D01*
X184212531Y-80070951D01*
X184161705Y-80054008D01*
X184113785Y-80077968D01*
X184100259Y-80101697D01*
X183933333Y-80602473D01*
X183766408Y-80101697D01*
X183752882Y-80077969D01*
X183704962Y-80054009D01*
X183654136Y-80070951D01*
X183630176Y-80118871D01*
X183531339Y-80118871D01*
X183531339Y-80097045D01*
X183493455Y-80059161D01*
X183466667Y-80053833D01*
X183133333Y-80053833D01*
X183116584Y-80057164D01*
X183113113Y-80056817D01*
X183111437Y-80058187D01*
X183106545Y-80059161D01*
X183089883Y-80075822D01*
X183071647Y-80090743D01*
X183070192Y-80095513D01*
X183068661Y-80097045D01*
X183068661Y-80100534D01*
X183063680Y-80116868D01*
X183030347Y-80450201D01*
X182703333Y-80450201D01*
X182703333Y-80123833D01*
X182698005Y-80097045D01*
X182692908Y-80091948D01*
X182691495Y-80084882D01*
X182674536Y-80073576D01*
X182660121Y-80059161D01*
X182652913Y-80059161D01*
X182646918Y-80055164D01*
X182626933Y-80059161D01*
X182606545Y-80059161D01*
X182601448Y-80064257D01*
X182594382Y-80065671D01*
X182575089Y-80085004D01*
X182512268Y-80179235D01*
X182458534Y-80232970D01*
X182402028Y-80261223D01*
X182380451Y-80277968D01*
X182363509Y-80328795D01*
X181199781Y-80328795D01*
X181197971Y-80327890D01*
X181194590Y-80326964D01*
X181193454Y-80325828D01*
X181182446Y-80323638D01*
X181171628Y-80320676D01*
X181170104Y-80321183D01*
X181166666Y-80320500D01*
X180999999Y-80320500D01*
X180996560Y-80321183D01*
X180995037Y-80320676D01*
X180984219Y-80323638D01*
X180983690Y-80323743D01*
X180996682Y-80193833D01*
X181266666Y-80193833D01*
X181293454Y-80188505D01*
X181331338Y-80150621D01*
X181331338Y-80097045D01*
X181293454Y-80059161D01*
X181266666Y-80053833D01*
X180933332Y-80053833D01*
X180916583Y-80057164D01*
X180913112Y-80056817D01*
X180911436Y-80058187D01*
X180906544Y-80059161D01*
X180889882Y-80075822D01*
X180871646Y-80090743D01*
X180870191Y-80095513D01*
X180868660Y-80097045D01*
X180868660Y-80100534D01*
X180863679Y-80116868D01*
X180830346Y-80450201D01*
X179869999Y-80450201D01*
X179869999Y-80290500D01*
X179864671Y-80263712D01*
X179826787Y-80225828D01*
X179773211Y-80225828D01*
X179735327Y-80263712D01*
X179729999Y-80290500D01*
X179729999Y-80487166D01*
X179533332Y-80487166D01*
X179506544Y-80492494D01*
X179468660Y-80530378D01*
X179390882Y-80530378D01*
X179390882Y-79976055D01*
X185609117Y-79976055D01*
X185609117Y-80971611D01*
G37*
D11*
X182901317Y-47779572D02*
X182567983Y-47779572D01*
X182567983Y-47779572D02*
X182567983Y-47079572D01*
X183134650Y-47412905D02*
X183367984Y-47412905D01*
X183467984Y-47779572D02*
X183134650Y-47779572D01*
X183134650Y-47779572D02*
X183134650Y-47079572D01*
X183134650Y-47079572D02*
X183467984Y-47079572D01*
X183767983Y-47779572D02*
X183767983Y-47079572D01*
X183767983Y-47079572D02*
X183934650Y-47079572D01*
X183934650Y-47079572D02*
X184034650Y-47112905D01*
X184034650Y-47112905D02*
X184101317Y-47179572D01*
X184101317Y-47179572D02*
X184134650Y-47246239D01*
X184134650Y-47246239D02*
X184167983Y-47379572D01*
X184167983Y-47379572D02*
X184167983Y-47479572D01*
X184167983Y-47479572D02*
X184134650Y-47612905D01*
X184134650Y-47612905D02*
X184101317Y-47679572D01*
X184101317Y-47679572D02*
X184034650Y-47746239D01*
X184034650Y-47746239D02*
X183934650Y-47779572D01*
X183934650Y-47779572D02*
X183767983Y-47779572D01*
X185401316Y-47712905D02*
X185367983Y-47746239D01*
X185367983Y-47746239D02*
X185267983Y-47779572D01*
X185267983Y-47779572D02*
X185201316Y-47779572D01*
X185201316Y-47779572D02*
X185101316Y-47746239D01*
X185101316Y-47746239D02*
X185034650Y-47679572D01*
X185034650Y-47679572D02*
X185001316Y-47612905D01*
X185001316Y-47612905D02*
X184967983Y-47479572D01*
X184967983Y-47479572D02*
X184967983Y-47379572D01*
X184967983Y-47379572D02*
X185001316Y-47246239D01*
X185001316Y-47246239D02*
X185034650Y-47179572D01*
X185034650Y-47179572D02*
X185101316Y-47112905D01*
X185101316Y-47112905D02*
X185201316Y-47079572D01*
X185201316Y-47079572D02*
X185267983Y-47079572D01*
X185267983Y-47079572D02*
X185367983Y-47112905D01*
X185367983Y-47112905D02*
X185401316Y-47146239D01*
X185701316Y-47779572D02*
X185701316Y-47079572D01*
X186001316Y-47779572D02*
X186001316Y-47412905D01*
X186001316Y-47412905D02*
X185967983Y-47346239D01*
X185967983Y-47346239D02*
X185901316Y-47312905D01*
X185901316Y-47312905D02*
X185801316Y-47312905D01*
X185801316Y-47312905D02*
X185734650Y-47346239D01*
X185734650Y-47346239D02*
X185701316Y-47379572D01*
X186634649Y-47779572D02*
X186634649Y-47412905D01*
X186634649Y-47412905D02*
X186601316Y-47346239D01*
X186601316Y-47346239D02*
X186534649Y-47312905D01*
X186534649Y-47312905D02*
X186401316Y-47312905D01*
X186401316Y-47312905D02*
X186334649Y-47346239D01*
X186634649Y-47746239D02*
X186567983Y-47779572D01*
X186567983Y-47779572D02*
X186401316Y-47779572D01*
X186401316Y-47779572D02*
X186334649Y-47746239D01*
X186334649Y-47746239D02*
X186301316Y-47679572D01*
X186301316Y-47679572D02*
X186301316Y-47612905D01*
X186301316Y-47612905D02*
X186334649Y-47546239D01*
X186334649Y-47546239D02*
X186401316Y-47512905D01*
X186401316Y-47512905D02*
X186567983Y-47512905D01*
X186567983Y-47512905D02*
X186634649Y-47479572D01*
X186934649Y-47746239D02*
X187001316Y-47779572D01*
X187001316Y-47779572D02*
X187134649Y-47779572D01*
X187134649Y-47779572D02*
X187201316Y-47746239D01*
X187201316Y-47746239D02*
X187234649Y-47679572D01*
X187234649Y-47679572D02*
X187234649Y-47646239D01*
X187234649Y-47646239D02*
X187201316Y-47579572D01*
X187201316Y-47579572D02*
X187134649Y-47546239D01*
X187134649Y-47546239D02*
X187034649Y-47546239D01*
X187034649Y-47546239D02*
X186967982Y-47512905D01*
X186967982Y-47512905D02*
X186934649Y-47446239D01*
X186934649Y-47446239D02*
X186934649Y-47412905D01*
X186934649Y-47412905D02*
X186967982Y-47346239D01*
X186967982Y-47346239D02*
X187034649Y-47312905D01*
X187034649Y-47312905D02*
X187134649Y-47312905D01*
X187134649Y-47312905D02*
X187201316Y-47346239D01*
X187801316Y-47746239D02*
X187734649Y-47779572D01*
X187734649Y-47779572D02*
X187601316Y-47779572D01*
X187601316Y-47779572D02*
X187534649Y-47746239D01*
X187534649Y-47746239D02*
X187501316Y-47679572D01*
X187501316Y-47679572D02*
X187501316Y-47412905D01*
X187501316Y-47412905D02*
X187534649Y-47346239D01*
X187534649Y-47346239D02*
X187601316Y-47312905D01*
X187601316Y-47312905D02*
X187734649Y-47312905D01*
X187734649Y-47312905D02*
X187801316Y-47346239D01*
X187801316Y-47346239D02*
X187834649Y-47412905D01*
X187834649Y-47412905D02*
X187834649Y-47479572D01*
X187834649Y-47479572D02*
X187501316Y-47546239D01*
X188134649Y-47779572D02*
X188134649Y-47312905D01*
X188134649Y-47446239D02*
X188167983Y-47379572D01*
X188167983Y-47379572D02*
X188201316Y-47346239D01*
X188201316Y-47346239D02*
X188267983Y-47312905D01*
X188267983Y-47312905D02*
X188334649Y-47312905D01*
X180034647Y-48439866D02*
X180201313Y-48906533D01*
X180201313Y-48906533D02*
X180367980Y-48439866D01*
X181001313Y-48906533D02*
X180601313Y-48906533D01*
X180801313Y-48906533D02*
X180801313Y-48206533D01*
X180801313Y-48206533D02*
X180734646Y-48306533D01*
X180734646Y-48306533D02*
X180667980Y-48373200D01*
X180667980Y-48373200D02*
X180601313Y-48406533D01*
X181301313Y-48839866D02*
X181334647Y-48873200D01*
X181334647Y-48873200D02*
X181301313Y-48906533D01*
X181301313Y-48906533D02*
X181267980Y-48873200D01*
X181267980Y-48873200D02*
X181301313Y-48839866D01*
X181301313Y-48839866D02*
X181301313Y-48906533D01*
X181767980Y-48206533D02*
X181834646Y-48206533D01*
X181834646Y-48206533D02*
X181901313Y-48239866D01*
X181901313Y-48239866D02*
X181934646Y-48273200D01*
X181934646Y-48273200D02*
X181967980Y-48339866D01*
X181967980Y-48339866D02*
X182001313Y-48473200D01*
X182001313Y-48473200D02*
X182001313Y-48639866D01*
X182001313Y-48639866D02*
X181967980Y-48773200D01*
X181967980Y-48773200D02*
X181934646Y-48839866D01*
X181934646Y-48839866D02*
X181901313Y-48873200D01*
X181901313Y-48873200D02*
X181834646Y-48906533D01*
X181834646Y-48906533D02*
X181767980Y-48906533D01*
X181767980Y-48906533D02*
X181701313Y-48873200D01*
X181701313Y-48873200D02*
X181667980Y-48839866D01*
X181667980Y-48839866D02*
X181634646Y-48773200D01*
X181634646Y-48773200D02*
X181601313Y-48639866D01*
X181601313Y-48639866D02*
X181601313Y-48473200D01*
X181601313Y-48473200D02*
X181634646Y-48339866D01*
X181634646Y-48339866D02*
X181667980Y-48273200D01*
X181667980Y-48273200D02*
X181701313Y-48239866D01*
X181701313Y-48239866D02*
X181767980Y-48206533D01*
X183201313Y-48906533D02*
X182801313Y-48906533D01*
X183001313Y-48906533D02*
X183001313Y-48206533D01*
X183001313Y-48206533D02*
X182934646Y-48306533D01*
X182934646Y-48306533D02*
X182867980Y-48373200D01*
X182867980Y-48373200D02*
X182801313Y-48406533D01*
X183867980Y-48906533D02*
X183467980Y-48906533D01*
X183667980Y-48906533D02*
X183667980Y-48206533D01*
X183667980Y-48206533D02*
X183601313Y-48306533D01*
X183601313Y-48306533D02*
X183534647Y-48373200D01*
X183534647Y-48373200D02*
X183467980Y-48406533D01*
X184167980Y-48639866D02*
X184701314Y-48639866D01*
X185167981Y-48206533D02*
X185234647Y-48206533D01*
X185234647Y-48206533D02*
X185301314Y-48239866D01*
X185301314Y-48239866D02*
X185334647Y-48273200D01*
X185334647Y-48273200D02*
X185367981Y-48339866D01*
X185367981Y-48339866D02*
X185401314Y-48473200D01*
X185401314Y-48473200D02*
X185401314Y-48639866D01*
X185401314Y-48639866D02*
X185367981Y-48773200D01*
X185367981Y-48773200D02*
X185334647Y-48839866D01*
X185334647Y-48839866D02*
X185301314Y-48873200D01*
X185301314Y-48873200D02*
X185234647Y-48906533D01*
X185234647Y-48906533D02*
X185167981Y-48906533D01*
X185167981Y-48906533D02*
X185101314Y-48873200D01*
X185101314Y-48873200D02*
X185067981Y-48839866D01*
X185067981Y-48839866D02*
X185034647Y-48773200D01*
X185034647Y-48773200D02*
X185001314Y-48639866D01*
X185001314Y-48639866D02*
X185001314Y-48473200D01*
X185001314Y-48473200D02*
X185034647Y-48339866D01*
X185034647Y-48339866D02*
X185067981Y-48273200D01*
X185067981Y-48273200D02*
X185101314Y-48239866D01*
X185101314Y-48239866D02*
X185167981Y-48206533D01*
X185734648Y-48906533D02*
X185867981Y-48906533D01*
X185867981Y-48906533D02*
X185934648Y-48873200D01*
X185934648Y-48873200D02*
X185967981Y-48839866D01*
X185967981Y-48839866D02*
X186034648Y-48739866D01*
X186034648Y-48739866D02*
X186067981Y-48606533D01*
X186067981Y-48606533D02*
X186067981Y-48339866D01*
X186067981Y-48339866D02*
X186034648Y-48273200D01*
X186034648Y-48273200D02*
X186001314Y-48239866D01*
X186001314Y-48239866D02*
X185934648Y-48206533D01*
X185934648Y-48206533D02*
X185801314Y-48206533D01*
X185801314Y-48206533D02*
X185734648Y-48239866D01*
X185734648Y-48239866D02*
X185701314Y-48273200D01*
X185701314Y-48273200D02*
X185667981Y-48339866D01*
X185667981Y-48339866D02*
X185667981Y-48506533D01*
X185667981Y-48506533D02*
X185701314Y-48573200D01*
X185701314Y-48573200D02*
X185734648Y-48606533D01*
X185734648Y-48606533D02*
X185801314Y-48639866D01*
X185801314Y-48639866D02*
X185934648Y-48639866D01*
X185934648Y-48639866D02*
X186001314Y-48606533D01*
X186001314Y-48606533D02*
X186034648Y-48573200D01*
X186034648Y-48573200D02*
X186067981Y-48506533D01*
X186367981Y-48639866D02*
X186901315Y-48639866D01*
X187201315Y-48273200D02*
X187234648Y-48239866D01*
X187234648Y-48239866D02*
X187301315Y-48206533D01*
X187301315Y-48206533D02*
X187467982Y-48206533D01*
X187467982Y-48206533D02*
X187534648Y-48239866D01*
X187534648Y-48239866D02*
X187567982Y-48273200D01*
X187567982Y-48273200D02*
X187601315Y-48339866D01*
X187601315Y-48339866D02*
X187601315Y-48406533D01*
X187601315Y-48406533D02*
X187567982Y-48506533D01*
X187567982Y-48506533D02*
X187167982Y-48906533D01*
X187167982Y-48906533D02*
X187601315Y-48906533D01*
X188201315Y-48206533D02*
X188067982Y-48206533D01*
X188067982Y-48206533D02*
X188001315Y-48239866D01*
X188001315Y-48239866D02*
X187967982Y-48273200D01*
X187967982Y-48273200D02*
X187901315Y-48373200D01*
X187901315Y-48373200D02*
X187867982Y-48506533D01*
X187867982Y-48506533D02*
X187867982Y-48773200D01*
X187867982Y-48773200D02*
X187901315Y-48839866D01*
X187901315Y-48839866D02*
X187934649Y-48873200D01*
X187934649Y-48873200D02*
X188001315Y-48906533D01*
X188001315Y-48906533D02*
X188134649Y-48906533D01*
X188134649Y-48906533D02*
X188201315Y-48873200D01*
X188201315Y-48873200D02*
X188234649Y-48839866D01*
X188234649Y-48839866D02*
X188267982Y-48773200D01*
X188267982Y-48773200D02*
X188267982Y-48606533D01*
X188267982Y-48606533D02*
X188234649Y-48539866D01*
X188234649Y-48539866D02*
X188201315Y-48506533D01*
X188201315Y-48506533D02*
X188134649Y-48473200D01*
X188134649Y-48473200D02*
X188001315Y-48473200D01*
X188001315Y-48473200D02*
X187934649Y-48506533D01*
X187934649Y-48506533D02*
X187901315Y-48539866D01*
X187901315Y-48539866D02*
X187867982Y-48606533D01*
D12*
X186966666Y-69119283D02*
X186966666Y-69685950D01*
X186966666Y-69685950D02*
X187000000Y-69752616D01*
X187000000Y-69752616D02*
X187033333Y-69785950D01*
X187033333Y-69785950D02*
X187100000Y-69819283D01*
X187100000Y-69819283D02*
X187233333Y-69819283D01*
X187233333Y-69819283D02*
X187300000Y-69785950D01*
X187300000Y-69785950D02*
X187333333Y-69752616D01*
X187333333Y-69752616D02*
X187366666Y-69685950D01*
X187366666Y-69685950D02*
X187366666Y-69119283D01*
X187666666Y-69185950D02*
X187699999Y-69152616D01*
X187699999Y-69152616D02*
X187766666Y-69119283D01*
X187766666Y-69119283D02*
X187933333Y-69119283D01*
X187933333Y-69119283D02*
X187999999Y-69152616D01*
X187999999Y-69152616D02*
X188033333Y-69185950D01*
X188033333Y-69185950D02*
X188066666Y-69252616D01*
X188066666Y-69252616D02*
X188066666Y-69319283D01*
X188066666Y-69319283D02*
X188033333Y-69419283D01*
X188033333Y-69419283D02*
X187633333Y-69819283D01*
X187633333Y-69819283D02*
X188066666Y-69819283D01*
X193319283Y-58516666D02*
X192619283Y-58516666D01*
X192619283Y-58516666D02*
X192619283Y-58349999D01*
X192619283Y-58349999D02*
X192652616Y-58249999D01*
X192652616Y-58249999D02*
X192719283Y-58183333D01*
X192719283Y-58183333D02*
X192785950Y-58149999D01*
X192785950Y-58149999D02*
X192919283Y-58116666D01*
X192919283Y-58116666D02*
X193019283Y-58116666D01*
X193019283Y-58116666D02*
X193152616Y-58149999D01*
X193152616Y-58149999D02*
X193219283Y-58183333D01*
X193219283Y-58183333D02*
X193285950Y-58249999D01*
X193285950Y-58249999D02*
X193319283Y-58349999D01*
X193319283Y-58349999D02*
X193319283Y-58516666D01*
X192919283Y-57716666D02*
X192885950Y-57783333D01*
X192885950Y-57783333D02*
X192852616Y-57816666D01*
X192852616Y-57816666D02*
X192785950Y-57849999D01*
X192785950Y-57849999D02*
X192752616Y-57849999D01*
X192752616Y-57849999D02*
X192685950Y-57816666D01*
X192685950Y-57816666D02*
X192652616Y-57783333D01*
X192652616Y-57783333D02*
X192619283Y-57716666D01*
X192619283Y-57716666D02*
X192619283Y-57583333D01*
X192619283Y-57583333D02*
X192652616Y-57516666D01*
X192652616Y-57516666D02*
X192685950Y-57483333D01*
X192685950Y-57483333D02*
X192752616Y-57449999D01*
X192752616Y-57449999D02*
X192785950Y-57449999D01*
X192785950Y-57449999D02*
X192852616Y-57483333D01*
X192852616Y-57483333D02*
X192885950Y-57516666D01*
X192885950Y-57516666D02*
X192919283Y-57583333D01*
X192919283Y-57583333D02*
X192919283Y-57716666D01*
X192919283Y-57716666D02*
X192952616Y-57783333D01*
X192952616Y-57783333D02*
X192985950Y-57816666D01*
X192985950Y-57816666D02*
X193052616Y-57849999D01*
X193052616Y-57849999D02*
X193185950Y-57849999D01*
X193185950Y-57849999D02*
X193252616Y-57816666D01*
X193252616Y-57816666D02*
X193285950Y-57783333D01*
X193285950Y-57783333D02*
X193319283Y-57716666D01*
X193319283Y-57716666D02*
X193319283Y-57583333D01*
X193319283Y-57583333D02*
X193285950Y-57516666D01*
X193285950Y-57516666D02*
X193252616Y-57483333D01*
X193252616Y-57483333D02*
X193185950Y-57449999D01*
X193185950Y-57449999D02*
X193052616Y-57449999D01*
X193052616Y-57449999D02*
X192985950Y-57483333D01*
X192985950Y-57483333D02*
X192952616Y-57516666D01*
X192952616Y-57516666D02*
X192919283Y-57583333D01*
X193319283Y-56516666D02*
X192619283Y-56516666D01*
X192619283Y-56516666D02*
X192619283Y-56349999D01*
X192619283Y-56349999D02*
X192652616Y-56249999D01*
X192652616Y-56249999D02*
X192719283Y-56183333D01*
X192719283Y-56183333D02*
X192785950Y-56149999D01*
X192785950Y-56149999D02*
X192919283Y-56116666D01*
X192919283Y-56116666D02*
X193019283Y-56116666D01*
X193019283Y-56116666D02*
X193152616Y-56149999D01*
X193152616Y-56149999D02*
X193219283Y-56183333D01*
X193219283Y-56183333D02*
X193285950Y-56249999D01*
X193285950Y-56249999D02*
X193319283Y-56349999D01*
X193319283Y-56349999D02*
X193319283Y-56516666D01*
X193319283Y-55783333D02*
X193319283Y-55649999D01*
X193319283Y-55649999D02*
X193285950Y-55583333D01*
X193285950Y-55583333D02*
X193252616Y-55549999D01*
X193252616Y-55549999D02*
X193152616Y-55483333D01*
X193152616Y-55483333D02*
X193019283Y-55449999D01*
X193019283Y-55449999D02*
X192752616Y-55449999D01*
X192752616Y-55449999D02*
X192685950Y-55483333D01*
X192685950Y-55483333D02*
X192652616Y-55516666D01*
X192652616Y-55516666D02*
X192619283Y-55583333D01*
X192619283Y-55583333D02*
X192619283Y-55716666D01*
X192619283Y-55716666D02*
X192652616Y-55783333D01*
X192652616Y-55783333D02*
X192685950Y-55816666D01*
X192685950Y-55816666D02*
X192752616Y-55849999D01*
X192752616Y-55849999D02*
X192919283Y-55849999D01*
X192919283Y-55849999D02*
X192985950Y-55816666D01*
X192985950Y-55816666D02*
X193019283Y-55783333D01*
X193019283Y-55783333D02*
X193052616Y-55716666D01*
X193052616Y-55716666D02*
X193052616Y-55583333D01*
X193052616Y-55583333D02*
X193019283Y-55516666D01*
X193019283Y-55516666D02*
X192985950Y-55483333D01*
X192985950Y-55483333D02*
X192919283Y-55449999D01*
X170616666Y-52121283D02*
X171016666Y-52121283D01*
X170816666Y-52821283D02*
X170816666Y-52121283D01*
X171249999Y-52821283D02*
X171249999Y-52121283D01*
X171249999Y-52121283D02*
X171516666Y-52121283D01*
X171516666Y-52121283D02*
X171583333Y-52154616D01*
X171583333Y-52154616D02*
X171616666Y-52187950D01*
X171616666Y-52187950D02*
X171649999Y-52254616D01*
X171649999Y-52254616D02*
X171649999Y-52354616D01*
X171649999Y-52354616D02*
X171616666Y-52421283D01*
X171616666Y-52421283D02*
X171583333Y-52454616D01*
X171583333Y-52454616D02*
X171516666Y-52487950D01*
X171516666Y-52487950D02*
X171249999Y-52487950D01*
X172249999Y-52354616D02*
X172249999Y-52821283D01*
X172083333Y-52087950D02*
X171916666Y-52587950D01*
X171916666Y-52587950D02*
X172349999Y-52587950D01*
X193319283Y-62516666D02*
X192619283Y-62516666D01*
X192619283Y-62516666D02*
X192619283Y-62349999D01*
X192619283Y-62349999D02*
X192652616Y-62249999D01*
X192652616Y-62249999D02*
X192719283Y-62183333D01*
X192719283Y-62183333D02*
X192785950Y-62149999D01*
X192785950Y-62149999D02*
X192919283Y-62116666D01*
X192919283Y-62116666D02*
X193019283Y-62116666D01*
X193019283Y-62116666D02*
X193152616Y-62149999D01*
X193152616Y-62149999D02*
X193219283Y-62183333D01*
X193219283Y-62183333D02*
X193285950Y-62249999D01*
X193285950Y-62249999D02*
X193319283Y-62349999D01*
X193319283Y-62349999D02*
X193319283Y-62516666D01*
X192619283Y-61516666D02*
X192619283Y-61649999D01*
X192619283Y-61649999D02*
X192652616Y-61716666D01*
X192652616Y-61716666D02*
X192685950Y-61749999D01*
X192685950Y-61749999D02*
X192785950Y-61816666D01*
X192785950Y-61816666D02*
X192919283Y-61849999D01*
X192919283Y-61849999D02*
X193185950Y-61849999D01*
X193185950Y-61849999D02*
X193252616Y-61816666D01*
X193252616Y-61816666D02*
X193285950Y-61783333D01*
X193285950Y-61783333D02*
X193319283Y-61716666D01*
X193319283Y-61716666D02*
X193319283Y-61583333D01*
X193319283Y-61583333D02*
X193285950Y-61516666D01*
X193285950Y-61516666D02*
X193252616Y-61483333D01*
X193252616Y-61483333D02*
X193185950Y-61449999D01*
X193185950Y-61449999D02*
X193019283Y-61449999D01*
X193019283Y-61449999D02*
X192952616Y-61483333D01*
X192952616Y-61483333D02*
X192919283Y-61516666D01*
X192919283Y-61516666D02*
X192885950Y-61583333D01*
X192885950Y-61583333D02*
X192885950Y-61716666D01*
X192885950Y-61716666D02*
X192919283Y-61783333D01*
X192919283Y-61783333D02*
X192952616Y-61816666D01*
X192952616Y-61816666D02*
X193019283Y-61849999D01*
X187752616Y-71616666D02*
X187785950Y-71649999D01*
X187785950Y-71649999D02*
X187819283Y-71749999D01*
X187819283Y-71749999D02*
X187819283Y-71816666D01*
X187819283Y-71816666D02*
X187785950Y-71916666D01*
X187785950Y-71916666D02*
X187719283Y-71983333D01*
X187719283Y-71983333D02*
X187652616Y-72016666D01*
X187652616Y-72016666D02*
X187519283Y-72049999D01*
X187519283Y-72049999D02*
X187419283Y-72049999D01*
X187419283Y-72049999D02*
X187285950Y-72016666D01*
X187285950Y-72016666D02*
X187219283Y-71983333D01*
X187219283Y-71983333D02*
X187152616Y-71916666D01*
X187152616Y-71916666D02*
X187119283Y-71816666D01*
X187119283Y-71816666D02*
X187119283Y-71749999D01*
X187119283Y-71749999D02*
X187152616Y-71649999D01*
X187152616Y-71649999D02*
X187185950Y-71616666D01*
X187119283Y-70983333D02*
X187119283Y-71316666D01*
X187119283Y-71316666D02*
X187452616Y-71349999D01*
X187452616Y-71349999D02*
X187419283Y-71316666D01*
X187419283Y-71316666D02*
X187385950Y-71249999D01*
X187385950Y-71249999D02*
X187385950Y-71083333D01*
X187385950Y-71083333D02*
X187419283Y-71016666D01*
X187419283Y-71016666D02*
X187452616Y-70983333D01*
X187452616Y-70983333D02*
X187519283Y-70949999D01*
X187519283Y-70949999D02*
X187685950Y-70949999D01*
X187685950Y-70949999D02*
X187752616Y-70983333D01*
X187752616Y-70983333D02*
X187785950Y-71016666D01*
X187785950Y-71016666D02*
X187819283Y-71083333D01*
X187819283Y-71083333D02*
X187819283Y-71249999D01*
X187819283Y-71249999D02*
X187785950Y-71316666D01*
X187785950Y-71316666D02*
X187752616Y-71349999D01*
X171383333Y-58319283D02*
X171150000Y-57985950D01*
X170983333Y-58319283D02*
X170983333Y-57619283D01*
X170983333Y-57619283D02*
X171250000Y-57619283D01*
X171250000Y-57619283D02*
X171316667Y-57652616D01*
X171316667Y-57652616D02*
X171350000Y-57685950D01*
X171350000Y-57685950D02*
X171383333Y-57752616D01*
X171383333Y-57752616D02*
X171383333Y-57852616D01*
X171383333Y-57852616D02*
X171350000Y-57919283D01*
X171350000Y-57919283D02*
X171316667Y-57952616D01*
X171316667Y-57952616D02*
X171250000Y-57985950D01*
X171250000Y-57985950D02*
X170983333Y-57985950D01*
X171983333Y-57852616D02*
X171983333Y-58319283D01*
X171816667Y-57585950D02*
X171650000Y-58085950D01*
X171650000Y-58085950D02*
X172083333Y-58085950D01*
X175883333Y-53319283D02*
X175650000Y-52985950D01*
X175483333Y-53319283D02*
X175483333Y-52619283D01*
X175483333Y-52619283D02*
X175750000Y-52619283D01*
X175750000Y-52619283D02*
X175816667Y-52652616D01*
X175816667Y-52652616D02*
X175850000Y-52685950D01*
X175850000Y-52685950D02*
X175883333Y-52752616D01*
X175883333Y-52752616D02*
X175883333Y-52852616D01*
X175883333Y-52852616D02*
X175850000Y-52919283D01*
X175850000Y-52919283D02*
X175816667Y-52952616D01*
X175816667Y-52952616D02*
X175750000Y-52985950D01*
X175750000Y-52985950D02*
X175483333Y-52985950D01*
X176150000Y-52685950D02*
X176183333Y-52652616D01*
X176183333Y-52652616D02*
X176250000Y-52619283D01*
X176250000Y-52619283D02*
X176416667Y-52619283D01*
X176416667Y-52619283D02*
X176483333Y-52652616D01*
X176483333Y-52652616D02*
X176516667Y-52685950D01*
X176516667Y-52685950D02*
X176550000Y-52752616D01*
X176550000Y-52752616D02*
X176550000Y-52819283D01*
X176550000Y-52819283D02*
X176516667Y-52919283D01*
X176516667Y-52919283D02*
X176116667Y-53319283D01*
X176116667Y-53319283D02*
X176550000Y-53319283D01*
X170616666Y-70621283D02*
X171016666Y-70621283D01*
X170816666Y-71321283D02*
X170816666Y-70621283D01*
X171249999Y-71321283D02*
X171249999Y-70621283D01*
X171249999Y-70621283D02*
X171516666Y-70621283D01*
X171516666Y-70621283D02*
X171583333Y-70654616D01*
X171583333Y-70654616D02*
X171616666Y-70687950D01*
X171616666Y-70687950D02*
X171649999Y-70754616D01*
X171649999Y-70754616D02*
X171649999Y-70854616D01*
X171649999Y-70854616D02*
X171616666Y-70921283D01*
X171616666Y-70921283D02*
X171583333Y-70954616D01*
X171583333Y-70954616D02*
X171516666Y-70987950D01*
X171516666Y-70987950D02*
X171249999Y-70987950D01*
X172316666Y-71321283D02*
X171916666Y-71321283D01*
X172116666Y-71321283D02*
X172116666Y-70621283D01*
X172116666Y-70621283D02*
X172049999Y-70721283D01*
X172049999Y-70721283D02*
X171983333Y-70787950D01*
X171983333Y-70787950D02*
X171916666Y-70821283D01*
X173883333Y-53252616D02*
X173850000Y-53285950D01*
X173850000Y-53285950D02*
X173750000Y-53319283D01*
X173750000Y-53319283D02*
X173683333Y-53319283D01*
X173683333Y-53319283D02*
X173583333Y-53285950D01*
X173583333Y-53285950D02*
X173516667Y-53219283D01*
X173516667Y-53219283D02*
X173483333Y-53152616D01*
X173483333Y-53152616D02*
X173450000Y-53019283D01*
X173450000Y-53019283D02*
X173450000Y-52919283D01*
X173450000Y-52919283D02*
X173483333Y-52785950D01*
X173483333Y-52785950D02*
X173516667Y-52719283D01*
X173516667Y-52719283D02*
X173583333Y-52652616D01*
X173583333Y-52652616D02*
X173683333Y-52619283D01*
X173683333Y-52619283D02*
X173750000Y-52619283D01*
X173750000Y-52619283D02*
X173850000Y-52652616D01*
X173850000Y-52652616D02*
X173883333Y-52685950D01*
X174550000Y-53319283D02*
X174150000Y-53319283D01*
X174350000Y-53319283D02*
X174350000Y-52619283D01*
X174350000Y-52619283D02*
X174283333Y-52719283D01*
X174283333Y-52719283D02*
X174216667Y-52785950D01*
X174216667Y-52785950D02*
X174150000Y-52819283D01*
X193319283Y-70516666D02*
X192619283Y-70516666D01*
X192619283Y-70516666D02*
X192619283Y-70349999D01*
X192619283Y-70349999D02*
X192652616Y-70249999D01*
X192652616Y-70249999D02*
X192719283Y-70183333D01*
X192719283Y-70183333D02*
X192785950Y-70149999D01*
X192785950Y-70149999D02*
X192919283Y-70116666D01*
X192919283Y-70116666D02*
X193019283Y-70116666D01*
X193019283Y-70116666D02*
X193152616Y-70149999D01*
X193152616Y-70149999D02*
X193219283Y-70183333D01*
X193219283Y-70183333D02*
X193285950Y-70249999D01*
X193285950Y-70249999D02*
X193319283Y-70349999D01*
X193319283Y-70349999D02*
X193319283Y-70516666D01*
X192685950Y-69849999D02*
X192652616Y-69816666D01*
X192652616Y-69816666D02*
X192619283Y-69749999D01*
X192619283Y-69749999D02*
X192619283Y-69583333D01*
X192619283Y-69583333D02*
X192652616Y-69516666D01*
X192652616Y-69516666D02*
X192685950Y-69483333D01*
X192685950Y-69483333D02*
X192752616Y-69449999D01*
X192752616Y-69449999D02*
X192819283Y-69449999D01*
X192819283Y-69449999D02*
X192919283Y-69483333D01*
X192919283Y-69483333D02*
X193319283Y-69883333D01*
X193319283Y-69883333D02*
X193319283Y-69449999D01*
X180752616Y-50616666D02*
X180785950Y-50649999D01*
X180785950Y-50649999D02*
X180819283Y-50749999D01*
X180819283Y-50749999D02*
X180819283Y-50816666D01*
X180819283Y-50816666D02*
X180785950Y-50916666D01*
X180785950Y-50916666D02*
X180719283Y-50983333D01*
X180719283Y-50983333D02*
X180652616Y-51016666D01*
X180652616Y-51016666D02*
X180519283Y-51049999D01*
X180519283Y-51049999D02*
X180419283Y-51049999D01*
X180419283Y-51049999D02*
X180285950Y-51016666D01*
X180285950Y-51016666D02*
X180219283Y-50983333D01*
X180219283Y-50983333D02*
X180152616Y-50916666D01*
X180152616Y-50916666D02*
X180119283Y-50816666D01*
X180119283Y-50816666D02*
X180119283Y-50749999D01*
X180119283Y-50749999D02*
X180152616Y-50649999D01*
X180152616Y-50649999D02*
X180185950Y-50616666D01*
X180185950Y-50349999D02*
X180152616Y-50316666D01*
X180152616Y-50316666D02*
X180119283Y-50249999D01*
X180119283Y-50249999D02*
X180119283Y-50083333D01*
X180119283Y-50083333D02*
X180152616Y-50016666D01*
X180152616Y-50016666D02*
X180185950Y-49983333D01*
X180185950Y-49983333D02*
X180252616Y-49949999D01*
X180252616Y-49949999D02*
X180319283Y-49949999D01*
X180319283Y-49949999D02*
X180419283Y-49983333D01*
X180419283Y-49983333D02*
X180819283Y-50383333D01*
X180819283Y-50383333D02*
X180819283Y-49949999D01*
X178819283Y-60916666D02*
X178485950Y-61149999D01*
X178819283Y-61316666D02*
X178119283Y-61316666D01*
X178119283Y-61316666D02*
X178119283Y-61049999D01*
X178119283Y-61049999D02*
X178152616Y-60983333D01*
X178152616Y-60983333D02*
X178185950Y-60949999D01*
X178185950Y-60949999D02*
X178252616Y-60916666D01*
X178252616Y-60916666D02*
X178352616Y-60916666D01*
X178352616Y-60916666D02*
X178419283Y-60949999D01*
X178419283Y-60949999D02*
X178452616Y-60983333D01*
X178452616Y-60983333D02*
X178485950Y-61049999D01*
X178485950Y-61049999D02*
X178485950Y-61316666D01*
X178119283Y-60716666D02*
X178819283Y-60483333D01*
X178819283Y-60483333D02*
X178119283Y-60249999D01*
X178819283Y-59649999D02*
X178819283Y-60049999D01*
X178819283Y-59849999D02*
X178119283Y-59849999D01*
X178119283Y-59849999D02*
X178219283Y-59916666D01*
X178219283Y-59916666D02*
X178285950Y-59983333D01*
X178285950Y-59983333D02*
X178319283Y-60049999D01*
X177883333Y-53319283D02*
X177650000Y-52985950D01*
X177483333Y-53319283D02*
X177483333Y-52619283D01*
X177483333Y-52619283D02*
X177750000Y-52619283D01*
X177750000Y-52619283D02*
X177816667Y-52652616D01*
X177816667Y-52652616D02*
X177850000Y-52685950D01*
X177850000Y-52685950D02*
X177883333Y-52752616D01*
X177883333Y-52752616D02*
X177883333Y-52852616D01*
X177883333Y-52852616D02*
X177850000Y-52919283D01*
X177850000Y-52919283D02*
X177816667Y-52952616D01*
X177816667Y-52952616D02*
X177750000Y-52985950D01*
X177750000Y-52985950D02*
X177483333Y-52985950D01*
X178550000Y-53319283D02*
X178150000Y-53319283D01*
X178350000Y-53319283D02*
X178350000Y-52619283D01*
X178350000Y-52619283D02*
X178283333Y-52719283D01*
X178283333Y-52719283D02*
X178216667Y-52785950D01*
X178216667Y-52785950D02*
X178150000Y-52819283D01*
X176149999Y-80319283D02*
X176149999Y-79619283D01*
X176149999Y-79619283D02*
X176316666Y-79619283D01*
X176316666Y-79619283D02*
X176416666Y-79652616D01*
X176416666Y-79652616D02*
X176483333Y-79719283D01*
X176483333Y-79719283D02*
X176516666Y-79785950D01*
X176516666Y-79785950D02*
X176549999Y-79919283D01*
X176549999Y-79919283D02*
X176549999Y-80019283D01*
X176549999Y-80019283D02*
X176516666Y-80152616D01*
X176516666Y-80152616D02*
X176483333Y-80219283D01*
X176483333Y-80219283D02*
X176416666Y-80285950D01*
X176416666Y-80285950D02*
X176316666Y-80319283D01*
X176316666Y-80319283D02*
X176149999Y-80319283D01*
X177216666Y-80319283D02*
X176816666Y-80319283D01*
X177016666Y-80319283D02*
X177016666Y-79619283D01*
X177016666Y-79619283D02*
X176949999Y-79719283D01*
X176949999Y-79719283D02*
X176883333Y-79785950D01*
X176883333Y-79785950D02*
X176816666Y-79819283D01*
X177883333Y-80319283D02*
X177483333Y-80319283D01*
X177683333Y-80319283D02*
X177683333Y-79619283D01*
X177683333Y-79619283D02*
X177616666Y-79719283D01*
X177616666Y-79719283D02*
X177550000Y-79785950D01*
X177550000Y-79785950D02*
X177483333Y-79819283D01*
X193319283Y-74116666D02*
X192985950Y-74349999D01*
X193319283Y-74516666D02*
X192619283Y-74516666D01*
X192619283Y-74516666D02*
X192619283Y-74249999D01*
X192619283Y-74249999D02*
X192652616Y-74183333D01*
X192652616Y-74183333D02*
X192685950Y-74149999D01*
X192685950Y-74149999D02*
X192752616Y-74116666D01*
X192752616Y-74116666D02*
X192852616Y-74116666D01*
X192852616Y-74116666D02*
X192919283Y-74149999D01*
X192919283Y-74149999D02*
X192952616Y-74183333D01*
X192952616Y-74183333D02*
X192985950Y-74249999D01*
X192985950Y-74249999D02*
X192985950Y-74516666D01*
X192619283Y-73883333D02*
X192619283Y-73449999D01*
X192619283Y-73449999D02*
X192885950Y-73683333D01*
X192885950Y-73683333D02*
X192885950Y-73583333D01*
X192885950Y-73583333D02*
X192919283Y-73516666D01*
X192919283Y-73516666D02*
X192952616Y-73483333D01*
X192952616Y-73483333D02*
X193019283Y-73449999D01*
X193019283Y-73449999D02*
X193185950Y-73449999D01*
X193185950Y-73449999D02*
X193252616Y-73483333D01*
X193252616Y-73483333D02*
X193285950Y-73516666D01*
X193285950Y-73516666D02*
X193319283Y-73583333D01*
X193319283Y-73583333D02*
X193319283Y-73783333D01*
X193319283Y-73783333D02*
X193285950Y-73849999D01*
X193285950Y-73849999D02*
X193252616Y-73883333D01*
X193319283Y-54850000D02*
X192619283Y-54850000D01*
X192619283Y-54850000D02*
X192619283Y-54683333D01*
X192619283Y-54683333D02*
X192652616Y-54583333D01*
X192652616Y-54583333D02*
X192719283Y-54516667D01*
X192719283Y-54516667D02*
X192785950Y-54483333D01*
X192785950Y-54483333D02*
X192919283Y-54450000D01*
X192919283Y-54450000D02*
X193019283Y-54450000D01*
X193019283Y-54450000D02*
X193152616Y-54483333D01*
X193152616Y-54483333D02*
X193219283Y-54516667D01*
X193219283Y-54516667D02*
X193285950Y-54583333D01*
X193285950Y-54583333D02*
X193319283Y-54683333D01*
X193319283Y-54683333D02*
X193319283Y-54850000D01*
X193319283Y-53783333D02*
X193319283Y-54183333D01*
X193319283Y-53983333D02*
X192619283Y-53983333D01*
X192619283Y-53983333D02*
X192719283Y-54050000D01*
X192719283Y-54050000D02*
X192785950Y-54116667D01*
X192785950Y-54116667D02*
X192819283Y-54183333D01*
X192619283Y-53350000D02*
X192619283Y-53283333D01*
X192619283Y-53283333D02*
X192652616Y-53216666D01*
X192652616Y-53216666D02*
X192685950Y-53183333D01*
X192685950Y-53183333D02*
X192752616Y-53150000D01*
X192752616Y-53150000D02*
X192885950Y-53116666D01*
X192885950Y-53116666D02*
X193052616Y-53116666D01*
X193052616Y-53116666D02*
X193185950Y-53150000D01*
X193185950Y-53150000D02*
X193252616Y-53183333D01*
X193252616Y-53183333D02*
X193285950Y-53216666D01*
X193285950Y-53216666D02*
X193319283Y-53283333D01*
X193319283Y-53283333D02*
X193319283Y-53350000D01*
X193319283Y-53350000D02*
X193285950Y-53416666D01*
X193285950Y-53416666D02*
X193252616Y-53450000D01*
X193252616Y-53450000D02*
X193185950Y-53483333D01*
X193185950Y-53483333D02*
X193052616Y-53516666D01*
X193052616Y-53516666D02*
X192885950Y-53516666D01*
X192885950Y-53516666D02*
X192752616Y-53483333D01*
X192752616Y-53483333D02*
X192685950Y-53450000D01*
X192685950Y-53450000D02*
X192652616Y-53416666D01*
X192652616Y-53416666D02*
X192619283Y-53350000D01*
X178785950Y-68433333D02*
X178819283Y-68333333D01*
X178819283Y-68333333D02*
X178819283Y-68166667D01*
X178819283Y-68166667D02*
X178785950Y-68100000D01*
X178785950Y-68100000D02*
X178752616Y-68066667D01*
X178752616Y-68066667D02*
X178685950Y-68033333D01*
X178685950Y-68033333D02*
X178619283Y-68033333D01*
X178619283Y-68033333D02*
X178552616Y-68066667D01*
X178552616Y-68066667D02*
X178519283Y-68100000D01*
X178519283Y-68100000D02*
X178485950Y-68166667D01*
X178485950Y-68166667D02*
X178452616Y-68300000D01*
X178452616Y-68300000D02*
X178419283Y-68366667D01*
X178419283Y-68366667D02*
X178385950Y-68400000D01*
X178385950Y-68400000D02*
X178319283Y-68433333D01*
X178319283Y-68433333D02*
X178252616Y-68433333D01*
X178252616Y-68433333D02*
X178185950Y-68400000D01*
X178185950Y-68400000D02*
X178152616Y-68366667D01*
X178152616Y-68366667D02*
X178119283Y-68300000D01*
X178119283Y-68300000D02*
X178119283Y-68133333D01*
X178119283Y-68133333D02*
X178152616Y-68033333D01*
X178119283Y-67800000D02*
X178819283Y-67633333D01*
X178819283Y-67633333D02*
X178319283Y-67500000D01*
X178319283Y-67500000D02*
X178819283Y-67366666D01*
X178819283Y-67366666D02*
X178119283Y-67200000D01*
X178819283Y-66566666D02*
X178819283Y-66966666D01*
X178819283Y-66766666D02*
X178119283Y-66766666D01*
X178119283Y-66766666D02*
X178219283Y-66833333D01*
X178219283Y-66833333D02*
X178285950Y-66900000D01*
X178285950Y-66900000D02*
X178319283Y-66966666D01*
X187266666Y-73619283D02*
X187266666Y-74119283D01*
X187266666Y-74119283D02*
X187233333Y-74219283D01*
X187233333Y-74219283D02*
X187166666Y-74285950D01*
X187166666Y-74285950D02*
X187066666Y-74319283D01*
X187066666Y-74319283D02*
X187000000Y-74319283D01*
X187966666Y-74319283D02*
X187566666Y-74319283D01*
X187766666Y-74319283D02*
X187766666Y-73619283D01*
X187766666Y-73619283D02*
X187699999Y-73719283D01*
X187699999Y-73719283D02*
X187633333Y-73785950D01*
X187633333Y-73785950D02*
X187566666Y-73819283D01*
X180752616Y-58616666D02*
X180785950Y-58649999D01*
X180785950Y-58649999D02*
X180819283Y-58749999D01*
X180819283Y-58749999D02*
X180819283Y-58816666D01*
X180819283Y-58816666D02*
X180785950Y-58916666D01*
X180785950Y-58916666D02*
X180719283Y-58983333D01*
X180719283Y-58983333D02*
X180652616Y-59016666D01*
X180652616Y-59016666D02*
X180519283Y-59049999D01*
X180519283Y-59049999D02*
X180419283Y-59049999D01*
X180419283Y-59049999D02*
X180285950Y-59016666D01*
X180285950Y-59016666D02*
X180219283Y-58983333D01*
X180219283Y-58983333D02*
X180152616Y-58916666D01*
X180152616Y-58916666D02*
X180119283Y-58816666D01*
X180119283Y-58816666D02*
X180119283Y-58749999D01*
X180119283Y-58749999D02*
X180152616Y-58649999D01*
X180152616Y-58649999D02*
X180185950Y-58616666D01*
X180119283Y-58383333D02*
X180119283Y-57949999D01*
X180119283Y-57949999D02*
X180385950Y-58183333D01*
X180385950Y-58183333D02*
X180385950Y-58083333D01*
X180385950Y-58083333D02*
X180419283Y-58016666D01*
X180419283Y-58016666D02*
X180452616Y-57983333D01*
X180452616Y-57983333D02*
X180519283Y-57949999D01*
X180519283Y-57949999D02*
X180685950Y-57949999D01*
X180685950Y-57949999D02*
X180752616Y-57983333D01*
X180752616Y-57983333D02*
X180785950Y-58016666D01*
X180785950Y-58016666D02*
X180819283Y-58083333D01*
X180819283Y-58083333D02*
X180819283Y-58283333D01*
X180819283Y-58283333D02*
X180785950Y-58349999D01*
X180785950Y-58349999D02*
X180752616Y-58383333D01*
X193319283Y-64516666D02*
X192619283Y-64516666D01*
X192619283Y-64516666D02*
X192619283Y-64349999D01*
X192619283Y-64349999D02*
X192652616Y-64249999D01*
X192652616Y-64249999D02*
X192719283Y-64183333D01*
X192719283Y-64183333D02*
X192785950Y-64149999D01*
X192785950Y-64149999D02*
X192919283Y-64116666D01*
X192919283Y-64116666D02*
X193019283Y-64116666D01*
X193019283Y-64116666D02*
X193152616Y-64149999D01*
X193152616Y-64149999D02*
X193219283Y-64183333D01*
X193219283Y-64183333D02*
X193285950Y-64249999D01*
X193285950Y-64249999D02*
X193319283Y-64349999D01*
X193319283Y-64349999D02*
X193319283Y-64516666D01*
X192619283Y-63483333D02*
X192619283Y-63816666D01*
X192619283Y-63816666D02*
X192952616Y-63849999D01*
X192952616Y-63849999D02*
X192919283Y-63816666D01*
X192919283Y-63816666D02*
X192885950Y-63749999D01*
X192885950Y-63749999D02*
X192885950Y-63583333D01*
X192885950Y-63583333D02*
X192919283Y-63516666D01*
X192919283Y-63516666D02*
X192952616Y-63483333D01*
X192952616Y-63483333D02*
X193019283Y-63449999D01*
X193019283Y-63449999D02*
X193185950Y-63449999D01*
X193185950Y-63449999D02*
X193252616Y-63483333D01*
X193252616Y-63483333D02*
X193285950Y-63516666D01*
X193285950Y-63516666D02*
X193319283Y-63583333D01*
X193319283Y-63583333D02*
X193319283Y-63749999D01*
X193319283Y-63749999D02*
X193285950Y-63816666D01*
X193285950Y-63816666D02*
X193252616Y-63849999D01*
X178752616Y-71616666D02*
X178785950Y-71649999D01*
X178785950Y-71649999D02*
X178819283Y-71749999D01*
X178819283Y-71749999D02*
X178819283Y-71816666D01*
X178819283Y-71816666D02*
X178785950Y-71916666D01*
X178785950Y-71916666D02*
X178719283Y-71983333D01*
X178719283Y-71983333D02*
X178652616Y-72016666D01*
X178652616Y-72016666D02*
X178519283Y-72049999D01*
X178519283Y-72049999D02*
X178419283Y-72049999D01*
X178419283Y-72049999D02*
X178285950Y-72016666D01*
X178285950Y-72016666D02*
X178219283Y-71983333D01*
X178219283Y-71983333D02*
X178152616Y-71916666D01*
X178152616Y-71916666D02*
X178119283Y-71816666D01*
X178119283Y-71816666D02*
X178119283Y-71749999D01*
X178119283Y-71749999D02*
X178152616Y-71649999D01*
X178152616Y-71649999D02*
X178185950Y-71616666D01*
X178352616Y-71016666D02*
X178819283Y-71016666D01*
X178085950Y-71183333D02*
X178585950Y-71349999D01*
X178585950Y-71349999D02*
X178585950Y-70916666D01*
X193319283Y-60516666D02*
X192619283Y-60516666D01*
X192619283Y-60516666D02*
X192619283Y-60349999D01*
X192619283Y-60349999D02*
X192652616Y-60249999D01*
X192652616Y-60249999D02*
X192719283Y-60183333D01*
X192719283Y-60183333D02*
X192785950Y-60149999D01*
X192785950Y-60149999D02*
X192919283Y-60116666D01*
X192919283Y-60116666D02*
X193019283Y-60116666D01*
X193019283Y-60116666D02*
X193152616Y-60149999D01*
X193152616Y-60149999D02*
X193219283Y-60183333D01*
X193219283Y-60183333D02*
X193285950Y-60249999D01*
X193285950Y-60249999D02*
X193319283Y-60349999D01*
X193319283Y-60349999D02*
X193319283Y-60516666D01*
X192619283Y-59883333D02*
X192619283Y-59416666D01*
X192619283Y-59416666D02*
X193319283Y-59716666D01*
X184966666Y-57619283D02*
X184966666Y-58185950D01*
X184966666Y-58185950D02*
X185000000Y-58252616D01*
X185000000Y-58252616D02*
X185033333Y-58285950D01*
X185033333Y-58285950D02*
X185100000Y-58319283D01*
X185100000Y-58319283D02*
X185233333Y-58319283D01*
X185233333Y-58319283D02*
X185300000Y-58285950D01*
X185300000Y-58285950D02*
X185333333Y-58252616D01*
X185333333Y-58252616D02*
X185366666Y-58185950D01*
X185366666Y-58185950D02*
X185366666Y-57619283D01*
X186066666Y-58319283D02*
X185666666Y-58319283D01*
X185866666Y-58319283D02*
X185866666Y-57619283D01*
X185866666Y-57619283D02*
X185799999Y-57719283D01*
X185799999Y-57719283D02*
X185733333Y-57785950D01*
X185733333Y-57785950D02*
X185666666Y-57819283D01*
X193319283Y-66516666D02*
X192619283Y-66516666D01*
X192619283Y-66516666D02*
X192619283Y-66349999D01*
X192619283Y-66349999D02*
X192652616Y-66249999D01*
X192652616Y-66249999D02*
X192719283Y-66183333D01*
X192719283Y-66183333D02*
X192785950Y-66149999D01*
X192785950Y-66149999D02*
X192919283Y-66116666D01*
X192919283Y-66116666D02*
X193019283Y-66116666D01*
X193019283Y-66116666D02*
X193152616Y-66149999D01*
X193152616Y-66149999D02*
X193219283Y-66183333D01*
X193219283Y-66183333D02*
X193285950Y-66249999D01*
X193285950Y-66249999D02*
X193319283Y-66349999D01*
X193319283Y-66349999D02*
X193319283Y-66516666D01*
X192852616Y-65516666D02*
X193319283Y-65516666D01*
X192585950Y-65683333D02*
X193085950Y-65849999D01*
X193085950Y-65849999D02*
X193085950Y-65416666D01*
X177116666Y-47121283D02*
X177516666Y-47121283D01*
X177316666Y-47821283D02*
X177316666Y-47121283D01*
X177749999Y-47821283D02*
X177749999Y-47121283D01*
X177749999Y-47121283D02*
X178016666Y-47121283D01*
X178016666Y-47121283D02*
X178083333Y-47154616D01*
X178083333Y-47154616D02*
X178116666Y-47187950D01*
X178116666Y-47187950D02*
X178149999Y-47254616D01*
X178149999Y-47254616D02*
X178149999Y-47354616D01*
X178149999Y-47354616D02*
X178116666Y-47421283D01*
X178116666Y-47421283D02*
X178083333Y-47454616D01*
X178083333Y-47454616D02*
X178016666Y-47487950D01*
X178016666Y-47487950D02*
X177749999Y-47487950D01*
X178383333Y-47121283D02*
X178816666Y-47121283D01*
X178816666Y-47121283D02*
X178583333Y-47387950D01*
X178583333Y-47387950D02*
X178683333Y-47387950D01*
X178683333Y-47387950D02*
X178749999Y-47421283D01*
X178749999Y-47421283D02*
X178783333Y-47454616D01*
X178783333Y-47454616D02*
X178816666Y-47521283D01*
X178816666Y-47521283D02*
X178816666Y-47687950D01*
X178816666Y-47687950D02*
X178783333Y-47754616D01*
X178783333Y-47754616D02*
X178749999Y-47787950D01*
X178749999Y-47787950D02*
X178683333Y-47821283D01*
X178683333Y-47821283D02*
X178483333Y-47821283D01*
X178483333Y-47821283D02*
X178416666Y-47787950D01*
X178416666Y-47787950D02*
X178383333Y-47754616D01*
X193319283Y-68516666D02*
X192619283Y-68516666D01*
X192619283Y-68516666D02*
X192619283Y-68349999D01*
X192619283Y-68349999D02*
X192652616Y-68249999D01*
X192652616Y-68249999D02*
X192719283Y-68183333D01*
X192719283Y-68183333D02*
X192785950Y-68149999D01*
X192785950Y-68149999D02*
X192919283Y-68116666D01*
X192919283Y-68116666D02*
X193019283Y-68116666D01*
X193019283Y-68116666D02*
X193152616Y-68149999D01*
X193152616Y-68149999D02*
X193219283Y-68183333D01*
X193219283Y-68183333D02*
X193285950Y-68249999D01*
X193285950Y-68249999D02*
X193319283Y-68349999D01*
X193319283Y-68349999D02*
X193319283Y-68516666D01*
X192619283Y-67883333D02*
X192619283Y-67449999D01*
X192619283Y-67449999D02*
X192885950Y-67683333D01*
X192885950Y-67683333D02*
X192885950Y-67583333D01*
X192885950Y-67583333D02*
X192919283Y-67516666D01*
X192919283Y-67516666D02*
X192952616Y-67483333D01*
X192952616Y-67483333D02*
X193019283Y-67449999D01*
X193019283Y-67449999D02*
X193185950Y-67449999D01*
X193185950Y-67449999D02*
X193252616Y-67483333D01*
X193252616Y-67483333D02*
X193285950Y-67516666D01*
X193285950Y-67516666D02*
X193319283Y-67583333D01*
X193319283Y-67583333D02*
X193319283Y-67783333D01*
X193319283Y-67783333D02*
X193285950Y-67849999D01*
X193285950Y-67849999D02*
X193252616Y-67883333D01*
X193319283Y-72516666D02*
X192619283Y-72516666D01*
X192619283Y-72516666D02*
X192619283Y-72349999D01*
X192619283Y-72349999D02*
X192652616Y-72249999D01*
X192652616Y-72249999D02*
X192719283Y-72183333D01*
X192719283Y-72183333D02*
X192785950Y-72149999D01*
X192785950Y-72149999D02*
X192919283Y-72116666D01*
X192919283Y-72116666D02*
X193019283Y-72116666D01*
X193019283Y-72116666D02*
X193152616Y-72149999D01*
X193152616Y-72149999D02*
X193219283Y-72183333D01*
X193219283Y-72183333D02*
X193285950Y-72249999D01*
X193285950Y-72249999D02*
X193319283Y-72349999D01*
X193319283Y-72349999D02*
X193319283Y-72516666D01*
X193319283Y-71449999D02*
X193319283Y-71849999D01*
X193319283Y-71649999D02*
X192619283Y-71649999D01*
X192619283Y-71649999D02*
X192719283Y-71716666D01*
X192719283Y-71716666D02*
X192785950Y-71783333D01*
X192785950Y-71783333D02*
X192819283Y-71849999D01*
X170616666Y-64121283D02*
X171016666Y-64121283D01*
X170816666Y-64821283D02*
X170816666Y-64121283D01*
X171249999Y-64821283D02*
X171249999Y-64121283D01*
X171249999Y-64121283D02*
X171516666Y-64121283D01*
X171516666Y-64121283D02*
X171583333Y-64154616D01*
X171583333Y-64154616D02*
X171616666Y-64187950D01*
X171616666Y-64187950D02*
X171649999Y-64254616D01*
X171649999Y-64254616D02*
X171649999Y-64354616D01*
X171649999Y-64354616D02*
X171616666Y-64421283D01*
X171616666Y-64421283D02*
X171583333Y-64454616D01*
X171583333Y-64454616D02*
X171516666Y-64487950D01*
X171516666Y-64487950D02*
X171249999Y-64487950D01*
X171916666Y-64187950D02*
X171949999Y-64154616D01*
X171949999Y-64154616D02*
X172016666Y-64121283D01*
X172016666Y-64121283D02*
X172183333Y-64121283D01*
X172183333Y-64121283D02*
X172249999Y-64154616D01*
X172249999Y-64154616D02*
X172283333Y-64187950D01*
X172283333Y-64187950D02*
X172316666Y-64254616D01*
X172316666Y-64254616D02*
X172316666Y-64321283D01*
X172316666Y-64321283D02*
X172283333Y-64421283D01*
X172283333Y-64421283D02*
X171883333Y-64821283D01*
X171883333Y-64821283D02*
X172316666Y-64821283D01*
%TO.C,U2*%
D13*
X180940000Y-59940000D02*
X185060000Y-59940000D01*
X180940000Y-59995000D02*
X180940000Y-59940000D01*
X180940000Y-70060000D02*
X180940000Y-70005000D01*
X185060000Y-59940000D02*
X185060000Y-59995000D01*
X185060000Y-70005000D02*
X185060000Y-70060000D01*
X185060000Y-70060000D02*
X180940000Y-70060000D01*
X185600000Y-70010000D02*
X185840000Y-70340000D01*
X185360000Y-70340000D01*
X185600000Y-70010000D01*
G36*
X185840000Y-70340000D02*
G01*
X185360000Y-70340000D01*
X185600000Y-70010000D01*
X185840000Y-70340000D01*
G37*
%TO.C,D8*%
X189500000Y-58960000D02*
X192360000Y-58960000D01*
X192360000Y-57040000D02*
X189500000Y-57040000D01*
X192360000Y-58960000D02*
X192360000Y-57040000D01*
%TO.C,D9*%
X189500000Y-56960000D02*
X192360000Y-56960000D01*
X192360000Y-55040000D02*
X189500000Y-55040000D01*
X192360000Y-56960000D02*
X192360000Y-55040000D01*
%TO.C,TP4*%
X172700000Y-54500000D02*
G75*
G02*
X170300000Y-54500000I-1200000J0D01*
G01*
X170300000Y-54500000D02*
G75*
G02*
X172700000Y-54500000I1200000J0D01*
G01*
%TO.C,D6*%
X189500000Y-62960000D02*
X192360000Y-62960000D01*
X192360000Y-61040000D02*
X189500000Y-61040000D01*
X192360000Y-62960000D02*
X192360000Y-61040000D01*
%TO.C,C5*%
X184701248Y-70765000D02*
X185223752Y-70765000D01*
X184701248Y-72235000D02*
X185223752Y-72235000D01*
%TO.C,R4*%
X170765000Y-60272936D02*
X170765000Y-60727064D01*
X172235000Y-60272936D02*
X172235000Y-60727064D01*
%TO.C,R2*%
X175265000Y-55272936D02*
X175265000Y-55727064D01*
X176735000Y-55272936D02*
X176735000Y-55727064D01*
%TO.C,TP1*%
X172700000Y-73000000D02*
G75*
G02*
X170300000Y-73000000I-1200000J0D01*
G01*
X170300000Y-73000000D02*
G75*
G02*
X172700000Y-73000000I1200000J0D01*
G01*
%TO.C,C1*%
X173265000Y-55238748D02*
X173265000Y-55761252D01*
X174735000Y-55238748D02*
X174735000Y-55761252D01*
%TO.C,D2*%
X189500000Y-70960000D02*
X192360000Y-70960000D01*
X192360000Y-69040000D02*
X189500000Y-69040000D01*
X192360000Y-70960000D02*
X192360000Y-69040000D01*
%TO.C,C2*%
X182738748Y-49765000D02*
X183261252Y-49765000D01*
X182738748Y-51235000D02*
X183261252Y-51235000D01*
%TO.C,RV1*%
X172900000Y-58700000D02*
X172900000Y-59400000D01*
X173400000Y-60300000D02*
X173400000Y-60700000D01*
X173600000Y-58700000D02*
X172900000Y-58700000D01*
X174500000Y-58900000D02*
X177400000Y-58900000D01*
X174500000Y-62100000D02*
X177400000Y-62100000D01*
X177400000Y-58900000D02*
X177400000Y-59500000D01*
X177400000Y-62100000D02*
X177400000Y-61500000D01*
%TO.C,R1*%
X177265000Y-55727064D02*
X177265000Y-55272936D01*
X178735000Y-55727064D02*
X178735000Y-55272936D01*
%TO.C,D11*%
X176150000Y-75940000D02*
X176150000Y-78600000D01*
X177850000Y-75940000D02*
X176150000Y-75940000D01*
X177850000Y-75940000D02*
X177850000Y-78600000D01*
%TO.C,R3*%
X190727064Y-73265000D02*
X190272936Y-73265000D01*
X190727064Y-74735000D02*
X190272936Y-74735000D01*
%TO.C,D10*%
X189475000Y-54960000D02*
X192335000Y-54960000D01*
X192335000Y-53040000D02*
X189475000Y-53040000D01*
X192335000Y-54960000D02*
X192335000Y-53040000D01*
%TO.C,SW1*%
X173150000Y-72150000D02*
X173150000Y-70767000D01*
X173150000Y-72150000D02*
X174533000Y-72150000D01*
X173390000Y-65090000D02*
X174700000Y-65090000D01*
X173390000Y-71910000D02*
X173390000Y-65090000D01*
X173390000Y-71910000D02*
X174700000Y-71910000D01*
X174865000Y-69103333D02*
X176135000Y-69103333D01*
X176300000Y-65090000D02*
X177610000Y-65090000D01*
X176300000Y-71910000D02*
X177610000Y-71910000D01*
X177610000Y-71910000D02*
X177610000Y-65090000D01*
X174865000Y-66690000D02*
X176135000Y-66690000D01*
X176135000Y-70310000D01*
X174865000Y-70310000D01*
X174865000Y-66690000D01*
X174865000Y-69103333D02*
X176135000Y-69103333D01*
X176135000Y-70310000D01*
X174865000Y-70310000D01*
X174865000Y-69103333D01*
G36*
X174865000Y-69103333D02*
G01*
X176135000Y-69103333D01*
X176135000Y-70310000D01*
X174865000Y-70310000D01*
X174865000Y-69103333D01*
G37*
%TO.C,J1*%
X178700000Y-77225000D02*
X179450000Y-77225000D01*
X179450000Y-74275000D02*
X182500000Y-74275000D01*
X179450000Y-77225000D02*
X179450000Y-74275000D01*
X185350000Y-79775000D02*
X186600000Y-79775000D01*
X185550000Y-74275000D02*
X182500000Y-74275000D01*
X185550000Y-77225000D02*
X185550000Y-74275000D01*
X186300000Y-77225000D02*
X185550000Y-77225000D01*
X186600000Y-79775000D02*
X186600000Y-78525000D01*
X178700000Y-78725000D02*
X180500000Y-78725000D01*
X180500000Y-79475000D01*
X178700000Y-79475000D01*
X178700000Y-78725000D01*
X182000000Y-78725000D02*
X183000000Y-78725000D01*
X183000000Y-79475000D01*
X182000000Y-79475000D01*
X182000000Y-78725000D01*
X184500000Y-78725000D02*
X186300000Y-78725000D01*
X186300000Y-79475000D01*
X184500000Y-79475000D01*
X184500000Y-78725000D01*
X178690000Y-73515000D02*
X186310000Y-73515000D01*
X186310000Y-79485000D01*
X178690000Y-79485000D01*
X178690000Y-73515000D01*
%TO.C,C3*%
X182738748Y-57765000D02*
X183261252Y-57765000D01*
X182738748Y-59235000D02*
X183261252Y-59235000D01*
%TO.C,D5*%
X189500000Y-64960000D02*
X192360000Y-64960000D01*
X192360000Y-63040000D02*
X189500000Y-63040000D01*
X192360000Y-64960000D02*
X192360000Y-63040000D01*
%TO.C,C4*%
X181261252Y-70765000D02*
X180738748Y-70765000D01*
X181261252Y-72235000D02*
X180738748Y-72235000D01*
%TO.C,D7*%
X189500000Y-60960000D02*
X192360000Y-60960000D01*
X192360000Y-59040000D02*
X189500000Y-59040000D01*
X192360000Y-60960000D02*
X192360000Y-59040000D01*
%TO.C,U1*%
X180940000Y-51940000D02*
X185060000Y-51940000D01*
X180940000Y-52035000D02*
X180940000Y-51940000D01*
X180940000Y-57060000D02*
X180940000Y-56965000D01*
X185060000Y-51940000D02*
X185060000Y-52035000D01*
X185060000Y-56965000D02*
X185060000Y-57060000D01*
X185060000Y-57060000D02*
X180940000Y-57060000D01*
X185600000Y-56970000D02*
X185840000Y-57300000D01*
X185360000Y-57300000D01*
X185600000Y-56970000D01*
G36*
X185840000Y-57300000D02*
G01*
X185360000Y-57300000D01*
X185600000Y-56970000D01*
X185840000Y-57300000D01*
G37*
%TO.C,D4*%
X189500000Y-66960000D02*
X192360000Y-66960000D01*
X192360000Y-65040000D02*
X189500000Y-65040000D01*
X192360000Y-66960000D02*
X192360000Y-65040000D01*
%TO.C,TP3*%
X179200000Y-49500000D02*
G75*
G02*
X176800000Y-49500000I-1200000J0D01*
G01*
X176800000Y-49500000D02*
G75*
G02*
X179200000Y-49500000I1200000J0D01*
G01*
%TO.C,D3*%
X189500000Y-68960000D02*
X192360000Y-68960000D01*
X192360000Y-67040000D02*
X189500000Y-67040000D01*
X192360000Y-68960000D02*
X192360000Y-67040000D01*
%TO.C,D1*%
X189500000Y-72960000D02*
X192360000Y-72960000D01*
X192360000Y-71040000D02*
X189500000Y-71040000D01*
X192360000Y-72960000D02*
X192360000Y-71040000D01*
%TO.C,TP2*%
X172700000Y-66500000D02*
G75*
G02*
X170300000Y-66500000I-1200000J0D01*
G01*
X170300000Y-66500000D02*
G75*
G02*
X172700000Y-66500000I1200000J0D01*
G01*
%TD*%
%LPC*%
D14*
%TO.C,U2*%
X185475000Y-69445000D03*
X185475000Y-68175000D03*
X185475000Y-66905000D03*
X185475000Y-65635000D03*
X185475000Y-64365000D03*
X185475000Y-63095000D03*
X185475000Y-61825000D03*
X185475000Y-60555000D03*
X180525000Y-60555000D03*
X180525000Y-61825000D03*
X180525000Y-63095000D03*
X180525000Y-64365000D03*
X180525000Y-65635000D03*
X180525000Y-66905000D03*
X180525000Y-68175000D03*
X180525000Y-69445000D03*
%TD*%
D15*
%TO.C,D8*%
X191525000Y-58000000D03*
X189475000Y-58000000D03*
%TD*%
D16*
%TO.C,H1*%
X190500000Y-78500000D03*
%TD*%
%TO.C,H2*%
X190500000Y-49500000D03*
%TD*%
D15*
%TO.C,D9*%
X191525000Y-56000000D03*
X189475000Y-56000000D03*
%TD*%
D17*
%TO.C,TP4*%
X171500000Y-54500000D03*
%TD*%
D15*
%TO.C,D6*%
X191525000Y-62000000D03*
X189475000Y-62000000D03*
%TD*%
D18*
%TO.C,C5*%
X183925000Y-71500000D03*
X186000000Y-71500000D03*
%TD*%
D19*
%TO.C,R4*%
X171500000Y-59500000D03*
X171500000Y-61500000D03*
%TD*%
%TO.C,R2*%
X176000000Y-54500000D03*
X176000000Y-56500000D03*
%TD*%
D17*
%TO.C,TP1*%
X171500000Y-73000000D03*
%TD*%
D20*
%TO.C,C1*%
X174000000Y-54462500D03*
X174000000Y-56537500D03*
%TD*%
D15*
%TO.C,D2*%
X191525000Y-70000000D03*
X189475000Y-70000000D03*
%TD*%
D18*
%TO.C,C2*%
X181962500Y-50500000D03*
X184037500Y-50500000D03*
%TD*%
D16*
%TO.C,H3*%
X172500000Y-49500000D03*
%TD*%
D21*
%TO.C,RV1*%
X173700000Y-59500000D03*
D22*
X176950000Y-60500000D03*
D21*
X173700000Y-61500000D03*
%TD*%
D23*
%TO.C,R1*%
X178000000Y-56500000D03*
X178000000Y-54500000D03*
%TD*%
D24*
%TO.C,D11*%
X177000000Y-76500000D03*
X177000000Y-78600000D03*
%TD*%
D25*
%TO.C,R3*%
X191500000Y-74000000D03*
X189500000Y-74000000D03*
%TD*%
D15*
%TO.C,D10*%
X191500000Y-54000000D03*
X189450000Y-54000000D03*
%TD*%
D26*
%TO.C,SW1*%
X175500000Y-72805000D03*
X175500000Y-64195000D03*
%TD*%
D27*
%TO.C,J1*%
X183750000Y-77025000D03*
D28*
X181250000Y-77025000D03*
%TD*%
D18*
%TO.C,C3*%
X181962500Y-58500000D03*
X184037500Y-58500000D03*
%TD*%
D15*
%TO.C,D5*%
X191525000Y-64000000D03*
X189475000Y-64000000D03*
%TD*%
D29*
%TO.C,C4*%
X182037500Y-71500000D03*
X179962500Y-71500000D03*
%TD*%
D15*
%TO.C,D7*%
X191525000Y-60000000D03*
X189475000Y-60000000D03*
%TD*%
D14*
%TO.C,U1*%
X185475000Y-56405000D03*
X185475000Y-55135000D03*
X185475000Y-53865000D03*
X185475000Y-52595000D03*
X180525000Y-52595000D03*
X180525000Y-53865000D03*
X180525000Y-55135000D03*
X180525000Y-56405000D03*
%TD*%
D15*
%TO.C,D4*%
X191525000Y-66000000D03*
X189475000Y-66000000D03*
%TD*%
D17*
%TO.C,TP3*%
X178000000Y-49500000D03*
%TD*%
D15*
%TO.C,D3*%
X191525000Y-68000000D03*
X189475000Y-68000000D03*
%TD*%
%TO.C,D1*%
X191525000Y-72000000D03*
X189475000Y-72000000D03*
%TD*%
D17*
%TO.C,TP2*%
X171500000Y-66500000D03*
%TD*%
D16*
%TO.C,H4*%
X172500000Y-78500000D03*
%TD*%
%LPD*%
M02*
