%TF.GenerationSoftware,KiCad,Pcbnew,10.0.4*%
%TF.CreationDate,2026-09-11T11:08:14+02:00*%
%TF.ProjectId,led_chaser_SMD,6c65645f-6368-4617-9365-725f534d442e,rev?*%
%TF.SameCoordinates,Original*%
%TF.FileFunction,Soldermask,Top*%
%TF.FilePolarity,Negative*%
%FSLAX46Y46*%
G04 Gerber Fmt 4.6, Leading zero omitted, Abs format (unit mm)*
G04 Created by KiCad (PCBNEW 10.0.4) date 2026-09-11 11:08:14*
%MOMM*%
%LPD*%
G01*
G04 APERTURE LIST*
G04 Aperture macros list*
%AMRoundRect*
0 Rectangle with rounded corners*
0 $1 Rounding radius*
0 $2 $3 $4 $5 $6 $7 $8 $9 X,Y pos of 4 corners*
0 Add a 4 corners polygon primitive as box body*
4,1,4,$2,$3,$4,$5,$6,$7,$8,$9,$2,$3,0*
0 Add four circle primitives for the rounded corners*
1,1,$1+$1,$2,$3*
1,1,$1+$1,$4,$5*
1,1,$1+$1,$6,$7*
1,1,$1+$1,$8,$9*
0 Add four rect primitives between the rounded corners*
20,1,$1+$1,$2,$3,$4,$5,0*
20,1,$1+$1,$4,$5,$6,$7,0*
20,1,$1+$1,$6,$7,$8,$9,0*
20,1,$1+$1,$8,$9,$2,$3,0*%
G04 Aperture macros list end*
%ADD10RoundRect,0.150000X0.825000X0.150000X-0.825000X0.150000X-0.825000X-0.150000X0.825000X-0.150000X0*%
%ADD11RoundRect,0.250000X0.325000X0.450000X-0.325000X0.450000X-0.325000X-0.450000X0.325000X-0.450000X0*%
%ADD12C,2.000000*%
%ADD13RoundRect,0.250000X-0.337500X-0.475000X0.337500X-0.475000X0.337500X0.475000X-0.337500X0.475000X0*%
%ADD14RoundRect,0.250000X-0.450000X0.350000X-0.450000X-0.350000X0.450000X-0.350000X0.450000X0.350000X0*%
%ADD15RoundRect,0.250000X-0.475000X0.337500X-0.475000X-0.337500X0.475000X-0.337500X0.475000X0.337500X0*%
%ADD16R,1.200000X1.200000*%
%ADD17R,1.500000X1.600000*%
%ADD18RoundRect,0.250000X0.450000X-0.350000X0.450000X0.350000X-0.450000X0.350000X-0.450000X-0.350000X0*%
%ADD19RoundRect,0.112500X-0.112500X0.187500X-0.112500X-0.187500X0.112500X-0.187500X0.112500X0.187500X0*%
%ADD20RoundRect,0.250000X0.350000X0.450000X-0.350000X0.450000X-0.350000X-0.450000X0.350000X-0.450000X0*%
%ADD21RoundRect,0.250000X0.310000X-0.970000X0.310000X0.970000X-0.310000X0.970000X-0.310000X-0.970000X0*%
%ADD22RoundRect,0.250000X0.600000X0.750000X-0.600000X0.750000X-0.600000X-0.750000X0.600000X-0.750000X0*%
%ADD23O,1.700000X2.000000*%
%ADD24RoundRect,0.250000X0.337500X0.475000X-0.337500X0.475000X-0.337500X-0.475000X0.337500X-0.475000X0*%
G04 APERTURE END LIST*
D10*
%TO.C,U2*%
X185475000Y-69445000D03*
X185475000Y-68175000D03*
X185475000Y-66905000D03*
X185475000Y-65635000D03*
X185475000Y-64365000D03*
X185475000Y-63095000D03*
X185475000Y-61825000D03*
X185475000Y-60555000D03*
X180525000Y-60555000D03*
X180525000Y-61825000D03*
X180525000Y-63095000D03*
X180525000Y-64365000D03*
X180525000Y-65635000D03*
X180525000Y-66905000D03*
X180525000Y-68175000D03*
X180525000Y-69445000D03*
%TD*%
D11*
%TO.C,D8*%
X191525000Y-58000000D03*
X189475000Y-58000000D03*
%TD*%
%TO.C,D9*%
X191525000Y-56000000D03*
X189475000Y-56000000D03*
%TD*%
D12*
%TO.C,TP4*%
X171500000Y-54500000D03*
%TD*%
D11*
%TO.C,D6*%
X191525000Y-62000000D03*
X189475000Y-62000000D03*
%TD*%
D13*
%TO.C,C5*%
X183925000Y-71500000D03*
X186000000Y-71500000D03*
%TD*%
D14*
%TO.C,R4*%
X171500000Y-59500000D03*
X171500000Y-61500000D03*
%TD*%
%TO.C,R2*%
X176000000Y-54500000D03*
X176000000Y-56500000D03*
%TD*%
D12*
%TO.C,TP1*%
X171500000Y-73000000D03*
%TD*%
D15*
%TO.C,C1*%
X174000000Y-54462500D03*
X174000000Y-56537500D03*
%TD*%
D11*
%TO.C,D2*%
X191525000Y-70000000D03*
X189475000Y-70000000D03*
%TD*%
D13*
%TO.C,C2*%
X181962500Y-50500000D03*
X184037500Y-50500000D03*
%TD*%
D16*
%TO.C,RV1*%
X173700000Y-59500000D03*
D17*
X176950000Y-60500000D03*
D16*
X173700000Y-61500000D03*
%TD*%
D18*
%TO.C,R1*%
X178000000Y-56500000D03*
X178000000Y-54500000D03*
%TD*%
D19*
%TO.C,D11*%
X177000000Y-76500000D03*
X177000000Y-78600000D03*
%TD*%
D20*
%TO.C,R3*%
X191500000Y-74000000D03*
X189500000Y-74000000D03*
%TD*%
D11*
%TO.C,D10*%
X191500000Y-54000000D03*
X189450000Y-54000000D03*
%TD*%
D21*
%TO.C,SW1*%
X175500000Y-72805000D03*
X175500000Y-64195000D03*
%TD*%
D22*
%TO.C,J1*%
X183750000Y-77025000D03*
D23*
X181250000Y-77025000D03*
%TD*%
D13*
%TO.C,C3*%
X181962500Y-58500000D03*
X184037500Y-58500000D03*
%TD*%
D11*
%TO.C,D5*%
X191525000Y-64000000D03*
X189475000Y-64000000D03*
%TD*%
D24*
%TO.C,C4*%
X182037500Y-71500000D03*
X179962500Y-71500000D03*
%TD*%
D11*
%TO.C,D7*%
X191525000Y-60000000D03*
X189475000Y-60000000D03*
%TD*%
D10*
%TO.C,U1*%
X185475000Y-56405000D03*
X185475000Y-55135000D03*
X185475000Y-53865000D03*
X185475000Y-52595000D03*
X180525000Y-52595000D03*
X180525000Y-53865000D03*
X180525000Y-55135000D03*
X180525000Y-56405000D03*
%TD*%
D11*
%TO.C,D4*%
X191525000Y-66000000D03*
X189475000Y-66000000D03*
%TD*%
D12*
%TO.C,TP3*%
X178000000Y-49500000D03*
%TD*%
D11*
%TO.C,D3*%
X191525000Y-68000000D03*
X189475000Y-68000000D03*
%TD*%
%TO.C,D1*%
X191525000Y-72000000D03*
X189475000Y-72000000D03*
%TD*%
D12*
%TO.C,TP2*%
X171500000Y-66500000D03*
%TD*%
M02*
