M48
; DRILL file KiCad 10.0.4 date 2026-09-11T11:08:14
; FORMAT={-:-/ absolute / inch / decimal}
; #@! TF.CreationDate,2026-09-11T11:08:14+02:00
; #@! TF.GenerationSoftware,Kicad,Pcbnew,10.0.4
; #@! TF.FileFunction,Plated,1,2,PTH
FMAT,2
INCH
; #@! TA.AperFunction,Plated,PTH,ViaDrill
T1C0.0118
; #@! TA.AperFunction,Plated,PTH,ComponentDrill
T2C0.0394
%
G90
G05
T1
X6.752Y-2.3031
X6.8209Y-2.6181
X6.8504Y-2.2736
X6.9104Y-2.3041
X6.9685Y-2.8642
X6.9882Y-2.5787
X7.0374Y-2.815
X7.0551Y-2.5591
X7.1565Y-2.4321
X7.1654Y-2.6772
X7.185Y-2.1063
X7.1978Y-2.4576
X7.2047Y-2.333
X7.2244Y-2.0374
X7.2362Y-2.3858
X7.2441Y-2.189
X7.2441Y-2.2539
X7.2844Y-2.3368
X7.3031Y-2.2539
X7.3543Y-2.7323
X7.3622Y-2.3524
X7.3657Y-2.4926
X7.372Y-2.815
X7.4016Y-2.4567
X7.4114Y-2.9134
X7.4173Y-2.5197
X7.4979Y-2.7099
T2
X7.1358Y-3.0325
X7.2343Y-3.0325
M30
